# Blender v2.79 (sub 0) OBJ File: 'famciom.blend'
# www.blender.org
mtllib black.mtl
o black_Cube.013
v 2.717335 1.807670 2.113129
v 2.717335 1.788545 2.113129
v 2.717335 1.807670 2.445347
v 2.717335 1.788545 2.445347
v 2.717335 1.807670 1.843961
v 2.717335 1.788545 1.843961
v 2.717335 1.807670 0.155447
v 2.717335 1.788545 0.150357
v 2.717335 1.807670 -0.230058
v 2.717335 1.788545 -0.225418
v 2.717335 1.807670 -0.326088
v 2.717335 1.788545 -0.330728
v 2.717335 1.807670 -0.707396
v 2.717335 1.788545 -0.702170
v 2.717335 1.807670 -0.834533
v 2.717335 1.788545 -0.834533
v 2.717335 1.762586 2.113129
v 2.717335 1.743461 2.113129
v 2.717335 1.762586 2.445347
v 2.717335 1.743461 2.445347
v 2.717335 1.762586 1.843961
v 2.717335 1.743461 1.843961
v 2.717335 1.762586 0.143365
v 2.717335 1.743461 0.138275
v 2.717335 1.762586 -0.218334
v 2.717335 1.743461 -0.212561
v 2.717335 1.762586 -0.337812
v 2.717335 1.743461 -0.343585
v 2.717335 1.762586 -0.695288
v 2.717335 1.743461 -0.690059
v 2.717335 1.762586 -0.834533
v 2.717335 1.743461 -0.834533
v 2.717306 1.788795 1.443157
v 2.717412 1.807670 1.443115
v 2.717346 1.807670 0.337614
v 2.717331 1.788580 0.337772
v 2.717335 1.743461 1.431946
v 2.717335 1.762586 1.443152
v 2.717335 1.762586 0.337975
v 2.717335 1.743461 0.348454
v 2.701274 1.840592 -0.693263
v 2.701274 1.928596 -0.669682
v 2.701274 1.993019 -0.605259
v 2.701274 2.016599 -0.517256
v 2.701274 1.993018 -0.429253
v 2.701274 1.928596 -0.364830
v 2.701274 1.840592 -0.341249
v 2.701274 1.752589 -0.364830
v 2.701274 1.688166 -0.429253
v 2.701274 1.664586 -0.517256
v 2.701274 1.688166 -0.605259
v 2.701274 1.752589 -0.669682
v 2.766151 1.928596 -0.669682
v 2.766151 1.840592 -0.693263
v 2.766151 1.993019 -0.605259
v 2.766151 2.016599 -0.517256
v 2.766151 1.993018 -0.429253
v 2.766151 1.928596 -0.364830
v 2.766151 1.840592 -0.341249
v 2.766151 1.752589 -0.364830
v 2.766151 1.688166 -0.429253
v 2.766151 1.664586 -0.517256
v 2.766151 1.688166 -0.605259
v 2.766151 1.752589 -0.669682
v 2.701274 1.840592 -0.215266
v 2.701274 1.928596 -0.191685
v 2.701274 1.993019 -0.127262
v 2.701274 2.016599 -0.039259
v 2.701274 1.993018 0.048744
v 2.701274 1.928596 0.113167
v 2.701274 1.840592 0.136748
v 2.701274 1.752589 0.113167
v 2.701274 1.688166 0.048744
v 2.701274 1.664586 -0.039259
v 2.701274 1.688166 -0.127262
v 2.701274 1.752589 -0.191685
v 2.766151 1.928596 -0.191685
v 2.766151 1.840592 -0.215266
v 2.766151 1.993019 -0.127262
v 2.766151 2.016599 -0.039259
v 2.766151 1.993018 0.048744
v 2.766151 1.928596 0.113167
v 2.766151 1.840592 0.136748
v 2.766151 1.752589 0.113167
v 2.766151 1.688166 0.048744
v 2.766151 1.664586 -0.039259
v 2.766151 1.688166 -0.127262
v 2.766151 1.752589 -0.191685
v 2.663927 1.861747 1.250136
v 2.663927 1.829804 1.305464
v 2.663927 1.765916 1.305464
v 2.663927 1.733973 1.250136
v 2.663927 1.829804 0.976299
v 2.663927 1.861747 1.031626
v 2.663927 1.733973 1.031626
v 2.663927 1.765916 0.976299
v 2.751015 1.861747 1.250136
v 2.751015 1.829804 1.305464
v 2.751015 1.765916 1.305464
v 2.751015 1.733973 1.250136
v 2.751016 1.829804 0.976299
v 2.751016 1.861747 1.031626
v 2.751016 1.733973 1.031626
v 2.751016 1.765916 0.976299
v 2.663927 1.861747 0.736624
v 2.663927 1.829804 0.791952
v 2.663927 1.765916 0.791952
v 2.663927 1.733973 0.736624
v 2.663927 1.829804 0.462786
v 2.663927 1.861747 0.518114
v 2.663927 1.733973 0.518114
v 2.663927 1.765916 0.462786
v 2.751016 1.861747 0.736624
v 2.751016 1.829804 0.791952
v 2.751016 1.765916 0.791952
v 2.751016 1.733973 0.736624
v 2.751016 1.829804 0.462786
v 2.751016 1.861747 0.518114
v 2.751016 1.733973 0.518114
v 2.751016 1.765916 0.462786
v 2.701407 2.115714 2.323033
v 2.701407 1.880614 2.323033
v 2.701407 2.115058 2.093777
v 2.701407 2.343863 2.093777
v 2.701407 2.115187 1.861925
v 2.701407 2.343863 1.861806
v 2.701407 1.880705 2.094414
v 2.701407 2.115187 1.633180
v 2.701407 1.880082 1.633180
v 2.701407 1.880737 1.862436
v 2.701407 1.651932 1.862436
v 2.701407 1.651932 2.094414
v 2.811998 2.115714 2.323033
v 2.811998 1.880614 2.323033
v 2.787877 2.115058 2.093777
v 2.811998 2.343863 2.093777
v 2.787877 2.115187 1.861925
v 2.811998 2.343863 1.861806
v 2.787877 1.880704 2.094414
v 2.811999 2.115187 1.633180
v 2.811998 1.880082 1.633180
v 2.787877 1.880737 1.862436
v 2.811999 1.651932 1.862436
v 2.811998 1.651932 2.094414
v 2.719965 2.494204 2.103505
v 2.719965 2.762261 2.103505
v 2.719965 2.494204 2.371563
v 2.719965 2.762261 2.371563
v 2.719965 2.520621 2.193362
v 2.719965 2.520621 2.275882
v 2.719965 2.735178 2.193362
v 2.719965 2.735178 2.275882
v 2.719965 2.537628 2.216812
v 2.719965 2.718171 2.216812
v 2.719965 2.537628 2.252431
v 2.719965 2.718171 2.252431
v 2.719965 2.520621 2.275882
v 2.719965 2.531024 2.252431
v 2.719975 2.120709 0.008028
v 2.719975 2.242650 0.028408
v 2.719975 2.206210 0.091524
v 2.719975 2.133330 0.091524
v 2.719975 2.096890 0.028408
v 2.719975 2.218831 0.008028
v 2.719975 2.206210 -0.164526
v 2.719975 2.242650 -0.101411
v 2.719975 2.096890 -0.101411
v 2.719975 2.133330 -0.164526
v 2.719975 2.139329 -0.089677
v 2.719975 2.200211 -0.089677
v 2.719975 2.168302 -0.070669
v 2.719975 2.120709 -0.067050
v 2.719975 2.218831 -0.067050
v 2.719975 2.133710 -0.012795
v 2.719975 2.148518 -0.059806
v 2.719975 2.201492 -0.012795
v 2.719975 2.186685 -0.059806
v 2.719975 2.155108 -0.012795
v 2.719975 2.177716 -0.012795
v 2.719975 2.142827 -0.059806
v 2.719975 2.193251 -0.059806
v 2.719976 2.242650 -0.458209
v 2.719976 2.206210 -0.395093
v 2.719976 2.133330 -0.395093
v 2.719975 2.096890 -0.458209
v 2.719976 2.206210 -0.651144
v 2.719976 2.242650 -0.588028
v 2.719975 2.096890 -0.588028
v 2.719976 2.133330 -0.651144
v 2.719976 2.220047 -0.511325
v 2.719976 2.126191 -0.472471
v 2.719976 2.126191 -0.573865
v 2.719976 2.220047 -0.535011
v 2.719976 2.126191 -0.498225
v 2.719976 2.126191 -0.547423
v 2.719976 2.162936 -0.513024
v 2.719976 2.162936 -0.532623
v 2.719976 2.177916 -0.515669
v 2.719976 2.177916 -0.529996
v 2.719976 2.195636 -0.522742
vt 0.355317 0.514758
vt 0.343993 0.514758
vt 0.343993 0.631869
vt 0.771377 0.555050
vt 0.771377 0.488984
vt 0.760054 0.490780
vt 0.902914 0.379407
vt 0.902914 0.342284
vt 0.891590 0.343919
vt 0.873174 0.255836
vt 0.884498 0.257678
vt 0.884498 0.211019
vt 0.994446 0.261648
vt 0.983122 0.261648
vt 0.983122 0.378759
vt 0.495186 0.559381
vt 0.506510 0.563075
vt 0.506510 0.488984
vt 0.873174 0.213054
vt 0.861851 0.211019
vt 0.861851 0.257206
vt 0.757101 0.395140
vt 0.768424 0.396984
vt 0.768424 0.346055
vt 0.164285 0.505974
vt 0.152961 0.505974
vt 0.153109 0.647263
vt 0.782700 0.634225
vt 0.782700 0.488984
vt 0.771377 0.492934
vt 0.139832 0.398722
vt 0.089920 0.495138
vt 0.139832 0.505974
vt 0.000000 0.505974
vt 0.046874 0.409292
vt 0.059106 0.488333
vt 0.059106 0.416097
vt 0.000000 0.398723
vt 0.089920 0.409292
vt 0.742118 0.393327
vt 0.733351 0.376755
vt 0.747428 0.376755
vt 0.826306 0.188132
vt 0.813637 0.188132
vt 0.819035 0.204704
vt 0.674824 0.398722
vt 0.635225 0.425108
vt 0.671272 0.425108
vt 0.682297 0.459550
vt 0.674824 0.488984
vt 0.696400 0.466735
vt 0.747428 0.382595
vt 0.754479 0.376755
vt 0.754479 0.384270
vt 0.437496 0.420972
vt 0.450879 0.448010
vt 0.450879 0.439661
vt 0.506449 0.425964
vt 0.502222 0.398722
vt 0.459072 0.398722
vt 0.523798 0.466735
vt 0.506449 0.435286
vt 0.506449 0.452628
vt 0.506449 0.461707
vt 0.502222 0.488984
vt 0.355317 0.631869
vt 0.760074 0.554996
vt 0.891590 0.377771
vt 0.873174 0.211019
vt 0.994446 0.378759
vt 0.495186 0.490778
vt 0.873174 0.255171
vt 0.757101 0.346055
vt 0.164285 0.647278
vt 0.771377 0.634225
vt 0.077687 0.416097
vt 0.077687 0.488333
vt 0.046874 0.495138
vt 0.738231 0.393327
vt 0.822404 0.204704
vt 0.696400 0.420972
vt 0.682297 0.433084
vt 0.654118 0.431808
vt 0.610099 0.420972
vt 0.631674 0.398722
vt 0.624201 0.433084
vt 0.610099 0.466735
vt 0.624201 0.459550
vt 0.631674 0.488984
vt 0.459072 0.488984
vt 0.437496 0.466735
vt 0.523798 0.420972
vt 0.484693 0.440502
vt 0.484693 0.447411
vt 0.695331 0.376800
vt 0.540559 0.352108
vt 0.653860 0.396668
vt 0.385788 0.283571
vt 0.540559 0.308262
vt 0.427259 0.263702
vt 0.942188 0.134461
vt 0.942188 0.160238
vt 0.976030 0.160238
vt 0.954448 0.000000
vt 0.954448 0.033708
vt 0.988291 0.033708
vt 0.954448 0.069734
vt 0.954448 0.098424
vt 0.988291 0.098424
vt 0.638710 0.580478
vt 0.638710 0.611501
vt 0.672553 0.611501
vt 0.942188 0.195449
vt 0.976030 0.195449
vt 0.505182 0.642575
vt 0.505182 0.611552
vt 0.471339 0.611552
vt 0.638710 0.642523
vt 0.672553 0.642523
vt 0.942188 0.230659
vt 0.976030 0.230659
vt 0.505182 0.580530
vt 0.471339 0.580530
vt 0.638710 0.665233
vt 0.672553 0.665233
vt 0.988291 0.069734
vt 0.942188 0.256435
vt 0.976030 0.256435
vt 0.949280 0.261648
vt 0.949280 0.287425
vt 0.983122 0.287425
vt 0.988413 0.613182
vt 0.988413 0.579473
vt 0.954570 0.579473
vt 0.988413 0.543448
vt 0.988413 0.514758
vt 0.954570 0.514758
vt 0.696400 0.580517
vt 0.696400 0.611539
vt 0.730242 0.611539
vt 0.949280 0.322635
vt 0.983122 0.322635
vt 0.813637 0.250177
vt 0.813637 0.219154
vt 0.779794 0.219154
vt 0.696400 0.642562
vt 0.730242 0.642562
vt 0.949280 0.357846
vt 0.983122 0.357846
vt 0.813637 0.188132
vt 0.779794 0.188132
vt 0.696400 0.665271
vt 0.730242 0.665271
vt 0.954570 0.543448
vt 0.949280 0.383621
vt 0.983122 0.383621
vt 0.846160 0.358180
vt 0.891590 0.281152
vt 0.891590 0.358180
vt 0.757101 0.346055
vt 0.719274 0.376755
vt 0.719274 0.346055
vt 0.891590 0.377683
vt 0.846160 0.377683
vt 0.850778 0.510238
vt 0.888235 0.479538
vt 0.888235 0.510238
vt 0.610099 0.585515
vt 0.564669 0.508488
vt 0.610099 0.508488
vt 0.564669 0.605019
vt 0.564669 0.585515
vt 0.564669 0.488984
vt 0.610099 0.488984
vt 0.846160 0.261648
vt 0.846160 0.281152
vt 0.355317 0.418226
vt 0.355317 0.495254
vt 0.279665 0.418226
vt 0.839068 0.114487
vt 0.884498 0.191515
vt 0.839068 0.191515
vt 0.820527 0.368023
vt 0.782701 0.398722
vt 0.782701 0.368023
vt 0.884498 0.211019
vt 0.839068 0.211019
vt 0.851094 0.219477
vt 0.813637 0.250177
vt 0.813637 0.219477
vt 0.850778 0.495254
vt 0.805348 0.418226
vt 0.850778 0.418226
vt 0.850778 0.514758
vt 0.805348 0.495254
vt 0.805348 0.398722
vt 0.850778 0.398722
vt 0.839068 0.094983
vt 0.884498 0.114487
vt 0.437496 0.418226
vt 0.437496 0.495254
vt 0.361844 0.418226
vt 0.361844 0.085668
vt 0.180351 0.068696
vt 0.269834 0.015081
vt 0.638710 0.488984
vt 0.683817 0.580479
vt 0.638710 0.580479
vt 0.115379 0.596613
vt 0.070273 0.505974
vt 0.115379 0.505974
vt 0.884498 0.256435
vt 0.929604 0.175799
vt 0.942188 0.256435
vt 0.805348 0.514758
vt 0.863038 0.596531
vt 0.805348 0.596531
vt 0.221975 0.587749
vt 0.164285 0.505974
vt 0.221975 0.505974
vt 0.839068 0.093146
vt 0.781379 0.000000
vt 0.839068 0.000000
vt 0.723688 0.000000
vt 0.781378 0.094067
vt 0.723688 0.094067
vt 0.863038 0.514758
vt 0.908144 0.595574
vt 0.863038 0.595574
vt 0.942187 0.175799
vt 0.897081 0.094983
vt 0.942187 0.094983
vt 0.057690 0.505974
vt 0.012583 0.596627
vt 0.000000 0.505974
vt 0.788470 0.353194
vt 0.833577 0.261648
vt 0.846160 0.353194
vt 0.966157 0.398722
vt 0.921051 0.479314
vt 0.908468 0.398722
vt 0.181496 0.192952
vt 0.089531 0.122738
vt 0.271040 0.261648
vt 0.272304 0.138967
vt 0.361844 0.207597
vt 0.000004 0.175981
vt 0.092012 0.246567
vt 0.090806 0.000000
vt 0.000000 0.054052
vt 0.605973 0.398722
vt 0.564502 0.382412
vt 0.719274 0.344441
vt 0.540559 0.315930
vt 0.719274 0.308262
vt 0.564503 0.283571
vt 0.695331 0.277958
vt 0.605974 0.263702
vt 0.653860 0.261648
vt 0.475145 0.261648
vt 0.516616 0.277958
vt 0.361844 0.315930
vt 0.540559 0.344441
vt 0.361844 0.352108
vt 0.516616 0.376800
vt 0.385787 0.382412
vt 0.475145 0.396668
vt 0.427258 0.398722
vt 0.976030 0.134461
vt 0.988291 0.000000
vt 0.672553 0.580478
vt 0.471339 0.642575
vt 0.983122 0.261648
vt 0.954570 0.613182
vt 0.730242 0.580517
vt 0.779794 0.250177
vt 0.757101 0.376755
vt 0.850778 0.479538
vt 0.610099 0.605019
vt 0.891590 0.261648
vt 0.336404 0.514758
vt 0.298578 0.514758
vt 0.279664 0.495254
vt 0.298577 0.398722
vt 0.336404 0.398722
vt 0.820527 0.398722
vt 0.851094 0.250177
vt 0.805348 0.514758
vt 0.884498 0.094983
vt 0.418584 0.514758
vt 0.380757 0.514758
vt 0.361844 0.495254
vt 0.380757 0.398722
vt 0.418584 0.398722
vt 0.696400 0.488984
vt 0.057690 0.596613
vt 0.884498 0.175799
vt 0.863038 0.514758
vt 0.164285 0.587749
vt 0.781379 0.093146
vt 0.781379 0.000000
vt 0.920727 0.514758
vt 0.884498 0.175799
vt 0.057690 0.596627
vt 0.788470 0.261648
vt 0.966157 0.479314
vn 1.0000 0.0000 0.0000
vn 1.0000 0.0000 -0.0001
vn 1.0000 -0.0008 -0.0001
vn 1.0000 -0.0057 0.0002
vn 0.6532 0.3786 0.6557
vn 0.6532 0.3786 -0.6557
vn 0.6532 0.6557 0.3786
vn 0.0000 0.8660 0.5000
vn 0.0000 0.5000 0.8660
vn 0.0000 -0.5000 -0.8660
vn 0.0000 0.0000 -1.0000
vn 0.6532 0.0000 -0.7571
vn 0.0000 0.5000 -0.8660
vn 0.0000 0.8660 -0.5000
vn 0.6532 0.6557 -0.3786
vn 0.0000 -0.8660 0.5000
vn 0.0000 -1.0000 0.0000
vn 0.6532 -0.7571 0.0000
vn 0.0000 0.0000 1.0000
vn 0.6532 0.0000 0.7571
vn 0.0000 1.0000 0.0000
vn 0.6532 0.7571 0.0000
vn 0.0000 -0.8660 -0.5000
vn 0.6532 -0.6557 -0.3786
vn 0.0000 -0.5000 0.8660
vn 0.6532 -0.3786 0.6557
vn 0.6532 -0.3786 -0.6557
vn 0.6532 -0.6557 0.3786
vn 0.0000 0.9659 -0.2588
vn 0.6532 0.7313 0.1960
vn 0.6532 0.7313 -0.1960
vn 0.6100 -0.3962 -0.6862
vn 0.6100 0.3962 -0.6862
vn 0.6100 0.3962 0.6862
vn 0.0000 -0.9659 -0.2588
vn 0.6532 -0.7313 0.1960
vn 0.0000 -0.9659 0.2588
vn 0.6532 -0.7313 -0.1960
vn 0.6100 -0.3962 0.6862
vn 0.0000 0.9659 0.2588
vn 0.6096 0.5720 -0.5488
vn 0.9105 -0.2928 -0.2919
vn 0.6094 -0.5729 -0.5481
vn 0.0000 0.7069 -0.7073
vn 0.9102 0.2928 -0.2929
vn 0.0000 -0.7071 0.7071
vn 0.9102 -0.2930 0.2927
vn 0.0000 -0.7072 0.7070
vn 0.0000 0.7071 -0.7071
vn 0.0000 0.7071 0.7071
vn 0.6096 0.5486 -0.5722
vn 0.0000 -0.7071 -0.7071
vn 0.6096 -0.5487 0.5720
vn 0.6094 0.5729 0.5481
vn 0.0000 0.7081 0.7061
vn 0.0000 -0.7081 -0.7061
vn 0.9105 0.2928 0.2919
vn 0.6096 0.5487 0.5720
vn 0.6096 -0.5487 -0.5720
vn 0.6096 -0.5722 0.5486
usemtl Material.011
s off
f 2/1/1 1/2/1 3/3/1
f 36/4/1 8/5/1 7/6/1
f 10/7/1 12/8/1 11/9/1
f 13/10/1 14/11/1 16/12/1
f 18/13/1 17/14/1 19/15/1
f 39/16/1 40/17/1 24/18/1
f 25/19/1 26/20/1 28/21/1
f 29/22/1 30/23/1 32/24/1
f 5/25/2 6/26/2 33/27/2
f 22/28/1 37/29/1 38/30/1
f 147/31/1 152/32/1 148/33/1
f 146/34/1 148/33/1 152/32/1
f 149/35/1 154/36/1 153/37/1
f 145/38/1 149/35/1 150/39/1
f 177/40/1 176/41/1 179/42/1
f 178/43/1 174/44/1 180/45/1
f 168/46/1 170/47/1 169/48/1
f 159/49/1 162/50/1 163/51/1
f 199/52/1 200/53/1 198/54/1
f 187/55/1 190/56/1 193/57/1
f 192/58/1 189/59/1 186/60/1
f 185/61/1 195/62/1 194/63/1
f 191/64/1 184/65/1 185/61/1
f 2/1/1 3/3/1 4/66/1
f 36/4/3 7/6/3 35/67/3
f 10/7/1 11/9/1 9/68/1
f 13/10/1 16/12/1 15/69/1
f 18/13/1 19/15/1 20/70/1
f 39/16/1 24/18/1 23/71/1
f 25/19/1 28/21/1 27/72/1
f 29/22/1 32/24/1 31/73/1
f 5/25/4 33/27/4 34/74/4
f 22/28/1 38/30/1 21/75/1
f 152/32/1 155/76/1 156/77/1
f 155/76/1 152/32/1 150/39/1
f 150/39/1 152/32/1 147/31/1
f 146/34/1 152/32/1 151/78/1
f 154/36/1 149/35/1 151/78/1
f 151/78/1 145/38/1 146/34/1
f 149/35/1 145/38/1 151/78/1
f 145/38/1 150/39/1 147/31/1
f 177/40/1 181/79/1 176/41/1
f 178/43/1 180/45/1 175/80/1
f 168/46/1 169/48/1 167/81/1
f 167/81/1 169/48/1 172/82/1
f 169/48/1 170/47/1 171/83/1
f 166/84/1 170/47/1 165/85/1
f 165/85/1 170/47/1 168/46/1
f 170/47/1 166/84/1 173/86/1
f 166/84/1 160/87/1 173/86/1
f 173/86/1 160/87/1 164/88/1
f 159/49/1 163/51/1 172/82/1
f 172/82/1 163/51/1 167/81/1
f 160/87/1 161/89/1 164/88/1
f 164/88/1 162/50/1 159/49/1
f 162/50/1 164/88/1 161/89/1
f 183/90/1 190/56/1 182/91/1
f 182/91/1 190/56/1 187/55/1
f 187/55/1 193/57/1 186/60/1
f 189/59/1 192/58/1 188/92/1
f 192/58/1 186/60/1 193/57/1
f 185/61/1 194/63/1 191/64/1
f 194/63/1 197/93/1 196/94/1
f 195/62/1 188/92/1 192/58/1
f 194/63/1 195/62/1 197/93/1
f 188/92/1 195/62/1 185/61/1
f 184/65/1 191/64/1 183/90/1
f 183/90/1 191/64/1 190/56/1
s 1
f 82/95/5 77/96/6 81/97/7
f 58/98/5 53/99/6 57/100/7
f 45/101/8 46/102/9 58/103/5
f 52/104/10 41/105/11 54/106/12
f 42/107/13 43/108/14 55/109/15
f 49/110/16 50/111/17 62/112/18
f 46/102/9 47/113/19 59/114/20
f 43/115/14 44/116/21 56/117/22
f 50/111/17 51/118/23 63/119/24
f 47/113/19 48/120/25 60/121/26
f 45/122/8 57/123/7 56/117/22
f 51/118/23 52/124/10 64/125/27
f 41/105/11 42/107/13 53/126/6
f 48/120/25 49/127/16 61/128/28
f 69/129/8 70/130/9 82/131/5
f 76/132/10 65/133/11 78/134/12
f 66/135/13 67/136/14 79/137/15
f 73/138/16 74/139/17 86/140/18
f 70/130/9 71/141/19 83/142/20
f 67/143/14 68/144/21 80/145/22
f 74/139/17 75/146/23 87/147/24
f 71/141/19 72/148/25 84/149/26
f 68/144/21 69/150/8 81/151/7
f 75/146/23 76/152/10 88/153/27
f 65/133/11 66/135/13 77/154/6
f 72/148/25 73/155/16 85/156/28
f 94/157/29 97/158/30 102/159/31
f 93/160/13 104/161/32 96/162/10
f 94/157/29 101/163/33 93/164/13
f 91/165/25 98/166/34 90/167/9
f 95/168/35 100/169/36 92/170/37
f 95/168/35 104/171/32 103/172/38
f 92/170/37 99/173/39 91/174/25
f 90/175/9 97/158/30 89/176/40
f 102/177/31 97/178/30 103/179/38
f 105/180/40 118/181/31 110/182/29
f 109/183/13 120/184/32 112/185/10
f 110/182/29 117/186/33 109/187/13
f 107/188/25 114/189/34 106/190/9
f 111/191/35 116/192/36 108/193/37
f 112/194/10 119/195/38 111/191/35
f 108/193/37 115/196/39 107/197/25
f 106/198/9 113/199/30 105/180/40
f 118/200/31 113/201/30 119/202/38
f 140/203/41 142/204/42 141/205/43
f 126/206/44 137/207/45 125/208/44
f 132/209/46 139/210/47 127/211/48
f 128/212/49 137/213/45 140/214/41
f 124/215/50 138/216/51 126/217/44
f 131/218/52 144/219/53 132/220/46
f 122/221/48 133/222/54 121/223/55
f 128/224/49 141/225/43 129/226/56
f 121/227/55 135/228/57 123/229/55
f 129/230/56 142/231/42 130/232/56
f 124/233/50 135/234/57 136/235/58
f 131/236/52 142/237/42 143/238/59
f 122/239/48 139/240/47 134/241/60
f 142/204/42 135/242/57 139/243/47
f 136/244/58 137/245/45 138/246/51
f 134/247/60 135/242/57 133/248/54
f 143/249/59 139/243/47 144/250/53
f 80/251/22 81/97/7 79/252/15
f 79/252/15 81/97/7 77/96/6
f 77/96/6 83/253/20 78/254/12
f 78/254/12 84/255/26 88/256/27
f 88/256/27 85/257/28 87/258/24
f 87/258/24 85/257/28 86/259/18
f 85/257/28 88/256/27 84/255/26
f 84/255/26 78/254/12 83/253/20
f 83/253/20 77/96/6 82/95/5
f 56/260/22 57/100/7 55/261/15
f 55/261/15 57/100/7 53/99/6
f 53/99/6 59/262/20 54/263/12
f 54/263/12 60/264/26 64/265/27
f 64/265/27 61/266/28 63/267/24
f 63/267/24 61/266/28 62/268/18
f 61/266/28 64/265/27 60/264/26
f 60/264/26 54/263/12 59/262/20
f 59/262/20 53/99/6 58/98/5
f 45/101/8 58/103/5 57/269/7
f 52/104/10 54/106/12 64/270/27
f 42/107/13 55/109/15 53/126/6
f 49/110/16 62/112/18 61/271/28
f 46/102/9 59/114/20 58/103/5
f 43/115/14 56/117/22 55/272/15
f 50/111/17 63/119/24 62/112/18
f 47/113/19 60/121/26 59/114/20
f 45/122/8 56/117/22 44/116/21
f 51/118/23 64/125/27 63/119/24
f 41/105/11 53/126/6 54/106/12
f 48/120/25 61/128/28 60/121/26
f 69/129/8 82/131/5 81/273/7
f 76/132/10 78/134/12 88/274/27
f 66/135/13 79/137/15 77/154/6
f 73/138/16 86/140/18 85/275/28
f 70/130/9 83/142/20 82/131/5
f 67/143/14 80/145/22 79/276/15
f 74/139/17 87/147/24 86/140/18
f 71/141/19 84/149/26 83/142/20
f 68/144/21 81/151/7 80/145/22
f 75/146/23 88/153/27 87/147/24
f 65/133/11 77/154/6 78/134/12
f 72/148/25 85/156/28 84/149/26
f 94/157/29 89/176/40 97/158/30
f 93/160/13 101/277/33 104/161/32
f 94/157/29 102/159/31 101/163/33
f 91/165/25 99/278/39 98/166/34
f 95/168/35 103/172/38 100/169/36
f 95/168/35 96/279/10 104/171/32
f 92/170/37 100/169/36 99/173/39
f 90/175/9 98/280/34 97/158/30
f 97/178/30 98/281/34 99/282/39
f 99/282/39 100/283/36 97/178/30
f 100/283/36 103/179/38 97/178/30
f 103/179/38 104/284/32 101/285/33
f 101/285/33 102/177/31 103/179/38
f 105/180/40 113/199/30 118/181/31
f 109/183/13 117/286/33 120/184/32
f 110/182/29 118/181/31 117/186/33
f 107/188/25 115/287/39 114/189/34
f 111/191/35 119/195/38 116/192/36
f 112/194/10 120/288/32 119/195/38
f 108/193/37 116/192/36 115/196/39
f 106/198/9 114/289/34 113/199/30
f 113/201/30 114/290/34 115/291/39
f 115/291/39 116/292/36 113/201/30
f 116/292/36 119/202/38 113/201/30
f 119/202/38 120/293/32 117/294/33
f 117/294/33 118/200/31 119/202/38
f 140/203/41 137/245/45 142/204/42
f 126/206/44 138/295/51 137/207/45
f 132/209/46 144/296/53 139/210/47
f 128/212/49 125/297/44 137/213/45
f 124/215/50 136/298/58 138/216/51
f 131/218/52 143/299/59 144/219/53
f 122/221/48 134/300/60 133/222/54
f 128/224/49 140/301/41 141/225/43
f 121/227/55 133/302/54 135/228/57
f 129/230/56 141/303/43 142/231/42
f 124/233/50 123/304/55 135/234/57
f 131/236/52 130/305/56 142/237/42
f 122/239/48 127/306/48 139/240/47
f 142/204/42 137/245/45 135/242/57
f 136/244/58 135/242/57 137/245/45
f 134/247/60 139/243/47 135/242/57
f 143/249/59 142/204/42 139/243/47
l 157 149
l 156 158
