# Blender v2.79 (sub 0) OBJ File: 'quit.blend'
# www.blender.org
mtllib gold.mtl
o gold_Cube.002
v 2.717682 1.751192 -0.692655
v 2.717682 1.676615 -0.618078
v 2.717682 1.649318 -0.516203
v 2.717682 1.676615 -0.414329
v 2.717682 1.751192 -0.339751
v 2.717682 1.853067 -0.312454
v 2.717682 1.954942 -0.339751
v 2.717682 2.029519 -0.414328
v 2.717682 2.056817 -0.516203
v 2.717682 2.029520 -0.618078
v 2.717682 1.954942 -0.692655
v 2.717682 1.853067 -0.719953
v 2.717682 1.954270 -0.216730
v 2.717682 1.853066 -0.243848
v 2.717681 2.028356 -0.142644
v 2.717681 2.055473 -0.041440
v 2.717681 2.028356 0.059764
v 2.717682 1.954270 0.133850
v 2.717682 1.853066 0.160968
v 2.717682 1.751862 0.133850
v 2.717682 1.677776 0.059764
v 2.717682 1.650658 -0.041440
v 2.717682 1.677776 -0.142644
v 2.717682 1.751862 -0.216730
v 2.717682 1.512272 -0.844286
v 2.717682 2.350196 -0.844286
v 2.717677 2.350196 1.141659
v 2.717682 1.512272 2.463800
v 2.717682 2.890672 2.463800
v 2.717683 2.890672 1.141659
v 2.717433 1.968666 1.393929
v 2.717433 1.685301 1.393929
v 2.717433 1.968666 0.388041
v 2.717433 1.685301 0.388041
v 2.717433 1.979502 1.360548
v 2.717433 2.002113 1.230958
v 2.717433 1.995490 1.293739
v 2.717433 1.832769 1.457610
v 2.717433 1.927568 1.423818
v 2.717433 1.880555 1.447712
v 2.717433 1.726400 1.423818
v 2.717433 1.821198 1.457610
v 2.717433 1.773412 1.447712
v 2.717433 1.651855 1.230958
v 2.717433 1.674465 1.360548
v 2.717433 1.658477 1.293739
v 2.717433 1.927568 0.358152
v 2.717433 1.832769 0.324360
v 2.717433 1.880555 0.334258
v 2.717433 2.002113 0.551013
v 2.717433 1.979502 0.421423
v 2.717433 1.995491 0.488231
v 2.717433 1.674465 0.421423
v 2.717433 1.651855 0.551013
v 2.717433 1.658477 0.488231
v 2.717433 1.821198 0.324360
v 2.717433 1.726400 0.358153
v 2.717433 1.773413 0.334258
v 2.717433 1.873945 1.614304
v 2.717433 2.146289 1.614304
v 2.717433 2.146289 1.838865
v 2.717433 2.378179 1.838865
v 2.717433 2.378179 2.112289
v 2.717433 2.149462 2.112289
v 2.717433 2.149462 2.336857
v 2.717433 1.873151 2.336857
v 2.717433 1.873151 2.111128
v 2.717433 1.645132 2.111128
v 2.717433 1.645132 1.841671
v 2.717433 1.873945 1.841671
vt 0.000000 0.000000
vt 0.000000 0.000000
vt 0.000000 0.000000
vt 0.000000 0.000000
vt 0.000000 0.000000
vt 0.000000 0.000000
vt 0.000000 0.000000
vt 0.000000 0.000000
vt 0.000000 0.000000
vt 0.000000 0.000000
vt 0.000000 0.000000
vt 0.000000 0.000000
vt 0.000000 0.000000
vt 0.000000 0.000000
vt 0.000000 0.000000
vt 0.000000 0.000000
vt 0.000000 0.000000
vt 0.000000 0.000000
vt 0.000000 0.000000
vt 0.000000 0.000000
vt 0.000000 0.000000
vt 0.000000 0.000000
vt 0.000000 0.000000
vt 0.000000 0.000000
vt 0.000000 0.000000
vt 0.000000 0.000000
vt 0.000000 0.000000
vt 0.000000 0.000000
vt 0.000000 0.000000
vt 0.000000 0.000000
vt 0.000000 0.000000
vt 0.000000 0.000000
vt 0.000000 0.000000
vt 0.000000 0.000000
vt 0.000000 0.000000
vt 0.000000 0.000000
vt 0.000000 0.000000
vt 0.000000 0.000000
vt 0.000000 0.000000
vt 0.000000 0.000000
vt 0.000000 0.000000
vt 0.000000 0.000000
vt 0.000000 0.000000
vt 0.000000 0.000000
vt 0.000000 0.000000
vt 0.000000 0.000000
vt 0.000000 0.000000
vt 0.000000 0.000000
vt 0.000000 0.000000
vt 0.000000 0.000000
vt 0.000000 0.000000
vt 0.000000 0.000000
vt 0.000000 0.000000
vt 0.000000 0.000000
vt 0.000000 0.000000
vt 0.000000 0.000000
vt 0.000000 0.000000
vt 0.000000 0.000000
vt 0.000000 0.000000
vt 0.000000 0.000000
vt 0.000000 0.000000
vt 0.000000 0.000000
vt 0.000000 0.000000
vt 0.000000 0.000000
vt 0.000000 0.000000
vt 0.000000 0.000000
vt 0.000000 0.000000
vt 0.000000 0.000000
vt 0.000000 0.000000
vt 0.000000 0.000000
vn 1.0000 0.0000 0.0000
vn 1.0000 -0.0007 0.0002
vn 1.0000 0.0005 0.0007
vn 1.0000 -0.0005 -0.0000
vn 1.0000 0.0018 0.0000
vn 1.0000 -0.0047 -0.0000
vn 1.0000 0.0024 0.0006
vn 1.0000 -0.0032 0.0003
vn 1.0000 -0.0019 0.0004
vn 1.0000 0.0008 0.0008
vn 1.0000 -0.0037 0.0012
vn 1.0000 -0.0007 0.0010
vn 1.0000 0.0004 0.0014
vn 1.0000 -0.0005 0.0010
vn 1.0000 -0.0004 0.0014
vn 1.0000 -0.0003 0.0015
vn 1.0000 0.0000 0.0015
vn 1.0000 0.0039 0.0004
vn 1.0000 -0.0025 0.0007
vn 1.0000 0.0019 0.0004
vn 1.0000 -0.0010 0.0010
vn 1.0000 0.0002 0.0012
vn 1.0000 0.0006 0.0012
vn 1.0000 0.0022 0.0007
vn 1.0000 -0.0006 0.0002
vn 1.0000 0.0005 -0.0005
vn 1.0000 -0.0000 0.0003
vn 1.0000 -0.0004 0.0004
vn 1.0000 0.0000 -0.0020
vn 1.0000 -0.0003 -0.0003
vn 1.0000 -0.0025 0.0004
vn 1.0000 0.0019 -0.0000
usemtl Material.005
s off
f 7/1/1 8/2/1 15/3/1
f 12/4/1 1/5/1 25/6/1
f 16/7/1 26/8/1 27/9/1
f 36/10/2 16/7/2 27/9/2
f 57/11/3 34/12/3 21/13/3
f 69/14/1 41/15/1 43/16/1
f 63/17/4 62/18/4 29/19/4
f 28/20/5 25/6/5 54/21/5
f 23/22/1 22/23/1 4/24/1
f 22/23/1 3/25/1 4/24/1
f 24/26/1 23/22/1 5/27/1
f 23/22/1 4/24/1 5/27/1
f 14/28/1 24/26/1 6/29/1
f 24/26/1 5/27/1 6/29/1
f 13/30/1 14/28/1 6/29/1
f 13/30/1 6/29/1 7/1/1
f 9/31/1 16/7/1 8/2/1
f 16/7/1 15/3/1 8/2/1
f 15/3/1 13/30/1 7/1/1
f 26/8/1 9/31/1 10/32/1
f 26/8/1 10/32/1 11/33/1
f 2/34/1 3/25/1 25/6/1
f 1/5/1 2/34/1 25/6/1
f 25/6/1 26/8/1 12/4/1
f 26/8/1 11/33/1 12/4/1
f 16/7/1 9/31/1 26/8/1
f 36/10/6 50/35/6 16/7/6
f 16/7/7 50/35/7 17/36/7
f 50/35/8 52/37/8 17/36/8
f 52/37/9 51/38/9 17/36/9
f 17/36/10 51/38/10 18/39/10
f 51/38/11 33/40/11 18/39/11
f 18/39/12 33/40/12 47/41/12
f 19/42/13 18/39/13 49/43/13
f 18/39/14 47/41/14 49/43/14
f 20/44/15 19/42/15 56/45/15
f 19/42/16 49/43/16 48/46/16
f 19/42/17 48/46/17 56/45/17
f 54/21/18 22/23/18 55/47/18
f 22/23/19 21/13/19 53/48/19
f 55/47/20 22/23/20 53/48/20
f 21/13/21 20/44/21 57/11/21
f 20/44/22 56/45/22 58/49/22
f 20/44/23 58/49/23 57/11/23
f 34/12/24 53/48/24 21/13/24
f 69/14/1 54/21/1 44/50/1
f 69/14/1 44/50/1 46/51/1
f 59/52/1 70/53/1 38/54/1
f 70/53/1 69/14/1 43/16/1
f 38/54/1 70/53/1 42/55/1
f 27/9/25 60/56/25 36/10/25
f 60/56/1 59/52/1 31/57/1
f 31/57/1 59/52/1 39/58/1
f 37/59/1 36/10/1 60/56/1
f 35/60/1 37/59/1 60/56/1
f 31/57/1 35/60/1 60/56/1
f 40/61/1 39/58/1 59/52/1
f 69/14/1 46/51/1 45/62/1
f 69/14/1 45/62/1 32/63/1
f 40/61/1 59/52/1 38/54/1
f 42/55/1 70/53/1 43/16/1
f 69/14/1 32/63/1 41/15/1
f 28/20/26 68/64/26 66/65/26
f 68/64/1 67/66/1 66/65/1
f 27/9/27 30/67/27 62/18/27
f 30/67/4 29/19/4 62/18/4
f 61/68/1 60/56/1 62/18/1
f 60/56/28 27/9/28 62/18/28
f 29/19/29 28/20/29 65/69/29
f 28/20/29 66/65/29 65/69/29
f 65/69/1 64/70/1 63/17/1
f 29/19/30 65/69/30 63/17/30
f 3/25/1 22/23/1 25/6/1
f 22/23/31 54/21/31 25/6/31
f 69/14/32 68/64/32 28/20/32
f 54/21/32 69/14/32 28/20/32
