# Blender v2.79 (sub 0) OBJ File: 'famciom.blend'
# www.blender.org
mtllib gold.mtl
o gold_Cube.010
v 2.715946 1.443926 -0.946447
v 2.715945 2.918002 2.476851
v 2.715946 1.443926 2.504742
v 2.715946 2.889292 1.114000
v 2.715946 2.404940 -0.946447
v 2.715946 2.404940 1.113622
v 2.715946 2.145693 2.358591
v 2.715946 1.850744 2.358591
v 2.715946 2.144945 2.119525
v 2.715946 2.377030 2.119525
v 2.715946 2.377030 1.835989
v 2.715946 1.850100 1.597621
v 2.715946 2.145048 1.597621
v 2.715946 2.145048 1.836119
v 2.715946 1.850848 1.836687
v 2.715946 1.618764 1.836686
v 2.715946 1.850848 2.120223
v 2.715946 1.618764 2.120223
v 2.715964 1.981560 1.280592
v 2.715964 1.948909 1.381081
v 2.715964 1.863428 1.443187
v 2.715964 1.757767 1.443187
v 2.715964 1.672286 1.381081
v 2.715964 1.639635 1.280592
v 2.715964 1.863428 0.337964
v 2.715964 1.948909 0.400070
v 2.715964 1.981560 0.500559
v 2.715964 1.639635 0.500559
v 2.715964 1.672286 0.400070
v 2.715964 1.757767 0.337964
v 2.715968 1.838200 -0.239160
v 2.715968 1.938693 -0.212233
v 2.715968 2.012260 -0.138667
v 2.715968 2.039187 -0.038173
v 2.715968 2.012260 0.062321
v 2.715968 1.938693 0.135887
v 2.715968 1.838200 0.162814
v 2.715968 1.737706 0.135887
v 2.715968 1.664140 0.062321
v 2.715968 1.637213 -0.038173
v 2.715968 1.664140 -0.138666
v 2.715968 1.737706 -0.212233
v 2.714946 1.840592 -0.717751
v 2.714946 1.940840 -0.690889
v 2.714946 2.014226 -0.617503
v 2.714946 2.041087 -0.517256
v 2.714946 2.014226 -0.417008
v 2.714946 1.940840 -0.343622
v 2.714946 1.840592 -0.316761
v 2.714946 1.740345 -0.343622
v 2.714946 1.666959 -0.417008
v 2.714946 1.640097 -0.517256
v 2.714946 1.666959 -0.617503
v 2.714946 1.740345 -0.690889
v 2.661119 1.937663 -0.207537
v 2.661119 1.840592 -0.233547
v 2.661119 2.008724 -0.136476
v 2.661119 2.034734 -0.039404
v 2.661119 2.008724 0.057667
v 2.661119 1.937663 0.128728
v 2.661119 1.840592 0.154738
v 2.661119 1.743521 0.128728
v 2.661119 1.672460 0.057667
v 2.661119 1.646450 -0.039404
v 2.661119 1.672460 -0.136475
v 2.661119 1.743521 -0.207537
v 2.662141 1.934046 -0.679123
v 2.662141 1.840592 -0.704164
v 2.662141 2.002459 -0.610710
v 2.662141 2.027500 -0.517256
v 2.662141 2.002459 -0.423802
v 2.662141 1.934046 -0.355389
v 2.662141 1.840592 -0.330348
v 2.662141 1.747138 -0.355389
v 2.662141 1.678725 -0.423802
v 2.662141 1.653684 -0.517256
v 2.662141 1.678725 -0.610710
v 2.662141 1.747138 -0.679123
vt 0.610966 0.386808
vt 0.738257 0.340381
vt 0.738257 0.557273
vt 0.811572 0.755468
vt 0.833690 0.735012
vt 0.832843 0.812407
vt 0.610966 0.959620
vt 0.720931 0.707070
vt 0.720360 0.840281
vt 0.831241 0.585214
vt 0.841058 0.557273
vt 0.833690 0.679127
vt 0.729027 0.679127
vt 0.728436 0.868155
vt 0.750500 0.888560
vt 0.841058 0.340381
vt 0.899898 0.000000
vt 0.847332 0.106918
vt 0.777587 0.040638
vt 0.777781 0.252229
vt 0.847332 0.185756
vt 0.805541 0.295171
vt 0.619357 0.185950
vt 0.689103 0.252229
vt 0.619357 0.107112
vt 0.456712 0.007756
vt 0.688910 0.040638
vt 0.930756 0.532758
vt 0.945803 0.553557
vt 0.931674 0.556854
vt 0.899898 0.742707
vt 0.914603 0.771585
vt 0.900056 0.773050
vt 0.899898 0.959620
vt 0.810779 0.888560
vt 0.832843 0.868155
vt 0.963360 0.121050
vt 0.986589 0.138336
vt 0.913309 0.133453
vt 0.983359 0.371448
vt 0.996270 0.396832
vt 0.935173 0.359507
vt 0.929094 0.532076
vt 0.916558 0.555227
vt 0.914952 0.531023
vt 0.900055 0.878626
vt 0.914508 0.896814
vt 0.900484 0.900397
vt 0.900056 0.711976
vt 0.914451 0.742275
vt 0.930756 0.501921
vt 0.944947 0.531094
vt 0.930964 0.823722
vt 0.946157 0.850683
vt 0.931514 0.852438
vt 0.915018 0.690486
vt 0.914603 0.712591
vt 0.931674 0.472604
vt 0.944947 0.502346
vt 0.931514 0.794874
vt 0.945627 0.822945
vt 0.915938 0.773548
vt 0.929620 0.749379
vt 0.930509 0.772711
vt 0.945645 0.689092
vt 0.930509 0.718184
vt 0.932055 0.691651
vt 0.915018 0.792665
vt 0.900486 0.794874
vt 0.915018 0.749394
vt 0.929621 0.719519
vt 0.943987 0.717554
vt 0.930509 0.746957
vt 0.913962 0.848302
vt 0.914108 0.876519
vt 0.915018 0.718480
vt 0.930509 0.691131
vt 0.943987 0.748418
vt 0.932055 0.770259
vt 0.899898 0.848358
vt 0.914108 0.819724
vt 0.930756 0.472604
vt 0.914952 0.501137
vt 0.916558 0.473576
vt 0.945453 0.610654
vt 0.960194 0.637221
vt 0.946001 0.639300
vt 0.900055 0.817702
vt 0.914508 0.798442
vt 0.929093 0.501137
vt 0.946001 0.581876
vt 0.959683 0.610516
vt 0.748073 0.312439
vt 0.728436 0.812407
vt 0.729027 0.735012
vt 0.750500 0.792001
vt 0.751145 0.755468
vt 0.780639 0.784532
vt 0.781359 0.762955
vt 0.810779 0.792001
vt 0.841786 0.707070
vt 0.840919 0.840281
vt 0.751145 0.658671
vt 0.748074 0.585214
vt 0.781359 0.651184
vt 0.773774 0.602483
vt 0.811572 0.658671
vt 0.805541 0.602483
vt 0.780639 0.896029
vt 0.777556 0.106918
vt 0.773774 0.295171
vt 0.777556 0.185756
vt 0.831241 0.312439
vt 0.465344 0.414508
vt 0.689103 0.185914
vt 0.689135 0.107112
vt 1.000000 0.166490
vt 1.000000 0.197967
vt 0.913310 0.219450
vt 0.986589 0.224334
vt 0.936538 0.236737
vt 0.963360 0.238524
vt 0.899898 0.191296
vt 0.899898 0.159819
vt 0.936538 0.119262
vt 0.996270 0.427136
vt 0.983359 0.454241
vt 0.899898 0.433559
vt 0.960996 0.470883
vt 0.912810 0.458942
vt 0.935173 0.472604
vt 0.899898 0.403254
vt 0.912810 0.376150
vt 0.960995 0.357786
vt 0.930756 0.557134
vt 0.900486 0.689092
vt 0.945803 0.475016
vt 0.946157 0.795079
vt 0.915938 0.689092
vt 0.945645 0.773414
vt 0.900484 0.794874
vt 0.960194 0.583688
vn 1.0000 0.0000 0.0000
vn 1.0000 -0.0037 -0.0037
vn 1.0000 -0.0053 -0.0022
vn 1.0000 0.0001 0.0000
vn 1.0000 -0.0014 0.0014
vn 1.0000 -0.0001 0.0000
vn 1.0000 0.0001 0.0001
vn 0.2412 -0.9374 -0.2512
vn 0.0872 -0.2578 0.9622
vn 1.0000 0.0018 0.0018
vn 0.1661 0.9525 -0.2552
vn 0.2412 0.2512 0.9374
vn 0.0736 -0.7052 0.7052
vn 0.2412 -0.6862 -0.6862
vn 0.1550 0.9543 0.2557
vn 0.0724 -0.9634 0.2581
vn 0.2412 -0.2512 -0.9374
vn 0.1343 0.7007 0.7007
vn 0.0839 -0.9625 -0.2579
vn 0.2412 0.2512 -0.9374
vn 0.1095 0.2573 0.9601
vn 0.1050 -0.7032 -0.7032
vn 0.2412 0.6862 -0.6862
vn 0.2412 -0.2512 0.9374
vn 0.1298 -0.2566 -0.9577
vn 0.2412 0.9374 -0.2512
vn 0.2412 -0.6862 0.6862
vn 0.1517 0.2558 -0.9547
vn 0.2412 0.9374 0.2512
vn 0.2412 -0.9374 0.2512
vn 0.1650 0.6974 -0.6974
vn 0.2412 0.6862 0.6862
vn 1.0000 -0.0081 -0.0022
vn 0.9999 0.0134 -0.0036
vn 0.9999 0.0076 -0.0077
vn 1.0000 -0.0021 -0.0078
vn 0.9999 0.0035 -0.0131
vn 0.9999 0.0132 -0.0035
vn 0.9999 0.0076 -0.0076
vn 0.9999 0.0035 0.0129
vn 1.0000 -0.0021 0.0006
vn 1.0000 -0.0007 0.0026
vn 1.0000 0.0096 -0.0021
vn 1.0000 0.0000 0.0001
vn 1.0000 0.0000 0.0039
vn 1.0000 0.0032 0.0009
vn 0.1298 -0.2566 -0.9578
usemtl Material.012
s off
f 6/1/1 19/2/1 27/3/1
f 42/4/2 41/5/2 51/6/2
f 5/7/3 34/8/3 46/9/3
f 29/10/1 28/11/1 39/12/1
f 34/8/4 27/3/4 35/13/4
f 5/7/5 45/14/5 44/15/5
f 28/11/6 24/16/6 3/17/6
f 3/17/1 18/18/1 8/19/1
f 12/20/7 16/21/7 22/22/7
f 24/16/4 16/21/4 3/17/4
f 6/1/1 11/23/1 13/24/1
f 10/25/1 11/23/1 2/26/1
f 3/17/1 7/27/1 2/26/1
f 47/28/8 70/29/8 46/30/8
f 32/31/9 56/32/9 31/33/9
f 1/34/10 54/35/10 53/36/10
f 65/37/1 66/38/1 63/39/1
f 77/40/1 78/41/1 75/42/1
f 39/43/11 64/44/11 63/45/11
f 43/46/12 78/47/12 54/48/12
f 33/49/13 55/50/13 32/31/13
f 48/51/14 71/52/14 47/28/14
f 41/53/15 64/54/15 40/55/15
f 33/49/16 58/56/16 57/57/16
f 49/58/17 72/59/17 48/51/17
f 42/60/18 65/61/18 41/53/18
f 34/62/19 59/63/19 58/64/19
f 49/65/20 74/66/20 73/67/20
f 31/33/21 66/68/21 42/69/21
f 35/70/22 60/71/22 59/63/22
f 50/72/23 75/73/23 74/66/23
f 43/46/24 67/74/24 68/75/24
f 36/76/25 61/77/25 60/71/25
f 51/78/26 76/79/26 75/73/26
f 44/80/27 69/81/27 67/74/27
f 37/82/28 62/83/28 61/84/28
f 53/85/29 76/86/29 52/87/29
f 45/88/30 70/89/30 69/81/30
f 38/90/31 63/45/31 62/83/31
f 54/91/32 77/92/32 53/85/32
f 27/3/1 5/7/1 6/1/1
f 6/1/1 20/93/1 19/2/1
f 47/94/33 46/9/33 34/8/33
f 47/94/34 34/8/34 33/95/34
f 48/96/2 47/94/2 33/95/2
f 48/96/35 33/95/35 32/97/35
f 49/98/36 48/96/36 32/97/36
f 49/98/37 32/97/37 31/99/37
f 50/100/37 49/98/37 31/99/37
f 50/100/36 31/99/36 42/4/36
f 40/101/33 52/102/33 41/5/33
f 52/102/38 51/6/38 41/5/38
f 51/6/39 50/100/39 42/4/39
f 36/103/1 35/13/1 26/104/1
f 35/13/1 27/3/1 26/104/1
f 37/105/1 36/103/1 25/106/1
f 36/103/1 26/104/1 25/106/1
f 38/107/1 37/105/1 30/108/1
f 37/105/1 25/106/1 30/108/1
f 28/11/1 40/101/1 39/12/1
f 39/12/1 38/107/1 29/10/1
f 38/107/1 30/108/1 29/10/1
f 34/8/4 5/7/4 27/3/4
f 43/109/40 54/35/40 5/7/40
f 5/7/41 46/9/41 45/14/41
f 44/15/42 43/109/42 5/7/42
f 3/17/6 1/34/6 28/11/6
f 1/34/43 52/102/43 40/101/43
f 40/101/6 28/11/6 1/34/6
f 8/19/1 7/27/1 3/17/1
f 3/17/1 16/21/1 18/18/1
f 18/18/1 17/110/1 8/19/1
f 21/111/7 20/93/7 12/20/7
f 12/20/1 15/112/1 16/21/1
f 16/21/6 24/16/6 23/113/6
f 22/22/44 21/111/44 12/20/44
f 16/21/1 23/113/1 22/22/1
f 6/1/1 4/114/1 11/23/1
f 11/23/1 14/115/1 13/24/1
f 13/24/44 12/20/44 20/93/44
f 20/93/4 6/1/4 13/24/4
f 11/23/1 4/114/1 2/26/1
f 2/26/1 7/27/1 10/25/1
f 7/27/1 9/116/1 10/25/1
f 47/28/8 71/52/8 70/29/8
f 32/31/9 55/50/9 56/32/9
f 1/34/45 5/7/45 54/35/45
f 53/36/46 52/102/46 1/34/46
f 56/117/1 55/118/1 60/119/1
f 55/118/1 57/120/1 59/121/1
f 57/120/1 58/122/1 59/121/1
f 59/121/1 60/119/1 55/118/1
f 60/119/1 61/123/1 56/117/1
f 61/123/1 62/124/1 56/117/1
f 62/124/1 63/39/1 66/38/1
f 56/117/1 62/124/1 66/38/1
f 63/39/1 64/125/1 65/37/1
f 68/126/1 67/127/1 72/128/1
f 67/127/1 69/129/1 71/130/1
f 69/129/1 70/131/1 71/130/1
f 71/130/1 72/128/1 67/127/1
f 72/128/1 73/132/1 68/126/1
f 73/132/1 74/133/1 68/126/1
f 74/133/1 75/42/1 78/41/1
f 68/126/1 74/133/1 78/41/1
f 75/42/1 76/134/1 77/40/1
f 39/43/11 40/135/11 64/44/11
f 43/46/12 68/75/12 78/47/12
f 33/49/13 57/57/13 55/50/13
f 48/51/14 72/59/14 71/52/14
f 41/53/15 65/61/15 64/54/15
f 33/49/16 34/136/16 58/56/16
f 49/58/17 73/137/17 72/59/17
f 42/60/18 66/138/18 65/61/18
f 34/62/19 35/70/19 59/63/19
f 49/65/20 50/72/20 74/66/20
f 31/33/21 56/32/21 66/68/21
f 35/70/22 36/76/22 60/71/22
f 50/72/23 51/78/23 75/73/23
f 43/46/24 44/80/24 67/74/24
f 36/76/47 37/139/47 61/77/47
f 51/78/26 52/140/26 76/79/26
f 44/80/27 45/88/27 69/81/27
f 37/82/28 38/90/28 62/83/28
f 53/85/29 77/92/29 76/86/29
f 45/88/30 46/141/30 70/89/30
f 38/90/31 39/43/31 63/45/31
f 54/91/32 78/142/32 77/92/32
