# Blender v2.80 (sub 75) OBJ File: ''
# www.blender.org
mtllib gold.mtl
o gold_red_Cube.001
v 2.729024 2.055473 -0.041440
v 2.729024 2.028356 -0.142644
v 2.729025 1.954270 -0.216730
v 2.729025 1.853066 -0.243848
v 2.729025 1.751862 -0.216730
v 2.729025 1.677776 -0.142644
v 2.729025 1.650658 -0.041440
v 2.729025 1.649318 -0.516203
v 2.729025 1.676615 -0.414329
v 2.729025 1.751192 -0.339751
v 2.729025 1.853067 -0.312454
v 2.729025 1.954942 -0.339751
v 2.729025 2.029519 -0.414328
v 2.729025 2.056817 -0.516203
v 2.728776 1.726400 0.358153
v 2.728776 1.685301 0.388041
v 2.729025 1.677776 0.059764
v 2.728776 1.645132 1.841671
v 2.728776 1.726400 1.423818
v 2.728776 1.773412 1.447712
v 2.728776 2.002113 1.230958
v 2.728776 2.002113 0.551013
v 2.729024 2.028356 0.059764
v 2.728776 1.995491 0.488231
v 2.728776 1.979502 0.421423
v 2.729025 1.954270 0.133850
v 2.728776 1.968666 0.388041
v 2.728776 1.927568 0.358152
v 2.729025 1.853066 0.160968
v 2.728776 1.880555 0.334258
v 2.729025 1.751862 0.133850
v 2.728776 1.821198 0.324360
v 2.728776 1.832769 0.324360
v 2.728776 1.651855 0.551013
v 2.728776 1.658477 0.488231
v 2.728776 1.674465 0.421423
v 2.728776 1.773413 0.334258
v 2.728776 1.651855 1.230958
v 2.728776 1.658477 1.293739
v 2.728776 1.873945 1.614304
v 2.728776 1.873945 1.841671
v 2.728776 1.832769 1.457610
v 2.728776 1.821198 1.457610
v 2.728776 2.146289 1.614304
v 2.728776 1.968666 1.393929
v 2.728776 1.927568 1.423818
v 2.728776 1.995490 1.293739
v 2.728776 1.979502 1.360548
v 2.728776 1.880555 1.447712
v 2.728776 1.674465 1.360548
v 2.728776 1.685301 1.393929
v 2.728776 1.645132 2.111128
v 2.728776 1.873151 2.111128
v 2.728776 1.873151 2.336857
v 2.728776 2.146289 1.838865
v 2.728776 2.378179 1.838865
v 2.728776 2.149462 2.336857
v 2.728776 2.149462 2.112289
v 2.728776 2.378179 2.112289
v 2.728870 2.397048 1.163646
v 2.728870 2.802423 1.163646
v 2.728870 2.854396 1.186080
v 2.728870 2.875996 1.245026
v 2.728870 2.875996 2.327652
v 2.728870 2.850765 2.405346
v 2.728870 2.775414 2.439986
v 2.728871 1.641622 2.439986
v 2.728871 1.562789 2.407156
v 2.728871 1.536393 2.325202
v 2.728869 2.247268 -0.826554
v 2.729025 1.954942 -0.692655
v 2.729025 1.853067 -0.719953
v 2.729025 1.751192 -0.692655
v 2.729025 1.676615 -0.618078
v 2.728869 1.536393 -0.716049
v 2.728869 1.562384 -0.793154
v 2.728869 1.640006 -0.826554
v 2.729025 2.029520 -0.618078
v 2.728869 2.303058 -0.806324
v 2.728869 2.330953 -0.747187
v 2.728870 2.330953 1.088596
v 2.728870 2.347054 1.140296
vt 0.000000 0.000000
vt 0.000000 0.000000
vt 0.000000 0.000000
vt 0.000000 0.000000
vt 0.000000 0.000000
vt 0.000000 0.000000
vt 0.000000 0.000000
vt 0.000000 0.000000
vt 0.000000 0.000000
vt 0.000000 0.000000
vt 0.000000 0.000000
vt 0.000000 0.000000
vt 0.000000 0.000000
vt 0.000000 0.000000
vt 0.000000 0.000000
vt 0.000000 0.000000
vt 0.000000 0.000000
vt 0.000000 0.000000
vt 0.000000 0.000000
vt 0.000000 0.000000
vt 0.000000 0.000000
vt 0.000000 0.000000
vt 0.000000 0.000000
vt 0.000000 0.000000
vt 0.000000 0.000000
vt 0.000000 0.000000
vt 0.000000 0.000000
vt 0.000000 0.000000
vt 0.000000 0.000000
vt 0.000000 0.000000
vt 0.000000 0.000000
vt 0.000000 0.000000
vt 0.000000 0.000000
vt 0.000000 0.000000
vt 0.000000 0.000000
vt 0.000000 0.000000
vt 0.000000 0.000000
vt 0.000000 0.000000
vt 0.000000 0.000000
vt 0.000000 0.000000
vt 0.000000 0.000000
vt 0.000000 0.000000
vt 0.000000 0.000000
vt 0.000000 0.000000
vt 0.000000 0.000000
vt 0.000000 0.000000
vt 0.000000 0.000000
vt 0.000000 0.000000
vt 0.000000 0.000000
vt 0.000000 0.000000
vt 0.000000 0.000000
vt 0.000000 0.000000
vt 0.000000 0.000000
vt 0.000000 0.000000
vt 0.000000 0.000000
vt 0.000000 0.000000
vt 0.000000 0.000000
vt 0.000000 0.000000
vt 0.000000 0.000000
vt 0.000000 0.000000
vt 0.000000 0.000000
vt 0.000000 0.000000
vt 0.000000 0.000000
vt 0.000000 0.000000
vt 0.000000 0.000000
vt 0.000000 0.000000
vt 0.000000 0.000000
vt 0.000000 0.000000
vt 0.000000 0.000000
vt 0.000000 0.000000
vt 0.000000 0.000000
vt 0.000000 0.000000
vt 0.000000 0.000000
vt 0.000000 0.000000
vt 0.000000 0.000000
vt 0.000000 0.000000
vt 0.000000 0.000000
vt 0.000000 0.000000
vt 0.000000 0.000000
vt 0.000000 0.000000
vt 0.000000 0.000000
vt 0.000000 0.000000
vn 1.0000 -0.0000 0.0000
vn 1.0000 -0.0001 0.0010
vn 1.0000 0.0009 0.0007
vn 1.0000 0.0004 0.0008
vn 1.0000 -0.0005 -0.0000
vn 1.0000 -0.0022 -0.0001
vn 1.0000 -0.0005 0.0004
vn 1.0000 -0.0007 -0.0006
vn 1.0000 -0.0013 0.0005
vn 1.0000 -0.0025 0.0004
vn 1.0000 -0.0008 0.0021
vn 1.0000 -0.0015 0.0011
vn 1.0000 -0.0013 0.0010
vn 1.0000 -0.0007 0.0010
vn 1.0000 -0.0000 0.0014
vn 1.0000 0.0001 0.0014
vn 1.0000 -0.0007 0.0011
vn 1.0000 -0.0002 0.0015
vn 1.0000 -0.0014 0.0005
vn 1.0000 -0.0013 0.0008
vn 1.0000 0.0025 0.0004
vn 1.0000 -0.0006 0.0007
vn 1.0000 0.0004 0.0012
vn 1.0000 0.0001 0.0000
vn 1.0000 -0.0001 0.0001
vn 1.0000 -0.0002 -0.0002
vn 1.0000 0.0001 0.0004
vn 1.0000 -0.0001 0.0000
vn 1.0000 -0.0001 0.0005
vn 1.0000 -0.0001 -0.0001
vn 1.0000 0.0002 -0.0003
vn 1.0000 -0.0008 -0.0004
vn 1.0000 -0.0007 -0.0003
vn 1.0000 -0.0004 -0.0007
vn 1.0000 -0.0002 0.0001
vn 1.0000 -0.0002 0.0003
vn 1.0000 0.0004 -0.0002
vn 1.0000 -0.0001 0.0002
vn 1.0000 -0.0001 -0.0002
vn 1.0000 0.0003 -0.0004
vn 1.0000 -0.0000 -0.0013
vn 1.0000 0.0003 -0.0006
vn 1.0000 -0.0013 -0.0001
vn 1.0000 -0.0004 -0.0008
vn 1.0000 0.0004 -0.0003
vn 1.0000 0.0005 -0.0000
usemtl None.001
s off
f 6/1/1 7/2/1 9/3/1
f 14/4/1 1/5/1 13/6/1
f 1/5/1 2/7/1 13/6/1
f 12/8/1 13/6/1 2/7/1
f 12/8/1 2/7/1 3/9/1
f 11/10/1 12/8/1 3/9/1
f 11/10/1 3/9/1 4/11/1
f 10/12/1 11/10/1 5/13/1
f 11/10/1 4/11/1 5/13/1
f 7/2/1 8/14/1 9/3/1
f 9/3/1 10/12/1 6/1/1
f 10/12/1 5/13/1 6/1/1
s 1
f 15/15/2 16/16/3 17/17/4
f 18/18/5 19/19/1 20/20/1
f 21/21/6 22/22/7 1/5/8
f 1/5/8 22/22/7 23/23/9
f 22/22/7 24/24/10 23/23/9
f 24/24/10 25/25/11 23/23/9
f 23/23/9 25/25/11 26/26/12
f 25/25/11 27/27/13 26/26/12
f 26/26/12 27/27/13 28/28/14
f 29/29/15 26/26/12 30/30/16
f 26/26/12 28/28/14 30/30/16
f 31/31/17 29/29/15 32/32/15
f 29/29/15 30/30/16 33/33/18
f 29/29/15 33/33/18 32/32/15
f 34/34/19 7/2/20 35/35/21
f 7/2/20 17/17/4 36/36/22
f 35/35/21 7/2/20 36/36/22
f 17/17/4 31/31/17 15/15/2
f 31/31/17 32/32/15 37/37/23
f 31/31/17 37/37/23 15/15/2
f 16/16/3 36/36/22 17/17/4
f 18/18/5 34/34/19 38/38/24
f 18/18/5 38/38/24 39/39/1
f 40/40/1 41/41/1 42/42/1
f 41/41/1 18/18/5 20/20/1
f 42/42/1 41/41/1 43/43/1
f 44/44/25 40/40/1 45/45/1
f 45/45/1 40/40/1 46/46/1
f 47/47/1 21/21/6 44/44/25
f 48/48/1 47/47/1 44/44/25
f 45/45/1 48/48/1 44/44/25
f 49/49/1 46/46/1 40/40/1
f 18/18/5 39/39/1 50/50/1
f 18/18/5 50/50/1 51/51/1
f 49/49/1 40/40/1 42/42/1
f 43/43/1 41/41/1 20/20/1
f 18/18/5 51/51/1 19/19/1
f 52/52/26 53/53/1 54/54/27
f 55/55/1 44/44/25 56/56/28
f 57/57/29 58/58/1 59/59/30
f 67/60/31 54/54/27 57/57/29
f 74/61/32 75/62/33 77/63/34
f 21/21/6 81/64/35 82/65/36
f 69/66/37 75/62/33 34/34/19
f 56/56/28 44/44/25 60/67/38
f 44/44/25 21/21/6 60/67/38
f 60/67/38 61/68/1 63/69/25
f 56/56/28 60/67/38 63/69/25
f 61/68/1 62/70/1 63/69/25
f 63/69/25 64/71/30 56/56/28
f 64/71/30 65/72/1 66/73/39
f 56/56/28 64/71/30 59/59/30
f 66/73/39 67/60/31 57/57/29
f 67/60/31 68/74/1 69/66/37
f 69/66/37 52/52/26 67/60/31
f 52/52/26 54/54/27 67/60/31
f 59/59/30 64/71/30 66/73/39
f 66/73/39 57/57/29 59/59/30
f 77/63/34 70/75/40 72/76/41
f 70/75/40 71/77/42 72/76/41
f 75/62/33 76/78/1 77/63/34
f 74/61/32 8/14/43 75/62/33
f 77/63/34 72/76/41 73/79/44
f 73/79/44 74/61/32 77/63/34
f 78/80/45 71/77/42 70/75/40
f 70/75/40 79/81/1 80/82/37
f 70/75/40 80/82/37 78/80/45
f 80/82/37 81/64/35 1/5/8
f 14/4/46 78/80/45 80/82/37
f 1/5/8 14/4/46 80/82/37
f 82/65/36 60/67/38 21/21/6
f 21/21/6 1/5/8 81/64/35
f 8/14/43 7/2/20 75/62/33
f 7/2/20 34/34/19 75/62/33
f 18/18/5 52/52/26 69/66/37
f 34/34/19 18/18/5 69/66/37
