# Blender v2.79 (sub 0) OBJ File: 'atari2600.blend'
# www.blender.org
mtllib red.mtl
o text_Text
v -1.700879 1.612020 -1.416576
v -1.700879 1.582278 -1.362920
v -1.692063 1.582278 -1.362920
v -1.690680 1.595542 -1.386848
v -1.679061 1.593175 -1.382578
v -1.663998 1.582278 -1.362920
v -1.653895 1.582369 -1.363084
v -1.673791 1.596488 -1.388554
v -1.666988 1.599823 -1.394570
v -1.664983 1.604787 -1.403526
v -1.673379 1.611231 -1.415152
v -1.692063 1.608357 -1.409967
v -1.679322 1.608013 -1.409346
v -1.673970 1.604392 -1.402813
v -1.678340 1.599551 -1.394080
v -1.692063 1.599025 -1.393131
v -1.711223 1.612020 -1.416576
v -1.746035 1.612020 -1.416576
v -1.746035 1.582278 -1.362920
v -1.710414 1.582278 -1.362920
v -1.710414 1.586116 -1.369843
v -1.737220 1.586116 -1.369843
v -1.737220 1.595361 -1.386522
v -1.712123 1.595361 -1.386522
v -1.712123 1.599199 -1.393445
v -1.737220 1.599199 -1.393445
v -1.737220 1.608183 -1.409652
v -1.711223 1.608183 -1.409652
v -1.752872 1.612020 -1.416576
v -1.761597 1.612020 -1.416576
v -1.778328 1.591524 -1.379599
v -1.795419 1.612020 -1.416576
v -1.803785 1.612020 -1.416576
v -1.820786 1.591524 -1.379599
v -1.837697 1.612020 -1.416576
v -1.846513 1.612020 -1.416576
v -1.820832 1.581891 -1.362220
v -1.799647 1.606351 -1.406348
v -1.778643 1.581891 -1.362220
v -1.915591 1.592140 -1.380710
v -1.903073 1.584432 -1.366806
v -1.886281 1.581738 -1.361945
v -1.867649 1.583415 -1.364971
v -1.855358 1.588669 -1.374449
v -1.850038 1.597186 -1.389814
v -1.854488 1.604848 -1.403637
v -1.867495 1.611120 -1.414951
v -1.897574 1.611682 -1.415964
v -1.914621 1.603125 -1.400528
v -1.906382 1.601032 -1.396752
v -1.895030 1.607766 -1.408901
v -1.870787 1.607314 -1.408086
v -1.860676 1.601033 -1.396754
v -1.860362 1.593226 -1.382670
v -1.869800 1.587590 -1.372503
v -1.883573 1.585609 -1.368928
v -1.897276 1.587590 -1.372502
v -1.906696 1.593228 -1.382674
v -1.960123 1.612020 -1.416576
v -1.960123 1.582278 -1.362920
v -1.951308 1.582278 -1.362920
v -1.951308 1.595143 -1.386129
v -1.930543 1.595801 -1.387315
v -1.920726 1.602727 -1.399811
v -1.928958 1.611170 -1.415042
v -1.951308 1.608183 -1.409652
v -1.936980 1.608038 -1.409392
v -1.931048 1.605805 -1.405363
v -1.932990 1.599785 -1.394502
v -1.951308 1.598981 -1.393052
vn 0.0000 0.8746 0.4848
vn -0.0001 0.8747 0.4847
vn 0.0001 0.8746 0.4848
usemtl Material.003
s off
f 2//1 12//1 1//1
f 12//1 11//1 1//1
f 12//1 13//1 11//1
f 2//1 16//1 12//1
f 13//1 10//1 11//1
f 14//1 10//1 13//1
f 15//1 10//1 14//1
f 15//1 9//1 10//1
f 2//1 4//1 16//1
f 4//1 15//1 16//1
f 4//1 9//1 15//1
f 4//1 8//1 9//1
f 2//1 3//1 4//1
f 5//1 8//1 4//1
f 5//1 7//1 8//1
f 6//1 7//1 5//1
f 19//1 27//1 18//1
f 27//1 17//1 18//1
f 27//1 28//1 17//1
f 19//1 26//1 27//1
f 19//1 23//1 26//1
f 23//1 25//1 26//1
f 23//1 24//1 25//1
f 19//1 22//1 23//1
f 19//1 21//1 22//1
f 19//1 20//1 21//1
f 37//1 35//1 36//1
f 37//1 34//1 35//1
f 34//1 32//1 33//1
f 34//1 38//1 32//1
f 38//1 31//1 32//1
f 31//1 29//1 30//1
f 31//1 39//1 29//1
f 34//1 37//1 38//1
f 39//1 31//1 38//1
f 51//1 47//1 48//1
f 52//1 47//1 51//1
f 52//1 46//1 47//1
f 49//1 51//1 48//1
f 53//1 46//1 52//1
f 49//1 50//1 51//1
f 53//1 45//1 46//1
f 40//1 50//1 49//1
f 54//1 45//1 53//1
f 40//1 58//1 50//1
f 54//1 44//1 45//1
f 55//1 44//1 54//1
f 40//1 57//1 58//1
f 41//1 57//1 40//1
f 56//1 44//1 55//1
f 41//1 56//1 57//1
f 56//1 43//1 44//1
f 41//1 43//1 56//1
f 42//1 43//1 41//1
f 60//1 66//1 59//1
f 66//1 65//1 59//1
f 66//1 67//1 65//1
f 60//1 70//1 66//1
f 67//1 64//1 65//1
f 68//2 64//2 67//2
f 69//1 64//1 68//1
f 69//1 63//1 64//1
f 60//3 62//3 70//3
f 62//1 69//1 70//1
f 62//1 63//1 69//1
f 60//1 61//1 62//1
o text1_Text.001
v -1.969138 1.504712 -1.223169
v -1.977414 1.504712 -1.223169
v -1.977414 1.481686 -1.181629
v -2.023760 1.505185 -1.224022
v -2.025989 1.474970 -1.169513
v -2.017713 1.474970 -1.169513
v -2.017713 1.497866 -1.210817
v -1.971551 1.474462 -1.168597
v -2.101723 1.484832 -1.187304
v -2.089206 1.477124 -1.173399
v -2.072413 1.474430 -1.168539
v -2.053782 1.476107 -1.171564
v -2.041490 1.481361 -1.181043
v -2.036170 1.489878 -1.196408
v -2.040620 1.497540 -1.210230
v -2.053628 1.503812 -1.221545
v -2.076981 1.504952 -1.223602
v -2.090639 1.501944 -1.218176
v -2.100753 1.495817 -1.207121
v -2.092514 1.493724 -1.203346
v -2.081162 1.500458 -1.215495
v -2.056919 1.500006 -1.214679
v -2.046808 1.493725 -1.203348
v -2.046494 1.485918 -1.189264
v -2.055932 1.480282 -1.179096
v -2.069705 1.478301 -1.175521
v -2.083408 1.480282 -1.179095
v -2.092829 1.485920 -1.189268
vn -0.0000 0.8746 0.4848
usemtl Material.001
s off
f 75//4 77//4 74//4
f 77//4 73//4 74//4
f 73//4 71//4 72//4
f 73//4 78//4 71//4
f 75//4 76//4 77//4
f 78//4 73//4 77//4
f 88//4 86//4 87//4
f 91//4 86//4 88//4
f 92//4 86//4 91//4
f 92//4 85//4 86//4
f 89//4 91//4 88//4
f 93//4 85//4 92//4
f 89//4 90//4 91//4
f 93//4 84//4 85//4
f 79//4 90//4 89//4
f 94//4 84//4 93//4
f 79//4 98//4 90//4
f 94//4 83//4 84//4
f 95//4 83//4 94//4
f 79//4 97//4 98//4
f 80//4 97//4 79//4
f 96//4 83//4 95//4
f 80//4 96//4 97//4
f 96//4 82//4 83//4
f 80//4 82//4 96//4
f 81//4 82//4 80//4
o text2_Text.002
v -1.957457 1.383470 -1.004513
v -1.990200 1.383470 -1.004513
v -1.990200 1.353728 -0.950857
v -1.981384 1.353728 -0.950857
v -1.981384 1.367552 -0.975797
v -1.957457 1.367552 -0.975797
v -1.957457 1.371390 -0.982720
v -1.981384 1.371390 -0.982720
v -1.981384 1.379632 -0.997590
v -1.957457 1.379632 -0.997590
v -1.999645 1.383470 -1.004513
v -2.032388 1.383470 -1.004513
v -2.032388 1.353728 -0.950857
v -2.023572 1.353728 -0.950857
v -2.023572 1.367552 -0.975797
v -1.999645 1.367552 -0.975797
v -1.999645 1.371390 -0.982720
v -2.023572 1.371390 -0.982720
v -2.023572 1.379632 -0.997590
v -1.999645 1.379632 -0.997590
v -2.108302 1.363589 -0.968648
v -2.095785 1.355882 -0.954743
v -2.078993 1.353188 -0.949883
v -2.060361 1.354865 -0.952908
v -2.048069 1.360119 -0.962387
v -2.042538 1.371828 -0.983511
v -2.060207 1.382569 -1.002888
v -2.090286 1.383131 -1.003902
v -2.107332 1.374574 -0.988465
v -2.099093 1.372481 -0.984690
v -2.087741 1.379216 -0.996839
v -2.063498 1.378764 -0.996023
v -2.053387 1.372483 -0.984692
v -2.053073 1.364676 -0.970608
v -2.062511 1.359040 -0.960440
v -2.076284 1.357058 -0.956865
v -2.089987 1.359039 -0.960439
v -2.099408 1.364678 -0.970612
vn -0.0000 0.8746 0.4848
vn 0.0000 0.8746 0.4849
vn 0.0000 0.8747 0.4846
usemtl Material.002
s off
f 101//5 107//5 100//5
f 107//5 99//5 100//5
f 107//5 108//5 99//5
f 101//5 106//5 107//5
f 101//5 103//5 106//5
f 103//5 105//5 106//5
f 103//5 104//5 105//5
f 101//5 102//5 103//5
f 111//5 117//5 110//5
f 117//5 109//5 110//5
f 117//5 118//5 109//5
f 111//5 116//5 117//5
f 111//5 113//5 116//5
f 113//5 115//5 116//5
f 113//6 114//6 115//6
f 111//5 112//5 113//5
f 129//5 125//5 126//5
f 130//5 125//5 129//5
f 130//5 124//5 125//5
f 127//5 129//5 126//5
f 131//5 124//5 130//5
f 127//5 128//5 129//5
f 119//5 128//5 127//5
f 132//5 124//5 131//5
f 119//5 136//5 128//5
f 132//5 123//5 124//5
f 133//5 123//5 132//5
f 119//5 135//5 136//5
f 120//5 135//5 119//5
f 134//7 123//7 133//7
f 120//5 134//5 135//5
f 134//5 122//5 123//5
f 120//5 122//5 134//5
f 121//5 122//5 120//5
