# Blender v2.79 (sub 0) OBJ File: 'atari2600.blend'
# www.blender.org
mtllib wood.mtl
o wood_Cube.001
v -3.288756 1.306901 -2.506052
v -3.288756 1.306901 -2.506052
v -3.137256 1.326901 1.763948
v -3.137256 1.326900 1.513948
v 3.427742 1.326901 1.763948
v 3.427742 1.326900 1.513948
v -2.973131 0.526900 1.763948
v 3.263616 0.526900 1.763948
v -3.137256 1.226900 1.763948
v -3.137256 1.226900 1.513948
v 3.427742 1.226900 1.763948
v 3.427742 1.226900 1.513948
vt 0.309523 0.000000
vt 0.309523 1.000000
vt 0.228524 1.000000
vt 0.228523 0.000000
vt 0.228523 1.000000
vt 0.011855 0.975000
vt 0.011854 0.025000
vt 0.228523 0.000000
vt 0.374324 0.038081
vt 0.374324 0.076161
vt 0.341924 0.076161
vt 0.341924 0.038081
vt 0.374324 0.038081
vt 0.341924 0.038081
vt 0.341924 0.000000
vt 0.374324 0.000000
vt 0.341923 0.000000
vt 0.341924 1.000000
vt 0.309524 1.000000
vt 0.309523 0.000000
vn 0.0000 -1.0000 0.0000
vn 0.0000 -0.0000 1.0000
vn 1.0000 0.0000 0.0000
vn -1.0000 0.0000 0.0000
usemtl wood
s off
f 5/1/1 3/2/1 4/3/1 6/4/1
f 3/5/2 7/6/2 8/7/2 5/8/2
f 4/9/3 3/10/3 9/11/3 10/12/3
f 6/13/4 12/14/4 11/15/4 5/16/4
f 6/17/2 4/18/2 10/19/2 12/20/2
l 1 2
