# Blender v2.80 (sub 75) OBJ File: ''
# www.blender.org
mtllib antenna.mtl
o Circle
v -0.811068 9.541159 1.773667
v 0.000000 9.541159 1.736921
v 0.000000 9.479592 1.736921
v -0.811068 9.479592 1.773667
v 0.549220 9.771202 3.520682
v 1.061012 9.771202 3.447730
v 0.536722 9.882390 3.135230
v 0.277827 9.882390 3.172133
v -0.549221 9.771203 2.109957
v 0.000000 9.771203 2.085074
v 2.215878 9.541158 3.577862
v 2.713887 9.541158 3.354518
v 1.837729 9.771202 3.180442
v 1.500498 9.771202 3.331681
v -2.713888 9.541158 3.354518
v -2.215880 9.541158 3.577861
v -1.500500 9.771202 3.331680
v -1.837729 9.771202 3.180441
v 0.811071 9.541159 1.773667
v 0.549222 9.771203 2.109957
v -1.566864 9.541159 1.881399
v -1.061013 9.771203 2.182908
v 3.026947 9.541158 3.094429
v 2.049720 9.771202 3.004321
v -1.566864 9.541158 3.749239
v -1.061014 9.771202 3.447730
v -2.215880 9.541159 2.052777
v -1.500500 9.771203 2.298958
v 3.133727 9.541159 2.815320
v 2.122027 9.771203 2.815320
v -0.811069 9.541158 3.856971
v -0.549222 9.771202 3.520682
v -2.713887 9.541159 2.276120
v -1.837729 9.771203 2.450197
v 3.026948 9.541159 2.536210
v 2.049721 9.771203 2.626318
v -0.000001 9.541158 3.893717
v -0.000001 9.771202 3.545564
v -3.026948 9.541159 2.536209
v -2.049721 9.771203 2.626318
v 2.713888 9.541159 2.276121
v 1.837730 9.771203 2.450197
v 0.811067 9.541158 3.856971
v -3.133727 9.541159 2.815319
v -2.122027 9.771203 2.815319
v 2.215881 9.541159 2.052777
v 1.500500 9.771203 2.298958
v 1.566862 9.541158 3.749239
v -3.026948 9.541158 3.094429
v -2.049721 9.771202 3.004320
v 1.566865 9.541159 1.881400
v 1.061015 9.771203 2.182909
v -0.277828 9.882391 2.458506
v -0.536723 9.882391 2.495409
v -0.759040 9.882391 2.554113
v -0.929631 9.882391 2.630619
v -1.036868 9.882391 2.719711
v -1.073445 9.882391 2.815319
v -1.036868 9.882391 2.910927
v -0.929631 9.882390 3.000019
v -0.759040 9.882390 3.076525
v -0.536723 9.882390 3.135229
v -0.277828 9.882390 3.172133
v -0.000001 9.882390 3.184720
v 0.759040 9.882390 3.076525
v 0.929630 9.882390 3.000020
v 1.036868 9.882391 2.910927
v 1.073445 9.882391 2.815319
v 1.036868 9.882391 2.719712
v 0.929631 9.882391 2.630619
v 0.759040 9.882391 2.554114
v 0.536723 9.882391 2.495409
v 0.277829 9.882391 2.458506
v 0.000000 9.882391 2.445919
v 0.811071 9.479592 1.773667
v 1.566865 9.479592 1.881400
v 2.215881 9.479592 2.052776
v 2.713888 9.479592 2.276120
v 3.026948 9.479592 2.536209
v 3.133727 9.479592 2.815320
v 3.026947 9.479591 3.094429
v 2.713887 9.479591 3.354517
v 2.215878 9.479591 3.577862
v 1.566862 9.479591 3.749238
v 0.811067 9.479591 3.856971
v -0.000001 9.479591 3.893716
v -0.811069 9.479591 3.856971
v -1.566864 9.479591 3.749238
v -2.215880 9.479591 3.577860
v -2.713888 9.479591 3.354517
v -3.026948 9.479591 3.094429
v -3.133727 9.479592 2.815318
v -3.026948 9.479592 2.536208
v -2.713887 9.479592 2.276119
v -2.215880 9.479592 2.052776
v -1.566864 9.479592 1.881399
v -0.779903 9.766152 2.992444
v -0.756840 9.830005 2.867791
v -0.630021 9.857080 2.908684
v -0.574707 9.809959 3.058610
v -0.675970 9.719583 3.066724
v -1.759473 10.717399 5.841770
v -1.806924 10.831632 5.798565
v -2.384701 10.688470 8.226095
v -2.341881 10.572066 8.273453
v -1.856604 10.627037 5.822981
v -1.964085 10.685422 5.768165
v -1.933381 10.811868 5.753074
v -2.545470 10.544632 8.194995
v -2.441242 10.483171 8.254230
v -2.510528 10.671513 8.177606
v 0.950215 9.779454 2.957444
v 0.846282 9.732884 3.031724
v 0.745018 9.823261 3.023610
v 0.772398 9.870381 2.873685
v 0.899217 9.843307 2.832792
v 2.013194 11.066132 5.913944
v 3.139334 10.616169 8.108670
v 3.177146 10.725635 8.043761
v 2.059237 11.178824 5.866382
v 2.217400 11.033064 5.839692
v 2.110944 10.976048 5.897449
v 2.185443 11.158387 5.820492
v 3.341417 10.583212 8.028461
v 3.302040 10.705265 7.994189
v 3.240859 10.528148 8.099216
vt 0.138736 0.378353
vt 0.138736 0.418485
vt 0.129973 0.418485
vt 0.129973 0.378353
vt 0.359718 0.112554
vt 0.373282 0.089019
vt 0.413629 0.120322
vt 0.406767 0.132228
vt 0.608676 0.172483
vt 0.598307 0.211247
vt 0.551728 0.192229
vt 0.558749 0.165980
vt 0.363113 0.030453
vt 0.397807 0.010387
vt 0.415958 0.056215
vt 0.392464 0.069803
vt 0.363109 0.274380
vt 0.334782 0.246002
vt 0.373280 0.215764
vt 0.392461 0.234980
vt 0.608677 0.132350
vt 0.558750 0.138804
vt 0.578276 0.246002
vt 0.538164 0.215764
vt 0.436503 0.000000
vt 0.442161 0.049182
vt 0.314752 0.211247
vt 0.359716 0.192229
vt 0.549948 0.274380
vt 0.518981 0.234980
vt 0.476564 0.000000
vt 0.469288 0.049182
vt 0.304385 0.172483
vt 0.352696 0.165980
vt 0.515254 0.294446
vt 0.495488 0.248568
vt 0.515260 0.010387
vt 0.495491 0.056215
vt 0.304385 0.132351
vt 0.352696 0.138804
vt 0.476558 0.304833
vt 0.469285 0.255602
vt 0.549953 0.030453
vt 0.518984 0.069803
vt 0.314755 0.093586
vt 0.436498 0.304833
vt 0.442157 0.255602
vt 0.578280 0.058831
vt 0.538166 0.089019
vt 0.334786 0.058831
vt 0.397802 0.294446
vt 0.415954 0.248568
vt 0.598309 0.093586
vt 0.551729 0.112554
vt 0.503897 0.172532
vt 0.497036 0.184437
vt 0.487332 0.194158
vt 0.475448 0.201032
vt 0.462193 0.204590
vt 0.448470 0.204590
vt 0.435215 0.201032
vt 0.423331 0.194158
vt 0.413628 0.184437
vt 0.406767 0.172532
vt 0.403215 0.159253
vt 0.403215 0.145506
vt 0.423332 0.110602
vt 0.435217 0.103728
vt 0.448472 0.100170
vt 0.462194 0.100170
vt 0.475449 0.103728
vt 0.487334 0.110602
vt 0.497037 0.120322
vt 0.503898 0.132228
vt 0.507449 0.145506
vt 0.507449 0.159253
vt 0.108100 0.336022
vt 0.109700 0.304849
vt 0.118445 0.304833
vt 0.116845 0.336007
vt 0.121226 0.521319
vt 0.119717 0.487316
vt 0.128464 0.487264
vt 0.129973 0.521267
vt 0.138736 0.457250
vt 0.129973 0.457250
vt 0.138736 0.339588
vt 0.129973 0.339588
vt 0.107094 0.372675
vt 0.115839 0.372660
vt 0.147500 0.492005
vt 0.147500 0.520383
vt 0.138736 0.520383
vt 0.138736 0.492005
vt 0.138736 0.304833
vt 0.129973 0.304833
vt 0.106751 0.412310
vt 0.115496 0.412294
vt 0.147500 0.457250
vt 0.138736 0.457250
vt 0.119717 0.334273
vt 0.121226 0.304884
vt 0.128464 0.334222
vt 0.107094 0.452224
vt 0.115839 0.452209
vt 0.147500 0.418485
vt 0.138736 0.418485
vt 0.118769 0.369734
vt 0.127516 0.369683
vt 0.108100 0.489699
vt 0.116845 0.489683
vt 0.147500 0.378353
vt 0.138736 0.378353
vt 0.118445 0.408850
vt 0.127192 0.408798
vt 0.109700 0.522180
vt 0.118445 0.522165
vt 0.147500 0.339588
vt 0.138736 0.339588
vt 0.118769 0.448954
vt 0.127516 0.448903
vt 0.138736 0.492005
vt 0.138736 0.520383
vt 0.129973 0.520383
vt 0.129973 0.492005
vt 0.147500 0.304833
vt 0.138736 0.304833
vt 0.968118 0.696119
vt 0.950112 0.701136
vt 0.946809 0.694575
vt 0.962773 0.685503
vt 0.975943 0.686457
vt 0.900305 0.271283
vt 0.883475 0.275031
vt 0.946336 0.004280
vt 0.963573 0.000000
vt 0.106751 0.318946
vt 0.043381 0.727321
vt 0.033500 0.720663
vt 0.098072 0.309288
vt 0.993109 0.698076
vt 0.989171 0.284901
vt 0.996124 0.279172
vt 1.000000 0.692973
vt 0.912883 0.276018
vt 0.015565 0.721810
vt 0.080252 0.304833
vt 0.096346 0.987519
vt 0.106751 0.994706
vt 0.095146 1.000000
vt 0.077570 0.996086
vt 0.078312 0.988372
vt 0.993023 0.006148
vt 1.000000 0.000000
vt 0.975942 0.004770
vt 0.731593 0.004748
vt 0.739493 0.013561
vt 0.726274 0.014259
vt 0.710205 0.005878
vt 0.713492 0.000000
vt 0.625406 0.454604
vt 0.727023 0.705514
vt 0.710299 0.699306
vt 0.608677 0.450936
vt 0.867881 0.689551
vt 0.859086 0.698510
vt 0.757402 0.259235
vt 0.767219 0.252871
vt 0.988214 0.691631
vt 0.981168 0.686722
vt 0.975942 0.261618
vt 0.983061 0.267213
vt 0.637982 0.450456
vt 0.841116 0.702969
vt 0.739493 0.258647
vt 0.858005 0.011718
vt 0.840168 0.013341
vt 0.839021 0.006099
vt 0.856149 0.000000
vt 0.867881 0.003473
vt 0.147529 0.578657
vt 0.147500 0.313937
vt 0.154063 0.304833
vt 0.154063 0.571428
vt 0.981080 0.000000
vt 0.988214 0.006123
vt 0.739493 0.702418
vn -0.0864 0.4757 -0.8754
vn -0.0000 0.4681 -0.8837
vn -0.0000 0.0000 -1.0000
vn -0.0933 0.0000 -0.9956
vn 0.0371 0.9070 0.4195
vn 0.0737 0.9196 0.3858
vn 0.0237 0.9899 0.1395
vn 0.0114 0.9886 0.1501
vn -0.0371 0.9070 -0.4195
vn -0.0000 0.9026 -0.4305
vn 0.2931 0.5255 0.7987
vn 0.4502 0.5550 0.6996
vn 0.1395 0.9595 0.2446
vn 0.1084 0.9385 0.3278
vn -0.4502 0.5550 0.6996
vn -0.2931 0.5255 0.7987
vn -0.1084 0.9385 0.3278
vn -0.1395 0.9595 0.2445
vn 0.0864 0.4757 -0.8754
vn 0.0371 0.9070 -0.4195
vn -0.1798 0.4963 -0.8493
vn -0.0737 0.9196 -0.3858
vn 0.6752 0.5675 0.4712
vn 0.1649 0.9770 0.1350
vn -0.1798 0.4963 0.8493
vn -0.0737 0.9196 0.3858
vn -0.2931 0.5255 -0.7987
vn -0.1084 0.9385 -0.3278
vn 0.8269 0.5624 0.0000
vn 0.1771 0.9842 0.0000
vn -0.0864 0.4757 0.8754
vn -0.0371 0.9070 0.4195
vn -0.4502 0.5550 -0.6996
vn -0.1395 0.9595 -0.2445
vn 0.6752 0.5675 -0.4712
vn 0.1649 0.9770 -0.1350
vn 0.0000 0.4681 0.8837
vn 0.0000 0.9026 0.4305
vn -0.6752 0.5675 -0.4712
vn -0.1649 0.9770 -0.1350
vn 0.4502 0.5550 -0.6996
vn 0.1395 0.9595 -0.2445
vn 0.0864 0.4757 0.8754
vn -0.8269 0.5624 0.0000
vn -0.1771 0.9842 0.0000
vn 0.2931 0.5255 -0.7987
vn 0.1084 0.9385 -0.3278
vn 0.1798 0.4963 0.8493
vn -0.6752 0.5675 0.4712
vn -0.1649 0.9770 0.1350
vn 0.1798 0.4963 -0.8493
vn 0.0737 0.9196 -0.3858
vn -0.0114 0.9886 -0.1501
vn -0.0237 0.9899 -0.1395
vn -0.0359 0.9921 -0.1199
vn -0.0474 0.9947 -0.0914
vn -0.0585 0.9969 -0.0525
vn -0.0650 0.9979 0.0000
vn -0.0585 0.9969 0.0525
vn -0.0474 0.9947 0.0914
vn -0.0359 0.9921 0.1199
vn -0.0237 0.9899 0.1395
vn -0.0114 0.9886 0.1501
vn -0.0000 0.9882 0.1531
vn 0.0359 0.9921 0.1199
vn 0.0474 0.9947 0.0914
vn 0.0585 0.9969 0.0525
vn 0.0650 0.9979 0.0000
vn 0.0585 0.9969 -0.0525
vn 0.0474 0.9947 -0.0914
vn 0.0359 0.9921 -0.1199
vn 0.0237 0.9899 -0.1395
vn 0.0114 0.9886 -0.1501
vn -0.0000 0.9882 -0.1531
vn 0.3334 -0.0000 0.9428
vn 0.5290 -0.0000 0.8486
vn -0.5290 -0.0000 0.8486
vn -0.3334 -0.0000 0.9428
vn 0.0933 0.0000 -0.9956
vn -0.1985 0.0000 -0.9801
vn 0.8130 -0.0000 0.5822
vn -0.1985 -0.0000 0.9801
vn -0.3334 0.0000 -0.9428
vn 1.0000 0.0000 0.0000
vn -0.0933 -0.0000 0.9956
vn -0.5290 0.0000 -0.8486
vn 0.8130 0.0000 -0.5822
vn 0.0000 -0.0000 1.0000
vn -0.8130 0.0000 -0.5822
vn 0.5290 0.0000 -0.8486
vn 0.0933 -0.0000 0.9956
vn -1.0000 0.0000 0.0000
vn 0.3334 0.0000 -0.9428
vn 0.1985 -0.0000 0.9801
vn -0.8130 -0.0000 0.5822
vn 0.1985 0.0000 -0.9801
vn -0.5270 -0.7234 -0.4460
vn -0.1850 0.1449 -0.9720
vn 0.6535 0.1802 -0.7352
vn 0.9655 -0.2579 0.0368
vn 0.1972 -0.9803 -0.0068
vn 0.9523 -0.0564 0.3000
vn 0.3829 0.9238 -0.0066
vn 0.2045 0.7599 0.6170
vn 0.5585 -0.1005 0.8234
vn 0.0857 -0.9854 0.1469
vn -0.8835 -0.4165 -0.2141
vn -0.6478 0.7017 -0.2966
vn -0.8844 -0.3015 0.3564
vn -0.1119 -0.7326 0.6714
vn -0.6884 0.6388 0.3436
vn 0.5771 -0.6943 -0.4301
vn -0.1771 -0.9828 0.0530
vn -0.9421 -0.3264 0.0770
vn -0.6699 0.1456 -0.7280
vn 0.1256 0.0478 -0.9909
vn -0.9015 0.0038 0.4327
vn -0.4753 -0.0817 0.8760
vn -0.0875 0.7744 0.6266
vn -0.3839 0.9215 0.0594
vn 0.8472 -0.4021 -0.3473
vn -0.1518 -0.9751 0.1617
vn 0.5836 0.7380 -0.3389
vn 0.9170 -0.3193 0.2393
vn 0.7481 0.6275 0.2160
vn 0.1957 -0.7042 0.6825
usemtl None
s 1
f 1/1/1 2/2/2 3/3/3 4/4/4
f 5/5/5 6/6/6 7/7/7 8/8/8
f 2/9/2 1/10/1 9/11/9 10/12/10
f 11/13/11 12/14/12 13/15/13 14/16/14
f 15/17/15 16/18/16 17/19/17 18/20/18
f 19/21/19 2/9/2 10/12/10 20/22/20
f 1/10/1 21/23/21 22/24/22 9/11/9
f 12/14/12 23/25/23 24/26/24 13/15/13
f 16/18/16 25/27/25 26/28/26 17/19/17
f 21/23/21 27/29/27 28/30/28 22/24/22
f 23/25/23 29/31/29 30/32/30 24/26/24
f 25/27/25 31/33/31 32/34/32 26/28/26
f 27/29/27 33/35/33 34/36/34 28/30/28
f 29/31/29 35/37/35 36/38/36 30/32/30
f 31/33/31 37/39/37 38/40/38 32/34/32
f 33/35/33 39/41/39 40/42/40 34/36/34
f 35/37/35 41/43/41 42/44/42 36/38/36
f 37/39/37 43/45/43 5/5/5 38/40/38
f 39/41/39 44/46/44 45/47/45 40/42/40
f 41/43/41 46/48/46 47/49/47 42/44/42
f 43/45/43 48/50/48 6/6/6 5/5/5
f 44/46/44 49/51/49 50/52/50 45/47/45
f 46/48/46 51/53/51 52/54/52 47/49/47
f 48/50/48 11/13/11 14/16/14 6/6/6
f 49/51/49 15/17/15 18/20/18 50/52/50
f 51/53/51 19/21/19 20/22/20 52/54/52
f 53/55/53 54/56/54 55/57/55 56/58/56 57/59/57 58/60/58 59/61/59 60/62/60 61/63/61 62/64/62 63/65/63 64/66/64 8/8/8 7/7/7 65/67/65 66/68/66 67/69/67 68/70/68 69/71/69 70/72/70 71/73/71 72/74/72 73/75/73 74/76/74
f 45/47/45 50/52/50 59/61/59 58/60/58
f 47/49/47 52/54/52 72/74/72 71/73/71
f 6/6/6 14/16/14 65/67/65 7/7/7
f 50/52/50 18/20/18 60/62/60 59/61/59
f 52/54/52 20/22/20 73/75/73 72/74/72
f 10/12/10 9/11/9 53/55/53 74/76/74
f 14/16/14 13/15/13 66/68/66 65/67/65
f 18/20/18 17/19/17 61/63/61 60/62/60
f 20/22/20 10/12/10 74/76/74 73/75/73
f 9/11/9 22/24/22 54/56/54 53/55/53
f 13/15/13 24/26/24 67/69/67 66/68/66
f 26/28/26 62/64/62 61/63/61 17/19/17
f 22/24/22 28/30/28 55/57/55 54/56/54
f 24/26/24 30/32/30 68/70/68 67/69/67
f 26/28/26 32/34/32 63/65/63 62/64/62
f 28/30/28 34/36/34 56/58/56 55/57/55
f 30/32/30 36/38/36 69/71/69 68/70/68
f 32/34/32 38/40/38 64/66/64 63/65/63
f 34/36/34 40/42/40 57/59/57 56/58/56
f 36/38/36 42/44/42 70/72/70 69/71/69
f 38/40/38 5/5/5 8/8/8 64/66/64
f 40/42/40 45/47/45 58/60/58 57/59/57
f 42/44/42 47/49/47 71/73/71 70/72/70
f 12/77/12 11/78/11 83/79/75 82/80/76
f 16/81/16 15/82/15 90/83/77 89/84/78
f 2/2/2 19/85/19 75/86/79 3/3/3
f 21/87/21 1/1/1 4/4/4 96/88/80
f 23/89/23 12/77/12 82/80/76 81/90/81
f 25/91/25 16/92/16 89/93/78 88/94/82
f 27/95/27 21/87/21 96/88/80 95/96/83
f 29/97/29 23/89/23 81/90/81 80/98/84
f 31/99/31 25/91/25 88/94/82 87/100/85
f 33/101/33 27/102/27 95/96/83 94/103/86
f 35/104/35 29/97/29 80/98/84 79/105/87
f 37/106/37 31/99/31 87/100/85 86/107/88
f 39/108/39 33/101/33 94/103/86 93/109/89
f 41/110/41 35/104/35 79/105/87 78/111/90
f 43/112/43 37/106/37 86/107/88 85/113/91
f 44/114/44 39/108/39 93/109/89 92/115/92
f 46/116/46 41/110/41 78/111/90 77/117/93
f 48/118/48 43/112/43 85/113/91 84/119/94
f 49/120/49 44/114/44 92/115/92 91/121/95
f 51/122/51 46/123/46 77/124/93 76/125/96
f 11/126/11 48/118/48 84/119/94 83/127/75
f 15/82/15 49/120/49 91/121/95 90/83/77
f 19/85/19 51/122/51 76/125/96 75/86/79
f 97/128/97 98/129/98 99/130/99 100/131/100 101/132/101
f 102/133/102 103/134/103 104/135/104 105/136/105
f 99/130/99 103/134/103 102/133/102 100/131/100
f 101/137/101 106/138/106 107/139/107 97/140/97
f 98/141/98 108/142/108 103/143/103 99/144/99
f 100/131/100 102/133/102 106/145/106 101/132/101
f 97/140/97 107/139/107 108/146/108 98/147/98
f 109/148/109 110/149/110 105/150/105 104/151/104 111/152/111
f 107/139/107 106/138/106 110/149/110 109/148/109
f 103/143/103 108/142/108 111/153/111 104/154/104
f 106/145/106 102/133/102 105/136/105 110/155/110
f 108/146/108 107/139/107 109/148/109 111/152/111
f 112/156/112 113/157/113 114/158/114 115/159/115 116/160/116
f 117/161/117 118/162/118 119/163/119 120/164/120
f 115/159/115 114/158/114 117/161/117 120/164/120
f 113/165/113 112/166/112 121/167/121 122/168/122
f 116/169/116 115/170/115 120/171/120 123/172/123
f 114/158/114 113/157/113 122/173/122 117/161/117
f 112/166/112 116/174/116 123/175/123 121/167/121
f 124/176/124 125/177/125 119/178/119 118/179/118 126/180/126
f 121/181/121 124/182/124 126/183/126 122/184/122
f 120/171/120 119/185/119 125/186/125 123/172/123
f 122/173/122 126/187/126 118/162/118 117/161/117
f 123/175/123 125/177/125 124/176/124 121/167/121
