# Blender v2.79 (sub 0) OBJ File: 'crt2.blend'
# www.blender.org
mtllib black.mtl
o Plane.002
v 3.460490 1.343447 3.924508
v 3.701983 1.343447 3.924508
v 3.460490 1.395695 3.924508
v 3.701983 1.395695 3.924508
v 1.039264 1.343447 3.924507
v 1.280757 1.343447 3.924507
v 1.039264 1.395695 3.924507
v 1.280757 1.395695 3.924507
v -2.365636 1.296516 3.870843
v -2.334037 1.251551 3.870843
v -2.324149 1.178375 3.870843
v -2.565648 1.096504 3.870843
v -2.597247 1.141469 3.870843
v -2.410601 1.328115 3.870843
v -2.483778 1.338003 3.870843
v -2.343087 1.125753 3.870843
v -2.379189 1.083041 3.870843
v -2.447506 1.055017 3.870843
v -2.520683 1.064906 3.870843
v -2.607157 1.196510 3.870843
v -2.597247 1.251551 3.870843
v -2.552095 1.309979 3.870843
v -0.684101 1.296516 3.870843
v -0.652503 1.251551 3.870843
v -0.642613 1.178375 3.870843
v -0.884113 1.096504 3.870843
v -0.915711 1.141469 3.870843
v -0.729066 1.328115 3.870843
v -0.802242 1.338004 3.870843
v -0.661551 1.125753 3.870843
v -0.697654 1.083041 3.870843
v -0.765971 1.055017 3.870843
v -0.839148 1.064906 3.870844
v -0.925622 1.196510 3.870843
v -0.915711 1.251551 3.870843
v -0.870559 1.309979 3.870843
v -1.521739 1.296516 3.870843
v -1.490140 1.251551 3.870843
v -1.480251 1.178375 3.870843
v -1.721751 1.096504 3.870843
v -1.753350 1.141469 3.870843
v -1.566704 1.328115 3.870843
v -1.639881 1.338004 3.870843
v -1.499189 1.125753 3.870843
v -1.535292 1.083041 3.870843
v -1.603610 1.055017 3.870843
v -1.676786 1.064906 3.870844
v -1.763259 1.196510 3.870843
v -1.753350 1.251551 3.870843
v -1.708198 1.309979 3.870843
v -3.123683 1.262639 3.648377
v -3.102850 1.232995 3.648377
v -3.096332 1.184753 3.648377
v -3.114807 1.139714 3.648377
v -3.213745 1.106647 3.648377
v -3.246608 1.121903 3.648377
v -3.276375 1.160423 3.648377
v -3.282894 1.208665 3.648377
v -3.264419 1.253704 3.648377
v -3.225899 1.283471 3.648377
v -3.189613 1.290004 3.648377
v -3.153327 1.283471 3.648377
v -3.142965 1.115913 3.648377
v -3.177656 1.103428 3.648377
vt 0.000000 1.000000
vt 0.000000 0.000000
vt 1.000000 0.000000
vt 1.000000 1.000000
vt 0.000000 1.000000
vt 0.000000 0.000000
vt 1.000000 0.000000
vt 1.000000 1.000000
vt 0.983253 0.629488
vt 0.892342 0.803254
vt 0.566455 0.991405
vt 0.991405 0.433545
vt 0.750000 0.933013
vt 0.008595 0.433545
vt 0.107658 0.196746
vt 0.250000 0.066987
vt 0.433545 0.008595
vt 0.688151 0.041203
vt 0.892342 0.196746
vt 0.016747 0.629488
vt 0.107658 0.803254
vt 0.311849 0.958797
vt 0.983253 0.629488
vt 0.892342 0.803254
vt 0.566455 0.991405
vt 0.991405 0.433545
vt 0.750000 0.933013
vt 0.008595 0.433545
vt 0.107658 0.196746
vt 0.250000 0.066987
vt 0.433545 0.008595
vt 0.688151 0.041203
vt 0.892342 0.196746
vt 0.016747 0.629488
vt 0.107658 0.803254
vt 0.311849 0.958797
vt 0.983253 0.629488
vt 0.892342 0.803254
vt 0.566455 0.991405
vt 0.991405 0.433545
vt 0.750000 0.933013
vt 0.008595 0.433545
vt 0.107658 0.196746
vt 0.250000 0.066987
vt 0.433545 0.008595
vt 0.688151 0.041203
vt 0.892342 0.196746
vt 0.016747 0.629488
vt 0.107658 0.803254
vt 0.311849 0.958797
vt 0.000000 0.000000
vt 0.000000 0.000000
vt 0.000000 0.000000
vt 0.000000 0.000000
vt 0.000000 0.000000
vt 0.000000 0.000000
vt 0.000000 0.000000
vt 0.000000 0.000000
vt 0.000000 0.000000
vt 0.000000 0.000000
vt 0.000000 0.000000
vt 0.000000 0.000000
vt 0.000000 0.000000
vt 0.000000 0.000000
vn 0.0000 0.0000 1.0000
usemtl Material.009
s off
f 1/1/1 2/2/1 4/3/1 3/4/1
usemtl Material.008
f 5/5/1 6/6/1 8/7/1 7/8/1
usemtl Material.015
s 1
f 20/9/1 13/10/1 19/11/1 21/12/1
f 19/11/1 13/10/1 12/13/1
f 19/11/1 11/14/1 10/15/1
f 19/11/1 10/15/1 9/16/1
f 19/11/1 9/16/1 14/17/1
f 19/11/1 14/17/1 15/18/1
f 19/11/1 15/18/1 22/19/1
f 19/11/1 22/19/1 21/12/1
f 16/20/1 11/14/1 19/11/1 17/21/1
f 19/11/1 18/22/1 17/21/1
usemtl Material.006
f 34/23/1 27/24/1 33/25/1 35/26/1
f 33/25/1 27/24/1 26/27/1
f 33/25/1 25/28/1 24/29/1
f 33/25/1 24/29/1 23/30/1
f 33/25/1 23/30/1 28/31/1
f 33/25/1 28/31/1 29/32/1
f 33/25/1 29/32/1 36/33/1
f 33/25/1 36/33/1 35/26/1
f 30/34/1 25/28/1 33/25/1 31/35/1
f 33/25/1 32/36/1 31/35/1
usemtl Material.011
f 48/37/1 41/38/1 47/39/1 49/40/1
f 47/39/1 41/38/1 40/41/1
f 47/39/1 39/42/1 38/43/1
f 47/39/1 38/43/1 37/44/1
f 47/39/1 37/44/1 42/45/1
f 47/39/1 42/45/1 43/46/1
f 47/39/1 43/46/1 50/47/1
f 47/39/1 50/47/1 49/40/1
f 44/48/1 39/42/1 47/39/1 45/49/1
f 47/39/1 46/50/1 45/49/1
usemtl Material.020
s off
f 52/51/1 51/52/1 62/53/1 61/54/1 60/55/1 59/56/1 58/57/1 57/58/1 56/59/1 55/60/1 64/61/1 63/62/1 54/63/1 53/64/1
o Text
v 3.771211 0.885132 3.918957
v 3.743794 0.885132 3.918957
v 3.743794 0.694336 3.918957
v 3.857376 0.694336 3.918957
v 3.857376 0.718955 3.918957
v 3.771211 0.718955 3.918957
v 3.508255 0.757598 3.918957
v 3.547186 0.708155 3.918957
v 3.599411 0.690871 3.918957
v 3.657356 0.701630 3.918957
v 3.695584 0.735335 3.918957
v 3.712787 0.810449 3.918957
v 3.657835 0.879354 3.918957
v 3.564288 0.882958 3.918957
v 3.511272 0.828066 3.918957
v 3.536896 0.814641 3.918957
v 3.572202 0.857841 3.918957
v 3.647599 0.854942 3.918957
v 3.679044 0.814648 3.918957
v 3.680021 0.764567 3.918957
v 3.650667 0.728412 3.918957
v 3.607833 0.715701 3.918957
v 3.565217 0.728409 3.918957
v 3.535918 0.764581 3.918957
v 3.492851 0.885132 3.918957
v 3.465714 0.885132 3.918957
v 3.408644 0.751127 3.918957
v 3.351293 0.885132 3.918957
v 3.323877 0.885132 3.918957
v 3.409215 0.691785 3.918957
vn 0.0000 0.0000 1.0000
usemtl Material.025
s off
f 67//2 65//2 66//2
f 67//2 70//2 65//2
f 67//2 69//2 70//2
f 67//2 68//2 69//2
f 81//2 77//2 78//2
f 82//2 77//2 81//2
f 82//2 76//2 77//2
f 79//2 81//2 78//2
f 83//2 76//2 82//2
f 79//2 80//2 81//2
f 71//2 80//2 79//2
f 84//2 76//2 83//2
f 71//2 88//2 80//2
f 84//2 75//2 76//2
f 85//2 75//2 84//2
f 71//2 87//2 88//2
f 72//2 87//2 71//2
f 86//2 75//2 85//2
f 72//2 86//2 87//2
f 86//2 74//2 75//2
f 72//2 74//2 86//2
f 73//2 74//2 72//2
f 94//2 92//2 93//2
f 94//2 91//2 92//2
f 91//2 89//2 90//2
f 91//2 94//2 89//2
o Text.001
v 4.004538 0.859114 3.918957
v 4.004538 0.804561 3.918957
v 3.949985 0.804561 3.918957
v 3.949985 0.781621 3.918957
v 4.004538 0.781621 3.918957
v 4.004538 0.727068 3.918957
v 4.027478 0.727068 3.918957
v 4.027478 0.781621 3.918957
v 4.082031 0.781621 3.918957
v 4.082031 0.804561 3.918957
v 4.027478 0.804561 3.918957
v 4.027478 0.859114 3.918957
vn 0.0000 0.0000 1.0000
vn 0.0000 0.0000 -1.0000
usemtl Material.026
s off
f 96//3 106//3 95//3
f 96//3 105//3 106//3
f 98//3 96//3 97//3
f 98//3 105//3 96//3
f 98//3 104//3 105//3
f 98//3 103//3 104//3
f 99//3 103//3 98//3
f 100//3 102//3 99//3
f 102//4 103//4 99//4
f 100//3 101//3 102//3
o Text.002
v 3.213489 0.810111 3.918957
v 3.085749 0.810111 3.918957
v 3.085749 0.782280 3.918957
v 3.213489 0.782280 3.918957
vn 0.0000 0.0000 1.0000
usemtl Material.024
s off
f 109//5 107//5 108//5
f 109//5 110//5 107//5
o Text.003_Text.006
v 0.728383 0.722255 3.918957
v 0.796364 0.858446 3.918957
v 0.772025 0.858446 3.918957
v 0.728383 0.753257 3.918957
v 0.684741 0.858446 3.918957
v 0.660402 0.858446 3.918957
vn 0.0000 0.0000 1.0000
usemtl Material.021
s off
f 111//6 115//6 116//6
f 111//6 114//6 115//6
f 111//6 113//6 114//6
f 112//6 113//6 111//6
o Text.004
v 1.619699 0.862032 3.918957
v 1.551718 0.725841 3.918957
v 1.576057 0.725841 3.918957
v 1.619699 0.831030 3.918957
v 1.663342 0.725841 3.918957
v 1.687681 0.725841 3.918957
vn 0.0000 0.0000 1.0000
usemtl Material.023
s off
f 119//7 117//7 118//7
f 120//7 117//7 119//7
f 121//7 117//7 120//7
f 121//7 122//7 117//7
o Text.005
v 1.345079 0.885132 3.918957
v 1.317663 0.885132 3.918957
v 1.317663 0.802043 3.918957
v 1.210795 0.802043 3.918957
v 1.210795 0.885132 3.918957
v 1.183379 0.885132 3.918957
v 1.183379 0.694336 3.918957
v 1.210795 0.694336 3.918957
v 1.210795 0.777425 3.918957
v 1.317663 0.777425 3.918957
v 1.317663 0.694336 3.918957
v 1.345079 0.694336 3.918957
v 1.147678 0.872648 3.918957
v 1.091858 0.888215 3.918957
v 1.020916 0.873024 3.918957
v 0.982223 0.821501 3.918957
v 0.980136 0.759653 3.918957
v 1.016611 0.709975 3.918957
v 1.055565 0.694018 3.918957
v 1.103199 0.692491 3.918957
v 1.149537 0.707792 3.918957
v 1.149350 0.737247 3.918957
v 1.101259 0.717863 3.918957
v 1.055931 0.720094 3.918957
v 1.020070 0.743243 3.918957
v 1.004667 0.789500 3.918957
v 1.017886 0.831381 3.918957
v 1.046851 0.855695 3.918957
v 1.094987 0.862865 3.918957
v 1.147489 0.843692 3.918957
vn 0.0000 0.0000 1.0000
usemtl Material.022
s off
f 129//8 127//8 128//8
f 129//8 126//8 127//8
f 125//8 123//8 124//8
f 125//8 134//8 123//8
f 129//8 131//8 126//8
f 131//8 125//8 126//8
f 131//8 132//8 125//8
f 132//8 134//8 125//8
f 129//8 130//8 131//8
f 133//8 134//8 132//8
f 137//8 135//8 136//8
f 137//8 151//8 135//8
f 151//8 152//8 135//8
f 137//8 150//8 151//8
f 138//8 150//8 137//8
f 138//8 149//8 150//8
f 138//8 148//8 149//8
f 139//8 148//8 138//8
f 139//8 147//8 148//8
f 140//8 147//8 139//8
f 140//8 146//8 147//8
f 145//8 143//8 144//8
f 140//8 145//8 146//8
f 140//8 143//8 145//8
f 141//8 143//8 140//8
f 141//8 142//8 143//8
o Text.006_Text.003
v 2.529091 0.885132 3.918957
v 2.529091 0.694336 3.918957
v 2.556507 0.694336 3.918957
v 2.560809 0.779425 3.918957
v 2.596947 0.764240 3.918957
v 2.643792 0.694336 3.918957
v 2.675213 0.694920 3.918957
v 2.631984 0.761497 3.918957
v 2.610167 0.784317 3.918957
v 2.634494 0.806883 3.918957
v 2.640729 0.838729 3.918957
v 2.614617 0.880068 3.918957
v 2.556507 0.861632 3.918957
v 2.596134 0.859424 3.918957
v 2.612778 0.836194 3.918957
v 2.599186 0.805141 3.918957
v 2.556507 0.801764 3.918957
v 2.507270 0.885132 3.918957
v 2.480133 0.885132 3.918957
v 2.428098 0.753645 3.918957
v 2.374944 0.885132 3.918957
v 2.348927 0.885132 3.918957
v 2.296052 0.753645 3.918957
v 2.243458 0.885132 3.918957
v 2.216041 0.885132 3.918957
v 2.295907 0.691849 3.918957
v 2.361795 0.848763 3.918957
v 2.427117 0.691850 3.918957
v 2.092947 0.885132 3.918957
v 2.092947 0.694336 3.918957
v 2.120364 0.694336 3.918957
v 2.120364 0.776865 3.918957
v 2.184945 0.781083 3.918957
v 2.215474 0.825518 3.918957
v 2.199132 0.869878 3.918957
v 2.169380 0.884193 3.918957
v 2.120364 0.860513 3.918957
v 2.164923 0.859587 3.918957
v 2.183374 0.845262 3.918957
v 2.183592 0.820274 3.918957
v 2.169204 0.803590 3.918957
v 2.120364 0.801484 3.918957
vn 0.0000 0.0000 1.0000
vn 0.0001 0.0000 1.0000
vn -0.0001 0.0000 1.0000
usemtl Material.010
s off
f 154//9 165//9 153//9
f 165//9 164//9 153//9
f 165//9 166//9 164//9
f 154//9 169//9 165//9
f 166//9 163//9 164//9
f 167//9 163//9 166//9
f 168//9 163//9 167//9
f 168//9 162//9 163//9
f 154//9 156//9 169//9
f 156//9 168//9 169//9
f 156//9 162//9 168//9
f 156//9 161//9 162//9
f 154//9 155//9 156//9
f 156//9 160//9 161//9
f 157//9 160//9 156//9
f 157//9 159//9 160//9
f 158//9 159//9 157//9
f 178//9 176//9 177//9
f 178//9 175//9 176//9
f 175//9 173//9 174//9
f 175//10 179//10 173//10
f 179//9 172//9 173//9
f 172//9 170//9 171//9
f 172//9 180//9 170//9
f 175//9 178//9 179//9
f 180//9 172//9 179//9
f 182//9 189//9 181//9
f 189//9 188//9 181//9
f 189//9 187//9 188//9
f 189//9 190//9 187//9
f 182//9 194//9 189//9
f 190//9 186//9 187//9
f 191//9 186//9 190//9
f 192//9 186//9 191//9
f 193//9 186//9 192//9
f 193//9 185//9 186//9
f 182//11 184//11 194//11
f 184//9 193//9 194//9
f 184//9 185//9 193//9
f 182//9 183//9 184//9
