# Blender v2.79 (sub 0) OBJ File: 'crtlow.blend'
# www.blender.org
mtllib crtlow.mtl
o crtlow_Plane.001
v -5.036300 9.418629 3.179201
v 5.036304 9.418629 3.179201
v -5.036300 0.013746 3.179202
v 5.036304 0.013746 3.179202
v -3.953153 2.072950 4.468169
v -3.953153 8.415583 4.468169
v 3.953158 8.415583 4.468169
v 3.953158 2.072950 4.468169
v -5.036300 0.013746 4.468169
v -5.036300 9.418629 4.468169
v 5.036304 9.418629 4.468169
v 5.036304 0.013746 4.468169
v -3.953153 2.072950 3.731036
v -3.953153 8.415583 3.731036
v 3.953158 8.415583 3.731036
v 3.953158 2.072950 3.731036
v -3.688171 0.499223 4.468152
v -0.466376 0.499223 4.468152
v -3.688171 1.573155 4.468152
v -0.466376 1.573155 4.468152
v -3.973499 1.442064 4.111813
v 3.967334 1.442064 4.111813
v -3.973499 9.382896 4.111813
v 3.967334 9.382896 4.111813
v 2.213464 0.989174 4.483636
v 1.973601 1.163444 4.483636
v 2.065221 1.445419 4.483636
v 2.361707 1.445419 4.483636
v 2.453326 1.163444 4.483636
v 2.213464 1.241380 4.652858
v 2.987861 0.989174 4.443689
v 2.747998 1.163444 4.443689
v 2.839618 1.445419 4.443689
v 3.136104 1.445419 4.443689
v 3.227723 1.163444 4.443689
v 2.987861 1.241380 4.652858
v 3.635489 0.989174 4.443689
v 3.395626 1.163444 4.443689
v 3.487245 1.445419 4.443689
v 3.783732 1.445419 4.443689
v 3.875351 1.163444 4.443689
v 3.635489 1.241380 4.652858
v 0.787861 0.989174 4.443689
v 0.547998 1.163444 4.443689
v 0.639618 1.445419 4.443689
v 0.936104 1.445419 4.443689
v 1.027723 1.163444 4.443689
v 0.787861 1.241380 4.652858
v 1.435488 0.989174 4.443689
v 1.195626 1.163444 4.443689
v 1.287245 1.445419 4.443689
v 1.583732 1.445419 4.443689
v 1.675351 1.163444 4.443689
v 1.435489 1.241380 4.652858
v -4.269629 5.989006 -4.298342
v -4.409647 7.946683 -3.010301
v -4.613057 8.992497 -0.685326
v -4.870890 9.397094 2.261727
v -4.316472 0.462378 1.419343
v -4.797191 0.462378 1.419343
v -4.550578 1.418012 -1.399467
v -4.094520 1.418012 -1.399467
v -4.367900 2.885579 -3.487478
v -3.930111 2.885579 -3.487478
v 4.890874 9.397095 2.261730
v 4.995243 9.401793 3.330048
v 4.995243 0.224339 3.330040
v 4.817175 0.462378 1.419344
v 4.521643 0.224339 3.330040
v 4.360493 0.462378 1.419344
v -4.975259 0.224339 3.330040
v -4.975259 9.401793 3.330048
v -4.476734 0.224339 3.330040
v 3.971986 2.885579 -3.487477
v 4.137309 1.418012 -1.399460
v 4.289615 5.989006 -4.298339
v 4.429632 7.946683 -3.010299
v 4.633040 8.992497 -0.685326
v 4.570562 1.418012 -1.399460
v 4.387886 2.885579 -3.487477
v -4.501660 0.010199 3.330040
v 4.496717 0.010199 3.330040
v 3.987161 1.719760 -3.106718
v -3.914094 1.707274 -3.152147
v 3.989789 0.851719 -3.221204
v -3.912850 0.838115 -3.270699
v -3.914233 0.010204 -3.788456
v 3.999005 0.023809 -3.738961
v -4.304875 4.448744 -4.346608
v 4.324862 4.448744 -4.346606
v 1.804448 0.858882 4.469728
v 2.593625 0.858882 4.469728
v 2.593625 1.648060 4.469728
v 1.804448 1.648060 4.469728
vt 0.000000 0.000000
vt 1.000000 0.000000
vt 1.000000 1.000000
vt 0.000000 1.000000
vt 0.000000 0.138687
vt 0.000000 0.000000
vt 0.367869 0.000000
vt 0.367869 0.138687
vt 0.000000 0.381199
vt 0.000000 0.138688
vt 0.468663 0.138687
vt 0.468663 0.381199
vt 0.468663 0.623711
vt 0.468663 0.381200
vt 0.937327 0.381200
vt 0.937327 0.623711
vt 0.000000 0.623711
vt 0.000000 0.381199
vt 0.937327 0.138688
vt 0.468663 0.381199
vt 0.468663 0.138688
vt 0.519060 0.959868
vt 0.468663 1.000000
vt 0.468663 0.623711
vt 0.519060 0.706100
vt 0.886929 0.959868
vt 0.937327 1.000000
vt 0.886929 0.706100
vt 0.937327 0.623711
vt 0.000000 0.000000
vt 0.000000 0.000000
vt 0.000000 0.000000
vt 0.000000 0.000000
vt 1.000000 0.000000
vt 1.000000 0.138687
vt 0.683935 0.138687
vt 0.683934 0.000000
vt 0.683935 0.000000
vt 0.683935 0.138687
vt 0.367869 0.138687
vt 0.367869 0.000000
vt 0.531390 0.686103
vt 0.681295 0.686103
vt 0.531390 0.643135
vt 0.681295 0.643135
vt 0.671307 0.097741
vt 0.572290 0.152031
vt 0.610590 0.005475
vt 0.640726 0.000000
vt 0.551828 0.416551
vt 0.700017 0.335301
vt 0.364269 0.873397
vt 0.368926 0.656007
vt 0.543727 0.751847
vt 0.543819 0.873397
vt 0.718712 0.656007
vt 0.723369 0.873397
vt 0.543819 0.873397
vt 0.543911 0.751847
vt 0.887745 0.805094
vt 0.723369 0.805094
vt 0.734092 0.000000
vt 0.878646 0.005562
vt 0.387621 0.335302
vt 0.416332 0.097741
vt 0.515349 0.152031
vt 0.535810 0.416551
vt 0.446913 0.000000
vt 0.477049 0.005476
vt 0.944000 0.000000
vt 0.944000 0.809880
vt 0.939809 0.809870
vt 0.887745 0.034239
vt 0.910795 0.072373
vt 0.927800 0.058888
vt 0.966794 0.732334
vt 0.944000 0.775658
vt 0.995812 0.000000
vt 1.000000 0.000008
vt 1.000000 0.804223
vt 0.983781 0.745346
vt 0.173483 0.879190
vt 0.170538 0.662474
vt 0.178880 0.662474
vt 0.182135 0.879190
vt 0.000000 0.879190
vt 0.003251 0.662474
vt 0.012033 0.662474
vt 0.009107 0.879190
vt 0.007755 0.341188
vt 0.016086 0.341188
vt 0.019090 0.101226
vt 0.163441 0.101226
vt 0.163716 0.147317
vt 0.019381 0.142211
vt 0.822429 0.805417
vt 0.822429 0.983942
vt 0.802848 0.983658
vt 0.802698 0.805094
vt 0.723369 0.805094
vt 0.772896 0.806791
vt 0.772896 0.985618
vt 0.723375 0.983681
vt 0.011093 0.101226
vt 0.364269 0.870219
vt 0.182135 0.870219
vt 0.184067 0.750094
vt 0.362388 0.750094
vt 0.357735 0.417275
vt 0.188834 0.417275
vt 0.354041 0.152030
vt 0.192570 0.152030
vt 0.351449 0.000000
vt 0.195095 0.000000
vt 0.802698 0.805792
vt 0.802698 0.999106
vt 0.772896 1.000000
vt 0.772896 0.805094
vt 0.166460 0.341189
vt 0.174375 0.341189
vt 0.171038 0.101226
vt 0.012247 0.000000
vt 0.169889 0.000000
vt 1.000000 1.000000
vt -0.000000 1.000000
vt 0.000000 0.000000
vt 1.000000 0.000000
vt 0.468663 1.000000
vt 0.000000 1.000000
vt 0.000000 0.000000
vt 0.000000 0.000000
vt 0.000000 0.000000
vt 0.000000 0.000000
vt 0.000000 0.000000
vt 0.000000 0.000000
vt 0.000000 0.000000
vt 0.000000 0.000000
vt 0.000000 0.000000
vt 0.000000 0.000000
vt 0.000000 0.000000
vt 0.000000 0.000000
vt 0.000000 0.000000
vt 0.000000 0.000000
vt 0.000000 0.000000
vt 0.000000 0.000000
vt 0.000000 0.000000
vt 0.000000 0.000000
vt 0.000000 0.000000
vt 0.000000 0.000000
vt 0.000000 0.000000
vt 0.000000 0.000000
vt 0.000000 0.000000
vt 0.000000 0.000000
vt 0.000000 0.000000
vt 0.000000 0.000000
vt 0.000000 0.000000
vt 0.000000 0.000000
vt 0.000000 0.000000
vt 0.000000 0.000000
vt 0.000000 0.000000
vt 0.000000 0.000000
vt 0.000000 0.000000
vt 0.000000 0.000000
vn 0.0000 -0.0000 1.0000
vn 0.0000 1.0000 0.0000
vn 1.0000 0.0000 0.0000
vn -1.0000 0.0000 0.0000
vn 0.0000 -1.0000 0.0000
vn -0.9954 0.0066 -0.0953
vn -0.9962 0.0000 -0.0872
vn 0.9955 0.0003 -0.0944
vn -0.9955 0.0003 -0.0944
vn 0.0008 -1.0000 -0.0010
vn 0.9962 0.0000 -0.0872
vn 0.9954 0.0066 -0.0953
vn -0.9961 0.0120 -0.0870
vn 0.9968 0.0066 -0.0800
vn 0.7555 -0.6397 -0.1410
vn 0.0000 -0.9735 -0.2285
vn 0.6745 -0.7049 -0.2192
vn 0.6925 -0.7049 -0.1535
vn -0.6925 -0.7049 -0.1535
vn -0.6745 -0.7049 -0.2192
vn -0.7599 -0.6333 -0.1464
vn -0.6599 -0.6476 -0.3808
vn 0.0000 -0.8888 -0.4583
vn -0.1488 -0.5178 -0.8425
vn 0.1435 -0.5186 -0.8429
vn 0.6365 -0.0539 -0.7694
vn -0.6319 -0.0516 -0.7733
vn 0.6378 0.2489 -0.7288
vn -0.6310 0.2526 -0.7335
vn 0.5316 -0.4218 -0.7345
vn -0.5239 -0.4209 -0.7405
vn -0.6326 -0.4918 -0.5982
vn -0.7249 0.6851 -0.0717
vn 0.7249 0.6851 -0.0717
vn 0.6863 0.7188 -0.1107
vn -0.6863 0.7188 -0.1107
vn -0.6654 0.7020 -0.2540
vn 0.6654 0.7020 -0.2540
vn -0.6269 0.5713 -0.5296
vn 0.6269 0.5713 -0.5296
vn -0.6099 0.2283 -0.7588
vn 0.6099 0.2283 -0.7588
vn 0.6205 -0.1692 -0.7657
vn -0.6205 -0.1692 -0.7657
vn 0.0000 -0.8888 -0.4584
vn 0.6599 -0.6476 -0.3808
vn 0.6326 -0.4918 -0.5982
vn 0.0000 -0.0000 -1.0000
vn 0.3275 0.4508 0.8304
vn -0.3275 0.4508 0.8304
vn 0.5299 -0.1722 0.8304
vn 0.0000 -0.5571 0.8304
vn -0.5299 -0.1722 0.8304
vn 0.3752 0.5164 0.7697
vn -0.3752 0.5164 0.7697
vn 0.6071 -0.1972 0.7697
vn 0.0000 -0.6384 0.7697
vn -0.6071 -0.1972 0.7697
usemtl face
s off
f 21/1/1 22/2/1 24/3/1 23/4/1
usemtl lgray
f 8/5/2 16/6/2 13/7/2 5/8/2
f 2/9/3 11/10/3 12/11/3 4/12/3
f 3/13/4 9/14/4 10/15/4 1/16/4
f 4/17/5 12/18/5 9/14/5 3/13/5
f 1/19/2 10/15/2 11/20/2 2/21/2
f 6/22/1 10/23/1 9/24/1 5/25/1
f 7/26/1 11/27/1 10/23/1 6/22/1
f 8/28/1 12/29/1 11/27/1 7/26/1
f 6/30/5 14/31/5 15/32/5 7/33/5
f 7/34/4 15/35/4 16/36/4 8/37/4
f 5/38/3 13/39/3 14/40/3 6/41/3
f 5/25/1 19/42/1 20/43/1 8/28/1
f 9/24/1 17/44/1 19/42/1 5/25/1
f 12/29/1 18/45/1 17/44/1 9/24/1
f 8/28/1 20/43/1 18/45/1 12/29/1
usemtl dgray
f 63/46/6 56/47/6 55/48/6 89/49/6
f 57/50/7 56/47/7 63/46/7 61/51/7
f 67/52/8 68/53/8 65/54/8 66/55/8
f 60/56/9 71/57/9 72/58/9 58/59/9
f 60/56/7 58/59/7 57/50/7 61/51/7
f 82/60/10 81/61/10 87/62/10 88/63/10
f 79/64/11 80/65/11 77/66/11 78/67/11
f 68/53/11 79/64/11 78/67/11 65/54/11
f 80/65/12 90/68/12 76/69/12 77/66/12
f 87/70/13 81/71/13 73/72/13 64/73/13 84/74/13 86/75/13
f 83/76/14 74/77/14 69/78/14 82/79/14 88/80/14 85/81/14
s 1
f 69/82/15 70/83/16 68/84/17 67/85/18
f 71/86/19 60/87/20 59/88/16 73/89/21
f 61/90/22 62/91/23 59/88/16 60/87/20
f 64/92/24 74/93/25 83/94/26 84/95/27
f 84/96/27 83/97/26 85/98/28 86/99/29
f 85/100/28 88/101/30 87/102/31 86/103/29
f 62/91/23 61/90/22 63/104/32 64/92/24
f 72/105/33 66/106/34 65/107/35 58/108/36
f 57/109/37 58/108/36 65/107/35 78/110/38
f 56/111/39 57/109/37 78/110/38 77/112/40
f 55/113/41 56/111/39 77/112/40 76/114/42
f 55/115/41 76/116/42 90/117/43 89/118/44
f 75/119/45 79/120/46 68/84/17 70/83/16
f 79/120/46 75/119/45 74/93/25 80/121/47
f 89/122/44 90/123/43 80/121/47 74/93/25 64/92/24 63/104/32
usemtl av
s off
f 17/124/1 18/125/1 20/126/1 19/127/1
usemtl buttons
f 1/128/48 2/129/48 4/17/48 3/13/48
s 1
f 28/130/49 27/131/50 30/132/1
f 30/132/1 29/133/51 28/130/49
f 29/133/51 30/132/1 25/134/52
f 25/134/52 30/132/1 26/135/53
f 27/131/50 26/135/53 30/132/1
f 34/136/54 33/137/55 36/138/1
f 36/138/1 35/139/56 34/136/54
f 35/139/56 36/138/1 31/140/57
f 31/140/57 36/138/1 32/141/58
f 33/137/55 32/141/58 36/138/1
f 40/142/54 39/143/55 42/144/1
f 42/144/1 41/145/56 40/142/54
f 41/145/56 42/144/1 37/146/57
f 37/146/57 42/144/1 38/147/58
f 39/143/55 38/147/58 42/144/1
f 46/148/54 45/149/55 48/150/1
f 48/150/1 47/151/56 46/148/54
f 47/151/56 48/150/1 43/152/57
f 43/152/57 48/150/1 44/153/58
f 45/149/55 44/153/58 48/150/1
f 52/154/54 51/155/55 54/156/1
f 54/156/1 53/157/56 52/154/54
f 53/157/56 54/156/1 49/158/57
f 49/158/57 54/156/1 50/159/58
f 51/155/55 50/159/58 54/156/1
usemtl red
s off
f 91/160/1 92/161/1 93/162/1 94/163/1
l 62 75
