# Blender v2.79 (sub 0) OBJ File: 'crt2.blend'
# www.blender.org
mtllib red.mtl
o Plane
v 1.969486 0.978743 3.920000
v 2.758663 0.978743 3.920000
v 1.969486 1.767921 3.920000
v 2.758663 1.767921 3.920000
v -0.784106 1.483975 3.869683
v -0.640373 1.445462 3.869683
v -0.535154 1.340243 3.869683
v -0.496641 1.196510 3.869683
v -0.535154 1.052778 3.869683
v -0.640373 0.947558 3.869683
v -0.784106 0.909045 3.869683
v -0.927838 0.947558 3.869683
v -1.033058 1.052778 3.869683
v -1.071571 1.196510 3.869683
v -1.033058 1.340243 3.869683
v -0.927839 1.445462 3.869683
v -0.714427 1.317197 3.869683
v -0.784106 1.335867 3.869683
v -0.663419 1.266189 3.869683
v -0.644749 1.196510 3.869683
v -0.663419 1.126832 3.869683
v -0.714427 1.075824 3.869683
v -0.784106 1.057154 3.869683
v -0.853784 1.075824 3.869683
v -0.904792 1.126832 3.869683
v -0.923463 1.196510 3.869683
v -0.904792 1.266189 3.869683
v -0.853784 1.317197 3.869683
vt 0.000000 1.000000
vt 0.000000 0.000000
vt 1.000000 0.000000
vt 1.000000 1.000000
vt 0.667165 0.455208
vt 0.622373 0.377627
vt 0.866025 0.133975
vt 1.000000 0.366025
vt 0.544792 0.332835
vt 0.633974 0.000000
vt 0.455208 0.332835
vt 0.366025 0.000000
vt 0.377627 0.377627
vt 0.133974 0.133975
vt 0.332835 0.455208
vt 0.000000 0.366025
vt 0.332835 0.544792
vt 0.000000 0.633975
vt 0.377627 0.622373
vt 0.133975 0.866025
vt 0.455208 0.667165
vt 0.366025 1.000000
vt 0.544792 0.667165
vt 0.633974 1.000000
vt 0.622373 0.622373
vt 0.866025 0.866026
vt 0.667165 0.544792
vt 1.000000 0.633975
vn 0.0000 0.0000 1.0000
usemtl Material.004
s off
f 1/1/1 2/2/1 4/3/1 3/4/1
usemtl Material.012
s 1
f 18/5/1 17/6/1 6/7/1 5/8/1
f 17/6/1 19/9/1 7/10/1 6/7/1
f 19/9/1 20/11/1 8/12/1 7/10/1
f 20/11/1 21/13/1 9/14/1 8/12/1
f 21/13/1 22/15/1 10/16/1 9/14/1
f 22/15/1 23/17/1 11/18/1 10/16/1
f 23/17/1 24/19/1 12/20/1 11/18/1
f 24/19/1 25/21/1 13/22/1 12/20/1
f 25/21/1 26/23/1 14/24/1 13/22/1
f 26/23/1 27/25/1 15/26/1 14/24/1
f 27/25/1 28/27/1 16/28/1 15/26/1
f 28/27/1 18/5/1 5/8/1 16/28/1
