# Blender v2.79 (sub 0) OBJ File: 'crt.blend'
# www.blender.org
mtllib screen.mtl
o Cube.002_Cube.000
v -3.527334 1.749965 3.904863
v -3.577790 1.723848 3.901162
v -3.530780 1.782390 3.915123
v -3.591153 1.740835 3.911840
v -3.711028 1.837273 3.917724
v -3.663529 1.761688 3.916726
v -3.613461 1.695652 3.910403
v -3.604914 1.676614 3.900738
v -3.759383 8.497886 3.901163
v -3.787732 8.452315 3.904061
v -3.775572 8.512533 3.911785
v -3.821423 8.472767 3.914925
v -3.709060 8.524359 3.904531
v -3.728537 8.555327 3.915013
v -3.894678 8.606505 3.917720
v -4.876383 0.140418 2.599018
v -4.830155 0.116434 2.599828
v -4.855587 0.159372 2.590650
v -4.903913 0.183577 2.600015
v -4.829703 9.540771 2.600097
v -4.877362 9.515475 2.599020
v -4.871796 9.491697 2.592660
v -4.825871 9.501967 2.590026
v -4.904194 9.468721 2.598552
v -0.378928 1.723854 3.901162
v -0.407092 1.756245 3.910355
v -0.430200 1.748522 3.900640
v -0.359061 1.734049 3.911820
v -0.350122 1.677151 3.905343
v -0.315458 1.672384 3.915077
v -0.317831 1.810673 3.917162
v 4.085880 8.452984 3.904363
v 4.058532 8.498328 3.903612
v 4.119760 8.468309 3.914802
v 4.180190 8.619796 3.917717
v 4.066686 8.542464 3.914624
v 4.008454 8.523858 3.904850
v 5.148854 0.145123 2.592753
v 5.124335 0.115640 2.598669
v 5.175675 0.141309 2.599017
v 5.159655 0.184505 2.589731
v 5.201989 0.185543 2.598523
v 5.123903 9.540769 2.598555
v 5.154394 9.497677 2.590705
v 5.202518 9.472795 2.600132
v 5.174697 9.516367 2.599020
v -3.576826 0.718616 3.901162
v -3.546585 0.686542 3.910401
v -3.526547 0.694176 3.901119
v -3.594791 0.705656 3.911835
v -3.605460 0.765832 3.904469
v -3.640969 0.758126 3.915107
v -3.699850 0.595809 3.917715
v -3.611656 0.636489 3.916729
v -4.827774 9.542954 3.900686
v -4.863754 9.504441 3.911030
v -4.780876 9.531075 3.911450
v -4.906012 9.470544 3.902838
v 5.125677 9.542109 3.903387
v 5.162634 9.503888 3.911024
v 5.204861 9.471190 3.900686
v 5.190610 9.428778 3.911579
v -0.409549 0.686807 3.909821
v -0.379879 0.718622 3.901162
v -0.431095 0.693444 3.901114
v -0.360090 0.708489 3.911807
v -0.350037 0.631024 3.916885
v -0.350068 0.761609 3.906846
v -0.318954 0.768319 3.914581
v -4.906031 0.184987 3.902862
v -4.825298 0.189688 3.916530
v -4.867458 0.311764 3.915069
v 5.126485 0.114006 3.900859
v 4.643018 0.119861 3.909912
v 5.171204 0.134908 3.900911
v 5.164979 0.324246 3.914519
v 5.204904 0.186153 3.902515
v 5.004217 0.192285 3.917121
v -3.793429 2.242608 3.909946
v -3.757958 2.212815 3.903145
v -3.786947 2.262555 3.900982
v -3.849313 2.130765 3.917395
v -3.707943 2.189508 3.905254
v -3.764564 2.168579 3.914806
v 4.064081 2.238503 3.908520
v 4.130972 2.257417 3.915830
v 4.088570 2.273863 3.906159
v 4.067163 2.131937 3.917423
v -3.576913 1.723800 3.590913
v -3.526414 1.746903 3.593619
v -3.570537 1.703291 3.585337
v -3.534442 1.714146 3.583184
v -3.603081 1.677855 3.593798
v -0.401090 1.718185 3.585522
v -0.433958 1.747325 3.592147
v -0.378981 1.723055 3.590913
v -0.387921 1.684521 3.583641
v -0.354637 1.678718 3.593435
v -3.526702 0.695686 3.593748
v -3.576777 0.719411 3.590911
v -3.560984 0.732579 3.584321
v -3.602359 0.768902 3.591973
v -0.434926 0.695410 3.591998
v -0.393516 0.732175 3.584053
v -0.383728 0.718250 3.590004
v -0.360090 0.756257 3.591833
v -0.351474 0.813990 3.592322
v -3.784676 8.451972 3.145880
v -3.758509 8.497839 3.143040
v -3.752493 8.476876 3.137475
v -3.716891 8.488945 3.135506
v -3.706763 8.521481 3.146116
v 4.082899 8.448735 3.144137
v 4.047920 8.458064 3.135349
v 4.054140 8.497472 3.140985
v 4.007881 8.520541 3.145604
v -3.784825 2.265644 3.144195
v -3.752574 2.236156 3.137580
v -3.714409 2.223326 3.135714
v -3.705209 2.192551 3.144336
v -3.759325 2.216790 3.143039
v 4.084253 2.263275 3.146444
v 4.056823 2.216047 3.143039
v 4.050807 2.237010 3.137475
v 4.015626 2.225183 3.135515
v 4.005550 2.192735 3.145838
v -4.854972 9.446360 3.916430
v 4.004330 2.190034 3.898931
v -0.247761 0.609297 3.917724
v 5.102418 9.493636 3.916370
v -4.826913 0.114065 3.902239
v -4.878914 9.517787 3.901164
v 5.177235 9.517780 3.901164
v -4.878921 0.139002 3.901162
v -4.670159 0.148124 3.914791
v 4.057698 2.216000 3.901162
v 3.961134 2.204209 3.908669
v 4.025664 2.195955 3.914353
v 3.662536 2.181847 3.911169
vt 0.819999 0.889487
vt 0.821374 0.887002
vt 0.823394 0.889534
vt 0.573014 0.274485
vt 0.572299 0.276308
vt 0.568682 0.276509
vt 0.575099 0.673824
vt 0.577039 0.671620
vt 0.577576 0.673824
vt 0.538345 0.669735
vt 0.540003 0.671883
vt 0.536494 0.672292
vt 0.180001 0.671901
vt 0.181383 0.669750
vt 0.183548 0.672303
vt 0.578660 0.034152
vt 0.576638 0.038107
vt 0.574578 0.035979
vt 0.302318 0.667114
vt 0.305106 0.667796
vt 0.302614 0.669735
vt 0.912534 0.324538
vt 0.915319 0.325709
vt 0.912827 0.327141
vt 0.823813 0.992339
vt 0.821719 0.990366
vt 0.823813 0.989701
vt 0.577762 0.835342
vt 0.575181 0.833871
vt 0.577540 0.831832
vt 0.819999 0.664134
vt 0.823588 0.662009
vt 0.823486 0.664564
vt 0.336902 0.033910
vt 0.339534 0.036021
vt 0.338743 0.038245
vt 0.183590 0.924469
vt 0.180490 0.923681
vt 0.183262 0.921919
vt 0.612665 0.659394
vt 0.612001 0.662009
vt 0.610213 0.659336
vt 0.307526 0.667170
vt 0.306442 0.669735
vt 0.305107 0.667062
vt 0.307941 0.337488
vt 0.305106 0.336803
vt 0.307599 0.334868
vt 0.363816 1.000000
vt 0.361810 0.997898
vt 0.363816 0.997397
vt 0.607917 0.669735
vt 0.610151 0.671204
vt 0.607765 0.673571
vt 0.572934 0.316545
vt 0.571049 0.315858
vt 0.571110 0.311954
vt 0.614027 0.324507
vt 0.612024 0.327141
vt 0.611215 0.323146
vt 0.606399 0.337502
vt 0.608400 0.334868
vt 0.609026 0.338806
vt 0.361827 0.896667
vt 0.363816 0.894672
vt 0.363816 0.897308
vt 0.472770 0.316291
vt 0.472633 0.314302
vt 0.474172 0.314293
vt 0.610195 0.833566
vt 0.607570 0.835342
vt 0.607873 0.832752
vt 0.003794 0.667117
vt 0.000627 0.669735
vt 0.000000 0.662706
vt 0.612657 0.338957
vt 0.610213 0.338903
vt 0.627376 0.336521
vt 0.609743 0.662569
vt 0.606449 0.669735
vt 0.606421 0.667080
vt 0.538128 0.892635
vt 0.536528 0.894672
vt 0.536189 0.892039
vt 0.822125 0.885172
vt 0.819999 0.884426
vt 0.822832 0.883771
vt 0.894305 0.889651
vt 0.895964 0.886945
vt 0.897225 0.889326
vt 0.577591 0.749452
vt 0.576696 0.752539
vt 0.575099 0.750160
vt 0.894750 0.989590
vt 0.897225 0.990631
vt 0.895007 0.992339
vt 0.577607 0.755499
vt 0.575099 0.753891
vt 0.577320 0.752539
vt 0.434410 0.997330
vt 0.437228 0.998360
vt 0.435010 1.000000
vt 0.434754 0.897330
vt 0.435132 0.894672
vt 0.437228 0.897049
vt 0.607976 0.752539
vt 0.608005 0.755152
vt 0.606382 0.755273
vt 0.362897 0.672420
vt 0.360002 0.671465
vt 0.362221 0.669735
vt 0.356876 0.672431
vt 0.360002 0.672114
vt 0.997518 0.664645
vt 0.997935 0.662009
vt 1.000000 0.664394
vt 0.613957 0.002669
vt 0.912902 0.002632
vt 0.177470 0.921813
vt 0.180001 0.923117
vt 0.177782 0.924469
vt 0.996906 0.884257
vt 1.000000 0.885216
vt 0.997781 0.886945
vt 0.176957 0.672423
vt 0.178740 0.669735
vt 0.180001 0.672114
vt 0.338433 0.258873
vt 0.339588 0.262343
vt 0.310996 0.334303
vt 0.570972 0.276662
vt 0.823813 0.886945
vt 0.472600 0.276653
vt 0.472528 0.279430
vt 0.471984 0.275160
vt 0.570971 0.278431
vt 0.575099 0.671508
vt 0.536189 0.669735
vt 0.183815 0.669735
vt 0.576448 0.036203
vt 0.912890 0.659015
vt 0.915319 0.659336
vt 0.914347 0.661135
vt 0.915319 0.324468
vt 0.302687 0.337524
vt 0.302614 0.334868
vt 0.304305 0.335936
vt 0.821651 0.992339
vt 0.575099 0.831253
vt 0.570942 0.314293
vt 0.474156 0.276662
vt 0.472677 0.276662
vt 0.819999 0.662051
vt 0.307599 0.669735
vt 0.912827 0.000000
vt 0.914501 0.001037
vt 0.361653 1.000000
vt 0.610195 0.673824
vt 0.569193 0.314293
vt 0.609205 0.004336
vt 0.606104 0.000000
vt 0.608333 0.000000
vt 0.614027 0.327141
vt 0.003772 0.337552
vt 0.000000 0.339189
vt 0.001626 0.335337
vt 0.610213 0.004312
vt 0.611842 0.000466
vt 0.309078 0.001328
vt 0.305106 0.004310
vt 0.305106 0.002016
vt 0.606399 0.334868
vt 0.361382 0.894672
vt 0.470567 0.316318
vt 0.472643 0.311556
vt 0.610195 0.831253
vt 0.912830 0.338943
vt 0.908420 0.334868
vt 0.913017 0.334998
vt 0.003814 0.669735
vt 0.610213 0.335443
vt 0.610213 0.667400
vt 0.540003 0.894672
vt 0.823813 0.886945
vt 0.822090 0.886945
vt 0.003069 0.921835
vt 0.003475 0.924469
vt 0.000457 0.924003
vt 0.820170 0.886226
vt 0.002091 0.669735
vt 0.003814 0.672443
vt 0.002281 0.683495
vt 0.343958 0.261730
vt 0.368390 0.261140
vt 0.338871 0.260421
vt 0.895007 0.886945
vt 0.575099 0.754918
vt 0.607708 0.749886
vt 0.610195 0.750160
vt 0.609461 0.751634
vt 0.610034 0.754614
vt 0.357783 0.669735
vt 0.362484 0.892018
vt 0.362221 0.894672
vt 0.360831 0.893855
vt 0.180001 0.922090
vt 0.177782 0.669735
vt 0.602993 0.334735
vt 0.324438 0.334867
vt 0.577102 0.262571
vt 0.573874 0.670445
vt 0.540437 0.672166
vt 0.540778 0.670617
vt 0.817733 0.662440
vt 0.610619 0.664433
vt 0.611030 0.662861
vt 0.573876 0.773803
vt 0.542273 0.774696
vt 0.357250 0.921801
vt 0.607034 0.332895
vt 0.819602 0.914320
vt 0.610592 0.914319
vt 0.002465 0.000850
vt 0.303663 0.000977
vt 0.304311 0.332212
vt 0.001444 0.333863
vt 0.915319 0.338957
vt 0.003814 0.334868
vt 0.614027 0.000000
vt 0.575685 0.261140
vt 0.576448 0.259394
vt 0.003814 0.669735
vt 0.000000 0.675211
vt 0.610167 0.327699
vt 0.000000 0.001928
vt 0.304131 0.333995
vt 0.305406 0.327013
vt 0.540831 0.774308
vt 0.819182 0.915890
vt 0.611804 0.916743
vt 0.358139 0.924205
vt 0.819094 0.662680
vn 0.1116 -0.2383 0.9648
vn 0.0515 -0.1527 0.9869
vn 0.1443 -0.2846 0.9477
vn 0.0129 -0.0051 0.9999
vn 0.4148 -0.2366 0.8786
vn 0.4202 -0.2458 0.8735
vn 0.4241 -0.2513 0.8701
vn 0.5771 -0.6466 0.4988
vn 0.2320 -0.1937 0.9532
vn 0.2099 -0.1660 0.9635
vn 0.1661 -0.2558 0.9523
vn 0.1463 -0.2333 0.9613
vn 0.0119 -0.0144 0.9998
vn -0.2561 -0.1412 -0.9563
vn -0.1026 0.2345 -0.9667
vn -0.2198 -0.4385 0.8714
vn -0.2092 -0.0965 0.9731
vn -0.1349 -0.0431 0.9899
vn -0.2866 -0.1527 0.9458
vn -0.1530 -0.0923 0.9839
vn -0.2014 -0.1936 0.9602
vn -0.2387 -0.1280 0.9626
vn -0.0079 -0.0253 0.9997
vn -0.0576 -0.1058 0.9927
vn -0.0909 -0.2252 0.9701
vn 0.1704 -0.3281 -0.9291
vn 0.2047 -0.1306 -0.9701
vn 0.2605 0.1419 -0.9550
vn 0.2065 0.4458 0.8710
vn 0.2183 0.4543 0.8637
vn 0.2237 0.4586 0.8600
vn 0.2099 0.1242 0.9698
vn 0.1456 0.0666 0.9871
vn 0.2510 0.1613 0.9545
vn 0.0045 0.0144 0.9999
vn -0.1207 0.3612 0.9247
vn -0.0545 0.1541 0.9865
vn -0.0153 0.3859 0.9224
vn 0.3293 0.1296 0.9353
vn 0.1449 0.0612 0.9876
vn 0.1161 0.0330 0.9927
vn -0.2169 0.4395 0.8717
vn -0.0649 0.0569 0.9963
vn -0.2671 0.1394 0.9535
vn -0.1615 -0.0855 0.9832
vn -0.0779 -0.0902 0.9929
vn -0.1583 -0.0046 0.9874
vn 0.0182 -0.0414 0.9990
vn 0.1501 -0.0133 0.9886
vn 0.0585 -0.0696 0.9959
vn 0.0846 -0.0620 0.9945
vn 0.3933 0.2675 0.8796
vn -0.1550 0.1723 0.9728
vn 0.1560 -0.3343 0.9295
vn 0.3517 -0.1422 0.9252
vn -0.1425 -0.3695 0.9182
vn -0.3056 -0.1719 0.9365
vn 0.1075 0.3388 0.9347
vn -0.1083 0.3250 0.9395
vn -0.1085 0.3249 0.9395
vn -0.2461 0.0285 0.9688
vn 0.3530 -0.1441 0.9245
vn 0.1706 -0.3531 0.9199
vn -0.2663 -0.0951 0.9592
vn 0.0000 0.9910 0.1337
vn 0.0003 0.8620 0.5069
vn 0.0000 1.0000 -0.0014
vn 0.0855 0.2426 0.9663
vn -0.3589 0.1419 0.9225
vn -0.1677 0.3458 0.9232
vn -0.2533 -0.0001 0.9674
vn -0.0484 0.0001 0.9988
vn -0.1102 0.0000 0.9939
vn 0.0036 0.0069 1.0000
vn 0.0036 -0.0009 1.0000
vn 0.0042 0.0019 1.0000
vn 0.0313 -0.1238 0.9918
vn 0.1589 -0.4328 0.8874
vn -0.0979 -0.0167 0.9951
vn 0.0509 -0.0569 0.9971
vn 0.4111 -0.2310 0.8819
vn 0.4073 -0.1966 0.8919
vn 0.1748 -0.4440 0.8788
vn -0.1283 -0.2794 -0.9516
vn -0.1089 0.2396 -0.9647
vn -0.2986 0.1808 -0.9371
vn -0.2333 -0.4478 0.8632
vn -0.3990 -0.1654 0.9019
vn 0.1175 0.0415 0.9922
vn -0.0501 -0.0426 0.9978
vn 0.2073 -0.1341 -0.9690
vn 0.1394 0.2721 -0.9521
vn 0.2010 0.4415 0.8745
vn 0.4024 0.1812 0.8974
vn 0.0525 0.0577 0.9969
vn -0.1099 0.0211 0.9937
vn -0.2007 0.4247 0.8828
vn -0.2720 0.1067 0.9564
vn -0.2325 0.0551 0.9710
vn -0.3106 0.1623 0.9366
vn 0.0912 0.2790 0.9560
vn 0.0456 0.2380 0.9702
vn 0.1555 0.3361 0.9289
vn 0.0664 0.0163 0.9977
vn 0.3911 0.2228 0.8930
vn -0.2324 0.4512 0.8616
vn -0.0044 0.0178 0.9998
vn -0.1355 0.0473 0.9896
vn -0.4027 0.1601 0.9012
vn -0.0708 -0.1838 0.9804
vn -0.0056 -0.0626 0.9980
vn -0.1582 -0.1294 0.9789
vn 0.0204 -0.2028 0.9790
vn 0.0035 -0.5230 0.8523
vn 0.0226 -0.2102 0.9774
vn 0.0468 -0.0373 0.9982
vn 0.0728 -0.0691 0.9949
vn 0.3382 0.1923 0.9212
vn -0.5115 0.3947 -0.7633
vn -0.1905 0.3535 -0.9158
vn -0.1139 0.3378 -0.9343
vn 0.0729 0.2440 0.9670
vn -0.1862 0.2966 0.9367
vn -0.0427 0.1144 0.9925
vn -0.0811 0.1152 0.9900
vn -0.0528 0.4512 -0.8909
vn -0.1019 0.3334 -0.9373
vn -0.0428 0.4737 -0.8796
vn -0.0213 0.0341 0.9992
vn -0.0133 0.1194 0.9928
vn 0.0600 -0.2445 0.9678
vn -0.2224 -0.0668 0.9727
vn 0.2885 0.1288 0.9488
vn -0.3333 0.1626 0.9287
vn 0.0530 -0.2420 0.9688
vn 0.3275 0.1489 0.9330
vn 0.1495 0.3079 0.9396
vn -0.0567 0.2409 0.9689
vn -0.0005 -0.3464 0.9381
vn 0.0001 -0.8380 0.5457
vn -0.0005 -0.3430 0.9393
vn 0.0003 0.1468 0.9892
vn 0.1156 0.0003 0.9933
vn 0.1329 -0.0002 0.9911
vn 0.3073 0.0006 0.9516
vn 0.1314 0.0040 0.9913
vn 0.0385 0.0002 0.9993
vn -0.0003 0.4161 0.9093
vn 0.0004 0.8256 0.5643
vn 0.0004 0.8259 0.5638
vn -0.0002 -1.0000 0.0084
vn 0.0003 -0.9099 0.4148
vn 0.0005 -0.7833 0.6216
vn -0.0005 -0.1353 0.9908
vn 0.0005 -0.1256 0.9921
vn 0.0004 -0.1226 0.9925
vn -0.0002 -0.0480 0.9988
vn 0.9999 0.0001 0.0138
vn 0.8999 0.0015 0.4360
vn 0.7513 0.0023 0.6600
vn 0.2818 -0.0035 0.9595
vn 0.1295 0.0012 0.9916
vn 0.1269 0.0013 0.9919
vn -0.3157 -0.0125 0.9488
vn -0.0498 -0.0007 0.9988
vn -0.3532 -0.0202 0.9353
vn 0.0025 0.0788 0.9969
vn 0.0158 -0.0851 0.9962
vn 0.0597 -0.0005 0.9982
vn -0.0004 -0.0741 0.9973
vn -0.0171 0.0908 0.9957
vn -0.0557 0.0003 0.9984
vn 0.0002 1.0000 0.0056
vn -0.0401 0.0617 0.9973
vn -0.0795 -0.0158 0.9967
vn -1.0000 -0.0000 -0.0015
vn -0.9846 0.0000 0.1749
vn -0.8648 0.0001 0.5021
vn -1.0000 -0.0018 0.0093
vn -0.0002 -0.7540 0.6568
vn -0.0002 -0.6614 0.7501
vn -0.0003 -0.7115 0.7027
vn -0.0003 -0.7702 0.6378
vn 0.9853 0.0000 0.1708
vn 0.9616 -0.2743 -0.0009
vn 0.9611 -0.2763 -0.0014
vn 1.0000 -0.0000 -0.0020
vn -0.0007 -0.0000 1.0000
vn -0.0038 0.0123 0.9999
vn -0.0005 -0.0014 1.0000
vn -0.0005 0.0008 1.0000
vn -0.0000 1.0000 0.0038
vn 1.0000 0.0001 0.0080
vn 1.0000 0.0001 0.0034
vn 1.0000 0.0000 0.0041
vn 0.9226 -0.0001 0.3859
vn -1.0000 -0.0003 0.0048
vn 0.0000 -0.0004 1.0000
vn -0.0000 0.1309 0.9914
vn -0.0000 -0.0015 1.0000
vn 0.0000 -0.0001 1.0000
vn -0.0000 0.0007 1.0000
vn -0.0000 -1.0000 -0.0015
vn -0.0000 0.1106 -0.9939
vn 0.0603 0.0571 -0.9965
vn 0.0695 -0.0226 -0.9973
vn -0.0000 -0.0002 -1.0000
vn -0.4458 -0.8952 -0.0012
vn -0.3693 0.2436 0.8968
vn 0.2250 0.3955 0.8905
vn -0.1077 -0.1824 0.9773
vn -0.0025 0.0890 0.9960
vn 0.0011 0.0659 0.9978
vn -0.6366 0.3968 -0.6612
vn -0.0620 0.1903 0.9798
vn -0.0298 0.3985 0.9167
vn -0.1112 0.3097 -0.9443
vn -0.8526 -0.5225 -0.0015
vn -0.4549 0.8906 -0.0015
vn -0.8674 0.4976 -0.0019
vn -0.1852 -0.0001 -0.9827
vn -0.1857 -0.0001 -0.9826
vn -0.1024 0.0000 -0.9947
vn -0.0573 0.0001 -0.9984
vn -0.0001 -0.2040 -0.9790
vn 0.0000 0.2138 -0.9769
vn 0.0001 -0.0765 -0.9971
vn 0.1975 0.0002 -0.9803
vn 0.4363 -0.8998 -0.0024
vn 0.8466 -0.5322 -0.0007
vn 0.4298 0.9029 -0.0017
vn 0.8518 0.5238 -0.0016
vn -0.2549 -0.0001 0.9670
vn 0.6070 0.0002 0.7947
vn 0.8105 -0.0002 0.5857
vn 0.0001 0.1008 0.9949
vn 0.0000 -0.0451 0.9990
vn -0.0001 -0.1353 0.9908
vn -0.0003 0.4158 0.9095
vn -0.0001 0.0292 0.9996
vn 0.0002 0.1255 0.9921
vn 0.0002 0.2437 0.9699
vn 0.0002 0.2539 0.9672
vn 0.0001 0.7834 0.6215
vn 0.0340 -0.0002 0.9994
vn -0.0011 -0.3018 0.9534
vn 0.2877 -0.0036 0.9577
vn -0.2567 0.0010 0.9665
vn -0.1295 0.0002 0.9916
vn 0.0003 0.2295 0.9733
vn 0.0001 -0.2657 0.9641
vn -0.0005 -0.1144 0.9934
vn 0.2129 -0.0003 0.9771
vn -0.2331 -0.0001 0.9724
vn 0.4326 0.9016 0.0033
vn 0.8724 0.4887 0.0074
vn 0.4379 -0.8990 0.0058
vn 0.8681 -0.4964 0.0029
vn -0.9313 0.3636 0.0215
vn -0.8351 0.5499 0.0135
vn -0.8608 0.5088 0.0154
vn -0.9887 0.1473 0.0290
vn -0.4244 0.9055 0.0076
vn -0.4183 -0.9083 0.0055
vn -0.8638 -0.5039 0.0057
vn 0.0519 0.0000 0.9987
vn 0.2270 -0.0001 0.9739
vn -0.2512 0.0003 0.9679
vn -0.0001 0.2871 0.9579
vn -0.0002 -0.2642 0.9645
vn -0.8744 0.4851 -0.0004
vn -0.0005 -0.1415 0.9899
vn -0.4260 0.9047 0.0015
vn 0.8752 0.4837 0.0027
vn 0.4152 0.9097 0.0046
vn 0.4406 -0.8977 0.0027
vn 0.8590 -0.5120 0.0024
vn -0.8590 -0.5120 0.0059
vn -0.4502 -0.8929 0.0039
vn -0.0002 -1.0000 0.0069
usemtl Material.001
s 1
f 3/1/1 4/2/2 1/3/3
f 5/4/4 6/5/4 3/6/4
f 2/7/5 7/8/6 8/9/7
f 11/10/8 12/11/9 10/12/10
f 14/13/11 11/14/8 13/15/12
f 15/16/13 12/17/13 14/18/13
f 19/19/14 18/20/14 16/21/14
f 20/22/15 22/23/15 21/24/15
f 25/25/16 26/26/16 27/27/16
f 30/28/17 28/29/18 29/30/19
f 34/31/20 33/32/21 32/33/22
f 35/34/23 36/35/24 34/36/20
f 33/37/21 36/38/24 37/39/25
f 39/40/26 38/41/26 40/42/26
f 42/43/27 38/44/27 41/45/27
f 45/46/28 44/47/28 46/48/28
f 47/49/29 48/50/30 49/51/31
f 52/52/32 50/53/33 51/54/34
f 53/55/35 54/56/35 52/57/35
f 55/58/36 56/59/37 57/60/38
f 61/61/39 60/62/40 62/63/41
f 63/64/42 64/65/42 65/66/42
f 67/67/43 66/68/43 63/69/43
f 66/70/44 69/71/44 68/72/44
f 70/73/45 71/74/46 72/75/47
f 73/76/48 75/77/48 74/78/48
f 76/79/49 75/80/50 77/81/51
f 79/82/52 80/83/52 81/84/52
f 85/85/53 86/86/53 87/87/53
f 90/88/54 91/89/54 92/90/54
f 93/91/55 91/92/55 89/93/55
f 95/94/56 94/95/56 96/96/56
f 98/97/57 94/98/57 97/99/57
f 99/100/58 101/101/58 100/102/58
f 103/103/59 105/104/59 104/105/60
f 104/106/61 106/107/61 107/108/61
f 108/109/62 110/110/62 109/111/62
f 112/112/63 110/110/63 111/113/63
f 113/114/64 115/115/64 114/116/64
f 55/58/65 59/117/66 43/118/67 20/22/67
f 120/119/68 118/120/68 121/121/68
f 122/122/69 124/123/69 123/124/69
f 126/125/70 124/126/70 125/127/70
f 86/128/71 35/34/72 34/36/73
f 88/129/74 78/130/75 86/128/76
f 4/131/2 3/6/1 6/5/77
f 1/3/78 4/2/78 2/132/78
f 28/133/18 30/134/17 31/135/79
f 6/5/80 7/136/80 4/131/80
f 2/7/5 4/137/81 7/8/6
f 9/138/82 11/10/82 10/12/82
f 13/15/83 11/14/83 9/139/83
f 14/18/11 12/17/9 11/140/8
f 17/141/84 16/142/84 18/143/84
f 20/22/85 23/144/85 22/23/85
f 24/145/86 21/146/86 22/147/86
f 25/25/87 28/148/87 26/26/87
f 29/30/88 28/29/88 25/149/88
f 50/150/33 52/57/32 54/56/89
f 31/135/90 26/151/90 28/152/90
f 34/31/20 36/153/24 33/32/21
f 42/43/91 40/154/91 38/44/91
f 43/118/92 46/155/92 44/156/92
f 47/49/29 50/157/93 48/50/30
f 51/54/94 50/53/94 47/158/94
f 54/56/95 48/159/95 50/150/95
f 127/160/96 57/161/38 56/162/37
f 55/58/97 132/163/97 56/59/97
f 58/164/98 127/165/99 56/166/100
f 59/117/101 130/167/102 60/168/103
f 130/169/104 62/170/41 60/171/40
f 61/61/105 133/172/105 60/62/105
f 63/64/106 66/173/106 64/65/106
f 129/174/107 69/175/107 67/67/107
f 67/67/108 69/175/108 66/68/108
f 64/176/109 66/70/109 68/72/109
f 131/177/110 135/178/111 71/179/46
f 71/74/46 70/73/45 134/180/112
f 78/181/113 74/78/114 75/77/115
f 76/79/49 78/182/116 75/80/117
f 79/82/118 84/183/118 80/83/118
f 85/85/119 136/184/120 137/185/121
f 83/186/122 80/187/122 84/188/122
f 85/85/123 138/189/124 86/86/125
f 137/190/126 128/191/127 139/192/128
f 88/129/129 138/193/124 139/194/130
f 86/128/125 138/195/124 88/129/129
f 90/88/131 89/196/131 91/89/131
f 98/97/132 96/197/132 94/98/132
f 102/198/133 100/199/133 101/200/133
f 106/107/134 104/106/134 105/201/134
f 112/112/135 109/202/135 110/110/135
f 117/203/136 121/204/136 118/205/136
f 120/119/137 119/206/137 118/120/137
f 126/125/138 123/207/138 124/126/138
f 62/63/41 76/79/49 77/81/51
f 74/78/114 131/177/139 73/76/140
f 135/208/141 74/209/114 78/130/113
f 59/117/66 55/58/65 57/60/38
f 130/169/142 57/161/38 127/160/96
f 12/11/143 79/82/144 10/12/145
f 82/210/146 12/17/143 15/16/147
f 83/186/148 139/192/149 128/191/150
f 1/3/151 27/27/152 26/26/153
f 3/6/154 26/151/155 31/135/156
f 3/6/154 31/135/156 5/4/157
f 51/54/158 8/9/159 7/8/160
f 52/57/161 7/136/162 6/5/163
f 30/134/164 129/174/165 31/135/166
f 101/211/167 92/212/168 91/213/169
f 114/214/170 125/215/171 124/216/172
f 103/103/173 99/100/173 49/51/173 65/66/173
f 92/212/168 101/211/167 104/217/174 97/218/175
f 24/145/176 19/19/176 70/73/177 58/164/178
f 29/30/179 98/97/179 107/108/179 68/72/179
f 112/112/180 116/219/181 37/39/182 13/15/183
f 61/61/184 77/81/185 42/43/186 45/46/187
f 5/4/188 82/210/189 71/220/46 53/55/190
f 82/210/189 15/16/191 127/160/96 71/220/46
f 128/191/192 126/125/192 120/119/192 83/186/192
f 102/198/193 93/91/193 8/9/159 51/54/158
f 117/203/194 108/109/194 10/12/195 81/84/196
f 113/114/197 122/122/197 87/87/197 32/33/197
f 114/214/170 111/221/198 119/222/199 125/215/171
f 129/174/200 53/55/190 71/220/46 78/130/75
f 129/174/200 78/130/75 88/129/74 31/135/201
f 31/135/201 88/129/74 82/210/189 5/4/188
f 35/34/202 130/169/142 127/160/96 15/16/191
f 39/40/203 73/76/203 131/177/203 17/141/203
f 86/128/76 78/130/75 130/169/142 35/34/202
f 23/223/204 44/224/205 41/225/206 18/226/207
f 134/227/208 16/142/208 17/141/208 131/177/208
f 56/166/100 132/228/209 58/164/98
f 60/168/103 133/229/210 59/117/101
f 71/179/46 134/227/211 131/177/110
f 84/230/212 79/231/213 82/210/189
f 85/85/119 87/87/214 136/184/120
f 138/189/124 85/85/215 137/185/216
f 137/190/126 136/232/217 128/191/127
f 138/233/124 137/190/216 139/192/130
f 134/180/218 70/73/218 19/19/218 16/21/218
f 127/165/96 58/164/178 70/73/177 72/75/47
f 72/234/47 71/220/46 127/160/96
f 20/22/219 21/24/219 132/163/219 55/58/219
f 21/146/220 24/145/220 58/164/220 132/228/220
f 18/20/221 19/19/222 24/145/222 22/147/223
f 22/235/223 23/223/224 18/226/221
f 18/143/225 38/41/225 39/40/225 17/141/225
f 43/118/226 44/156/205 23/144/204 20/22/226
f 41/225/206 38/236/227 18/226/207
f 42/43/228 41/45/206 44/47/205 45/46/228
f 39/40/229 40/42/229 75/77/229 73/76/229
f 40/154/230 42/43/186 77/81/185 75/80/230
f 59/117/231 133/229/231 46/155/231 43/118/231
f 133/172/232 61/61/232 45/46/232 46/48/232
f 87/87/233 86/86/71 34/31/73 32/33/233
f 130/169/104 78/130/116 76/237/49
f 62/170/41 130/169/104 76/237/49
f 61/61/184 62/63/234 77/81/185
f 135/178/141 131/177/139 74/78/114
f 71/220/46 135/208/111 78/130/75
f 57/60/38 130/167/142 59/117/66
f 10/12/195 79/82/235 81/84/196
f 82/210/146 79/231/144 12/17/143
f 139/194/236 84/230/212 82/210/189 88/129/74
f 35/34/23 15/16/237 14/18/238 36/35/24
f 83/186/148 84/188/239 139/192/149
f 14/13/238 13/15/183 37/39/182 36/38/24
f 53/55/240 129/174/240 67/67/240 54/56/240
f 67/67/241 63/69/242 48/159/243 54/56/241
f 48/50/243 63/64/242 65/66/244 49/51/244
f 5/4/245 53/55/245 52/57/245 6/5/245
f 3/1/154 1/3/246 26/26/155
f 52/52/161 51/54/247 7/8/162
f 68/72/248 69/71/249 30/28/164 29/30/248
f 103/103/250 104/105/174 101/101/167 99/100/250
f 30/134/164 69/175/249 129/174/165
f 95/94/251 90/88/251 92/90/168 94/95/252
f 92/212/168 97/218/175 94/238/252
f 91/92/253 93/91/253 102/198/253 101/200/253
f 97/99/175 104/106/174 107/108/254 98/97/254
f 99/100/255 100/102/255 47/49/255 49/51/255
f 102/198/256 51/54/256 47/158/256 100/199/256
f 2/132/257 89/196/257 90/88/257 1/3/257
f 2/7/258 8/9/258 93/91/258 89/93/258
f 106/107/259 105/201/260 64/176/260 68/72/261
f 68/72/261 107/108/262 106/107/259
f 103/103/263 65/66/263 64/65/263 105/104/263
f 95/94/264 96/96/264 25/25/264 27/27/264
f 98/97/265 29/30/265 25/149/265 96/197/265
f 111/221/266 110/239/266 118/240/266 119/222/266
f 110/110/267 108/109/267 117/203/267 118/205/267
f 124/123/268 122/122/268 113/114/268 114/116/268
f 125/127/171 119/206/199 120/119/269 126/125/269
f 111/113/270 115/241/270 116/219/181 112/112/180
f 122/122/271 123/124/271 136/184/271 87/87/271
f 114/214/170 115/242/272 111/221/198
f 126/125/273 128/191/273 136/232/273 123/207/273
f 80/83/274 121/204/274 117/203/274 81/84/274
f 80/187/275 83/186/275 120/119/275 121/121/275
f 9/139/276 109/202/276 112/112/276 13/15/276
f 9/138/277 10/12/277 108/109/277 109/111/277
f 33/32/278 115/115/278 113/114/278 32/33/278
f 33/37/279 37/39/279 116/219/279 115/241/279
f 1/3/151 90/88/280 95/94/280 27/27/152
