# Blender v2.79 (sub 0) OBJ File: 'famciom.blend'
# www.blender.org
mtllib gold.mtl
o gold_Cube.010
v 2.715946 1.443926 -0.946447
v 2.715945 2.918002 2.476851
v 2.715946 1.443926 2.504742
v 2.715946 2.889292 1.114000
v 2.715946 2.404940 -0.946447
v 2.715946 2.404940 1.113622
v 2.715946 2.145693 2.358591
v 2.715946 1.850744 2.358591
v 2.715946 2.144945 2.119525
v 2.715946 2.377030 2.119525
v 2.715946 2.377030 1.835989
v 2.715946 1.850100 1.597621
v 2.715946 2.145048 1.597621
v 2.715946 2.145048 1.836119
v 2.715946 1.850848 1.836687
v 2.715946 1.618764 1.836686
v 2.715946 1.850848 2.120223
v 2.715946 1.618764 2.120223
v 2.715964 1.981560 1.280592
v 2.715964 1.948909 1.381081
v 2.715964 1.863428 1.443187
v 2.715964 1.757767 1.443187
v 2.715964 1.672286 1.381081
v 2.715964 1.639635 1.280592
v 2.715964 1.863428 0.337964
v 2.715964 1.948909 0.400070
v 2.715964 1.981560 0.500559
v 2.715964 1.639635 0.500559
v 2.715964 1.672286 0.400070
v 2.715964 1.757767 0.337964
v 2.715968 1.838200 -0.239160
v 2.715968 1.938693 -0.212233
v 2.715968 2.012260 -0.138667
v 2.715968 2.039187 -0.038173
v 2.715968 2.012260 0.062321
v 2.715968 1.938693 0.135887
v 2.715968 1.838200 0.162814
v 2.715968 1.737706 0.135887
v 2.715968 1.664140 0.062321
v 2.715968 1.637213 -0.038173
v 2.715968 1.664140 -0.138666
v 2.715968 1.737706 -0.212233
v 2.714946 1.840592 -0.717751
v 2.714946 1.940840 -0.690889
v 2.714946 2.014226 -0.617503
v 2.714946 2.041087 -0.517256
v 2.714946 2.014226 -0.417008
v 2.714946 1.940840 -0.343622
v 2.714946 1.840592 -0.316761
v 2.714946 1.740345 -0.343622
v 2.714946 1.666959 -0.417008
v 2.714946 1.640097 -0.517256
v 2.714946 1.666959 -0.617503
v 2.714946 1.740345 -0.690889
v 2.661119 1.937663 -0.207537
v 2.661119 1.840592 -0.233547
v 2.661119 2.008724 -0.136476
v 2.661119 2.034734 -0.039404
v 2.661119 2.008724 0.057667
v 2.661119 1.937663 0.128728
v 2.661119 1.840592 0.154738
v 2.661119 1.743521 0.128728
v 2.661119 1.672460 0.057667
v 2.661119 1.646450 -0.039404
v 2.661119 1.672460 -0.136475
v 2.661119 1.743521 -0.207537
v 2.662141 1.934046 -0.679123
v 2.662141 1.840592 -0.704164
v 2.662141 2.002459 -0.610710
v 2.662141 2.027500 -0.517256
v 2.662141 2.002459 -0.423802
v 2.662141 1.934046 -0.355389
v 2.662141 1.840592 -0.330348
v 2.662141 1.747138 -0.355389
v 2.662141 1.678725 -0.423802
v 2.662141 1.653684 -0.517256
v 2.662141 1.678725 -0.610710
v 2.662141 1.747138 -0.679123
v -2.805896 1.443926 2.559252
v -2.805897 2.962992 -0.891938
v -2.805896 1.443926 -0.891938
v -2.805897 2.962991 0.499182
v -2.805896 2.404940 2.559252
v -2.805896 2.404940 0.499182
v -2.805897 2.144483 -0.736574
v -2.805896 1.851949 -0.736574
v -2.805897 2.143741 -0.509482
v -2.805897 2.387265 -0.509482
v -2.805897 2.387265 -0.220408
v -2.805896 1.851310 0.005970
v -2.805896 2.143844 0.005970
v -2.805896 2.143844 -0.220542
v -2.805896 1.852051 -0.221120
v -2.805896 1.608530 -0.221120
v -2.805896 1.852051 -0.510193
v -2.805896 1.608530 -0.510193
v -2.805918 1.840592 1.855919
v -2.805918 1.942447 1.828627
v -2.805918 2.017010 1.754064
v -2.805918 2.044302 1.652209
v -2.805918 2.017010 1.550354
v -2.805918 1.942447 1.475791
v -2.805918 1.840592 1.448499
v -2.805918 1.738737 1.475791
v -2.805918 1.664174 1.550354
v -2.805918 1.636882 1.652209
v -2.805918 1.664174 1.754064
v -2.805918 1.738737 1.828627
v -2.805918 1.840592 2.337678
v -2.805918 1.944401 2.309863
v -2.805918 2.020395 2.233870
v -2.805918 2.048210 2.130060
v -2.805918 2.020395 2.026251
v -2.805918 1.944401 1.950258
v -2.805918 1.840592 1.922442
v -2.805918 1.736783 1.950258
v -2.805918 1.660789 2.026251
v -2.805918 1.632974 2.130060
v -2.805918 1.660789 2.233869
v -2.805918 1.736783 2.309863
v -2.751070 1.937663 1.820341
v -2.751070 1.840592 1.846351
v -2.751070 2.008724 1.749280
v -2.751070 2.034734 1.652209
v -2.751070 2.008724 1.555138
v -2.751070 1.937663 1.484077
v -2.751070 1.840592 1.458066
v -2.751070 1.743521 1.484077
v -2.751070 1.672460 1.555138
v -2.751070 1.646450 1.652209
v -2.751070 1.672460 1.749280
v -2.751070 1.743521 1.820341
v -2.751070 1.937663 2.298193
v -2.751070 1.840592 2.324203
v -2.751070 2.008724 2.227131
v -2.751070 2.034734 2.130060
v -2.751070 2.008724 2.032989
v -2.751070 1.937663 1.961928
v -2.751070 1.840592 1.935918
v -2.751070 1.743521 1.961928
v -2.751070 1.672460 2.032989
v -2.751070 1.646450 2.130060
v -2.751070 1.672460 2.227131
v -2.751070 1.743521 2.298193
vt 0.610966 0.386808
vt 0.738257 0.340381
vt 0.738257 0.557273
vt 0.811572 0.755468
vt 0.833690 0.735012
vt 0.832843 0.812407
vt 0.610966 0.959620
vt 0.720931 0.707070
vt 0.720360 0.840281
vt 0.831241 0.585214
vt 0.841058 0.557273
vt 0.833690 0.679127
vt 0.729027 0.679127
vt 0.728436 0.868155
vt 0.750500 0.888560
vt 0.841058 0.340381
vt 0.899898 0.000000
vt 0.847332 0.106918
vt 0.777587 0.040638
vt 0.777781 0.252229
vt 0.847332 0.185756
vt 0.805541 0.295171
vt 0.619357 0.185950
vt 0.689103 0.252229
vt 0.619357 0.107112
vt 0.456712 0.007756
vt 0.688910 0.040638
vt 0.930756 0.532758
vt 0.945803 0.553557
vt 0.931674 0.556854
vt 0.899898 0.742707
vt 0.914603 0.771585
vt 0.900056 0.773050
vt 0.899898 0.959620
vt 0.810779 0.888560
vt 0.832843 0.868155
vt 0.963360 0.121050
vt 0.986589 0.138336
vt 0.913309 0.133453
vt 0.983359 0.371448
vt 0.996270 0.396832
vt 0.935173 0.359507
vt 0.929094 0.532076
vt 0.916558 0.555227
vt 0.914952 0.531023
vt 0.900055 0.878626
vt 0.914508 0.896814
vt 0.900484 0.900397
vt 0.900056 0.711976
vt 0.914451 0.742275
vt 0.930756 0.501921
vt 0.944947 0.531094
vt 0.930964 0.823722
vt 0.946157 0.850683
vt 0.931514 0.852438
vt 0.915018 0.690486
vt 0.914603 0.712591
vt 0.931674 0.472604
vt 0.944947 0.502346
vt 0.931514 0.794874
vt 0.945627 0.822945
vt 0.915938 0.773548
vt 0.929620 0.749379
vt 0.930509 0.772711
vt 0.945645 0.689092
vt 0.930509 0.718184
vt 0.932055 0.691651
vt 0.915018 0.792665
vt 0.900486 0.794874
vt 0.915018 0.749394
vt 0.929621 0.719519
vt 0.943987 0.717554
vt 0.930509 0.746957
vt 0.913962 0.848302
vt 0.914108 0.876519
vt 0.915018 0.718480
vt 0.930509 0.691131
vt 0.943987 0.748418
vt 0.932055 0.770259
vt 0.899898 0.848358
vt 0.914108 0.819724
vt 0.930756 0.472604
vt 0.914952 0.501137
vt 0.916558 0.473576
vt 0.945453 0.610654
vt 0.960194 0.637221
vt 0.946001 0.639300
vt 0.900055 0.817702
vt 0.914508 0.798442
vt 0.929093 0.501137
vt 0.946001 0.581876
vt 0.959683 0.610516
vt 0.390494 0.735733
vt 0.398699 0.707412
vt 0.391511 0.811416
vt 0.167780 0.959620
vt 0.276207 0.707412
vt 0.275032 0.840281
vt 0.173094 0.186722
vt 0.246280 0.249668
vt 0.167780 0.386808
vt 0.283395 0.869146
vt 0.306243 0.890276
vt 0.456712 0.000000
vt 0.407224 0.106146
vt 0.334039 0.043200
vt 0.173094 0.106344
vt 0.000000 0.000000
vt 0.246087 0.043200
vt 0.914508 0.496244
vt 0.900466 0.476058
vt 0.914952 0.472604
vt 0.930184 0.667477
vt 0.945453 0.637461
vt 0.944564 0.665849
vt 0.456712 0.959620
vt 0.368664 0.890276
vt 0.391511 0.869146
vt 0.963360 0.240312
vt 0.986589 0.257598
vt 0.913309 0.252715
vt 0.963360 0.001787
vt 0.986589 0.019074
vt 0.913309 0.014191
vt 0.945141 0.970895
vt 0.931374 0.998718
vt 0.930844 0.970980
vt 0.916226 0.794874
vt 0.929359 0.824926
vt 0.914509 0.824347
vt 0.931116 0.637690
vt 0.945453 0.607601
vt 0.914345 0.527989
vt 0.900050 0.498164
vt 0.914508 0.942470
vt 0.930844 0.965605
vt 0.916193 0.967866
vt 0.931116 0.606358
vt 0.944564 0.584269
vt 0.914508 0.559332
vt 0.899898 0.527848
vt 0.914508 0.911111
vt 0.929238 0.941401
vt 0.914527 0.605071
vt 0.900466 0.584316
vt 0.914963 0.581876
vt 0.900466 0.578238
vt 0.900051 0.557157
vt 0.916193 0.882192
vt 0.929238 0.911514
vt 0.914368 0.636218
vt 0.900050 0.606421
vt 0.945629 0.882192
vt 0.930844 0.912068
vt 0.931374 0.884202
vt 0.930184 0.581876
vt 0.914963 0.612574
vt 0.915852 0.584186
vt 0.914527 0.666972
vt 0.899898 0.636105
vt 0.945061 0.911992
vt 0.931374 0.939806
vt 0.929233 0.612235
vt 0.914963 0.642435
vt 0.900466 0.686495
vt 0.900050 0.665415
vt 0.914508 0.856308
vt 0.930964 0.879016
vt 0.916225 0.882192
vt 0.929233 0.644168
vt 0.915852 0.665767
vt 0.945698 0.941656
vt 0.931374 0.943114
vt 0.929359 0.854812
vt 0.284413 0.679091
vt 0.337453 0.650770
vt 0.334231 0.249668
vt 0.368076 0.658358
vt 0.399874 0.840281
vt 0.748073 0.312439
vt 0.728436 0.812407
vt 0.729027 0.735012
vt 0.750500 0.792001
vt 0.751145 0.755468
vt 0.780639 0.784532
vt 0.781359 0.762955
vt 0.810779 0.792001
vt 0.841786 0.707070
vt 0.840919 0.840281
vt 0.751145 0.658671
vt 0.748074 0.585214
vt 0.781359 0.651184
vt 0.773774 0.602483
vt 0.811572 0.658671
vt 0.805541 0.602483
vt 0.780639 0.896029
vt 0.777556 0.106918
vt 0.773774 0.295171
vt 0.777556 0.185756
vt 0.831241 0.312439
vt 0.465344 0.414508
vt 0.689103 0.185914
vt 0.689135 0.107112
vt 1.000000 0.166490
vt 1.000000 0.197967
vt 0.913310 0.219450
vt 0.986589 0.224334
vt 0.936538 0.236737
vt 0.963360 0.238524
vt 0.899898 0.191296
vt 0.899898 0.159819
vt 0.936538 0.119262
vt 0.996270 0.427136
vt 0.983359 0.454241
vt 0.899898 0.433559
vt 0.960996 0.470883
vt 0.912810 0.458942
vt 0.935173 0.472604
vt 0.899898 0.403254
vt 0.912810 0.376150
vt 0.960995 0.357786
vt 0.930756 0.557134
vt 0.900486 0.689092
vt 0.945803 0.475016
vt 0.946157 0.795079
vt 0.915938 0.689092
vt 0.945645 0.773414
vt 0.900484 0.794874
vt 0.960194 0.583688
vt 0.283395 0.811416
vt 0.284413 0.735733
vt 0.306243 0.790286
vt 0.306830 0.756466
vt 0.337453 0.782552
vt 0.337453 0.764055
vt 0.368664 0.790286
vt 0.368076 0.756466
vt 0.000000 0.386808
vt 0.246280 0.186685
vt 0.337453 0.898010
vt 0.407224 0.186524
vt 0.334008 0.106146
vt 0.246311 0.106344
vt 1.000000 0.285752
vt 1.000000 0.317229
vt 0.913310 0.338712
vt 0.986589 0.343596
vt 0.936538 0.355999
vt 0.963360 0.357786
vt 0.899898 0.310558
vt 0.899898 0.279081
vt 0.936538 0.238524
vt 1.000000 0.047228
vt 1.000000 0.078705
vt 0.913310 0.100188
vt 0.986589 0.105071
vt 0.936538 0.117475
vt 0.963360 0.119262
vt 0.899898 0.072034
vt 0.899898 0.040557
vt 0.936538 0.000000
vt 0.945698 1.000000
vt 0.930964 0.797365
vt 0.930184 0.581876
vt 0.914952 0.581876
vt 0.930844 0.883954
vt 0.945629 0.941656
vt 0.914963 0.689092
vt 0.930184 0.669120
vt 0.306830 0.658358
vt 0.334008 0.186524
vt 0.390494 0.679091
vn 1.0000 0.0000 0.0000
vn 1.0000 -0.0037 -0.0037
vn 1.0000 -0.0053 -0.0022
vn 1.0000 0.0001 0.0000
vn 1.0000 -0.0014 0.0014
vn 1.0000 -0.0001 0.0000
vn 1.0000 0.0001 0.0001
vn 0.2412 -0.9374 -0.2512
vn 0.0872 -0.2578 0.9622
vn 1.0000 0.0018 0.0018
vn 0.1661 0.9525 -0.2552
vn 0.2412 0.2512 0.9374
vn 0.0736 -0.7052 0.7052
vn 0.2412 -0.6862 -0.6862
vn 0.1550 0.9543 0.2557
vn 0.0724 -0.9634 0.2581
vn 0.2412 -0.2512 -0.9374
vn 0.1343 0.7007 0.7007
vn 0.0839 -0.9625 -0.2579
vn 0.2412 0.2512 -0.9374
vn 0.1095 0.2573 0.9601
vn 0.1050 -0.7032 -0.7032
vn 0.2412 0.6862 -0.6862
vn 0.2412 -0.2512 0.9374
vn 0.1298 -0.2566 -0.9577
vn 0.2412 0.9374 -0.2512
vn 0.2412 -0.6862 0.6862
vn 0.1517 0.2558 -0.9547
vn 0.2412 0.9374 0.2512
vn 0.2412 -0.9374 0.2512
vn 0.1650 0.6974 -0.6974
vn 0.2412 0.6862 0.6862
vn -1.0000 0.0000 0.0000
vn -1.0000 0.0001 -0.0000
vn -0.2309 -0.9398 0.2518
vn -0.1661 -0.2552 -0.9525
vn -0.1661 0.9525 0.2552
vn -0.2309 0.2518 -0.9398
vn -0.1661 -0.6973 -0.6973
vn -0.2309 -0.6880 0.6880
vn -0.1661 0.9525 -0.2552
vn -0.1661 -0.9525 -0.2552
vn -0.2309 -0.2518 0.9398
vn -0.1661 0.6973 -0.6973
vn -0.1661 -0.9525 0.2552
vn -0.2309 0.2518 0.9398
vn -0.1661 0.2552 -0.9525
vn -0.1662 -0.6973 0.6973
vn -0.2309 0.6880 0.6880
vn -0.2309 -0.2518 -0.9398
vn -0.1661 -0.2552 0.9525
vn -0.2309 0.9398 0.2518
vn -0.2309 -0.6880 -0.6880
vn -0.1661 0.2552 0.9525
vn -0.2309 0.9398 -0.2518
vn -0.2309 -0.9398 -0.2518
vn -0.1661 0.6973 0.6973
vn -0.2309 0.6880 -0.6880
vn -1.0000 -0.0001 -0.0000
vn 1.0000 -0.0081 -0.0022
vn 0.9999 0.0134 -0.0036
vn 0.9999 0.0076 -0.0077
vn 1.0000 -0.0021 -0.0078
vn 0.9999 0.0035 -0.0131
vn 0.9999 0.0132 -0.0035
vn 0.9999 0.0076 -0.0076
vn 0.9999 0.0035 0.0129
vn 1.0000 -0.0021 0.0006
vn 1.0000 -0.0007 0.0026
vn 1.0000 0.0096 -0.0021
vn 1.0000 0.0000 0.0001
vn 1.0000 0.0000 0.0039
vn 1.0000 0.0032 0.0009
vn 0.1298 -0.2566 -0.9578
vn -1.0000 -0.0001 0.0003
vn -1.0000 0.0000 0.0001
vn -0.1662 0.9525 0.2552
vn -0.1662 0.9525 -0.2552
vn -0.1662 0.6973 -0.6973
vn -0.1662 -0.9525 0.2552
vn -0.1661 -0.6973 0.6973
usemtl Material.012
s off
f 6/1/1 19/2/1 27/3/1
f 42/4/2 41/5/2 51/6/2
f 5/7/3 34/8/3 46/9/3
f 29/10/1 28/11/1 39/12/1
f 34/8/4 27/3/4 35/13/4
f 5/7/5 45/14/5 44/15/5
f 28/11/6 24/16/6 3/17/6
f 3/17/1 18/18/1 8/19/1
f 12/20/7 16/21/7 22/22/7
f 24/16/4 16/21/4 3/17/4
f 6/1/1 11/23/1 13/24/1
f 10/25/1 11/23/1 2/26/1
f 3/17/1 7/27/1 2/26/1
f 47/28/8 70/29/8 46/30/8
f 32/31/9 56/32/9 31/33/9
f 1/34/10 54/35/10 53/36/10
f 65/37/1 66/38/1 63/39/1
f 77/40/1 78/41/1 75/42/1
f 39/43/11 64/44/11 63/45/11
f 43/46/12 78/47/12 54/48/12
f 33/49/13 55/50/13 32/31/13
f 48/51/14 71/52/14 47/28/14
f 41/53/15 64/54/15 40/55/15
f 33/49/16 58/56/16 57/57/16
f 49/58/17 72/59/17 48/51/17
f 42/60/18 65/61/18 41/53/18
f 34/62/19 59/63/19 58/64/19
f 49/65/20 74/66/20 73/67/20
f 31/33/21 66/68/21 42/69/21
f 35/70/22 60/71/22 59/63/22
f 50/72/23 75/73/23 74/66/23
f 43/46/24 67/74/24 68/75/24
f 36/76/25 61/77/25 60/71/25
f 51/78/26 76/79/26 75/73/26
f 44/80/27 69/81/27 67/74/27
f 37/82/28 62/83/28 61/84/28
f 53/85/29 76/86/29 52/87/29
f 45/88/30 70/89/30 69/81/30
f 38/90/31 63/45/31 62/83/31
f 54/91/32 77/92/32 53/85/32
f 107/93/33 106/94/33 117/95/33
f 83/96/34 100/97/34 112/98/34
f 89/99/33 91/100/33 84/101/33
f 83/96/33 111/102/33 110/103/33
f 81/104/33 96/105/33 86/106/33
f 88/107/33 89/99/33 80/108/33
f 81/104/33 85/109/33 80/108/33
f 113/110/35 136/111/35 112/112/35
f 97/113/36 121/114/36 122/115/36
f 79/116/33 120/117/33 119/118/33
f 131/119/33 132/120/33 129/121/33
f 143/122/33 144/123/33 141/124/33
f 105/125/37 130/126/37 129/127/37
f 109/128/38 144/129/38 120/130/38
f 98/131/39 123/132/39 121/114/39
f 114/133/40 137/134/40 113/110/40
f 107/135/41 130/136/41 106/137/41
f 99/138/42 124/139/42 123/132/42
f 115/140/43 138/141/43 114/133/43
f 108/142/44 131/143/44 107/135/44
f 101/144/45 124/145/45 100/146/45
f 115/140/46 140/147/46 139/148/46
f 97/149/47 132/150/47 108/142/47
f 102/151/48 125/152/48 101/144/48
f 116/153/49 141/154/49 140/155/49
f 109/156/50 133/157/50 134/158/50
f 103/159/51 126/160/51 102/151/51
f 117/161/52 142/162/52 141/154/52
f 110/163/53 135/164/53 133/157/53
f 103/159/54 128/165/54 127/166/54
f 119/167/55 142/168/55 118/169/55
f 111/170/56 136/171/56 135/164/56
f 104/172/57 129/127/57 128/173/57
f 120/130/58 143/174/58 119/167/58
f 100/97/33 84/101/33 101/175/33
f 103/176/33 90/177/33 104/178/33
f 79/116/59 118/179/59 106/94/59
f 27/3/1 5/7/1 6/1/1
f 6/1/1 20/180/1 19/2/1
f 47/181/60 46/9/60 34/8/60
f 47/181/61 34/8/61 33/182/61
f 48/183/2 47/181/2 33/182/2
f 48/183/62 33/182/62 32/184/62
f 49/185/63 48/183/63 32/184/63
f 49/185/64 32/184/64 31/186/64
f 50/187/64 49/185/64 31/186/64
f 50/187/63 31/186/63 42/4/63
f 40/188/60 52/189/60 41/5/60
f 52/189/65 51/6/65 41/5/65
f 51/6/66 50/187/66 42/4/66
f 36/190/1 35/13/1 26/191/1
f 35/13/1 27/3/1 26/191/1
f 37/192/1 36/190/1 25/193/1
f 36/190/1 26/191/1 25/193/1
f 38/194/1 37/192/1 30/195/1
f 37/192/1 25/193/1 30/195/1
f 28/11/1 40/188/1 39/12/1
f 39/12/1 38/194/1 29/10/1
f 38/194/1 30/195/1 29/10/1
f 34/8/4 5/7/4 27/3/4
f 43/196/67 54/35/67 5/7/67
f 5/7/68 46/9/68 45/14/68
f 44/15/69 43/196/69 5/7/69
f 3/17/6 1/34/6 28/11/6
f 1/34/70 52/189/70 40/188/70
f 40/188/6 28/11/6 1/34/6
f 8/19/1 7/27/1 3/17/1
f 3/17/1 16/21/1 18/18/1
f 18/18/1 17/197/1 8/19/1
f 21/198/7 20/180/7 12/20/7
f 12/20/1 15/199/1 16/21/1
f 16/21/6 24/16/6 23/200/6
f 22/22/71 21/198/71 12/20/71
f 16/21/1 23/200/1 22/22/1
f 6/1/1 4/201/1 11/23/1
f 11/23/1 14/202/1 13/24/1
f 13/24/71 12/20/71 20/180/71
f 20/180/4 6/1/4 13/24/4
f 11/23/1 4/201/1 2/26/1
f 2/26/1 7/27/1 10/25/1
f 7/27/1 9/203/1 10/25/1
f 47/28/8 71/52/8 70/29/8
f 32/31/9 55/50/9 56/32/9
f 1/34/72 5/7/72 54/35/72
f 53/36/73 52/189/73 1/34/73
f 56/204/1 55/205/1 60/206/1
f 55/205/1 57/207/1 59/208/1
f 57/207/1 58/209/1 59/208/1
f 59/208/1 60/206/1 55/205/1
f 60/206/1 61/210/1 56/204/1
f 61/210/1 62/211/1 56/204/1
f 62/211/1 63/39/1 66/38/1
f 56/204/1 62/211/1 66/38/1
f 63/39/1 64/212/1 65/37/1
f 68/213/1 67/214/1 72/215/1
f 67/214/1 69/216/1 71/217/1
f 69/216/1 70/218/1 71/217/1
f 71/217/1 72/215/1 67/214/1
f 72/215/1 73/219/1 68/213/1
f 73/219/1 74/220/1 68/213/1
f 74/220/1 75/42/1 78/41/1
f 68/213/1 74/220/1 78/41/1
f 75/42/1 76/221/1 77/40/1
f 39/43/11 40/222/11 64/44/11
f 43/46/12 68/75/12 78/47/12
f 33/49/13 57/57/13 55/50/13
f 48/51/14 72/59/14 71/52/14
f 41/53/15 65/61/15 64/54/15
f 33/49/16 34/223/16 58/56/16
f 49/58/17 73/224/17 72/59/17
f 42/60/18 66/225/18 65/61/18
f 34/62/19 35/70/19 59/63/19
f 49/65/20 50/72/20 74/66/20
f 31/33/21 56/32/21 66/68/21
f 35/70/22 36/76/22 60/71/22
f 50/72/23 51/78/23 75/73/23
f 43/46/24 44/80/24 67/74/24
f 36/76/74 37/226/74 61/77/74
f 51/78/26 52/227/26 76/79/26
f 44/80/27 45/88/27 69/81/27
f 37/82/28 38/90/28 62/83/28
f 53/85/29 77/92/29 76/86/29
f 45/88/30 46/228/30 70/89/30
f 38/90/31 39/43/31 63/45/31
f 54/91/32 78/229/32 77/92/32
f 113/230/33 112/98/33 100/97/33
f 113/230/33 100/97/33 99/231/33
f 114/232/33 113/230/33 99/231/33
f 114/232/33 99/231/33 98/233/33
f 115/234/33 114/232/33 98/233/33
f 115/234/33 98/233/33 97/235/33
f 116/236/33 115/234/33 108/237/33
f 115/234/33 97/235/33 108/237/33
f 106/94/33 118/179/33 117/95/33
f 117/95/33 116/236/33 107/93/33
f 116/236/33 108/237/33 107/93/33
f 84/101/33 82/238/33 89/99/33
f 89/99/33 92/239/33 91/100/33
f 109/240/75 120/117/75 83/96/75
f 83/96/33 112/98/33 111/102/33
f 110/103/76 109/240/76 83/96/76
f 86/106/33 85/109/33 81/104/33
f 81/104/33 94/241/33 96/105/33
f 96/105/33 95/242/33 86/106/33
f 89/99/33 82/238/33 80/108/33
f 80/108/33 85/109/33 88/107/33
f 85/109/33 87/243/33 88/107/33
f 113/110/35 137/134/35 136/111/35
f 97/113/36 98/131/36 121/114/36
f 79/116/76 83/96/76 120/117/76
f 119/118/59 118/179/59 79/116/59
f 122/244/33 121/245/33 126/246/33
f 121/245/33 123/247/33 125/248/33
f 123/247/33 124/249/33 125/248/33
f 125/248/33 126/246/33 121/245/33
f 126/246/33 127/250/33 122/244/33
f 127/250/33 128/251/33 122/244/33
f 128/251/33 129/121/33 132/120/33
f 122/244/33 128/251/33 132/120/33
f 129/121/33 130/252/33 131/119/33
f 134/253/33 133/254/33 138/255/33
f 133/254/33 135/256/33 137/257/33
f 135/256/33 136/258/33 137/257/33
f 137/257/33 138/255/33 133/254/33
f 138/255/33 139/259/33 134/253/33
f 139/259/33 140/260/33 134/253/33
f 140/260/33 141/124/33 144/123/33
f 134/253/33 140/260/33 144/123/33
f 141/124/33 142/261/33 143/122/33
f 105/125/77 106/262/77 130/126/77
f 109/128/38 134/263/38 144/129/38
f 98/131/39 99/138/39 123/132/39
f 114/133/40 138/141/40 137/134/40
f 107/135/78 131/143/78 130/136/78
f 99/138/42 100/264/42 124/139/42
f 115/140/43 139/148/43 138/141/43
f 108/142/79 132/150/79 131/143/79
f 101/144/80 125/152/80 124/145/80
f 115/140/46 116/265/46 140/147/46
f 97/149/47 122/266/47 132/150/47
f 102/151/81 126/160/81 125/152/81
f 116/153/49 117/161/49 141/154/49
f 109/156/50 110/163/50 133/157/50
f 103/159/51 127/166/51 126/160/51
f 117/161/52 118/267/52 142/162/52
f 110/163/53 111/170/53 135/164/53
f 103/159/54 104/268/54 128/165/54
f 119/167/55 143/174/55 142/168/55
f 111/170/56 112/269/56 136/171/56
f 104/172/57 105/125/57 129/127/57
f 120/130/58 144/129/58 143/174/58
f 83/96/34 84/101/34 100/97/34
f 84/101/33 91/100/33 101/175/33
f 101/175/33 91/100/33 102/270/33
f 91/100/33 90/177/33 103/176/33
f 102/270/33 91/100/33 103/176/33
f 90/177/33 93/271/33 94/241/33
f 94/241/33 106/94/33 105/272/33
f 94/241/33 105/272/33 104/178/33
f 90/177/33 94/241/33 104/178/33
f 94/241/33 81/104/33 106/94/33
f 81/104/59 79/116/59 106/94/59
l 101 128
