# Blender v2.79 (sub 0) OBJ File: ''
# www.blender.org
mtllib gbcamera.mtl
o Plane_Plane.001
v 1.582494 5.170685 -0.725952
v 1.582494 2.715240 -0.725953
v 1.582494 2.715240 -1.069121
v 1.582494 5.170685 -1.069121
v 1.767768 4.946648 -0.183256
v 1.767768 0.109682 -0.183257
v 1.767768 0.109682 -0.725953
v 1.767768 4.946648 -0.725952
v -1.767768 0.109682 -0.183257
v -1.767768 0.109682 -0.725953
v -1.582494 5.170685 -0.725952
v -1.582494 2.715240 -0.725953
v -1.767768 4.946648 -0.725952
v -1.582494 5.030702 -0.178801
v -1.767768 4.946648 -0.183256
v -1.582494 5.170685 -1.069121
v -1.582494 2.715240 -1.069121
v -1.402575 4.208780 -1.459083
v 1.402575 4.208780 -1.459083
v 1.402575 3.109830 -1.459084
v -1.402575 3.109830 -1.459084
v 1.582494 5.030702 -0.185089
v 1.235958 4.366819 -1.547596
v -1.235958 4.366819 -1.547596
v -1.235958 5.136231 -1.547596
v 1.235958 5.136231 -1.547596
v 1.488238 5.166705 -1.309780
v -1.488238 5.166705 -1.309780
v -1.191097 5.030702 -0.074996
v -0.948792 5.030702 -0.030369
v -0.643634 5.030702 0.013609
v -0.381342 5.030702 0.046022
v 0.000000 5.030702 0.066320
v 0.381341 5.030702 0.044009
v 0.643634 5.030702 0.010806
v 0.948792 5.030702 -0.035378
v 1.191097 5.030702 -0.081284
v -1.545938 4.273138 -0.183256
v -1.767768 4.273138 -0.183256
v -1.767768 4.273138 -0.448424
v -1.545938 4.273138 -0.448424
v -1.767768 4.068066 -0.183256
v -1.545938 4.068066 -0.183256
v -1.545938 4.068066 -0.448424
v -1.767768 4.068066 -0.448424
v 1.191097 4.327649 -0.081284
v 1.191097 4.327649 -0.128289
v -1.191097 4.327649 -0.122001
v 0.948792 4.327649 -0.035378
v 0.643634 4.327649 0.010806
v 0.381341 4.327649 0.044009
v 0.000000 4.327649 0.066320
v -0.381342 4.327649 0.046022
v -0.643634 4.327649 0.013609
v -0.948792 4.327649 -0.030369
v -1.191097 4.327649 -0.074996
v -1.488238 2.957170 -1.282704
v 1.488238 2.957170 -1.282704
v -0.000001 6.887010 -0.315028
v 0.000000 6.968981 -0.727120
v -0.157701 6.887010 -0.346397
v 0.009543 5.047210 -0.096743
v 0.000000 5.480040 0.267758
v -0.380724 5.480040 0.192027
v -0.261190 5.047210 -0.142543
v -0.000001 5.892132 0.349728
v 0.000000 6.304224 0.267758
v -0.380724 6.304224 0.192027
v -0.412093 5.892132 0.267758
v 0.000000 6.653579 0.034326
v -0.291394 6.653579 -0.023635
v -0.703486 6.304224 -0.023635
v -0.761447 5.892132 0.034326
v -0.291394 6.887010 -0.435727
v -0.538425 6.653579 -0.188696
v -0.703486 5.480040 -0.023635
v -0.538425 5.093737 -0.188696
v -0.994879 5.892132 -0.315028
v -0.919149 5.480040 -0.346397
v -0.703486 6.653579 -0.435727
v -0.919149 6.304224 -0.346397
v -0.380724 6.887010 -0.569419
v -0.703486 5.093737 -0.435727
v -0.761447 6.653579 -0.727120
v -0.994879 6.304224 -0.727120
v -0.412093 6.887010 -0.727120
v -0.994879 5.480040 -0.727120
v -0.761447 5.130685 -0.727120
v -1.076849 5.892132 -0.727120
v -0.919148 5.480040 -1.107844
v -0.703486 5.130685 -1.018513
v -0.919148 6.304224 -1.107844
v -0.994879 5.892132 -1.139212
v -0.380724 6.887010 -0.884821
v -0.703486 6.653579 -1.018513
v -0.291394 6.887010 -1.018513
v -0.538597 6.653823 -1.265642
v -0.761447 5.892132 -1.488566
v -0.703486 5.480040 -1.430605
v -0.703486 6.304224 -1.430605
v -0.538425 5.130685 -1.265544
v -0.412092 5.892132 -1.721998
v -0.380724 5.480041 -1.646267
v -0.291393 6.653579 -1.430605
v -0.380724 6.304224 -1.646267
v -0.157701 6.887010 -1.107843
v -0.291393 5.130685 -1.430605
v 0.000000 6.887010 -1.139212
v 0.000000 5.480041 -1.721998
v 0.000000 5.130685 -1.488566
v 0.000000 6.653580 -1.488566
v -0.123462 5.892136 -1.656877
v 0.000000 6.304224 -1.721998
v 0.000004 6.015602 -1.656877
v -0.087300 5.979440 -1.656877
v 0.380723 5.480041 -1.646267
v 0.291393 5.130685 -1.430605
v 0.157700 6.887010 -1.107843
v 0.291393 6.653579 -1.430605
v 0.380723 6.304224 -1.646267
v 0.412092 5.892132 -1.721998
v 0.761447 5.892132 -1.488566
v 0.703485 5.480040 -1.430605
v 0.538596 6.653823 -1.265642
v 0.703485 6.304224 -1.430605
v 0.291393 6.887010 -1.018513
v 0.538424 5.130685 -1.265544
v 0.994878 5.892132 -1.139212
v 0.919148 5.480040 -1.107843
v 0.703485 6.653579 -1.018513
v 0.919148 6.304224 -1.107843
v 0.380723 6.887010 -0.884821
v 0.703485 5.130685 -1.018513
v 0.994878 5.480040 -0.727120
v 0.761446 5.130685 -0.727120
v 0.994878 6.304224 -0.727120
v 1.076848 5.892132 -0.727120
v 0.412092 6.887010 -0.727120
v 0.761446 6.653579 -0.727120
v 0.919147 6.304224 -0.346396
v 0.994878 5.892132 -0.315028
v 0.380723 6.887010 -0.569419
v 0.703485 6.653579 -0.435727
v 0.919147 5.480040 -0.346397
v 0.703485 5.093737 -0.435727
v 0.761446 5.892132 0.034327
v 0.703485 5.480040 -0.023635
v 0.538423 6.653579 -0.188696
v 0.703485 6.304224 -0.023635
v 0.291393 6.887010 -0.435727
v 0.509792 5.047210 -0.234962
v 0.291392 6.653579 -0.023635
v 0.380723 6.304224 0.192027
v 0.157700 6.887010 -0.346397
v 0.380723 5.480040 0.192027
v 0.280276 5.047210 -0.164756
v 0.412091 5.892132 0.267758
v 0.123470 5.892136 -1.656877
v 0.087308 5.979440 -1.656877
v 0.000004 5.768668 -1.656877
v 0.087308 5.804831 -1.656877
v -0.087300 5.804831 -1.656877
v 0.257553 5.892136 -1.719361
v 0.182119 5.710021 -1.719361
v 0.000004 5.634585 -1.719361
v 0.000004 6.149684 -1.719361
v -0.182111 6.074251 -1.719361
v -0.257545 5.892136 -1.719361
v -0.182111 5.710021 -1.719361
v 0.182119 6.074251 -1.719361
v -1.582494 5.100694 -0.452377
v -1.767768 4.946648 -0.454604
v -1.767768 0.109682 -0.454605
v 1.767768 0.109682 -0.454605
v 1.767768 4.946648 -0.454604
v 1.582494 5.100694 -0.455521
v 1.714522 5.045120 -0.455062
v 1.714522 5.080115 -0.725952
v 1.714522 5.010124 -0.184173
v -1.714522 5.010124 -0.181029
v -1.714522 5.080115 -0.725952
v -1.714522 5.045120 -0.453490
vt 0.989387 0.712515
vt 0.989387 0.925061
vt 0.931355 0.925060
vt 0.931355 0.712514
vt 0.025717 0.011536
vt 0.025717 0.212888
vt 0.008913 0.426550
vt 0.008913 0.029907
vt 0.017315 0.020721
vt 0.312775 0.212888
vt 0.312775 0.011536
vt 0.321177 0.020721
vt 0.329579 0.029907
vt 0.329579 0.426550
vt 0.751875 0.744073
vt 0.751875 0.956620
vt 0.693837 0.956621
vt 0.693837 0.744074
vt 0.974081 0.425997
vt 0.974081 0.712514
vt 0.916022 0.712514
vt 0.916022 0.425997
vt 0.437575 0.749900
vt 0.437575 0.996158
vt 0.340015 0.996158
vt 0.340015 0.749900
vt 0.502162 0.757162
vt 0.502162 0.958729
vt 0.438717 0.958729
vt 0.438717 0.757162
vt 0.530688 0.442769
vt 0.571417 0.451302
vt 0.611661 0.474140
vt 0.611661 0.697915
vt 0.571417 0.720753
vt 0.530688 0.729286
vt 0.472608 0.442769
vt 0.472608 0.729286
vt 0.426293 0.729286
vt 0.426825 0.442769
vt 0.803197 0.844692
vt 0.803197 0.425998
vt 0.849089 0.425997
vt 0.849089 0.844691
vt 0.954091 0.000000
vt 0.954091 0.320061
vt 0.908183 0.320061
vt 0.908183 0.000000
vt 0.862296 0.000001
vt 0.862296 0.418694
vt 0.816410 0.418693
vt 0.816410 0.000000
vt 0.471685 0.445076
vt 0.425902 0.445076
vt 0.425810 0.436690
vt 0.471664 0.436690
vt 0.652794 0.956272
vt 0.657373 0.765013
vt 0.879300 0.434530
vt 0.879300 0.703981
vt 0.849089 0.696226
vt 0.849089 0.442285
vt 0.894869 0.904122
vt 0.890290 0.712862
vt 0.864708 0.890911
vt 0.864708 0.795785
vt 0.627233 0.873350
vt 0.627233 0.778224
vt 0.332823 0.438086
vt 0.332823 0.692028
vt 0.317464 0.676945
vt 0.317464 0.453170
vt 0.849089 0.782112
vt 0.849089 0.715511
vt 0.611661 0.953624
vt 0.611661 0.887023
vt 0.426641 0.746058
vt 0.426467 0.737672
vt 0.472587 0.737672
vt 0.472565 0.746058
vt 0.425718 0.428304
vt 0.471642 0.428304
vt 0.908183 0.000002
vt 0.908183 0.418695
vt 1.000000 0.000000
vt 1.000000 0.320061
vt 0.773693 0.360577
vt 0.752455 0.360577
vt 0.752455 0.318157
vt 0.773693 0.318157
vt 0.305631 0.696212
vt 0.285555 0.696212
vt 0.285555 0.653777
vt 0.305631 0.653777
vt 0.771229 0.360577
vt 0.771229 0.402982
vt 0.752455 0.402982
vt 0.752455 0.360577
vt 0.676984 0.412849
vt 0.676984 0.392767
vt 0.695757 0.392767
vt 0.695757 0.412849
vt 0.757305 0.484299
vt 0.757305 0.425999
vt 0.757305 0.844692
vt 0.757305 0.502050
vt 0.802152 0.502049
vt 0.802152 0.484298
vt 0.771229 0.361498
vt 0.779118 0.360577
vt 0.779118 0.421896
vt 0.676984 0.007304
vt 0.676984 0.065604
vt 0.655746 0.065604
vt 0.655746 0.083355
vt 0.676984 0.083355
vt 0.676984 0.425997
vt 0.338493 0.425996
vt 0.338493 0.007303
vt 0.347361 0.003665
vt 0.356230 0.000027
vt 0.393746 0.000001
vt 0.393726 0.060870
vt 0.621799 0.060869
vt 0.621819 0.000000
vt 0.659248 0.000027
vt 0.668116 0.003666
vt 0.301853 0.631772
vt 0.294176 0.604113
vt 0.288676 0.580344
vt 0.285071 0.545806
vt 0.288676 0.511300
vt 0.294277 0.487580
vt 0.301853 0.459988
vt 0.309512 0.438086
vt 0.317464 0.438122
vt 0.317464 0.653777
vt 0.309512 0.653742
vt 0.306311 0.653777
vt 0.314259 0.714634
vt 0.306309 0.714634
vt 0.425923 0.442769
vt 0.425391 0.729286
vt 0.379978 0.729286
vt 0.362410 0.693854
vt 0.354857 0.671919
vt 0.347414 0.644294
vt 0.341928 0.620549
vt 0.338493 0.586028
vt 0.342268 0.551506
vt 0.347888 0.527761
vt 0.355704 0.500136
vt 0.363474 0.478201
vt 0.381042 0.442769
vt 0.425565 0.737672
vt 0.380347 0.737672
vt 0.509539 0.819315
vt 0.573901 0.819315
vt 0.573895 0.853828
vt 0.509533 0.853828
vt 0.509561 0.767976
vt 0.573922 0.767976
vt 0.573910 0.795583
vt 0.509548 0.795583
vt 0.509539 0.888359
vt 0.573901 0.888359
vt 0.573910 0.912117
vt 0.509548 0.912116
vt 0.509561 0.939760
vt 0.573922 0.939760
vt 0.573935 0.961713
vt 0.509573 0.961713
vt 0.509573 0.746058
vt 0.573935 0.746059
vt 0.687727 0.650807
vt 0.684480 0.584916
vt 0.702561 0.645128
vt 0.066865 0.474590
vt 0.065078 0.438086
vt 0.102082 0.448595
vt 0.095187 0.482632
vt 0.714687 0.355429
vt 0.676984 0.355462
vt 0.677005 0.321027
vt 0.714709 0.318157
vt 0.690480 0.706695
vt 0.717891 0.696202
vt 0.752434 0.355462
vt 0.752455 0.321027
vt 0.692321 0.744073
vt 0.728136 0.730363
vt 0.215370 0.756281
vt 0.177646 0.744063
vt 0.177631 0.710678
vt 0.215353 0.720146
vt 0.714644 0.630285
vt 0.740216 0.668775
vt 0.253097 0.744064
vt 0.253081 0.710680
vt 0.757305 0.694529
vt 0.134638 0.481707
vt 0.120104 0.507976
vt 0.215342 0.665077
vt 0.253071 0.659802
vt 0.145657 0.683717
vt 0.145649 0.644777
vt 0.177620 0.659801
vt 0.722134 0.608537
vt 0.285071 0.683720
vt 0.285063 0.644780
vt 0.754057 0.628590
vt 0.145646 0.598377
vt 0.177617 0.599176
vt 0.723892 0.583195
vt 0.253068 0.599177
vt 0.285061 0.598379
vt 0.215338 0.599457
vt 0.757305 0.581765
vt 0.253071 0.538034
vt 0.285063 0.551583
vt 0.177620 0.538033
vt 0.215342 0.533276
vt 0.719650 0.558118
vt 0.749467 0.535428
vt 0.145649 0.551580
vt 0.710054 0.537122
vt 0.731736 0.496634
vt 0.215353 0.476610
vt 0.253082 0.485682
vt 0.145657 0.511512
vt 0.177631 0.485681
vt 0.285071 0.511514
vt 0.215370 0.438086
vt 0.253097 0.450090
vt 0.746224 0.469615
vt 0.706810 0.471288
vt 0.713658 0.436499
vt 0.696565 0.523405
vt 0.128529 0.680059
vt 0.145646 0.706545
vt 0.116465 0.742360
vt 0.106195 0.707471
vt 0.177646 0.450089
vt 0.681236 0.519055
vt 0.080646 0.756056
vt 0.078781 0.717953
vt 0.678486 0.463250
vt 0.037725 0.816676
vt 0.037725 0.830667
vt 0.000000 0.827827
vt 0.000000 0.793362
vt 0.014147 0.793361
vt 0.021053 0.809848
vt 0.676651 0.425997
vt 0.043642 0.745548
vt 0.050459 0.709911
vt 0.666401 0.524734
vt 0.651075 0.473743
vt 0.640836 0.439707
vt 0.784436 0.306163
vt 0.746709 0.318157
vt 0.746691 0.279542
vt 0.784420 0.270487
vt 0.628750 0.501170
vt 0.611667 0.475542
vt 0.654318 0.539577
vt 0.011087 0.712436
vt 0.025542 0.684568
vt 0.708985 0.306164
vt 0.708969 0.270489
vt 0.746679 0.222819
vt 0.784409 0.218082
vt 0.676995 0.244706
vt 0.676987 0.204597
vt 0.708958 0.218083
vt 0.646828 0.561325
vt 0.816410 0.244703
vt 0.816402 0.204594
vt 0.614909 0.541355
vt 0.784405 0.156925
vt 0.816399 0.157787
vt 0.708954 0.156927
vt 0.746675 0.156624
vt 0.645070 0.586667
vt 0.611661 0.588180
vt 0.676984 0.157790
vt 0.708958 0.096330
vt 0.746679 0.091034
vt 0.649312 0.611744
vt 0.619499 0.634517
vt 0.784409 0.096328
vt 0.676987 0.111411
vt 0.816402 0.111408
vt 0.746691 0.036035
vt 0.784420 0.045516
vt 0.676995 0.072521
vt 0.708969 0.045518
vt 0.658908 0.632740
vt 0.816410 0.072518
vt 0.637231 0.673312
vt 0.622748 0.700456
vt 0.662156 0.698657
vt 0.655314 0.733571
vt 0.672398 0.646457
vt 0.017117 0.512484
vt 0.000078 0.487597
vt 0.029259 0.451782
vt 0.039451 0.485072
vt 0.708985 0.012226
vt 0.746709 0.000000
vt 0.784436 0.012224
vt 0.714709 0.392767
vt 0.677005 0.389958
vt 0.752455 0.389958
vt 0.000000 0.758896
vt 0.037725 0.756056
vt 0.037725 0.770046
vt 0.021053 0.776875
vt 0.075451 0.758896
vt 0.075451 0.793362
vt 0.061303 0.793361
vt 0.054397 0.776875
vt 0.075451 0.827827
vt 0.054397 0.809848
vt 0.029733 0.785458
vt 0.037725 0.782184
vt 0.045717 0.785458
vt 0.049028 0.793361
vt 0.045717 0.801265
vt 0.037725 0.804538
vt 0.029733 0.801265
vt 0.026422 0.793361
vt 0.425738 0.425997
vt 0.425831 0.434383
vt 0.380879 0.434383
vt 0.380716 0.425997
vt 0.425738 0.746058
vt 0.380716 0.746058
vn 1.0000 -0.0000 0.0000
vn -0.0000 0.0000 -1.0000
vn -1.0000 -0.0000 0.0000
vn 0.0000 -1.0000 -0.0000
vn 0.0000 1.0000 0.0000
vn -0.0000 0.9977 -0.0685
vn 0.0001 0.9685 0.2492
vn 0.4772 0.8627 0.1673
vn 0.3833 0.9067 0.1759
vn 0.6649 0.7387 0.1102
vn 0.7165 0.6894 0.1070
vn -0.6407 -0.6813 -0.3540
vn -0.7264 0.6673 -0.1642
vn -0.5905 0.6621 -0.4614
vn -0.5881 -0.4230 -0.6893
vn 0.5881 -0.4230 -0.6893
vn -0.4339 -0.3197 -0.8423
vn 0.4339 -0.3197 -0.8423
vn 0.6407 -0.6813 -0.3540
vn 0.7264 0.6673 -0.1642
vn 0.5905 0.6621 -0.4614
vn 0.5906 -0.0681 -0.8041
vn -0.5906 -0.0681 -0.8041
vn -0.2495 -0.1855 -0.9504
vn 0.2495 -0.1855 -0.9504
vn 0.2559 0.6056 -0.7535
vn -0.2559 0.6056 -0.7535
vn -0.8747 0.4837 0.0311
vn -0.6659 0.7380 0.1092
vn -0.7170 0.6890 0.1061
vn -0.9085 0.4170 0.0268
vn 0.8741 0.4848 0.0313
vn 0.9084 0.4172 0.0269
vn -0.3844 0.9066 0.1743
vn -0.4781 0.8625 0.1658
vn 0.0000 -0.0000 1.0000
vn -0.0003 -0.0115 0.9999
vn 0.0002 0.9870 0.1609
vn -0.2746 0.9443 0.1816
vn -0.5995 0.7922 0.1140
vn -0.0574 0.6274 0.7766
vn -0.0628 -0.6993 0.7120
vn 0.0019 -0.6948 0.7192
vn 0.0018 0.6231 0.7821
vn -0.1053 0.6310 0.7686
vn -0.1148 -0.7028 0.7021
vn -0.0941 -0.7048 0.7031
vn -0.0860 0.6326 0.7697
vn 0.0604 0.6276 0.7762
vn 0.0658 -0.6996 0.7115
vn 0.0977 -0.7044 0.7031
vn 0.0895 0.6322 0.7696
vn 0.1095 0.6312 0.7679
vn 0.1194 -0.7030 0.7011
vn 0.6230 -0.5879 0.5160
vn 0.0753 0.6273 0.7751
vn -0.0736 0.6267 0.7758
vn -0.6218 -0.5875 0.5178
vn -0.0000 0.9152 0.4031
vn -0.1543 0.9152 0.3724
vn 0.0157 -0.6458 0.7633
vn 0.0050 -0.4224 0.9064
vn -0.3254 -0.4030 0.8554
vn -0.2418 -0.6119 0.7531
vn 0.0000 0.3744 0.9273
vn -0.3549 0.3744 0.8567
vn -0.3827 -0.0000 0.9239
vn 0.0000 0.6952 0.7189
vn -0.2751 0.6952 0.6641
vn -0.6557 0.3744 0.6557
vn -0.7071 -0.0000 0.7071
vn -0.2850 0.9152 0.2850
vn -0.5083 0.6952 0.5083
vn -0.6393 -0.3739 0.6720
vn -0.5362 -0.5584 0.6330
vn -0.9239 -0.0000 0.3827
vn -0.8644 -0.3599 0.3512
vn -0.6641 0.6952 0.2751
vn -0.8567 0.3744 0.3549
vn -0.3724 0.9152 0.1543
vn -0.7876 -0.5274 0.3186
vn -0.7189 0.6952 -0.0000
vn -0.9273 0.3744 -0.0000
vn -0.4031 0.9152 0.0000
vn -0.9296 -0.3686 -0.0063
vn -0.8390 -0.5441 -0.0084
vn -0.8567 -0.3744 -0.3549
vn -0.7682 -0.5556 -0.3182
vn -0.8568 0.3743 -0.3548
vn -0.9239 -0.0000 -0.3827
vn -0.3724 0.9152 -0.1540
vn -0.6643 0.6951 -0.2749
vn -0.2849 0.9153 -0.2849
vn -0.5083 0.6952 -0.5083
vn -0.7071 0.0000 -0.7071
vn -0.6557 -0.3744 -0.6557
vn -0.6557 0.3742 -0.6557
vn -0.5879 -0.5556 -0.5879
vn -0.3515 -0.0000 -0.9362
vn -0.3393 -0.3590 -0.8695
vn -0.2749 0.6951 -0.6643
vn -0.3393 0.3589 -0.8695
vn -0.1540 0.9152 -0.3724
vn -0.3182 -0.5556 -0.7682
vn 0.0000 0.9152 -0.4031
vn -0.0000 -0.3415 -0.9399
vn 0.0000 -0.5556 -0.8315
vn 0.0000 0.6952 -0.7189
vn 0.0864 0.0000 -0.9963
vn -0.0000 0.3415 -0.9399
vn 0.0000 -0.0864 -0.9963
vn 0.0933 -0.0933 -0.9913
vn 0.3393 -0.3590 -0.8695
vn 0.3182 -0.5556 -0.7682
vn 0.1540 0.9152 -0.3724
vn 0.2749 0.6951 -0.6643
vn 0.3393 0.3589 -0.8695
vn 0.3515 -0.0000 -0.9362
vn 0.7071 0.0000 -0.7071
vn 0.6557 -0.3744 -0.6557
vn 0.5083 0.6952 -0.5083
vn 0.6557 0.3742 -0.6557
vn 0.2849 0.9153 -0.2849
vn 0.5879 -0.5556 -0.5879
vn 0.9239 -0.0000 -0.3827
vn 0.8567 -0.3744 -0.3549
vn 0.6643 0.6951 -0.2749
vn 0.8568 0.3743 -0.3548
vn 0.3724 0.9152 -0.1540
vn 0.7682 -0.5556 -0.3182
vn 0.9296 -0.3686 -0.0063
vn 0.8390 -0.5441 -0.0084
vn 0.9273 0.3744 0.0000
vn 0.4031 0.9152 0.0000
vn 0.7189 0.6952 0.0000
vn 0.8567 0.3744 0.3549
vn 0.9239 -0.0000 0.3827
vn 0.3724 0.9152 0.1543
vn 0.6641 0.6952 0.2751
vn 0.8604 -0.3649 0.3559
vn 0.7719 -0.5375 0.3395
vn 0.7071 -0.0000 0.7071
vn 0.6336 -0.3830 0.6722
vn 0.5083 0.6952 0.5083
vn 0.6557 0.3744 0.6557
vn 0.2850 0.9152 0.2850
vn 0.5240 -0.5754 0.6279
vn 0.2751 0.6952 0.6641
vn 0.3549 0.3744 0.8567
vn 0.1543 0.9152 0.3724
vn 0.3315 -0.4104 0.8495
vn 0.2689 -0.6215 0.7358
vn 0.3827 -0.0000 0.9239
vn -0.0864 0.0000 -0.9963
vn -0.0933 -0.0933 -0.9913
vn 0.0000 0.0864 -0.9963
vn -0.0933 0.0933 -0.9913
vn 0.0933 0.0933 -0.9913
vn -0.1884 -0.1884 -0.9638
vn -0.2665 0.0000 -0.9638
vn -0.1884 0.1884 -0.9638
vn 0.0000 0.2665 -0.9638
vn 0.1884 0.1884 -0.9638
vn 0.2665 -0.0000 -0.9638
vn 0.1884 -0.1884 -0.9638
vn 0.0000 -0.2665 -0.9638
vn 0.6036 0.7891 0.1135
vn 0.8349 0.5493 0.0355
vn 0.2715 0.9448 0.1832
vn -0.8354 0.5486 0.0353
usemtl gbcamera
s off
f 1/1/1 2/2/1 3/3/1 4/4/1
f 11/5/2 12/6/2 10/7/2 13/8/2 181/9/2
f 2/10/2 1/11/2 178/12/2 8/13/2 7/14/2
f 12/6/2 2/10/2 7/14/2 10/7/2
f 12/15/3 11/16/3 16/17/3 17/18/3
f 2/19/4 12/20/4 17/21/4 3/22/4
f 4/4/5 16/17/5 11/16/5 1/1/5
f 18/23/2 19/24/2 20/25/2 21/26/2
f 23/27/2 24/28/2 25/29/2 26/30/2
f 4/31/6 27/32/6 26/33/6 25/34/6 28/35/6 16/36/6
f 1/37/7 11/38/7 171/39/7 176/40/7
f 173/41/3 172/42/3 13/43/3 10/44/3
f 174/45/4 173/46/4 10/47/4 7/48/4
f 175/49/1 174/50/1 7/51/1 8/52/1
s 1
f 1/53/8 176/54/9 177/55/10 178/56/11
f 17/18/12 16/17/13 28/57/14 57/58/15
f 58/59/16 57/60/15 21/61/17 20/62/18
f 3/22/19 17/21/12 57/60/15 58/59/16
f 4/4/20 3/3/19 58/63/16 27/64/21
f 27/64/21 58/63/16 20/65/18 19/66/22
f 57/58/15 28/57/14 18/67/23 21/68/17
f 19/69/22 18/70/23 24/71/24 23/72/25
f 19/66/22 23/73/25 26/74/26 27/64/21
f 28/57/14 25/75/27 24/76/24 18/67/23
f 172/77/28 182/78/29 181/79/30 13/80/31
f 178/56/11 177/55/10 175/81/32 8/82/33
f 181/79/30 182/78/29 171/39/34 11/38/35
usemtl gbcamera_gbcamera3.png
s off
f 5/83/1 6/84/1 174/50/1 175/49/1
f 6/85/4 9/86/4 173/46/4 174/45/4
f 38/87/4 39/88/4 40/89/4 41/90/4
f 42/91/5 43/92/5 44/93/5 45/94/5
f 38/95/3 41/96/3 44/97/3 43/98/3
f 41/99/36 40/100/36 45/101/36 44/102/36
f 39/103/3 15/104/3 172/42/3 173/41/3 9/105/3 42/106/3 45/107/3 40/108/3
f 46/109/1 47/110/1 37/111/1
f 15/112/37 39/113/37 38/114/37 43/115/37 42/116/37 9/117/37 6/118/37 5/119/37 179/120/37 22/121/37 37/122/37 47/123/37 48/124/37 29/125/37 14/126/37 180/127/37
f 49/128/4 50/129/4 51/130/4 52/131/4 53/132/4 54/133/4 55/134/4 56/135/4 48/136/4 47/137/4 46/138/4
f 29/139/3 48/140/3 56/141/3
f 176/142/38 171/143/38 14/144/38 29/145/38 30/146/38 31/147/38 32/148/38 33/149/38 34/150/38 35/151/38 36/152/38 37/153/38 22/154/38
s 1
f 14/144/39 171/143/34 182/155/29 180/156/40
f 32/157/41 53/158/42 52/159/43 33/160/44
f 30/161/45 55/162/46 54/163/47 31/164/48
f 34/165/49 51/166/50 50/167/51 35/168/52
f 36/169/53 49/170/54 46/171/55 37/172/56
f 31/164/48 54/163/47 53/158/42 32/157/41
f 35/168/52 50/167/51 49/170/54 36/169/53
f 29/173/57 56/174/58 55/162/46 30/161/45
f 33/160/44 52/159/43 51/166/50 34/165/49
f 59/175/59 60/176/5 61/177/60
f 62/178/61 63/179/62 64/180/63 65/181/64
f 66/182/36 67/183/65 68/184/66 69/185/67
f 70/186/68 59/175/59 61/177/60 71/187/69
f 63/188/62 66/182/36 69/185/67 64/189/63
f 67/190/65 70/186/68 71/187/69 68/191/66
f 69/192/67 68/193/66 72/194/70 73/195/71
f 71/187/69 61/177/60 74/196/72 75/197/73
f 64/198/63 69/192/67 73/195/71 76/199/74
f 68/191/66 71/187/69 75/197/73 72/200/70
f 61/177/60 60/176/5 74/196/72
f 65/181/64 64/180/63 76/201/74 77/202/75
f 76/199/74 73/195/71 78/203/76 79/204/77
f 72/194/70 75/205/73 80/206/78 81/207/79
f 74/196/72 60/176/5 82/208/80
f 77/209/75 76/199/74 79/204/77 83/210/81
f 73/195/71 72/194/70 81/207/79 78/203/76
f 75/197/73 74/196/72 82/208/80 80/211/78
f 81/207/79 80/206/78 84/212/82 85/213/83
f 82/208/80 60/176/5 86/214/84
f 83/210/81 79/204/77 87/215/85 88/216/86
f 78/203/76 81/207/79 85/213/83 89/217/3
f 80/211/78 82/208/80 86/214/84 84/218/82
f 79/204/77 78/203/76 89/217/3 87/215/85
f 88/216/86 87/215/85 90/219/87 91/220/88
f 89/217/3 85/213/83 92/221/89 93/222/90
f 84/218/82 86/214/84 94/223/91 95/224/92
f 87/215/85 89/217/3 93/222/90 90/219/87
f 85/213/83 84/212/82 95/225/92 92/221/89
f 86/214/84 60/176/5 94/223/91
f 95/224/92 94/223/91 96/226/93 97/227/94
f 90/219/87 93/222/90 98/228/95 99/229/96
f 92/221/89 95/225/92 97/230/94 100/231/97
f 94/223/91 60/176/5 96/226/93
f 91/220/88 90/219/87 99/229/96 101/232/98
f 93/222/90 92/221/89 100/231/97 98/228/95
f 99/229/96 98/228/95 102/233/99 103/234/100
f 100/235/97 97/227/94 104/236/101 105/237/102
f 96/226/93 60/176/5 106/238/103
f 101/239/98 99/240/96 103/241/100 107/242/104
f 98/228/95 100/231/97 105/243/102 102/233/99
f 97/227/94 96/226/93 106/238/103 104/236/101
f 106/238/103 60/176/5 108/244/105
f 107/242/104 103/241/100 109/245/106 110/246/107
f 104/236/101 106/238/103 108/244/105 111/247/108
f 168/248/109 102/249/99 105/250/102 113/251/110 166/252/111 167/253/112
f 105/237/102 104/236/101 111/247/108 113/254/110
f 110/246/107 109/245/106 116/255/113 117/256/114
f 111/247/108 108/244/105 118/257/115 119/258/116
f 113/254/110 111/247/108 119/258/116 120/259/117
f 108/244/105 60/176/5 118/257/115
f 116/260/113 121/261/118 122/262/119 123/263/120
f 120/259/117 119/258/116 124/264/121 125/265/122
f 118/257/115 60/176/5 126/266/123
f 117/256/114 116/255/113 123/267/120 127/268/124
f 121/261/118 120/269/117 125/270/122 122/262/119
f 119/258/116 118/257/115 126/266/123 124/264/121
f 123/263/120 122/262/119 128/271/125 129/272/126
f 125/270/122 124/273/121 130/274/127 131/275/128
f 126/266/123 60/176/5 132/276/129
f 127/277/124 123/263/120 129/272/126 133/278/130
f 122/262/119 125/270/122 131/275/128 128/271/125
f 124/264/121 126/266/123 132/276/129 130/279/127
f 133/278/130 129/272/126 134/280/131 135/281/132
f 128/271/125 131/275/128 136/282/133 137/283/1
f 130/279/127 132/276/129 138/284/134 139/285/135
f 129/272/126 128/271/125 137/283/1 134/280/131
f 131/275/128 130/274/127 139/286/135 136/282/133
f 132/276/129 60/176/5 138/284/134
f 137/283/1 136/282/133 140/287/136 141/288/137
f 139/285/135 138/284/134 142/289/138 143/290/139
f 134/280/131 137/283/1 141/288/137 144/291/140
f 136/282/133 139/286/135 143/292/139 140/287/136
f 138/284/134 60/176/5 142/289/138
f 135/281/132 134/280/131 144/291/140 145/293/141
f 144/291/140 141/288/137 146/294/142 147/295/143
f 140/287/136 143/292/139 148/296/144 149/297/145
f 142/289/138 60/176/5 150/298/146
f 145/293/141 144/291/140 147/295/143 151/299/147
f 141/288/137 140/287/136 149/297/145 146/294/142
f 143/290/139 142/289/138 150/298/146 148/300/144
f 149/301/145 148/300/144 152/302/148 153/303/149
f 150/298/146 60/176/5 154/304/150
f 151/305/147 147/306/143 155/307/151 156/308/152
f 146/294/142 149/297/145 153/309/149 157/310/153
f 148/300/144 150/298/146 154/304/150 152/302/148
f 147/295/143 146/294/142 157/310/153 155/311/151
f 156/308/152 155/307/151 63/179/62 62/178/61
f 157/312/153 153/313/149 67/183/65 66/182/36
f 152/302/148 154/304/150 59/175/59 70/186/68
f 155/314/151 157/312/153 66/182/36 63/188/62
f 153/303/149 152/302/148 70/186/68 67/190/65
f 154/304/150 60/176/5 59/175/59
f 166/252/111 113/251/110 120/315/117 121/316/118 163/317/154 170/318/155
f 163/317/154 121/316/118 116/319/113 109/320/106 165/321/156 164/322/157
f 165/321/156 109/320/106 103/323/100 102/249/99 168/248/109 169/324/158
f 159/325/159 158/326/160 161/327/161 160/328/162 162/329/163 112/330/164 115/331/165 114/332/166
f 161/327/161 158/326/160 163/317/154 164/322/157
f 160/328/162 161/327/161 164/322/157 165/321/156
f 114/332/166 115/331/165 167/253/112 166/252/111
f 115/331/165 112/330/164 168/248/109 167/253/112
f 112/330/164 162/329/163 169/324/158 168/248/109
f 158/326/160 159/325/159 170/318/155 163/317/154
f 162/329/163 160/328/162 165/321/156 169/324/158
f 159/325/159 114/332/166 166/252/111 170/318/155
f 175/333/32 177/334/10 179/335/167 5/336/168
f 179/335/167 177/334/10 176/142/9 22/154/169
f 180/156/40 182/155/29 172/337/28 15/338/170
