# Blender v2.79 (sub 0) OBJ File: 'armcannon.blend'
# www.blender.org
mtllib dark.mtl
o dark_Plane.001
v 4.000000 1.000000 0.500000
v 4.000000 0.000000 0.500000
v 3.000000 -1.000000 0.500000
v 4.000000 1.000000 -0.500000
v 4.000000 -0.000000 -0.500000
v 3.000000 0.000000 1.500000
v 3.000000 0.000000 0.500000
v 2.000000 -1.000000 0.500000
v 0.000000 0.000000 2.500000
v 1.000000 -1.000000 0.500000
v 0.000000 -0.000000 0.500000
v 0.000000 1.000000 0.500000
v 0.000000 -1.000000 0.500000
v 0.000000 2.000000 0.500000
v -1.000000 -1.000000 0.500000
v -1.000000 2.000000 0.500000
v -2.000000 -0.000000 0.500000
v -2.000000 -1.000000 0.500000
v -2.000000 2.000000 0.500000
v -3.000000 0.000000 0.500000
v -3.000000 1.000000 0.500000
v -3.000000 -1.000000 0.500000
v -3.000000 2.000000 0.500000
v 0.000000 -2.000000 0.500000
v -1.000000 -2.000000 0.500000
v -2.000000 -2.000000 0.500000
v -3.000000 -2.000000 0.500000
v 3.000000 0.000000 1.500000
v 3.000000 -1.000000 1.500000
v 2.000000 0.000000 1.500000
v 2.000000 -1.000000 1.500000
v 3.000000 -1.000000 -0.497945
v 3.000000 -0.000000 -0.497945
v 0.000000 -1.000000 1.500000
v 0.000000 -2.000000 1.500000
v 1.000000 0.000000 1.500000
v 1.000000 -1.000000 1.500000
v 0.000000 0.000000 1.500000
v 0.000000 1.000000 1.500000
v -1.000000 2.000000 1.500000
v 0.000000 2.000000 1.500000
v -1.000000 1.000000 1.500000
v -1.000000 -1.000000 1.500000
v -2.000000 0.000000 1.500000
v -2.000000 1.000000 1.500000
v -2.000000 -1.000000 1.500000
v -2.000000 2.000000 1.500000
v -3.000000 0.000000 1.500000
v -3.000000 1.000000 1.500000
v -3.000000 -1.000000 1.500000
v -3.000000 2.000000 1.500000
v -1.000000 -2.000000 1.500000
v -2.000000 -2.000000 1.500000
v -3.000000 -2.000000 1.500000
v 0.000000 -1.000000 2.500000
v -1.000000 0.000000 2.500000
v -1.000000 -1.000000 2.500000
v -2.000000 0.000000 2.500000
v -2.000000 -1.000000 2.500000
v 2.000000 -1.000000 -0.497945
v 0.000000 0.000000 -2.497945
v 1.000000 -1.000000 -0.497945
v 0.000000 -0.000000 -0.497945
v 0.000000 1.000000 -0.497945
v 0.000000 -1.000000 -0.497945
v 0.000000 2.000000 -0.497945
v -1.000000 1.000000 -0.497945
v -1.000000 -1.000000 -0.497945
v -1.000000 2.000000 -0.497945
v -2.000000 -0.000000 -0.497945
v -2.000000 1.000000 -0.497945
v -2.000000 -1.000000 -0.497945
v -2.000000 2.000000 -0.497945
v -3.000000 -0.000000 -0.497945
v -3.000000 1.000000 -0.497945
v -3.000000 -1.000000 -0.497945
v -3.000000 2.000000 -0.497945
v 0.000000 -2.000000 -0.497945
v -1.000000 -2.000000 -0.497945
v -2.000000 -2.000000 -0.497945
v -3.000000 -2.000000 -0.497945
v 3.000000 0.000000 -1.497945
v 3.000000 -1.000000 -1.497945
v 2.000000 0.000000 -1.497945
v 2.000000 -1.000000 -1.497945
v 0.000000 -1.000000 -1.497945
v 0.000000 -2.000000 -1.497945
v 1.000000 0.000000 -1.497945
v 1.000000 -1.000000 -1.497945
v 0.000000 0.000000 -1.497945
v 0.000000 1.000000 -1.497945
v -1.000000 2.000000 -1.497945
v 0.000000 2.000000 -1.497945
v -1.000000 1.000000 -1.497945
v -1.000000 -1.000000 -1.497945
v -2.000000 0.000000 -1.497945
v -2.000000 1.000000 -1.497945
v -2.000000 -1.000000 -1.497945
v -2.000000 2.000000 -1.497945
v -3.000000 0.000000 -1.497945
v -3.000000 1.000000 -1.497945
v -3.000000 -1.000000 -1.497945
v -3.000000 2.000000 -1.497945
v -1.000000 -2.000000 -1.497945
v -2.000000 -2.000000 -1.497945
v -3.000000 -2.000000 -1.497945
v 0.000000 -1.000000 -2.497946
v -1.000000 0.000000 -2.497945
v -1.000000 -1.000000 -2.497946
v -2.000000 0.000000 -2.497945
v -2.000000 -1.000000 -2.497946
v -3.000000 0.000000 0.500000
v -3.000000 1.000000 0.500000
v -3.000000 -1.000000 0.500000
v -3.000000 -0.000000 -0.497945
v -3.000000 1.000000 -0.497945
v -3.000000 -1.000000 -0.497945
v -1.000000 0.000000 0.500000
v -1.000000 1.000000 0.500000
v -1.000000 -1.000000 0.500000
v -1.000000 -0.000000 -0.497945
v -1.000000 1.000000 -0.497945
v -1.000000 -1.000000 -0.497945
vn 0.0000 -1.0000 -0.0000
vn 1.0000 0.0000 0.0000
vn -1.0000 0.0000 0.0000
vn 0.0000 1.0000 -0.0000
vn 0.0000 0.0000 1.0000
vn 0.0000 0.0000 -1.0000
usemtl Material.004
s off
f 72//1 111//1 109//1 68//1
f 1//2 2//2 5//2 4//2
f 74//3 100//3 102//3 76//3
f 29//2 3//2 7//2 6//2
f 78//2 87//2 86//2 65//2
f 66//4 93//4 92//4 69//4
f 8//1 3//1 29//1 31//1
f 14//4 16//4 40//4 41//4
f 24//2 13//2 34//2 35//2
f 20//3 22//3 50//3 48//3
f 18//1 15//1 57//1 59//1
f 26//1 25//1 52//1 53//1
f 13//1 10//1 37//1 34//1
f 19//4 23//4 51//4 47//4
f 17//3 18//3 59//3 58//3
f 21//3 20//3 48//3 49//3
f 16//4 19//4 47//4 40//4
f 29//5 28//5 30//5 31//5
f 60//1 85//1 83//1 32//1
f 37//5 36//5 38//5 34//5
f 39//5 41//5 40//5 42//5
f 46//5 44//5 48//5 50//5
f 42//5 40//5 47//5 45//5
f 44//5 45//5 49//5 48//5
f 45//5 47//5 51//5 49//5
f 43//5 46//5 53//5 52//5
f 34//5 43//5 52//5 35//5
f 46//5 50//5 54//5 53//5
f 23//3 21//3 49//3 51//3
f 27//1 26//1 53//1 54//1
f 22//3 27//3 54//3 50//3
f 25//1 24//1 35//1 52//1
f 12//2 14//2 41//2 39//2
f 55//5 9//5 56//5 57//5
f 57//5 56//5 58//5 59//5
f 15//1 13//1 55//1 57//1
f 13//2 11//2 9//2 55//2
f 80//1 105//1 104//1 79//1
f 65//1 86//1 89//1 62//1
f 73//4 99//4 103//4 77//4
f 70//3 110//3 111//3 72//3
f 75//3 101//3 100//3 74//3
f 69//4 92//4 99//4 73//4
f 83//6 85//6 84//6 82//6
f 32//2 83//2 82//2 33//2
f 89//6 86//6 90//6 88//6
f 91//6 94//6 92//6 93//6
f 98//6 102//6 100//6 96//6
f 94//6 97//6 99//6 92//6
f 96//6 100//6 101//6 97//6
f 97//6 101//6 103//6 99//6
f 95//6 104//6 105//6 98//6
f 86//6 87//6 104//6 95//6
f 98//6 105//6 106//6 102//6
f 77//3 103//3 101//3 75//3
f 81//1 106//1 105//1 80//1
f 76//3 102//3 106//3 81//3
f 71//1 97//1 94//1 67//1
f 79//1 104//1 87//1 78//1
f 67//1 94//1 91//1 64//1
f 64//2 91//2 93//2 66//2
f 107//6 109//6 108//6 61//6
f 109//6 111//6 110//6 108//6
f 68//1 109//1 107//1 65//1
f 65//2 107//2 61//2 63//2
f 22//5 20//5 112//5 114//5
f 113//1 116//1 122//1 119//1
f 74//5 76//5 117//5 115//5
f 21//5 75//5 116//5 113//5
f 20//5 21//5 113//5 112//5
f 75//5 74//5 115//5 116//5
f 76//5 22//5 114//5 117//5
f 119//3 122//3 121//3 123//3 120//3 118//3
f 116//5 115//5 121//5 122//5
f 112//6 113//6 119//6 118//6
f 117//4 114//4 120//4 123//4
f 72//5 123//5 121//5 70//5
f 70//5 115//5 117//5 72//5
f 17//6 118//6 120//6 18//6
f 18//6 114//6 112//6 17//6
