# Blender v2.82 (sub 7) OBJ File: 'head.blend'
# www.blender.org
mtllib eye0.mtl
o eyes_Sphere.004
v 0.175140 0.136200 0.751967
v 0.178116 0.251796 0.647811
v 0.164215 0.246202 0.662883
v 0.143163 0.222316 0.689152
v 0.142445 0.198534 0.708455
v 0.140294 0.131373 0.739623
v 0.142315 0.063722 0.762660
v 0.149502 0.023591 0.778175
v 0.160760 0.002159 0.783807
v 0.158940 0.241743 0.652248
v 0.142398 0.213113 0.665974
v 0.131010 0.181203 0.686897
v 0.126508 0.119722 0.711833
v 0.129579 0.049720 0.736985
v 0.143823 0.017355 0.761597
v 0.191732 0.237284 0.642701
v 0.202990 0.204873 0.648333
v 0.210177 0.159499 0.663848
v 0.212198 0.108070 0.686885
v 0.208746 0.058414 0.713937
v 0.200346 0.018092 0.740884
v 0.197008 0.241743 0.653336
v 0.212738 0.213113 0.667984
v 0.222913 0.181203 0.689523
v 0.225984 0.119722 0.714675
v 0.221482 0.049720 0.739611
v 0.210094 0.015352 0.760535
v 0.193552 -0.002300 0.774260
v 0.191133 0.246202 0.663652
v 0.201884 0.221352 0.687046
v 0.210266 0.198534 0.710393
v 0.210634 0.131373 0.741633
v 0.207301 0.063722 0.764517
v 0.199239 0.023591 0.779597
v 0.187678 0.002159 0.784576
v 0.177550 0.248049 0.667607
v 0.173560 0.225687 0.694716
v 0.176043 0.204437 0.720357
v 0.174508 0.069522 0.774064
v 0.174142 0.027004 0.786904
v 0.174095 0.004006 0.788531
v -0.175139 0.136200 0.751967
v -0.178116 0.251796 0.647811
v -0.164215 0.246202 0.662883
v -0.143163 0.222316 0.689152
v -0.142444 0.198534 0.708455
v -0.140294 0.131373 0.739623
v -0.142315 0.063722 0.762660
v -0.149501 0.023591 0.778175
v -0.160760 0.002159 0.783807
v -0.158940 0.241743 0.652248
v -0.142398 0.213113 0.665974
v -0.131010 0.181203 0.686897
v -0.126508 0.119722 0.711833
v -0.129578 0.049720 0.736985
v -0.143822 0.017355 0.761597
v -0.191732 0.237284 0.642701
v -0.202990 0.204873 0.648333
v -0.210177 0.159499 0.663848
v -0.212198 0.108070 0.686885
v -0.208746 0.058414 0.713937
v -0.200345 0.018092 0.740884
v -0.197007 0.241743 0.653336
v -0.212738 0.213113 0.667984
v -0.222913 0.181203 0.689523
v -0.225984 0.119722 0.714675
v -0.221482 0.049720 0.739611
v -0.210093 0.015352 0.760535
v -0.193552 -0.002300 0.774260
v -0.191133 0.246202 0.663652
v -0.201884 0.221352 0.687046
v -0.210266 0.198534 0.710393
v -0.210633 0.131373 0.741633
v -0.207300 0.063722 0.764517
v -0.199239 0.023591 0.779597
v -0.187678 0.002159 0.784576
v -0.177550 0.248049 0.667607
v -0.173559 0.225687 0.694716
v -0.176043 0.204437 0.720357
v -0.174508 0.069522 0.774064
v -0.174141 0.027004 0.786904
v -0.174095 0.004006 0.788531
vt 0.357846 0.260308
vt 0.339429 0.153201
vt 0.522220 0.146960
vt 0.549662 0.251427
vt 0.277878 0.042103
vt 0.243221 0.000000
vt 0.354192 0.037015
vt 0.413652 0.921545
vt 0.405935 0.767847
vt 0.589678 0.759791
vt 0.554661 0.912143
vt 0.390262 0.523813
vt 0.589678 0.510517
vt 0.408146 0.996543
vt 0.484459 0.991454
vt 0.590566 0.927121
vt 0.604955 0.780716
vt 0.794091 0.794404
vt 0.701032 0.925807
vt 0.589678 0.533490
vt 0.607071 0.274069
vt 0.778940 0.303641
vt 0.787280 0.537171
vt 0.655462 0.170313
vt 0.691529 0.046279
vt 0.767147 0.047688
vt 0.794091 0.166519
vt 0.724432 0.000000
vt 0.997400 0.405814
vt 1.000000 0.603802
vt 0.794091 0.634404
vt 0.799344 0.401365
vt 1.000000 0.770947
vt 0.997396 0.881804
vt 0.921604 0.880101
vt 0.859954 0.767802
vt 0.992592 0.207126
vt 0.850406 0.141265
vt 0.992589 0.919496
vt 0.986311 0.037987
vt 0.869280 0.000000
vt 0.258799 0.999802
vt 0.137695 0.927567
vt 0.240940 0.927934
vt 0.314674 1.000000
vt 0.043695 0.790149
vt 0.000000 0.532330
vt 0.146009 0.532848
vt 0.179781 0.780422
vt 0.000929 0.298970
vt 0.042036 0.162456
vt 0.145280 0.162823
vt 0.121877 0.272958
vt 0.128532 0.045362
vt 0.184407 0.045561
vt 0.357846 0.260308
vt 0.549662 0.251427
vt 0.522220 0.146960
vt 0.339429 0.153201
vt 0.277878 0.042103
vt 0.354192 0.037015
vt 0.243221 0.000000
vt 0.413652 0.921545
vt 0.554661 0.912143
vt 0.589678 0.759791
vt 0.405935 0.767847
vt 0.390262 0.523813
vt 0.589678 0.510517
vt 0.408146 0.996543
vt 0.484459 0.991454
vt 0.590566 0.927121
vt 0.701032 0.925807
vt 0.794091 0.794404
vt 0.604955 0.780716
vt 0.589678 0.533490
vt 0.787280 0.537171
vt 0.778940 0.303641
vt 0.607071 0.274069
vt 0.655462 0.170313
vt 0.794091 0.166519
vt 0.767147 0.047688
vt 0.691529 0.046279
vt 0.724432 0.000000
vt 0.997400 0.405814
vt 0.799344 0.401365
vt 0.794091 0.634404
vt 1.000000 0.603802
vt 1.000000 0.770947
vt 0.859954 0.767802
vt 0.921604 0.880101
vt 0.997396 0.881804
vt 0.992592 0.207126
vt 0.850406 0.141265
vt 0.992589 0.919496
vt 0.986311 0.037987
vt 0.869280 0.000000
vt 0.258799 0.999802
vt 0.314674 1.000000
vt 0.240940 0.927934
vt 0.137695 0.927567
vt 0.043695 0.790149
vt 0.179781 0.780422
vt 0.146009 0.532848
vt 0.000000 0.532330
vt 0.000929 0.298970
vt 0.121877 0.272958
vt 0.145280 0.162823
vt 0.042036 0.162456
vt 0.128532 0.045362
vt 0.184407 0.045561
vn -0.0022 0.5900 0.8074
vn -0.0008 0.7596 0.6503
vn -0.6982 0.6187 0.3601
vn -0.6918 0.4476 0.5666
vn 0.0216 0.8928 0.4498
vn 0.1084 0.9916 -0.0696
vn -0.4930 0.8502 0.1845
vn -0.0280 0.1877 0.9818
vn -0.0272 0.3027 0.9527
vn -0.7004 0.1704 0.6931
vn -0.5874 0.1214 0.8001
vn -0.0265 0.3687 0.9292
vn -0.6871 0.2719 0.6738
vn -0.0285 0.0706 0.9971
vn -0.3414 0.0670 0.9375
vn -0.9120 0.0375 0.4083
vn -0.9090 -0.0391 0.4149
vn -0.9407 0.2349 0.2446
vn -0.9138 0.1524 0.3764
vn -0.7104 0.6973 -0.0953
vn -0.9041 0.4273 0.0064
vn 0.8986 -0.1792 -0.4003
vn 0.9111 -0.0746 -0.4053
vn 0.9880 0.1521 -0.0267
vn 0.9997 -0.0129 0.0212
vn 0.8754 0.0964 -0.4736
vn 0.7193 0.4369 -0.5400
vn 0.7700 0.5916 -0.2389
vn 0.9374 0.3132 -0.1520
vn 0.8391 -0.3167 -0.4423
vn 0.9737 -0.2267 -0.0224
vn 0.7190 -0.4999 -0.4828
vn 0.9287 -0.2466 0.2768
vn 0.7741 -0.2864 0.5646
vn 0.6222 0.0175 0.7826
vn 0.5322 -0.0916 0.8416
vn 0.6475 0.2719 0.7119
vn 0.6531 0.1824 0.7349
vn 0.6080 0.6602 0.4410
vn 0.6451 0.5005 0.5774
vn 0.5000 0.8166 0.2882
vn 0.0022 0.5900 0.8074
vn 0.6918 0.4476 0.5666
vn 0.6982 0.6187 0.3601
vn 0.0008 0.7596 0.6503
vn -0.0216 0.8928 0.4498
vn 0.4930 0.8502 0.1845
vn -0.1084 0.9916 -0.0696
vn 0.0280 0.1877 0.9818
vn 0.5874 0.1214 0.8001
vn 0.7004 0.1704 0.6931
vn 0.0272 0.3027 0.9527
vn 0.0265 0.3687 0.9292
vn 0.6871 0.2719 0.6738
vn 0.0285 0.0706 0.9971
vn 0.3414 0.0670 0.9375
vn 0.9090 -0.0391 0.4149
vn 0.9120 0.0375 0.4083
vn 0.9138 0.1524 0.3764
vn 0.9407 0.2349 0.2446
vn 0.9041 0.4273 0.0064
vn 0.7104 0.6973 -0.0953
vn -0.8986 -0.1792 -0.4003
vn -0.9997 -0.0129 0.0212
vn -0.9880 0.1521 -0.0267
vn -0.9111 -0.0746 -0.4053
vn -0.8754 0.0964 -0.4736
vn -0.9374 0.3132 -0.1520
vn -0.7700 0.5916 -0.2389
vn -0.7193 0.4369 -0.5400
vn -0.8391 -0.3167 -0.4423
vn -0.9737 -0.2267 -0.0224
vn -0.7190 -0.4999 -0.4828
vn -0.9287 -0.2466 0.2768
vn -0.7741 -0.2864 0.5646
vn -0.5322 -0.0916 0.8416
vn -0.6222 0.0175 0.7826
vn -0.6531 0.1824 0.7349
vn -0.6475 0.2719 0.7119
vn -0.6451 0.5005 0.5774
vn -0.6080 0.6602 0.4410
vn -0.5000 0.8166 0.2882
usemtl None
s 1
f 38/1/1 37/2/2 4/3/3 5/4/4
f 36/5/5 2/6/6 3/7/7
f 40/8/8 39/9/9 7/10/10 8/11/11
f 1/12/12 38/1/1 5/4/4 6/13/13
f 37/2/2 36/5/5 3/7/7 4/3/3
f 41/14/14 40/8/8 8/11/11 9/15/15
f 39/9/9 1/12/12 6/13/13 7/10/10
f 8/16/11 7/17/10 14/18/16 15/19/17
f 6/20/13 5/21/4 12/22/18 13/23/19
f 4/24/3 3/25/7 10/26/20 11/27/21
f 7/17/10 6/20/13 13/23/19 14/18/16
f 5/21/4 4/24/3 11/27/21 12/22/18
f 3/25/7 2/28/6 10/26/20
f 19/29/22 18/30/23 24/31/24 25/32/25
f 17/33/26 16/34/27 22/35/28 23/36/29
f 20/37/30 19/29/22 25/32/25 26/38/31
f 18/30/23 17/33/26 23/36/29 24/31/24
f 16/34/27 2/39/6 22/35/28
f 21/40/32 20/37/30 26/38/31 27/41/33
f 28/42/34 27/43/33 34/44/35 35/45/36
f 26/46/31 25/47/25 32/48/37 33/49/38
f 24/50/24 23/51/29 30/52/39 31/53/40
f 22/54/28 2/6/6 29/55/41
f 27/43/33 26/46/31 33/49/38 34/44/35
f 25/47/25 24/50/24 31/53/40 32/48/37
f 23/51/29 22/54/28 29/55/41 30/52/39
f 31/53/40 30/52/39 37/2/2 38/1/1
f 29/55/41 2/6/6 36/5/5
f 34/44/35 33/49/38 39/9/9 40/8/8
f 32/48/37 31/53/40 38/1/1 1/12/12
f 30/52/39 29/55/41 36/5/5 37/2/2
f 35/45/36 34/44/35 40/8/8 41/14/14
f 33/49/38 32/48/37 1/12/12 39/9/9
f 79/56/42 46/57/43 45/58/44 78/59/45
f 77/60/46 44/61/47 43/62/48
f 81/63/49 49/64/50 48/65/51 80/66/52
f 42/67/53 47/68/54 46/57/43 79/56/42
f 78/59/45 45/58/44 44/61/47 77/60/46
f 82/69/55 50/70/56 49/64/50 81/63/49
f 80/66/52 48/65/51 47/68/54 42/67/53
f 49/71/50 56/72/57 55/73/58 48/74/51
f 47/75/54 54/76/59 53/77/60 46/78/43
f 45/79/44 52/80/61 51/81/62 44/82/47
f 48/74/51 55/73/58 54/76/59 47/75/54
f 46/78/43 53/77/60 52/80/61 45/79/44
f 44/82/47 51/81/62 43/83/48
f 60/84/63 66/85/64 65/86/65 59/87/66
f 58/88/67 64/89/68 63/90/69 57/91/70
f 61/92/71 67/93/72 66/85/64 60/84/63
f 59/87/66 65/86/65 64/89/68 58/88/67
f 57/91/70 63/90/69 43/94/48
f 62/95/73 68/96/74 67/93/72 61/92/71
f 69/97/75 76/98/76 75/99/77 68/100/74
f 67/101/72 74/102/78 73/103/79 66/104/64
f 65/105/65 72/106/80 71/107/81 64/108/68
f 63/109/69 70/110/82 43/62/48
f 68/100/74 75/99/77 74/102/78 67/101/72
f 66/104/64 73/103/79 72/106/80 65/105/65
f 64/108/68 71/107/81 70/110/82 63/109/69
f 72/106/80 79/56/42 78/59/45 71/107/81
f 70/110/82 77/60/46 43/62/48
f 75/99/77 81/63/49 80/66/52 74/102/78
f 73/103/79 42/67/53 79/56/42 72/106/80
f 71/107/81 78/59/45 77/60/46 70/110/82
f 76/98/76 82/69/55 81/63/49 75/99/77
f 74/102/78 80/66/52 42/67/53 73/103/79
o lashes_Plane.001
v 0.082410 0.254123 0.706864
v 0.180729 0.247794 0.691417
v 0.112638 0.274847 0.692163
v 0.177503 0.289117 0.667956
v 0.188683 0.280587 0.690580
v 0.139763 0.264811 0.706952
v 0.234874 0.240368 0.670670
v 0.262660 0.268360 0.648629
v 0.253090 0.263055 0.666158
v 0.285893 0.204247 0.653507
v 0.300480 0.252939 0.635516
v 0.325716 0.211984 0.652695
v 0.287089 0.137006 0.676647
v 0.363323 0.236366 0.596714
v 0.313032 0.141031 0.673546
v 0.286619 0.083595 0.696047
v 0.328485 0.107627 0.667228
v 0.313035 0.082144 0.695270
v 0.280923 0.036156 0.720059
v 0.351263 0.054574 0.690073
v -0.324771 0.040647 0.687732
v -0.351264 0.054574 0.690073
v -0.280923 0.036156 0.720059
v -0.313035 0.082144 0.695270
v -0.328485 0.107627 0.667228
v -0.286619 0.083595 0.696047
v -0.313032 0.141031 0.673546
v -0.363323 0.236366 0.596714
v -0.287089 0.137006 0.676647
v -0.325716 0.211984 0.652695
v -0.300480 0.252939 0.635516
v -0.285893 0.204247 0.653506
v -0.253090 0.263055 0.666158
v -0.262660 0.268360 0.648629
v -0.234874 0.240368 0.670670
v -0.139764 0.264811 0.706952
v -0.188683 0.280587 0.690579
v -0.177503 0.289117 0.667955
v -0.112638 0.274847 0.692163
v -0.180729 0.247794 0.691417
v -0.081995 0.254123 0.706864
v 0.324770 0.040647 0.687732
vt 1.000000 0.000000
vt 0.836857 0.164412
vt 0.774029 0.122537
vt 0.887897 0.077083
vt 0.910906 0.007261
vt 0.768614 0.077192
vt 0.746744 0.254652
vt 0.679984 0.244498
vt 0.647174 0.241675
vt 0.706618 0.389470
vt 0.627867 0.441976
vt 0.600239 0.322504
vt 0.816887 0.516271
vt 0.765808 0.550725
vt 0.500139 0.432228
vt 0.907368 0.615213
vt 0.864861 0.660861
vt 0.786705 0.628302
vt 1.000000 0.698166
vt 0.265796 0.216207
vt 0.000000 0.334403
vt 0.286768 0.138650
vt 0.407422 0.151876
vt 0.364960 0.106181
vt 0.500138 0.069027
vt 0.673519 0.767012
vt 0.673519 0.936136
vt 0.614123 0.902538
vt 0.127746 0.324804
vt 0.316840 0.250718
vt 0.206444 0.377397
vt 0.179669 0.522345
vt 0.246438 0.512264
vt 0.146853 0.525129
vt 0.099996 0.444245
vt 0.273595 0.644415
vt 0.336464 0.602608
vt 0.268131 0.689750
vt 0.410355 0.759842
vt 0.387419 0.689996
vt 0.500139 0.767889
vt 0.554727 1.000000
vt 0.500139 0.852147
vt 0.554727 0.767012
vt 0.614123 0.936136
vt 0.554727 0.800610
vt 0.614123 0.767012
vt 0.839410 0.767012
vt 0.707836 0.956662
vt 0.673519 0.829854
vt 0.707836 0.767012
vt 0.339614 0.000000
vt 0.741183 0.767012
vt 0.741183 0.901877
vt 0.707836 0.863157
vn -0.0114 0.4044 0.9145
vn 0.2781 -0.2050 0.9384
vn 0.2663 0.5365 0.8008
vn 0.0927 0.3310 0.9391
vn -0.1055 0.7616 0.6394
vn 0.1125 0.9037 0.4130
vn 0.2669 -0.0932 0.9592
vn 0.3836 0.4841 0.7864
vn 0.4646 0.7218 0.5130
vn 0.0918 0.0611 0.9939
vn 0.5450 0.2640 0.7957
vn 0.5211 0.6076 0.5993
vn 0.0304 0.3256 0.9450
vn 0.3939 0.2717 0.8780
vn 0.6865 0.3492 0.6378
vn 0.0518 0.3959 0.9168
vn 0.2983 0.3862 0.8728
vn 0.7548 0.2711 0.5973
vn 0.2897 0.1260 0.9488
vn -0.3939 0.2717 0.8780
vn -0.6865 0.3492 0.6378
vn -0.7548 0.2711 0.5973
vn -0.0518 0.3959 0.9168
vn -0.2983 0.3862 0.8728
vn -0.2897 0.1260 0.9488
vn -0.4658 -0.8848 -0.0078
vn -0.9703 -0.2378 0.0450
vn -0.5450 0.2640 0.7957
vn -0.0304 0.3256 0.9450
vn -0.0918 0.0611 0.9939
vn -0.3836 0.4841 0.7864
vn -0.2669 -0.0932 0.9592
vn -0.4646 0.7218 0.5130
vn -0.5211 0.6076 0.5993
vn -0.2663 0.5363 0.8009
vn -0.2778 -0.2057 0.9383
vn -0.1125 0.9037 0.4130
vn 0.1050 0.7620 0.6390
vn -0.0925 0.3305 0.9392
vn 0.0106 0.4038 0.9148
vn 0.9703 -0.2378 0.0450
vn 0.4658 -0.8848 -0.0078
usemtl None
s 1
f 83/111/83 84/112/84 87/113/85 88/114/86
f 85/115/87 88/114/86 87/113/85 86/116/88
f 88/114/86 85/115/87 83/111/83
f 87/113/85 84/112/84 89/117/89 91/118/90
f 86/116/88 87/113/85 91/118/90 90/119/91
f 91/118/90 89/117/89 92/120/92 94/121/93
f 90/119/91 91/118/90 94/121/93 93/122/94
f 94/121/93 92/120/92 95/123/95 97/124/96
f 93/122/94 94/121/93 96/125/97
f 97/124/96 95/123/95 98/126/98 100/127/99
f 99/128/100 97/124/96 100/127/99
f 98/126/98 101/129/101 100/127/99
f 109/130/102 110/131/103 107/132/104
f 108/133/105 106/134/106 105/135/107
f 107/136/104 103/137/108 104/138/109
f 110/131/103 109/130/102 112/139/110
f 112/139/110 109/130/102 111/140/111 114/141/112
f 109/130/102 106/134/106 108/133/105 111/140/111
f 115/142/113 112/139/110 114/141/112 117/143/114
f 116/144/115 113/145/116 112/139/110 115/142/113
f 119/146/117 115/142/113 117/143/114 122/147/118
f 120/148/119 116/144/115 115/142/113 119/146/117
f 121/149/120 120/148/119 119/146/117 118/150/121
f 118/150/121 123/151/122 121/149/120
f 123/151/122 118/150/121 119/146/117 122/147/118
f 96/152/97 94/153/93 97/154/96
f 97/124/96 99/128/100 96/125/97
f 113/145/116 110/131/103 112/139/110
f 107/132/104 106/134/106 109/130/102
f 99/155/100 102/156/123 124/157/124
f 100/127/99 102/158/123 99/128/100
f 101/159/101 124/160/124 102/161/123
f 100/127/99 101/129/101 102/158/123
f 106/134/106 107/132/104 104/162/109
f 105/163/107 104/164/109 103/165/108
f 106/134/106 104/162/109 105/135/107
