# Blender v2.82 (sub 7) OBJ File: 'head.blend'
# www.blender.org
mtllib eye1.mtl
o eyes_Sphere.004
v 0.061967 0.193762 0.715532
v 0.136783 0.145372 0.728965
v 0.070772 0.165031 0.723689
v 0.108104 0.110541 0.735808
v 0.126052 0.133210 0.746189
v 0.099895 0.168567 0.736477
v 0.173471 0.119622 0.728072
v 0.157339 0.080895 0.732704
v 0.155402 0.098706 0.739643
v 0.235901 0.110570 0.702948
v 0.231436 0.065849 0.714592
v 0.249827 0.095839 0.712678
v 0.287846 0.124265 0.675323
v 0.327830 0.068173 0.677294
v 0.311617 0.110681 0.687023
v 0.305655 0.154861 0.655548
v 0.332326 0.130691 0.646172
v 0.322934 0.161156 0.653942
v 0.304018 0.196867 0.649141
v 0.361162 0.172543 0.636279
v 0.321931 0.179894 0.627282
v -0.061967 0.193762 0.715532
v -0.136783 0.145372 0.728965
v -0.070772 0.165031 0.723689
v -0.108104 0.110541 0.735808
v -0.126052 0.133210 0.746189
v -0.099894 0.168567 0.736477
v -0.173470 0.119622 0.728072
v -0.157339 0.080895 0.732704
v -0.155402 0.098706 0.739644
v -0.235900 0.110570 0.702948
v -0.231435 0.065849 0.714592
v -0.249827 0.095839 0.712678
v -0.287846 0.124265 0.675323
v -0.327830 0.068173 0.677294
v -0.311617 0.110681 0.687023
v -0.305655 0.154861 0.655548
v -0.332325 0.130691 0.646172
v -0.322934 0.161156 0.653942
v -0.304018 0.196867 0.649141
v -0.361162 0.172543 0.636279
v -0.321930 0.179894 0.627283
vt 1.000000 0.000000
vt 0.836857 0.164412
vt 0.774029 0.122537
vt 0.887897 0.077083
vt 0.910906 0.007261
vt 0.768614 0.077192
vt 0.746744 0.254652
vt 0.679984 0.244498
vt 0.647174 0.241675
vt 0.675998 0.409886
vt 0.635153 0.414372
vt 0.600239 0.322504
vt 0.816887 0.516271
vt 0.765808 0.550725
vt 0.500139 0.432228
vt 0.907368 0.615213
vt 0.864861 0.660861
vt 0.786705 0.628302
vt 1.000000 0.698166
vt 0.554727 1.000000
vt 0.485538 0.845815
vt 0.554727 0.767012
vt 0.614123 0.936136
vt 0.554727 0.800610
vt 0.614123 0.767012
vt 0.839410 0.767012
vt 0.707836 0.956662
vt 0.673519 0.829854
vt 0.707836 0.767012
vt 1.000000 0.000000
vt 0.887897 0.077083
vt 0.774029 0.122537
vt 0.836857 0.164412
vt 0.910906 0.007261
vt 0.768614 0.077192
vt 0.679984 0.244498
vt 0.746744 0.254652
vt 0.647174 0.241675
vt 0.635153 0.414372
vt 0.675998 0.409886
vt 0.600239 0.322504
vt 0.765808 0.550725
vt 0.816887 0.516271
vt 0.500139 0.432228
vt 0.864861 0.660861
vt 0.907368 0.615213
vt 0.786705 0.628302
vt 1.000000 0.698166
vt 0.554727 1.000000
vt 0.554727 0.767012
vt 0.485538 0.845815
vt 0.614123 0.936136
vt 0.614123 0.767012
vt 0.554727 0.800610
vt 0.839410 0.767012
vt 0.707836 0.956662
vt 0.707836 0.767012
vt 0.673519 0.829854
vn 0.1547 -0.3900 -0.9077
vn -0.5099 -0.5841 -0.6315
vn -0.0915 -0.2038 -0.9747
vn -0.0920 -0.5004 -0.8609
vn 0.4129 -0.0574 -0.9089
vn 0.2841 0.2103 -0.9354
vn -0.3558 -0.4211 -0.8343
vn -0.1429 0.0297 -0.9893
vn -0.1085 0.2366 -0.9655
vn -0.2477 -0.5682 -0.7847
vn -0.2978 -0.2243 -0.9279
vn -0.2793 0.1751 -0.9441
vn -0.0296 -0.6522 -0.7574
vn -0.4790 -0.3158 -0.8190
vn -0.5972 -0.0282 -0.8016
vn 0.0540 -0.4352 -0.8987
vn -0.3230 -0.2157 -0.9215
vn -0.8861 -0.0052 -0.4634
vn -0.3398 -0.6508 -0.6789
vn -0.9743 -0.1761 0.1405
vn -0.2833 -0.5519 0.7843
vn -0.1547 -0.3900 -0.9077
vn 0.0920 -0.5004 -0.8609
vn 0.0915 -0.2038 -0.9747
vn 0.5099 -0.5841 -0.6315
vn -0.4129 -0.0574 -0.9089
vn -0.2841 0.2103 -0.9354
vn 0.1429 0.0297 -0.9893
vn 0.3558 -0.4211 -0.8343
vn 0.1085 0.2366 -0.9655
vn 0.2978 -0.2243 -0.9279
vn 0.2477 -0.5682 -0.7847
vn 0.2793 0.1751 -0.9441
vn 0.4790 -0.3158 -0.8190
vn 0.0296 -0.6522 -0.7574
vn 0.5972 -0.0282 -0.8016
vn 0.3230 -0.2157 -0.9215
vn -0.0540 -0.4352 -0.8987
vn 0.8861 -0.0052 -0.4634
vn 0.3398 -0.6508 -0.6789
vn 0.2833 -0.5519 0.7843
vn 0.9743 -0.1761 0.1405
usemtl None
s 1
f 1/1/1 2/2/2 5/3/3 6/4/4
f 3/5/5 6/4/4 5/3/3 4/6/6
f 6/4/4 3/5/5 1/1/1
f 5/3/3 2/2/2 7/7/7 9/8/8
f 4/6/6 5/3/3 9/8/8 8/9/9
f 9/8/8 7/7/7 10/10/10 12/11/11
f 8/9/9 9/8/8 12/11/11 11/12/12
f 12/11/11 10/10/10 13/13/13 15/14/14
f 11/12/12 12/11/11 14/15/15
f 15/14/14 13/13/13 16/16/16 18/17/17
f 17/18/18 15/14/14 18/17/17
f 16/16/16 19/19/19 18/17/17
f 14/20/15 12/21/11 15/22/14
f 15/14/14 17/18/18 14/15/15
f 17/23/18 20/24/20 21/25/21
f 18/17/17 20/26/20 17/18/18
f 19/27/19 21/28/21 20/29/20
f 18/17/17 19/19/19 20/26/20
f 22/30/22 27/31/23 26/32/24 23/33/25
f 24/34/26 25/35/27 26/32/24 27/31/23
f 27/31/23 22/30/22 24/34/26
f 26/32/24 30/36/28 28/37/29 23/33/25
f 25/35/27 29/38/30 30/36/28 26/32/24
f 30/36/28 33/39/31 31/40/32 28/37/29
f 29/38/30 32/41/33 33/39/31 30/36/28
f 33/39/31 36/42/34 34/43/35 31/40/32
f 32/41/33 35/44/36 33/39/31
f 36/42/34 39/45/37 37/46/38 34/43/35
f 38/47/39 39/45/37 36/42/34
f 37/46/38 39/45/37 40/48/40
f 35/49/36 36/50/34 33/51/31
f 36/42/34 35/44/36 38/47/39
f 38/52/39 42/53/41 41/54/42
f 39/45/37 38/47/39 41/55/42
f 40/56/40 41/57/42 42/58/41
f 39/45/37 41/55/42 40/48/40
