# Blender v2.82 (sub 7) OBJ File: 'head.blend'
# www.blender.org
mtllib eye2.mtl
o eyes_Sphere.004
v 0.151805 0.167374 0.687434
v 0.061967 0.101479 0.748575
v 0.140241 0.159327 0.726846
v 0.070772 0.137503 0.735007
v 0.109248 0.190898 0.709207
v 0.126052 0.189807 0.729847
v 0.099895 0.145773 0.746784
v 0.172507 0.184239 0.713772
v 0.174388 0.216463 0.694606
v 0.172450 0.205181 0.711809
v 0.249462 0.173726 0.676528
v 0.248484 0.214708 0.671095
v 0.275127 0.179453 0.671346
v 0.282261 0.131515 0.673000
v 0.325029 0.210799 0.629141
v 0.303183 0.147658 0.685145
v 0.294366 0.082804 0.680878
v 0.336232 0.106835 0.652058
v 0.320782 0.081353 0.680100
v 0.288670 0.035365 0.704889
v 0.359010 0.053783 0.674903
v 0.332517 0.039856 0.672563
v -0.151804 0.167374 0.687435
v -0.061967 0.101479 0.748575
v -0.140241 0.159327 0.726846
v -0.070772 0.137503 0.735007
v -0.109248 0.190898 0.709207
v -0.126052 0.189807 0.729847
v -0.099894 0.145773 0.746785
v -0.172507 0.184239 0.713772
v -0.174387 0.216463 0.694606
v -0.172450 0.205181 0.711809
v -0.249461 0.173726 0.676529
v -0.248484 0.214708 0.671095
v -0.275126 0.179453 0.671346
v -0.282261 0.131515 0.673000
v -0.325029 0.210799 0.629142
v -0.303183 0.147658 0.685145
v -0.294366 0.082804 0.680878
v -0.336231 0.106835 0.652059
v -0.320782 0.081353 0.680101
v -0.288669 0.035365 0.704890
v -0.359010 0.053783 0.674903
v -0.332517 0.039856 0.672563
vt 1.000000 0.000000
vt 0.836857 0.164412
vt 0.774029 0.122537
vt 0.887897 0.077083
vt 0.910906 0.007261
vt 0.768614 0.077192
vt 0.746744 0.254652
vt 0.679984 0.244498
vt 0.647174 0.241675
vt 0.675998 0.409886
vt 0.627867 0.441976
vt 0.600239 0.322504
vt 0.816887 0.516271
vt 0.765808 0.550725
vt 0.500139 0.432228
vt 0.907368 0.615213
vt 0.864861 0.660861
vt 0.786705 0.628302
vt 1.000000 0.698166
vt 0.554727 1.000000
vt 0.500139 0.852147
vt 0.554727 0.767012
vt 0.614123 0.936136
vt 0.554727 0.800610
vt 0.614123 0.767012
vt 0.839410 0.767012
vt 0.707836 0.956662
vt 0.673519 0.829854
vt 0.707836 0.767012
vt 1.000000 0.000000
vt 0.887897 0.077083
vt 0.774029 0.122537
vt 0.836857 0.164412
vt 0.910906 0.007261
vt 0.768614 0.077192
vt 0.679984 0.244498
vt 0.746744 0.254652
vt 0.647174 0.241675
vt 0.627867 0.441976
vt 0.675998 0.409886
vt 0.600239 0.322504
vt 0.765808 0.550725
vt 0.816887 0.516271
vt 0.500139 0.432228
vt 0.864861 0.660861
vt 0.907368 0.615213
vt 0.786705 0.628302
vt 1.000000 0.698166
vt 0.554727 1.000000
vt 0.554727 0.767012
vt 0.500139 0.852147
vt 0.614123 0.936136
vt 0.614123 0.767012
vt 0.554727 0.800610
vt 0.839410 0.767012
vt 0.707836 0.956662
vt 0.707836 0.767012
vt 0.673519 0.829854
vn -0.1431 0.2460 0.9586
vn 0.4205 -0.0609 0.9052
vn -0.0490 0.5474 0.8354
vn -0.0139 0.2528 0.9674
vn -0.4715 0.4820 0.7384
vn -0.4042 0.7507 0.5225
vn 0.3531 -0.0063 0.9355
vn 0.1862 0.4947 0.8488
vn 0.1630 0.6969 0.6984
vn 0.2277 -0.0796 0.9705
vn 0.2273 0.3098 0.9232
vn 0.3949 0.4501 0.8009
vn -0.1917 -0.0133 0.9814
vn 0.3226 0.2007 0.9250
vn 0.5569 0.3904 0.7331
vn -0.0988 0.1991 0.9750
vn 0.3133 0.3061 0.8990
vn 0.8096 0.2516 0.5303
vn 0.2897 0.1260 0.9488
vn 0.9703 -0.2378 0.0450
vn 0.4658 -0.8848 -0.0078
vn 0.1431 0.2460 0.9586
vn 0.0139 0.2528 0.9674
vn 0.0490 0.5474 0.8354
vn -0.4205 -0.0609 0.9052
vn 0.4715 0.4820 0.7384
vn 0.4042 0.7507 0.5225
vn -0.1862 0.4947 0.8488
vn -0.3531 -0.0063 0.9355
vn -0.1630 0.6969 0.6984
vn -0.2273 0.3098 0.9232
vn -0.2277 -0.0796 0.9705
vn -0.3949 0.4501 0.8009
vn -0.3226 0.2007 0.9250
vn 0.1917 -0.0133 0.9813
vn -0.5569 0.3904 0.7331
vn -0.3133 0.3061 0.8990
vn 0.0988 0.1991 0.9750
vn -0.8096 0.2516 0.5303
vn -0.2897 0.1260 0.9488
vn -0.4658 -0.8848 -0.0078
vn -0.9703 -0.2378 0.0450
usemtl None
s 1
f 2/1/1 3/2/2 6/3/3 7/4/4
f 4/5/5 7/4/4 6/3/3 5/6/6
f 7/4/4 4/5/5 2/1/1
f 6/3/3 3/2/2 8/7/7 10/8/8
f 5/6/6 6/3/3 10/8/8 9/9/9
f 10/8/8 8/7/7 11/10/10 13/11/11
f 9/9/9 10/8/8 13/11/11 12/12/12
f 13/11/11 11/10/10 14/13/13 16/14/14
f 12/12/12 13/11/11 15/15/15
f 16/14/14 14/13/13 17/16/16 19/17/17
f 18/18/18 16/14/14 19/17/17
f 17/16/16 20/19/19 19/17/17
f 15/20/15 13/21/11 16/22/14
f 16/14/14 18/18/18 15/15/15
f 18/23/18 21/24/20 22/25/21
f 19/17/17 21/26/20 18/18/18
f 20/27/19 22/28/21 21/29/20
f 19/17/17 20/19/19 21/26/20
f 24/30/22 29/31/23 28/32/24 25/33/25
f 26/34/26 27/35/27 28/32/24 29/31/23
f 29/31/23 24/30/22 26/34/26
f 28/32/24 32/36/28 30/37/29 25/33/25
f 27/35/27 31/38/30 32/36/28 28/32/24
f 32/36/28 35/39/31 33/40/32 30/37/29
f 31/38/30 34/41/33 35/39/31 32/36/28
f 35/39/31 38/42/34 36/43/35 33/40/32
f 34/41/33 37/44/36 35/39/31
f 38/42/34 41/45/37 39/46/38 36/43/35
f 40/47/39 41/45/37 38/42/34
f 39/46/38 41/45/37 42/48/40
f 37/49/36 38/50/34 35/51/31
f 38/42/34 37/44/36 40/47/39
f 40/52/39 44/53/41 43/54/42
f 41/45/37 40/47/39 43/55/42
f 42/56/40 43/57/42 44/58/41
f 41/45/37 43/55/42 42/48/40
