# Blender v2.82 (sub 7) OBJ File: ''
# www.blender.org
mtllib gog2.mtl
o shiny_Cube.004
v 0.033381 0.158914 0.821831
v 0.066638 0.114075 0.835094
v 0.164472 0.376773 0.754303
v 0.100538 0.049438 0.852011
v 0.277219 -0.018921 0.869760
v 0.163969 -0.004432 0.865655
v 0.393860 0.007548 0.862441
v 0.307762 0.375762 0.754508
v 0.464954 0.067407 0.844151
v 0.498238 0.143546 0.820299
v 0.512682 0.218436 0.796951
v 0.515498 0.282415 0.777837
v 0.412649 0.371730 0.755368
v 0.507764 0.329222 0.765287
v 0.477768 0.358330 0.758377
v 0.000000 0.376813 0.754295
v 0.000000 0.173756 0.817023
v -0.164472 0.376773 0.754303
v -0.033381 0.158914 0.821831
v -0.307762 0.375762 0.754508
v -0.066638 0.114075 0.835094
v -0.412649 0.371730 0.755368
v -0.512682 0.218436 0.796951
v -0.477767 0.358330 0.758377
v -0.515498 0.282415 0.777837
v -0.498238 0.143546 0.820299
v -0.507764 0.329222 0.765287
v -0.464954 0.067407 0.844151
v -0.393860 0.007548 0.862442
v -0.277219 -0.018921 0.869760
v -0.163969 -0.004432 0.865655
v -0.100538 0.049438 0.852011
vt 0.532377 0.449380
vt 0.564635 0.336074
vt 0.659527 0.999899
vt 0.597515 0.172740
vt 0.768885 0.000000
vt 0.659039 0.036613
vt 0.882019 0.066886
vt 0.798509 0.997344
vt 0.950975 0.218146
vt 0.983259 0.410546
vt 0.997268 0.599789
vt 1.000000 0.761461
vt 0.900243 0.987156
vt 0.992498 0.879740
vt 0.963404 0.953294
vt 0.500000 1.000000
vt 0.500000 0.486885
vt 0.340473 0.999899
vt 0.467623 0.449380
vt 0.201491 0.997344
vt 0.435365 0.336074
vt 0.099757 0.987156
vt 0.002731 0.599789
vt 0.036597 0.953294
vt 0.000000 0.761461
vt 0.016741 0.410546
vt 0.007502 0.879740
vt 0.049024 0.218146
vt 0.117981 0.066886
vt 0.231115 0.000000
vt 0.340961 0.036613
vt 0.402485 0.172740
vn 0.0101 0.2905 0.9568
vn 0.0010 0.2537 0.9673
vn -0.0044 0.2407 0.9706
vn -0.0034 0.2805 0.9598
vn -0.0098 0.3028 0.9530
vn 0.0252 0.2916 0.9562
vn 0.0268 0.2928 0.9558
vn 0.0253 0.2917 0.9562
vn 0.0378 0.2845 0.9579
vn 0.0342 0.2641 0.9639
vn 0.0070 0.2516 0.9678
vn 0.0022 0.2631 0.9648
vn 0.0007 0.2937 0.9559
vn 0.0000 0.2961 0.9552
vn -0.0064 0.2951 0.9554
vn 0.0000 0.2952 0.9554
vn -0.0076 0.2913 0.9566
vn -0.0007 0.2937 0.9559
vn -0.0023 0.2931 0.9561
vn 0.0064 0.2951 0.9554
vn -0.0022 0.2631 0.9648
vn -0.0070 0.2516 0.9678
vn -0.0268 0.2928 0.9558
vn -0.0342 0.2641 0.9639
vn -0.0378 0.2845 0.9579
vn 0.0098 0.3028 0.9530
vn 0.0034 0.2805 0.9598
vn 0.0044 0.2407 0.9706
vn -0.0181 0.2790 0.9601
vn -0.0010 0.2537 0.9673
vn -0.0101 0.2905 0.9568
vn -0.0160 0.2847 0.9585
vn 0.0160 0.2847 0.9585
vn 0.0181 0.2790 0.9601
usemtl None.001
s 1
f 1/1/1 2/2/1 3/3/1
f 2/2/2 4/4/2 5/5/2
f 4/4/3 6/6/3 5/5/3
f 5/5/4 7/7/4 8/8/4
f 7/7/5 9/9/5 10/10/5
f 10/10/6 11/11/7 8/8/8
f 11/11/9 12/12/9 13/13/9
f 12/12/10 14/14/10 15/15/10
f 15/15/11 13/13/11 12/12/11
f 13/13/12 8/8/12 11/11/12
f 8/8/13 3/3/13 2/2/13
f 3/3/14 16/16/14 1/1/14
f 1/1/15 16/16/16 17/17/16
f 16/16/14 18/18/14 19/19/14
f 18/18/17 20/20/18 21/21/19
f 16/16/16 19/19/20 17/17/16
f 20/20/21 22/22/21 23/23/21
f 22/22/22 24/24/22 25/25/22
f 20/20/23 23/23/23 26/26/23
f 24/24/24 27/27/24 25/25/24
f 25/25/25 23/23/25 22/22/25
f 26/26/26 28/28/26 29/29/26
f 29/29/27 30/30/27 20/20/27
f 30/30/28 31/31/28 32/32/28
f 20/20/29 30/30/29 21/21/29
f 32/32/30 21/21/30 30/30/30
f 21/21/19 19/19/31 18/18/17
f 26/26/32 29/29/32 20/20/32
f 10/10/6 8/8/8 7/7/33
f 5/5/34 8/8/34 2/2/34
