# Blender v2.82 (sub 7) OBJ File: ''
# www.blender.org
mtllib paw0.mtl
o paw0_Cube
v -0.465749 -2.268368 2.326587
v -1.313946 0.326395 1.385709
v 0.057711 -3.299978 -1.693776
v -0.947897 -0.381003 -1.526890
v 1.811574 -1.181832 2.279188
v 0.456676 1.281162 1.342045
v 2.329162 -2.206356 -1.727323
v 0.822726 0.573764 -1.570555
v 1.791888 -5.338896 3.458230
v 2.356382 -6.872220 -1.356151
v 3.253462 -4.508718 3.587797
v 3.717271 -6.007195 -1.402611
v -0.379803 -3.220084 -0.781479
v -0.628586 -2.989568 0.315392
v -0.662849 -2.659816 1.409508
v -1.009378 -1.113001 2.013124
v -1.255517 -0.224791 1.686139
v -1.447064 0.305707 0.579903
v -1.439337 0.141440 -0.101549
v -1.227615 -0.124435 -0.955292
v -0.832960 -1.041926 -1.677739
v -0.538206 -2.027826 -1.749182
v 1.886593 -2.596500 -2.283485
v 1.289071 -2.941715 -2.462434
v 0.644446 -3.194444 -2.265157
v -0.637118 -0.050014 -1.773150
v -0.136552 0.304195 -1.905746
v 0.413476 0.519432 -1.799593
v 1.206444 0.028061 -1.722635
v 1.709072 -0.893414 -1.790648
v 2.247645 -1.258114 1.366457
v 2.494983 -1.485016 0.269151
v 2.530690 -1.818381 -0.824530
v 0.801707 0.984738 -1.008050
v 0.719967 1.329364 -0.159092
v 0.584530 1.404437 0.719994
v 0.783888 0.845196 1.641243
v 1.237900 0.021410 1.971658
v -0.018824 -1.881420 2.869158
v 0.577326 -1.532870 3.046976
v 1.248283 -1.252567 2.982886
v -0.005967 1.330016 1.537852
v -0.582816 1.166609 1.645107
v -1.056561 0.760569 1.564296
v 2.016619 -6.296335 -0.357653
v 1.908380 -5.977419 1.168400
v 3.555504 -6.372712 -1.577487
v 3.211262 -6.755791 -1.694547
v 2.750802 -6.887769 -1.549390
v 3.293873 -4.312326 2.813259
v 3.484229 -4.529821 1.016780
v 2.111392 -5.400077 3.713212
v 2.537560 -5.196455 3.925926
v 3.006117 -4.892684 3.897792
v 0.208766 -3.424142 2.501496
v 1.060407 -4.427000 3.271425
v 1.544285 -5.203456 3.461803
v 3.225327 -4.243934 3.424830
v 2.923834 -3.202766 3.512786
v 2.383425 -2.258539 2.613643
v 2.820129 -3.261772 -1.511853
v 3.334403 -4.575639 -1.650633
v 3.649961 -5.475234 -1.622822
v 2.105711 -6.436362 -1.801765
v 1.547288 -5.754206 -1.622942
v 0.704729 -4.318115 -1.498035
v -1.225004 -1.467750 1.164671
v -1.459668 -0.505478 0.932236
v -1.207670 -1.758189 0.136500
v -1.455543 -0.737181 0.000618
v -0.967412 -1.967891 -0.892208
v -1.226497 -0.956378 -0.923975
v 0.031931 -1.885168 -2.290790
v -0.339393 -0.860084 -2.153022
v 0.662777 -1.604497 -2.481050
v 0.224365 -0.557334 -2.326416
v 1.260504 -1.265816 -2.313309
v 0.785941 -0.271228 -2.177511
v 1.913452 -0.510536 -0.945930
v 1.368573 0.413860 -0.982693
v 1.884871 -0.191966 0.078505
v 1.327677 0.737530 -0.063290
v 1.655859 -0.010393 1.110948
v 1.135401 0.864760 0.873519
v 0.656516 -0.093117 2.509531
v 0.248298 0.768466 2.102565
v 0.014423 -0.345658 2.696054
v -0.352230 0.557683 2.263743
v -0.572057 -0.712469 2.532050
v -0.877037 0.179610 2.127054
v 1.851454 -2.235248 3.612823
v 1.155779 -2.663866 3.427716
v 0.621912 -3.063213 3.056273
v 2.490237 -3.355556 4.359277
v 1.883337 -3.790169 4.329817
v 1.416493 -4.118697 3.814153
v 2.881376 -4.356072 4.256021
v 2.340318 -4.673221 4.243970
v 1.879003 -4.976104 3.751523
v 0.191780 1.134295 -1.108018
v -0.417083 0.948317 -1.160207
v -0.928357 0.511178 -1.076913
v 0.051209 1.515292 -0.206833
v -0.599079 1.334177 -0.209852
v -1.129268 0.852671 -0.172971
v 0.024251 1.558921 0.527972
v -0.592411 1.335359 0.585770
v -1.114786 0.886409 0.574607
v 2.580801 -6.637518 -0.455107
v 3.069905 -6.499853 -0.531842
v 3.423667 -6.078611 -0.493460
v 2.478700 -6.131732 1.253140
v 2.984643 -5.966881 1.265614
v 3.337942 -5.419144 1.199561
v 2.754934 -5.213652 2.969682
v 3.062056 -4.672268 2.936656
v 1.254043 -4.204980 -2.061311
v 1.856444 -3.959329 -2.251936
v 2.410962 -3.627377 -2.068854
v 2.034207 -5.560304 -2.048053
v 2.561915 -5.339622 -2.258965
v 3.029405 -4.982258 -2.072403
v 2.536819 -6.414171 -1.914737
v 3.021087 -6.239648 -2.115168
v 3.419987 -5.874840 -1.941016
v 0.027899 -3.783622 1.580691
v 0.064083 -4.076763 0.494112
v 0.296768 -4.267672 -0.594288
v 0.926797 -5.060247 2.345421
v 0.985412 -5.440403 1.016237
v 1.224172 -5.753994 -0.613518
v 1.405062 -6.029446 1.170334
v 3.006888 -2.913913 -0.612045
v 2.972369 -2.623768 0.475024
v 2.739851 -2.426365 1.566712
v 3.553011 -4.395470 -0.681273
v 3.483672 -3.980971 0.943128
v 3.242624 -3.355608 2.091602
v 3.797922 -5.285555 -0.427370
v 3.341238 -4.044567 2.642725
v 3.139367 -6.535762 2.441377
v 1.596526 -6.302098 2.041709
v 2.638443 -6.663295 2.400386
v 2.104055 -6.570395 2.256724
v 3.525150 -6.177052 2.359246
v 3.711858 -5.094281 2.032787
v 3.450330 -4.193406 1.839145
v 3.740695 -5.709641 2.167159
v 3.256748 -4.460913 3.229898
v 1.618041 -5.332343 2.893568
v 2.648466 -5.316405 3.441852
v 3.011149 -5.014248 3.345640
v 2.232769 -5.374647 3.238688
v 3.517503 -4.580803 2.502405
v 2.924554 -5.945183 2.951319
v 2.388193 -5.953147 2.885605
v 1.874677 -5.903738 2.705251
v 3.498215 -5.091197 2.652407
v 3.272179 -5.497871 2.861058
v 3.706607 -5.607625 1.592815
v 2.072063 -6.577097 1.670739
v 3.707896 -5.027865 1.501605
v 2.625349 -6.701571 1.787036
v 3.128588 -6.554764 1.814916
v 3.508658 -6.159662 1.746909
v 1.670773 -6.397943 0.438206
v 3.594278 -6.271844 0.939087
v 2.177600 -6.688175 0.959055
v 3.769089 -5.653261 0.890817
v 3.229040 -6.696360 0.946968
v 2.731515 -6.847619 0.979098
v 3.868671 -6.054979 0.401877
v 2.334672 -7.031515 0.662878
v 2.845824 -7.234705 0.456357
v 3.698637 -6.667363 0.417175
v 3.339137 -7.090242 0.401925
v 2.385749 -7.092031 -0.684949
v 3.275994 -6.910352 -1.000468
v 2.816231 -7.058563 -0.888848
v 3.839011 -6.159260 -0.744752
v 3.640016 -6.611384 -0.924434
v 2.223506 -6.965763 -0.023975
v 3.898053 -5.799787 -0.091935
v 3.256265 -6.963584 -0.117992
v 3.612759 -6.487207 -0.091072
v 2.765126 -7.132445 -0.052463
vt 0.428038 0.125000
vt 0.505208 0.125000
vt 0.505208 0.187500
vt 0.428038 0.187500
vt 0.505208 0.062500
vt 0.563151 0.062500
vt 0.563151 0.125000
vt 0.428038 0.000000
vt 0.505208 0.000000
vt 0.428039 0.062500
vt 0.563151 0.187500
vt 0.505208 0.250000
vt 0.428038 0.250000
vt 0.563151 0.000000
vt 0.625000 0.000000
vt 0.625000 0.062500
vt 0.625000 0.125000
vt 0.625000 0.187500
vt 0.625000 0.250000
vt 0.563151 0.250000
vt 0.428052 0.312486
vt 0.505317 0.312391
vt 0.506076 0.374132
vt 0.428150 0.374889
vt 0.507704 0.435004
vt 0.428359 0.437180
vt 0.563490 0.312161
vt 0.565864 0.372287
vt 0.571384 0.429267
vt 0.508681 0.496528
vt 0.428484 0.499554
vt 0.625651 0.311849
vt 0.630208 0.369792
vt 0.642578 0.419922
vt 0.666667 0.458333
vt 0.575629 0.487522
vt 0.428373 0.562193
vt 0.507812 0.560113
vt 0.506944 0.625000
vt 0.428261 0.625000
vt 0.507812 0.689887
vt 0.428373 0.687807
vt 0.571235 0.555040
vt 0.568142 0.625000
vt 0.571235 0.694960
vt 0.508681 0.753472
vt 0.428484 0.750446
vt 0.637912 0.550456
vt 0.631945 0.625000
vt 0.637912 0.699544
vt 0.666667 0.791667
vt 0.575629 0.762478
vt 0.428359 0.812821
vt 0.507704 0.814996
vt 0.506076 0.875868
vt 0.428150 0.875112
vt 0.505317 0.937609
vt 0.428052 0.937514
vt 0.571384 0.820733
vt 0.565864 0.877713
vt 0.563490 0.937839
vt 0.505208 1.000000
vt 0.428039 1.000000
vt 0.642578 0.830078
vt 0.630208 0.880208
vt 0.625651 0.938151
vt 0.625000 1.000000
vt 0.563151 1.000000
vt 0.392253 0.812812
vt 0.392470 0.875109
vt 0.379340 0.875868
vt 0.377604 0.814996
vt 0.392565 0.937514
vt 0.380100 0.937609
vt 0.372938 0.877713
vt 0.367188 0.820733
vt 0.375312 0.937839
vt 0.392036 0.750434
vt 0.392578 1.000000
vt 0.380208 1.000000
vt 0.375651 1.000000
vt 0.375213 1.000000
vt 0.374663 0.938049
vt 0.370819 0.879393
vt 0.360611 0.827027
vt 0.360569 0.762478
vt 0.342227 0.782135
vt 0.375868 0.753472
vt 0.696045 0.554579
vt 0.752821 0.559896
vt 0.751736 0.625000
vt 0.692491 0.625000
vt 0.812853 0.562175
vt 0.812717 0.625000
vt 0.752821 0.690104
vt 0.696045 0.695421
vt 0.812853 0.687826
vt 0.705078 0.482422
vt 0.755208 0.494792
vt 0.813151 0.499349
vt 0.875000 0.500000
vt 0.875000 0.562500
vt 0.875000 0.625000
vt 0.875000 0.687500
vt 0.875000 0.750000
vt 0.813151 0.750651
vt 0.755208 0.755208
vt 0.705078 0.767578
vt 0.186849 0.562174
vt 0.244792 0.559896
vt 0.244792 0.568034
vt 0.186849 0.570028
vt 0.294922 0.554579
vt 0.294922 0.563382
vt 0.186849 0.625000
vt 0.244792 0.625000
vt 0.244792 0.641487
vt 0.186849 0.641473
vt 0.294922 0.625000
vt 0.294922 0.643068
vt 0.125000 0.500000
vt 0.186849 0.499349
vt 0.186849 0.530762
vt 0.125000 0.531250
vt 0.244792 0.494792
vt 0.244792 0.527344
vt 0.294922 0.482422
vt 0.294922 0.518501
vt 0.333333 0.458333
vt 0.333360 0.504395
vt 0.360569 0.487522
vt 0.358304 0.555040
vt 0.333333 0.625000
vt 0.333347 0.643636
vt 0.294922 0.695421
vt 0.333388 0.699544
vt 0.333360 0.745606
vt 0.294922 0.731500
vt 0.244792 0.690104
vt 0.244792 0.722656
vt 0.125000 0.625000
vt 0.125000 0.641652
vt 0.125000 0.562500
vt 0.125000 0.570313
vt 0.392565 0.312486
vt 0.392470 0.374892
vt 0.379340 0.374132
vt 0.380100 0.312392
vt 0.392253 0.437188
vt 0.377604 0.435004
vt 0.372938 0.372287
vt 0.375312 0.312161
vt 0.367188 0.429267
vt 0.392578 0.250000
vt 0.392036 0.499566
vt 0.375868 0.496528
vt 0.357422 0.419922
vt 0.369792 0.369792
vt 0.374349 0.311849
vt 0.375651 0.250000
vt 0.375000 0.250000
vt 0.380208 0.250000
vt 0.392578 0.062500
vt 0.392578 0.125000
vt 0.380208 0.125000
vt 0.380208 0.062500
vt 0.392578 0.187500
vt 0.380208 0.187500
vt 0.375651 0.156250
vt 0.376929 0.125000
vt 0.392578 0.000000
vt 0.000000 0.000000
vt 0.375000 0.156250
vt 0.375000 0.125000
vt 0.380208 0.000000
vt 0.391941 0.562202
vt 0.391927 0.625000
vt 0.375000 0.625000
vt 0.375109 0.560113
vt 0.391941 0.687798
vt 0.375109 0.689887
vt 0.000000 0.000000
vt 0.166694 0.275228
vt 0.358304 0.694960
vt 0.358188 0.659980
vt 0.179094 0.329990
vt 0.375054 0.657444
vt 0.166680 0.331136
vt 0.294922 0.572184
vt 0.345839 0.562066
vt 0.333374 0.569092
vt 0.186849 0.657946
vt 0.244792 0.657974
vt 0.244792 0.674039
vt 0.186849 0.672886
vt 0.294922 0.661136
vt 0.294922 0.678278
vt 0.375651 0.095553
vt 0.125000 0.658304
vt 0.125000 0.672902
vt 0.333360 0.662272
vt 0.358246 0.677470
vt 0.333374 0.680908
vt 0.301309 0.791896
vt 0.241793 0.769529
vt 0.186849 0.719238
vt 0.181320 0.754414
vt 0.375651 0.000000
vt 0.000000 0.000000
vt 0.375213 0.000000
vt 0.375326 0.031250
vt 0.186849 0.593587
vt 0.244792 0.592448
vt 0.375000 0.171875
vt 0.125000 0.593750
vt 0.294922 0.589790
vt 0.333360 0.587728
vt 0.186849 0.577881
vt 0.244792 0.576172
vt 0.125000 0.578125
vt 0.250041 0.412842
vt 0.304172 0.483941
vn -0.8777 -0.4791 0.0051
vn -0.9417 -0.3345 -0.0358
vn -0.8994 -0.3394 -0.2752
vn -0.8409 -0.4916 -0.2262
vn -0.9369 -0.2847 0.2029
vn -0.9864 -0.0785 0.1444
vn -0.9883 -0.1200 -0.0942
vn -0.7876 -0.3000 0.5381
vn -0.8461 -0.1563 0.5096
vn -0.8738 -0.4277 0.2311
vn -0.9372 -0.1388 -0.3200
vn -0.7651 -0.2872 -0.5763
vn -0.7148 -0.4519 -0.5337
vn -0.8984 0.0344 0.4378
vn -0.9176 0.2659 0.2953
vn -0.9628 0.2655 0.0496
vn -0.9652 0.2049 -0.1623
vn -0.9077 0.1572 -0.3889
vn -0.8104 0.1044 -0.5764
vn -0.7958 -0.0978 -0.5976
vn -0.4172 -0.3189 -0.8510
vn -0.4699 -0.1509 -0.8697
vn -0.0416 0.0444 -0.9981
vn 0.0299 -0.0989 -0.9946
vn 0.4061 0.2386 -0.8821
vn 0.4837 0.1358 -0.8646
vn -0.5211 0.0468 -0.8522
vn -0.1387 0.2349 -0.9621
vn 0.2874 0.3898 -0.8749
vn 0.7266 0.3755 -0.5752
vn 0.7845 0.3024 -0.5414
vn -0.6159 0.3014 -0.7279
vn -0.2852 0.5052 -0.8144
vn 0.1188 0.6354 -0.7630
vn 0.4617 0.6547 -0.5984
vn 0.6228 0.4956 -0.6054
vn 0.8981 0.3789 -0.2231
vn 0.8607 0.4407 -0.2547
vn 0.8808 0.4734 -0.0058
vn 0.9113 0.4116 0.0128
vn 0.8328 0.5014 0.2347
vn 0.8668 0.4475 0.2200
vn 0.7663 0.5691 -0.2981
vn 0.7844 0.6180 -0.0522
vn 0.7460 0.6360 0.1973
vn 0.6768 0.5268 0.5141
vn 0.7398 0.5137 0.4345
vn 0.4890 0.7765 -0.3973
vn 0.4994 0.8544 -0.1437
vn 0.4611 0.8766 0.1373
vn 0.4128 0.8296 0.3759
vn 0.5827 0.6454 0.4938
vn 0.2987 0.4919 0.8178
vn 0.3152 0.4837 0.8165
vn -0.1676 0.3013 0.9387
vn -0.2500 0.1938 0.9486
vn -0.5773 0.0635 0.8141
vn -0.5510 -0.0757 0.8310
vn 0.2214 0.6259 0.7478
vn -0.2433 0.4994 0.8314
vn -0.6460 0.2609 0.7173
vn 0.0289 0.8889 0.4571
vn -0.4103 0.7810 0.4708
vn -0.7448 0.5342 0.3998
vn 0.2068 0.5947 0.7768
vn -0.4622 0.1834 0.8676
vn -0.4063 0.0014 0.9137
vn 0.3247 0.3816 0.8654
vn -0.6579 -0.1011 0.7462
vn -0.6688 -0.1774 0.7219
vn -0.1480 -0.3665 0.9185
vn 0.5674 -0.0536 0.8217
vn -0.5152 -0.4046 0.7555
vn 0.7606 0.5734 0.3045
vn -0.7963 -0.3379 0.5017
vn -0.7766 -0.3082 0.5494
vn -0.6234 -0.5994 0.5021
vn -0.3685 -0.8669 0.3355
vn -0.1837 -0.8619 0.4726
vn 0.1870 -0.7302 0.6571
vn 0.7170 -0.4728 0.5122
vn 0.9547 0.1329 0.2662
vn 0.9516 -0.1644 0.2597
vn 0.8216 0.4686 0.3246
vn 0.0285 0.8563 -0.5156
vn -0.4076 0.7270 -0.5525
vn -0.4799 0.8501 -0.2167
vn -0.0084 0.9767 -0.2146
vn -0.7285 0.4795 -0.4893
vn -0.7902 0.5787 -0.2017
vn -0.4830 0.8726 0.0719
vn -0.0273 0.9974 0.0667
vn -0.7814 0.6223 0.0465
vn 0.0191 -0.9984 0.0519
vn 0.5589 -0.8282 0.0399
vn 0.4507 -0.7094 -0.5418
vn -0.0799 -0.8792 -0.4696
vn 0.8162 -0.5677 0.1074
vn 0.7756 -0.4229 -0.4685
vn 0.0258 -0.9857 0.1666
vn 0.6166 -0.7682 0.1719
vn 0.4660 -0.8091 -0.3578
vn 0.0650 -0.9341 -0.3510
vn 0.9321 -0.3531 0.0806
vn 0.7454 -0.5406 -0.3901
vn -0.5396 -0.7789 -0.3196
vn -0.0357 -0.8588 -0.5110
vn 0.1617 -0.9503 0.2660
vn -0.3925 -0.8280 0.4004
vn 0.3908 -0.7216 -0.5714
vn 0.4996 -0.8420 0.2032
vn 0.7971 -0.3893 -0.4615
vn 0.7617 -0.5972 0.2511
vn 0.9467 -0.1029 -0.3051
vn 0.8825 -0.2970 0.3645
vn 0.8849 0.1379 -0.4449
vn 0.9932 0.1020 -0.0555
vn 0.9878 0.1546 0.0153
vn 0.8862 -0.2320 -0.4011
vn 0.8468 -0.3510 0.3995
vn 0.9461 -0.0255 0.3228
vn 0.9634 -0.2676 -0.0158
vn 0.7853 -0.6188 -0.0200
vn 0.4273 -0.5649 0.7059
vn 0.4474 -0.8930 0.0493
vn -0.3971 -0.9127 0.0958
vn -0.2498 -0.8876 -0.3870
vn -0.6600 -0.7200 -0.2142
vn -0.5550 -0.7396 -0.3807
vn -0.4219 -0.3230 -0.8471
vn 0.0340 -0.0866 -0.9956
vn 0.0259 -0.0783 -0.9966
vn -0.3960 -0.2600 -0.8807
vn 0.5039 0.1635 -0.8481
vn 0.4931 0.1680 -0.8536
vn 0.1962 -0.3458 -0.9175
vn -0.2438 -0.5144 -0.8222
vn 0.6532 -0.0674 -0.7542
vn -0.7180 -0.4798 -0.5042
vn 0.8109 0.3102 -0.4962
vn 0.8111 0.2994 -0.5025
vn -0.5811 -0.5770 -0.5739
vn -0.6946 -0.5213 -0.4957
vn -0.8476 -0.4806 0.2250
vn -0.8433 -0.5369 0.0230
vn -0.8375 -0.5452 0.0347
vn -0.8085 -0.5077 0.2975
vn -0.8216 -0.5408 -0.1803
vn -0.7613 -0.6304 -0.1515
vn -0.7185 -0.6933 0.0556
vn -0.7033 -0.7107 0.0156
vn -0.3993 -0.6137 0.6811
vn 0.9174 0.3545 -0.1809
vn 0.9225 0.3859 0.0033
vn 0.9586 0.2841 0.0152
vn 0.9480 0.2880 -0.1352
vn 0.8760 0.4609 0.1418
vn 0.9141 0.3900 0.1111
vn 0.8685 0.0513 0.4930
vn 0.9583 0.2121 0.1916
vn 0.9857 0.1255 0.1127
vn 0.9750 0.0608 -0.2136
vn 0.9703 0.2360 0.0522
vn 0.8550 -0.5034 0.1244
vn 0.9582 -0.0980 -0.2688
vn 0.9860 -0.1344 0.0989
vn -0.0452 -0.8916 0.4505
vn 0.4362 -0.7783 0.4517
vn 0.2021 -0.3382 0.9191
vn -0.1642 -0.3953 0.9037
vn 0.8059 -0.4739 0.3548
vn 0.5357 -0.1213 0.8356
vn -0.6602 -0.7314 0.1709
vn -0.3890 -0.8361 0.3867
vn -0.4756 -0.5199 0.7095
vn 0.9618 -0.1734 0.2120
vn 0.9360 0.1887 0.2971
vn 0.8030 0.0224 0.5955
vn 0.0769 -0.9856 -0.1506
vn -0.4473 -0.7814 0.4351
vn 0.0270 -0.6106 0.7914
vn 0.3911 -0.5186 0.7603
vn -0.4288 -0.8404 0.3313
vn 0.6756 -0.2827 0.6809
vn 0.0292 -0.9783 0.2050
vn 0.5467 -0.8256 0.1390
usemtl None
s 1
f 14/1/1 69/2/2 71/3/3 13/4/4
f 67/5/5 68/6/6 70/7/7 69/2/2
f 1/8/8 16/9/9 67/5/5 15/10/10
f 69/2/2 70/7/7 72/11/11 71/3/3
f 13/4/4 71/3/3 22/12/12 3/13/13
f 16/9/9 17/14/14 68/6/6 67/5/5
f 17/14/14 2/15/15 18/16/16 68/6/6
f 68/6/6 18/16/16 19/17/17 70/7/7
f 70/7/7 19/17/17 20/18/18 72/11/11
f 72/11/11 20/18/18 4/19/19 21/20/20
f 71/3/3 72/11/11 21/20/20 22/12/12
f 25/21/21 73/22/22 75/23/23 24/24/24
f 24/24/24 75/23/23 77/25/25 23/26/26
f 73/22/22 74/27/27 76/28/28 75/23/23
f 22/12/12 73/22/22 25/21/21 3/13/13
f 75/23/23 76/28/28 78/29/29 77/25/25
f 23/26/26 77/25/25 30/30/30 7/31/31
f 22/12/12 21/20/20 74/27/27 73/22/22
f 21/20/20 4/19/19 26/32/32 74/27/27
f 74/27/27 26/32/32 27/33/33 76/28/28
f 76/28/28 27/33/33 28/34/34 78/29/29
f 78/29/29 28/34/34 8/35/35 29/36/36
f 77/25/25 78/29/29 29/36/36 30/30/30
f 33/37/37 79/38/38 81/39/39 32/40/40
f 32/40/40 81/39/39 83/41/41 31/42/42
f 79/38/38 80/43/43 82/44/44 81/39/39
f 30/30/30 79/38/38 33/37/37 7/31/31
f 81/39/39 82/44/44 84/45/45 83/41/41
f 31/42/42 83/41/41 38/46/46 5/47/47
f 30/30/30 29/36/36 80/43/43 79/38/38
f 29/36/36 8/35/35 34/48/48 80/43/43
f 80/43/43 34/48/48 35/49/49 82/44/44
f 82/44/44 35/49/49 36/50/50 84/45/45
f 84/45/45 36/50/50 6/51/51 37/52/52
f 83/41/41 84/45/45 37/52/52 38/46/46
f 41/53/53 85/54/54 87/55/55 40/56/56
f 40/56/56 87/55/55 89/57/57 39/58/58
f 85/54/54 86/59/59 88/60/60 87/55/55
f 38/46/46 85/54/54 41/53/53 5/47/47
f 87/55/55 88/60/60 90/61/61 89/57/57
f 39/58/58 89/57/57 16/62/9 1/63/8
f 38/46/46 37/52/52 86/59/59 85/54/54
f 37/52/52 6/51/51 42/64/62 86/59/59
f 86/59/59 42/64/62 43/65/63 88/60/60
f 88/60/60 43/65/63 44/66/64 90/61/61
f 90/61/61 44/66/64 2/67/15 17/68/14
f 89/57/57 90/61/61 17/68/14 16/62/9
f 91/69/65 92/70/66 95/71/67 94/72/68
f 92/70/66 93/73/69 96/74/70 95/71/67
f 94/72/68 95/71/67 98/75/71 97/76/72
f 95/71/67 96/74/70 99/77/73 98/75/71
f 5/47/47 41/53/53 91/69/65 60/78/74
f 41/53/53 40/56/56 92/70/66 91/69/65
f 40/56/56 39/58/58 93/73/69 92/70/66
f 39/58/58 1/63/8 55/79/75 93/73/69
f 93/73/69 55/79/75 56/80/76 96/74/70
f 96/74/70 56/80/76 57/81/77 99/77/73
f 99/77/73 57/81/77 9/82/78 52/83/79
f 98/75/71 99/77/73 52/83/79 53/84/80
f 97/76/72 98/75/71 53/84/80 54/85/81
f 58/86/82 97/76/72 54/85/81 11/87/83
f 59/88/84 94/72/68 97/76/72 58/86/82
f 60/78/74 91/69/65 94/72/68 59/88/84
f 100/89/85 101/90/86 104/91/87 103/92/88
f 101/90/86 102/93/89 105/94/90 104/91/87
f 103/92/88 104/91/87 107/95/91 106/96/92
f 104/91/87 105/94/90 108/97/93 107/95/91
f 8/35/35 28/98/34 100/89/85 34/48/48
f 28/98/34 27/99/33 101/90/86 100/89/85
f 27/99/33 26/100/32 102/93/89 101/90/86
f 26/100/32 4/101/19 20/102/18 102/93/89
f 102/93/89 20/102/18 19/103/17 105/94/90
f 105/94/90 19/103/17 18/104/16 108/97/93
f 108/97/93 18/104/16 2/105/15 44/106/64
f 107/95/91 108/97/93 44/106/64 43/107/63
f 106/96/92 107/95/91 43/107/63 42/108/62
f 36/50/50 106/96/92 42/108/62 6/51/51
f 35/49/49 103/92/88 106/96/92 36/50/50
f 34/48/48 100/89/85 103/92/88 35/49/49
f 109/109/94 110/110/95 184/111/96 186/112/97
f 110/110/95 111/113/98 185/114/99 184/111/96
f 112/115/100 113/116/101 164/117/102 163/118/103
f 113/116/101 114/119/104 165/120/105 164/117/102
f 10/121/106 49/122/107 179/123/108 177/124/109
f 49/122/107 48/125/110 178/126/111 179/123/108
f 48/125/110 47/127/112 181/128/113 178/126/111
f 47/127/112 12/129/114 180/130/115 181/128/113
f 180/130/115 12/129/114 63/131/116 139/132/117
f 114/119/104 51/133/118 160/134/119 165/120/105
f 116/135/120 50/136/121 149/137/122 152/138/123
f 115/139/124 116/135/120 152/138/123 151/140/125
f 46/141/126 112/115/100 163/118/103 161/142/127
f 45/143/128 109/109/94 186/112/97 182/144/129
f 117/145/130 118/146/131 121/147/132 120/148/133
f 118/146/131 119/149/134 122/150/135 121/147/132
f 120/148/133 121/147/132 124/151/136 123/152/137
f 121/147/132 122/150/135 125/153/138 124/151/136
f 3/13/13 25/21/21 117/145/130 66/154/139
f 25/21/21 24/24/24 118/146/131 117/145/130
f 24/24/24 23/26/26 119/149/134 118/146/131
f 23/26/26 7/31/31 61/155/140 119/149/134
f 119/149/134 61/155/140 62/156/141 122/150/135
f 122/150/135 62/156/141 63/131/116 125/153/138
f 125/153/138 63/131/116 12/129/114 47/157/112
f 124/151/136 125/153/138 47/157/112 48/158/110
f 123/152/137 124/151/136 48/158/110 49/159/107
f 64/160/142 123/152/137 49/159/107 10/161/106
f 65/162/143 120/148/133 123/152/137 64/160/142
f 66/154/139 117/145/130 120/148/133 65/162/143
f 126/163/144 127/164/145 130/165/146 129/166/147
f 127/164/145 128/167/148 131/168/149 130/165/146
f 130/165/146 166/169/150 132/170/151
f 1/8/8 15/10/10 126/163/144 55/171/75
f 15/10/10 14/1/1 127/164/145 126/163/144
f 14/1/1 13/4/4 128/167/148 127/164/145
f 13/4/4 3/13/13 66/154/139 128/167/148
f 128/167/148 66/154/139 65/162/143 131/168/149
f 45/172/128 64/160/142 10/161/106 177/124/109
f 166/169/150 45/143/128 182/144/129
f 132/170/151 166/169/150 168/173/152 46/174/126
f 55/171/75 126/163/144 129/166/147 56/175/76
f 133/176/153 134/177/154 137/178/155 136/179/156
f 134/177/154 135/180/157 138/181/158 137/178/155
f 137/178/155 51/182/118 139/132/117 136/179/156
f 51/182/118 169/183/159 139/132/117
f 7/31/31 33/37/37 133/176/153 61/155/140
f 33/37/37 32/40/40 134/177/154 133/176/153
f 32/40/40 31/42/42 135/180/157 134/177/154
f 31/42/42 5/47/47 60/78/74 135/180/157
f 135/180/157 60/78/74 59/88/84 138/181/158
f 138/181/158 59/88/84 58/86/82 140/184/160
f 140/184/160 58/86/82 11/87/83 149/137/122 50/136/121
f 146/185/161 162/186/162 51/182/118 137/178/155 147/187/163
f 51/182/118 162/186/162 160/188/119
f 175/189/164 185/114/99 183/190/165 172/191/166
f 62/156/141 136/179/156 139/132/117 63/131/116
f 61/155/140 133/176/153 136/179/156 62/156/141
f 143/192/167 141/193/168 155/194/169 156/195/170
f 141/193/168 145/196/171 159/197/172 155/194/169
f 130/165/146 132/170/151 142/198/173
f 132/170/151 46/141/126 161/142/127 142/198/173
f 144/199/174 143/192/167 156/195/170 157/200/175
f 148/201/176 146/185/161 154/202/177 158/203/178
f 145/196/171 148/201/176 158/203/178 159/197/172
f 137/178/155 138/181/158 147/187/163
f 130/165/146 142/198/173 129/166/147
f 151/140/125 152/138/123 54/204/81 53/205/80
f 153/206/179 151/140/125 52/207/79
f 152/138/123 149/137/122 11/87/83 54/204/81
f 159/197/172 158/203/178 50/136/121 116/135/120
f 155/194/169 159/197/172 116/135/120 115/139/124
f 158/203/178 154/202/177 140/184/160 50/136/121
f 57/208/77 56/175/76 129/166/147
f 144/199/174 157/200/175 142/198/173
f 142/198/173 157/200/175 129/166/147
f 157/200/175 156/195/170 150/209/180
f 57/208/77 129/166/147 150/209/180
f 9/210/78 57/208/77 150/211/180
f 163/118/103 164/117/102 141/193/168 143/192/167
f 165/120/105 160/134/119 148/201/176 145/196/171
f 164/117/102 165/120/105 145/196/171 141/193/168
f 161/142/127 163/118/103 143/192/167 144/199/174
f 144/199/174 142/198/173 161/142/127
f 160/188/119 162/186/162 146/185/161 148/201/176
f 138/181/158 140/184/160 154/202/177 147/187/163
f 147/187/163 154/202/177 146/185/161
f 150/209/180 129/166/147 157/200/175
f 9/210/78 153/206/179 52/207/79
f 171/212/181 170/213/182 113/116/101 112/115/100
f 168/173/152 166/169/150 173/214/183
f 168/215/152 171/212/181 112/115/100 46/141/126
f 170/213/182 167/216/184 114/119/104 113/116/101
f 167/216/184 169/217/159 51/133/118 114/119/104
f 131/168/149 166/169/150 130/165/146
f 174/218/185 176/219/186 170/213/182 171/212/181
f 173/220/183 174/218/185 171/212/181 168/215/152
f 173/214/183 166/169/150 182/144/129
f 176/219/186 175/189/164 167/216/184 170/213/182
f 175/189/164 172/191/166 169/217/159 167/216/184
f 139/132/117 169/183/159 172/221/166 183/222/165
f 180/130/115 139/132/117 111/113/98
f 178/126/111 181/128/113 111/113/98 110/110/95
f 181/128/113 180/130/115 111/113/98
f 177/124/109 179/123/108 109/109/94 45/143/128
f 179/123/108 178/126/111 110/110/95 109/109/94
f 64/160/142 45/172/128 131/168/149 65/162/143
f 186/112/97 184/111/96 176/219/186 174/218/185
f 182/144/129 186/112/97 174/218/185 173/220/183
f 184/111/96 185/114/99 175/189/164 176/219/186
f 183/190/165 185/114/99 111/113/98 139/132/117
f 166/169/150 131/168/149 45/172/128
f 52/207/79 151/140/125 53/205/80
f 15/10/10 67/5/5 69/2/2 14/1/1
f 150/209/180 153/206/179 9/210/78
f 150/209/180 156/195/170 115/139/124
f 115/139/124 156/195/170 155/194/169
f 153/206/179 150/209/180 115/139/124
f 115/139/124 151/140/125 153/206/179
