# Blender v2.82 (sub 7) OBJ File: ''
# www.blender.org
mtllib paw0.mtl
o paw0_Cube
v -0.628586 -2.989568 0.315392
v -1.207670 -1.758189 0.136500
v -0.967412 -1.967891 -0.892208
v -0.379803 -3.220084 -0.781480
v -1.225004 -1.467750 1.164671
v -1.459668 -0.505478 0.932236
v -1.455543 -0.737181 0.000618
v -0.465749 -2.268368 2.326586
v -1.009378 -1.113001 2.013124
v -0.662849 -2.659816 1.409508
v -1.226497 -0.956378 -0.923975
v -0.538206 -2.027826 -1.749182
v 0.057711 -3.299978 -1.693777
v -1.255517 -0.224791 1.686139
v -1.313946 0.326395 1.385709
v -1.447064 0.305707 0.579903
v -1.439337 0.141440 -0.101549
v -1.227615 -0.124435 -0.955292
v -0.947897 -0.381003 -1.526890
v -0.832960 -1.041926 -1.677739
v 0.644446 -3.194443 -2.265157
v 0.031931 -1.885168 -2.290790
v 0.662777 -1.604497 -2.481050
v 1.289071 -2.941715 -2.462435
v 1.260504 -1.265816 -2.313309
v 1.886593 -2.596499 -2.283485
v -0.339393 -0.860084 -2.153022
v 0.224365 -0.557334 -2.326416
v 0.785941 -0.271228 -2.177511
v 1.709072 -0.893414 -1.790648
v 2.329162 -2.206356 -1.727323
v -0.637118 -0.050014 -1.773150
v -0.136552 0.304195 -1.905746
v 0.413476 0.519432 -1.799593
v 0.822726 0.573764 -1.570555
v 1.206444 0.028061 -1.722635
v 2.530690 -1.818381 -0.824530
v 1.913452 -0.510536 -0.945930
v 1.884871 -0.191966 0.078505
v 2.494983 -1.485016 0.269151
v 1.655859 -0.010393 1.110948
v 2.247645 -1.258114 1.366457
v 1.368573 0.413860 -0.982693
v 1.327677 0.737530 -0.063290
v 1.135401 0.864760 0.873519
v 1.237900 0.021410 1.971658
v 1.811574 -1.181832 2.279188
v 0.801707 0.984738 -1.008050
v 0.719967 1.329364 -0.159092
v 0.584530 1.404437 0.719994
v 0.456676 1.281162 1.342045
v 0.783888 0.845196 1.641243
v 1.248283 -1.252568 2.982886
v 0.656516 -0.093117 2.509531
v 0.014423 -0.345658 2.696054
v 0.577326 -1.532871 3.046976
v -0.572057 -0.712469 2.532050
v -0.018824 -1.881420 2.869158
v 0.248298 0.768466 2.102565
v -0.352230 0.557683 2.263743
v -0.877037 0.179610 2.127054
v -0.005967 1.330016 1.537852
v -0.582816 1.166609 1.645107
v -1.056561 0.760569 1.564296
v 1.851454 -2.235249 3.612823
v 1.155779 -2.663867 3.427716
v 1.883337 -3.790170 4.329816
v 2.490237 -3.355557 4.359276
v 0.621912 -3.063214 3.056273
v 1.416493 -4.118698 3.814152
v 2.340318 -4.673222 4.243969
v 2.881376 -4.356072 4.256021
v 1.879003 -4.976104 3.751522
v 2.383425 -2.258539 2.613642
v 0.208766 -3.424142 2.501496
v 1.060407 -4.427001 3.271424
v 1.544285 -5.203456 3.461802
v 1.791888 -5.338896 3.458229
v 2.111392 -5.400077 3.713211
v 2.537560 -5.196455 3.925925
v 3.006117 -4.892684 3.897791
v 3.225327 -4.243935 3.424829
v 3.253462 -4.508718 3.587796
v 2.923834 -3.202766 3.512785
v 0.191780 1.134295 -1.108018
v -0.417083 0.948317 -1.160207
v -0.599079 1.334177 -0.209852
v 0.051209 1.515292 -0.206833
v -0.928357 0.511178 -1.076913
v -1.129268 0.852671 -0.172971
v -0.592411 1.335359 0.585770
v 0.024251 1.558921 0.527972
v -1.114786 0.886409 0.574607
v 2.580801 -6.637518 -0.455108
v 3.069905 -6.499853 -0.531843
v 3.256265 -6.963584 -0.117993
v 2.765126 -7.132445 -0.052464
v 3.423667 -6.078611 -0.493461
v 3.612759 -6.487207 -0.091073
v 2.478700 -6.131732 1.253139
v 2.984643 -5.966881 1.265613
v 3.128588 -6.554764 1.814915
v 2.625349 -6.701571 1.787035
v 3.337942 -5.419144 1.199560
v 3.508658 -6.159662 1.746908
v 2.356382 -6.872220 -1.356152
v 2.750802 -6.887769 -1.549391
v 2.816231 -7.058563 -0.888849
v 2.385749 -7.092031 -0.684950
v 3.211262 -6.755791 -1.694548
v 3.275994 -6.910352 -1.000469
v 3.555504 -6.372712 -1.577488
v 3.640016 -6.611384 -0.924435
v 3.717271 -6.007195 -1.402612
v 3.839011 -6.159260 -0.744753
v 3.649961 -5.475234 -1.622823
v 3.797922 -5.285555 -0.427371
v 3.484229 -4.529821 1.016779
v 3.706607 -5.607625 1.592814
v 3.062056 -4.672268 2.936655
v 3.293873 -4.312326 2.813258
v 3.256748 -4.460914 3.229897
v 3.011149 -5.014248 3.345639
v 2.754934 -5.213653 2.969681
v 2.648466 -5.316405 3.441851
v 1.908380 -5.977419 1.168399
v 2.072063 -6.577097 1.670738
v 2.016619 -6.296335 -0.357654
v 2.223506 -6.965763 -0.023976
v 1.254043 -4.204979 -2.061312
v 1.856444 -3.959328 -2.251937
v 2.561915 -5.339622 -2.258966
v 2.034207 -5.560304 -2.048054
v 2.410962 -3.627377 -2.068855
v 3.029405 -4.982257 -2.072404
v 3.021087 -6.239647 -2.115169
v 2.536819 -6.414171 -1.914738
v 3.419987 -5.874839 -1.941017
v 0.704729 -4.318115 -1.498036
v 2.820129 -3.261772 -1.511853
v 3.334403 -4.575638 -1.650634
v 2.105711 -6.436361 -1.801766
v 1.547288 -5.754206 -1.622943
v 0.027899 -3.783622 1.580690
v 0.064083 -4.076763 0.494111
v 0.985412 -5.440403 1.016236
v 0.926797 -5.060247 2.345420
v 0.296768 -4.267672 -0.594289
v 1.224172 -5.753994 -0.613519
v 1.670773 -6.397943 0.438205
v 1.405062 -6.029446 1.170333
v 2.177600 -6.688175 0.959054
v 3.006888 -2.913913 -0.612045
v 2.972369 -2.623768 0.475024
v 3.483672 -3.980971 0.943127
v 3.553011 -4.395470 -0.681274
v 2.739851 -2.426365 1.566712
v 3.242624 -3.355608 2.091602
v 3.769089 -5.653261 0.890816
v 3.341238 -4.044568 2.642724
v 3.711858 -5.094282 2.032786
v 3.707896 -5.027865 1.501604
v 3.450330 -4.193407 1.839144
v 3.698637 -6.667363 0.417174
v 3.898053 -5.799787 -0.091936
v 3.868671 -6.054979 0.401876
v 2.638443 -6.663295 2.400385
v 3.139367 -6.535762 2.441376
v 2.924554 -5.945183 2.951318
v 2.388193 -5.953147 2.885604
v 3.525150 -6.177052 2.359245
v 3.272179 -5.497871 2.861057
v 1.596526 -6.302098 2.041708
v 2.104055 -6.570395 2.256723
v 1.874677 -5.903738 2.705250
v 3.740695 -5.709641 2.167158
v 3.517503 -4.580803 2.502404
v 3.498215 -5.091197 2.652406
v 2.232769 -5.374648 3.238687
v 1.618041 -5.332344 2.893567
v 2.731515 -6.847619 0.979097
v 3.229040 -6.696360 0.946967
v 2.334672 -7.031515 0.662877
v 3.594278 -6.271844 0.939086
v 2.845824 -7.234705 0.456356
v 3.339137 -7.090242 0.401924
vt 0.973923 0.682483
vt 0.981141 0.775541
vt 0.899209 0.757306
vt 0.888859 0.652624
vt 0.108965 0.767463
vt 0.113340 0.816881
vt 0.031807 0.827280
vt 0.026363 0.775541
vt 0.173949 0.662600
vt 0.170483 0.749400
vt 0.108894 0.680184
vt 0.986585 0.827280
vt 0.902954 0.814459
vt 0.838914 0.730514
vt 0.830633 0.620255
vt 0.172071 0.799399
vt 0.173846 0.830133
vt 0.113617 0.859509
vt 0.038180 0.868002
vt 0.992958 0.868002
vt 0.895125 0.854841
vt 0.843891 0.829897
vt 0.841810 0.792560
vt 0.788478 0.603969
vt 0.793580 0.716262
vt 0.753637 0.714489
vt 0.751871 0.600801
vt 0.714191 0.722761
vt 0.715739 0.608761
vt 0.795314 0.783425
vt 0.752799 0.783465
vt 0.710896 0.788615
vt 0.670007 0.744417
vt 0.674938 0.631023
vt 0.804654 0.836384
vt 0.752654 0.840575
vt 0.701225 0.840631
vt 0.662713 0.838189
vt 0.665546 0.803408
vt 0.617541 0.672951
vt 0.609147 0.780329
vt 0.516666 0.806384
vt 0.524976 0.714120
vt 0.417950 0.796147
vt 0.420548 0.709229
vt 0.603549 0.831137
vt 0.510129 0.848594
vt 0.414707 0.837474
vt 0.349356 0.769042
vt 0.349682 0.680938
vt 0.611070 0.865492
vt 0.502723 0.881823
vt 0.397989 0.866053
vt 0.349013 0.841973
vt 0.349715 0.814613
vt 0.301845 0.654169
vt 0.300663 0.750441
vt 0.258631 0.741741
vt 0.260541 0.654016
vt 0.217074 0.740723
vt 0.220050 0.653852
vt 0.302287 0.800994
vt 0.259782 0.794855
vt 0.217627 0.793210
vt 0.309782 0.842252
vt 0.260354 0.840175
vt 0.211527 0.835698
vt 0.304861 0.529020
vt 0.264431 0.527387
vt 0.274330 0.390238
vt 0.305290 0.404681
vt 0.224282 0.525040
vt 0.246207 0.376668
vt 0.277365 0.307750
vt 0.306215 0.316948
vt 0.247970 0.285866
vt 0.351217 0.542156
vt 0.178268 0.525150
vt 0.214053 0.358900
vt 0.221299 0.273771
vt 0.230579 0.251943
vt 0.249109 0.245985
vt 0.276624 0.254859
vt 0.306499 0.264161
vt 0.337841 0.296156
vt 0.330946 0.278388
vt 0.338307 0.402748
vt 0.659204 0.889530
vt 0.756499 0.898001
vt 0.993713 0.936527
vt 0.487883 0.916316
vt 0.850254 0.884374
vt 0.993775 0.905932
vt 0.182599 0.943936
vt 0.259905 0.900775
vt 0.366014 0.893366
vt 0.049848 0.907482
vt 0.161506 0.886661
vt 0.782600 0.169985
vt 0.741176 0.170243
vt 0.741903 0.124944
vt 0.792350 0.125665
vt 0.700766 0.181820
vt 0.691538 0.136439
vt 0.972056 0.030890
vt 0.527729 0.019550
vt 0.309645 0.031620
vt 0.144731 0.045903
vt 0.513196 0.089147
vt 0.426348 0.061908
vt 0.787111 0.234015
vt 0.766525 0.234874
vt 0.772198 0.185888
vt 0.802167 0.183308
vt 0.742328 0.239591
vt 0.741294 0.189975
vt 0.718039 0.244041
vt 0.712182 0.192577
vt 0.700141 0.249489
vt 0.684730 0.199577
vt 0.694409 0.292582
vt 0.648701 0.226899
vt 0.515423 0.195954
vt 0.465137 0.106310
vt 0.333453 0.238196
vt 0.359348 0.266869
vt 0.340764 0.269311
vt 0.312584 0.230777
vt 0.296178 0.197727
vt 0.281649 0.220846
vt 0.023387 0.093233
vt 0.017278 0.030890
vt 0.087116 0.086379
vt 0.817797 0.193367
vt 0.832664 0.145450
vt 0.780949 0.489141
vt 0.746790 0.489982
vt 0.743265 0.356517
vt 0.770563 0.348650
vt 0.713009 0.494721
vt 0.715667 0.359701
vt 0.741077 0.288199
vt 0.765040 0.280122
vt 0.716660 0.290376
vt 0.820634 0.492587
vt 0.674486 0.504322
vt 0.687621 0.363193
vt 0.785188 0.285401
vt 0.801359 0.333053
vt 0.109627 0.525590
vt 0.011391 0.518124
vt 0.028892 0.229362
vt 0.154203 0.284954
vt 0.966169 0.518124
vt 0.877200 0.502555
vt 0.846873 0.287026
vt 0.983670 0.229362
vt 0.893151 0.154325
vt 0.985098 0.154910
vt 0.019145 0.682483
vt 0.917915 0.084054
vt 0.978166 0.093233
vt 0.619561 0.522131
vt 0.528820 0.545925
vt 0.511850 0.276275
vt 0.643938 0.320090
vt 0.422767 0.550872
vt 0.405531 0.369986
vt 0.563603 0.115508
vt 0.373497 0.289692
vt 0.419388 0.162807
vt 0.471562 0.154261
vt 0.427089 0.245937
vt 0.669895 0.095055
vt 0.644969 0.172969
vt 0.625865 0.125317
vt 0.213437 0.086085
vt 0.288312 0.080525
vt 0.285546 0.146113
vt 0.239784 0.155873
vt 0.356871 0.095282
vt 0.330164 0.165713
vt 0.030320 0.154910
vt 0.119849 0.145288
vt 0.156868 0.109426
vt 0.197013 0.172730
vt 0.402928 0.120923
vt 0.382364 0.226983
vt 0.364713 0.186738
vt 0.253195 0.218691
vt 0.208012 0.233501
vt 0.853967 0.047282
vt 0.704804 0.040083
vt 0.872177 0.093255
vt 0.600865 0.068694
vt 0.807102 0.085379
vt 0.736322 0.082862
vn -0.8777 -0.4792 0.0051
vn -0.9417 -0.3345 -0.0358
vn -0.8995 -0.3394 -0.2753
vn -0.8409 -0.4916 -0.2262
vn -0.9369 -0.2848 0.2029
vn -0.9864 -0.0785 0.1444
vn -0.9883 -0.1200 -0.0943
vn -0.7876 -0.3000 0.5382
vn -0.8461 -0.1563 0.5096
vn -0.8739 -0.4278 0.2311
vn -0.9372 -0.1388 -0.3201
vn -0.7651 -0.2872 -0.5763
vn -0.7148 -0.4519 -0.5337
vn -0.8984 0.0345 0.4378
vn -0.9177 0.2659 0.2953
vn -0.9628 0.2655 0.0496
vn -0.9652 0.2050 -0.1623
vn -0.9078 0.1572 -0.3889
vn -0.8105 0.1044 -0.5764
vn -0.7958 -0.0978 -0.5976
vn -0.4173 -0.3189 -0.8510
vn -0.4699 -0.1509 -0.8697
vn -0.0416 0.0444 -0.9981
vn 0.0299 -0.0989 -0.9946
vn 0.4061 0.2386 -0.8821
vn 0.4838 0.1358 -0.8646
vn -0.5211 0.0469 -0.8522
vn -0.1388 0.2349 -0.9621
vn 0.2874 0.3898 -0.8749
vn 0.7267 0.3756 -0.5752
vn 0.7845 0.3024 -0.5414
vn -0.6159 0.3014 -0.7279
vn -0.2852 0.5053 -0.8145
vn 0.1189 0.6354 -0.7630
vn 0.4618 0.6547 -0.5984
vn 0.6228 0.4956 -0.6054
vn 0.8981 0.3789 -0.2231
vn 0.8608 0.4407 -0.2547
vn 0.8808 0.4735 -0.0058
vn 0.9113 0.4116 0.0128
vn 0.8328 0.5014 0.2348
vn 0.8668 0.4475 0.2200
vn 0.7663 0.5691 -0.2981
vn 0.7844 0.6180 -0.0522
vn 0.7460 0.6360 0.1973
vn 0.6769 0.5269 0.5141
vn 0.7398 0.5137 0.4345
vn 0.4890 0.7765 -0.3973
vn 0.4994 0.8544 -0.1438
vn 0.4611 0.8766 0.1373
vn 0.4128 0.8296 0.3759
vn 0.5827 0.6454 0.4938
vn 0.2987 0.4919 0.8178
vn 0.3152 0.4837 0.8165
vn -0.1677 0.3013 0.9387
vn -0.2500 0.1938 0.9486
vn -0.5773 0.0635 0.8141
vn -0.5510 -0.0758 0.8310
vn 0.2214 0.6259 0.7478
vn -0.2433 0.4994 0.8315
vn -0.6460 0.2609 0.7173
vn 0.0289 0.8889 0.4571
vn -0.4103 0.7810 0.4708
vn -0.7448 0.5342 0.3998
vn 0.2068 0.5948 0.7768
vn -0.4622 0.1834 0.8676
vn -0.4063 0.0015 0.9137
vn 0.3247 0.3816 0.8654
vn -0.6580 -0.1012 0.7462
vn -0.6688 -0.1774 0.7220
vn -0.1480 -0.3665 0.9186
vn 0.5674 -0.0536 0.8217
vn -0.5152 -0.4047 0.7555
vn 0.7606 0.5734 0.3045
vn -0.7963 -0.3379 0.5017
vn -0.7766 -0.3082 0.5494
vn -0.6234 -0.5994 0.5021
vn -0.3685 -0.8670 0.3355
vn -0.1837 -0.8619 0.4726
vn 0.1870 -0.7302 0.6571
vn 0.7171 -0.4728 0.5122
vn 0.9547 0.1329 0.2662
vn 0.9516 -0.1644 0.2597
vn 0.8216 0.4686 0.3246
vn 0.0285 0.8563 -0.5157
vn -0.4076 0.7270 -0.5525
vn -0.4799 0.8501 -0.2167
vn -0.0084 0.9767 -0.2146
vn -0.7285 0.4795 -0.4893
vn -0.7902 0.5787 -0.2017
vn -0.4830 0.8727 0.0719
vn -0.0273 0.9974 0.0667
vn -0.7814 0.6223 0.0465
vn 0.0191 -0.9985 0.0519
vn 0.5589 -0.8283 0.0399
vn 0.4507 -0.7095 -0.5418
vn -0.0799 -0.8792 -0.4697
vn 0.8162 -0.5677 0.1074
vn 0.7756 -0.4229 -0.4685
vn 0.0258 -0.9857 0.1666
vn 0.6166 -0.7683 0.1719
vn 0.4661 -0.8092 -0.3578
vn 0.0651 -0.9341 -0.3510
vn 0.9321 -0.3532 0.0806
vn 0.7454 -0.5406 -0.3901
vn -0.5396 -0.7789 -0.3196
vn -0.0357 -0.8588 -0.5111
vn 0.1617 -0.9503 0.2660
vn -0.3925 -0.8280 0.4004
vn 0.3908 -0.7216 -0.5715
vn 0.4996 -0.8421 0.2032
vn 0.7971 -0.3893 -0.4616
vn 0.7617 -0.5973 0.2511
vn 0.9468 -0.1029 -0.3051
vn 0.8826 -0.2970 0.3645
vn 0.8849 0.1379 -0.4449
vn 0.9932 0.1020 -0.0555
vn 0.9878 0.1547 0.0153
vn 0.8862 -0.2320 -0.4011
vn 0.8469 -0.3510 0.3995
vn 0.9461 -0.0255 0.3228
vn 0.9634 -0.2676 -0.0159
vn 0.7853 -0.6188 -0.0200
vn 0.4273 -0.5649 0.7059
vn 0.4474 -0.8930 0.0493
vn -0.3971 -0.9128 0.0958
vn -0.2499 -0.8876 -0.3870
vn -0.6600 -0.7200 -0.2142
vn -0.5550 -0.7396 -0.3807
vn -0.4219 -0.3230 -0.8472
vn 0.0340 -0.0866 -0.9957
vn 0.0259 -0.0784 -0.9966
vn -0.3960 -0.2600 -0.8807
vn 0.5039 0.1635 -0.8482
vn 0.4931 0.1680 -0.8536
vn 0.1962 -0.3458 -0.9176
vn -0.2438 -0.5144 -0.8222
vn 0.6532 -0.0674 -0.7542
vn -0.7180 -0.4798 -0.5042
vn 0.8109 0.3102 -0.4962
vn 0.8111 0.2994 -0.5025
vn -0.5811 -0.5770 -0.5739
vn -0.6946 -0.5214 -0.4957
vn -0.8476 -0.4806 0.2250
vn -0.8433 -0.5369 0.0231
vn -0.8376 -0.5452 0.0347
vn -0.8085 -0.5077 0.2975
vn -0.8216 -0.5409 -0.1803
vn -0.7613 -0.6304 -0.1515
vn -0.7185 -0.6933 0.0556
vn -0.7033 -0.7107 0.0156
vn -0.3993 -0.6137 0.6811
vn 0.9174 0.3545 -0.1809
vn 0.9225 0.3859 0.0033
vn 0.9587 0.2841 0.0152
vn 0.9480 0.2880 -0.1352
vn 0.8760 0.4609 0.1418
vn 0.9141 0.3900 0.1111
vn 0.8685 0.0513 0.4930
vn 0.9583 0.2121 0.1916
vn 0.9857 0.1255 0.1128
vn 0.9750 0.0608 -0.2136
vn 0.9703 0.2360 0.0522
vn 0.8550 -0.5034 0.1244
vn 0.9582 -0.0980 -0.2688
vn 0.9860 -0.1344 0.0989
vn -0.0452 -0.8916 0.4505
vn 0.4362 -0.7783 0.4517
vn 0.2021 -0.3382 0.9191
vn -0.1642 -0.3953 0.9038
vn 0.8059 -0.4739 0.3549
vn 0.5358 -0.1214 0.8356
vn -0.6602 -0.7314 0.1709
vn -0.3890 -0.8361 0.3867
vn -0.4756 -0.5199 0.7096
vn 0.9618 -0.1734 0.2120
vn 0.9360 0.1887 0.2971
vn 0.8031 0.0224 0.5955
vn 0.0769 -0.9856 -0.1506
vn -0.4474 -0.7814 0.4351
vn 0.0270 -0.6106 0.7914
vn 0.3912 -0.5186 0.7603
vn -0.4288 -0.8405 0.3313
vn 0.6756 -0.2827 0.6809
vn 0.0292 -0.9783 0.2050
vn 0.5467 -0.8257 0.1391
usemtl None
s 1
f 1/1/1 2/2/2 3/3/3 4/4/4
f 5/5/5 6/6/6 7/7/7 2/8/2
f 8/9/8 9/10/9 5/5/5 10/11/10
f 2/2/2 7/12/7 11/13/11 3/3/3
f 4/4/4 3/3/3 12/14/12 13/15/13
f 9/10/9 14/16/14 6/6/6 5/5/5
f 14/16/14 15/17/15 16/18/16 6/6/6
f 6/6/6 16/18/16 17/19/17 7/7/7
f 7/12/7 17/20/17 18/21/18 11/13/11
f 11/13/11 18/21/18 19/22/19 20/23/20
f 3/3/3 11/13/11 20/23/20 12/14/12
f 21/24/21 22/25/22 23/26/23 24/27/24
f 24/27/24 23/26/23 25/28/25 26/29/26
f 22/25/22 27/30/27 28/31/28 23/26/23
f 12/14/12 22/25/22 21/24/21 13/15/13
f 23/26/23 28/31/28 29/32/29 25/28/25
f 26/29/26 25/28/25 30/33/30 31/34/31
f 12/14/12 20/23/20 27/30/27 22/25/22
f 20/23/20 19/22/19 32/35/32 27/30/27
f 27/30/27 32/35/32 33/36/33 28/31/28
f 28/31/28 33/36/33 34/37/34 29/32/29
f 29/32/29 34/37/34 35/38/35 36/39/36
f 25/28/25 29/32/29 36/39/36 30/33/30
f 37/40/37 38/41/38 39/42/39 40/43/40
f 40/43/40 39/42/39 41/44/41 42/45/42
f 38/41/38 43/46/43 44/47/44 39/42/39
f 30/33/30 38/41/38 37/40/37 31/34/31
f 39/42/39 44/47/44 45/48/45 41/44/41
f 42/45/42 41/44/41 46/49/46 47/50/47
f 30/33/30 36/39/36 43/46/43 38/41/38
f 36/39/36 35/38/35 48/51/48 43/46/43
f 43/46/43 48/51/48 49/52/49 44/47/44
f 44/47/44 49/52/49 50/53/50 45/48/45
f 45/48/45 50/53/50 51/54/51 52/55/52
f 41/44/41 45/48/45 52/55/52 46/49/46
f 53/56/53 54/57/54 55/58/55 56/59/56
f 56/59/56 55/58/55 57/60/57 58/61/58
f 54/57/54 59/62/59 60/63/60 55/58/55
f 46/49/46 54/57/54 53/56/53 47/50/47
f 55/58/55 60/63/60 61/64/61 57/60/57
f 58/61/58 57/60/57 9/10/9 8/9/8
f 46/49/46 52/55/52 59/62/59 54/57/54
f 52/55/52 51/54/51 62/65/62 59/62/59
f 59/62/59 62/65/62 63/66/63 60/63/60
f 60/63/60 63/66/63 64/67/64 61/64/61
f 61/64/61 64/67/64 15/17/15 14/16/14
f 57/60/57 61/64/61 14/16/14 9/10/9
f 65/68/65 66/69/66 67/70/67 68/71/68
f 66/69/66 69/72/69 70/73/70 67/70/67
f 68/71/68 67/70/67 71/74/71 72/75/72
f 67/70/67 70/73/70 73/76/73 71/74/71
f 47/50/47 53/56/53 65/68/65 74/77/74
f 53/56/53 56/59/56 66/69/66 65/68/65
f 56/59/56 58/61/58 69/72/69 66/69/66
f 58/61/58 8/9/8 75/78/75 69/72/69
f 69/72/69 75/78/75 76/79/76 70/73/70
f 70/73/70 76/79/76 77/80/77 73/76/73
f 73/76/73 77/80/77 78/81/78 79/82/79
f 71/74/71 73/76/73 79/82/79 80/83/80
f 72/75/72 71/74/71 80/83/80 81/84/81
f 82/85/82 72/75/72 81/84/81 83/86/83
f 84/87/84 68/71/68 72/75/72 82/85/82
f 74/77/74 65/68/65 68/71/68 84/87/84
f 85/88/85 86/89/86 87/90/87 88/91/88
f 86/89/86 89/92/89 90/93/90 87/90/87
f 88/91/88 87/94/87 91/95/91 92/96/92
f 87/94/87 90/97/90 93/98/93 91/95/91
f 35/38/35 34/37/34 85/88/85 48/51/48
f 34/37/34 33/36/33 86/89/86 85/88/85
f 33/36/33 32/35/32 89/92/89 86/89/86
f 32/35/32 19/22/19 18/21/18 89/92/89
f 89/92/89 18/21/18 17/20/17 90/93/90
f 90/97/90 17/19/17 16/18/16 93/98/93
f 93/98/93 16/18/16 15/17/15 64/67/64
f 91/95/91 93/98/93 64/67/64 63/66/63
f 92/96/92 91/95/91 63/66/63 62/65/62
f 50/53/50 92/96/92 62/65/62 51/54/51
f 49/52/49 88/91/88 92/96/92 50/53/50
f 48/51/48 85/88/85 88/91/88 49/52/49
f 94/99/94 95/100/95 96/101/96 97/102/97
f 95/100/95 98/103/98 99/104/99 96/101/96
f 100/105/100 101/106/101 102/107/102 103/108/103
f 101/106/101 104/109/104 105/110/105 102/107/102
f 106/111/106 107/112/107 108/113/108 109/114/109
f 107/112/107 110/115/110 111/116/111 108/113/108
f 110/115/110 112/117/112 113/118/113 111/116/111
f 112/117/112 114/119/114 115/120/115 113/118/113
f 115/120/115 114/119/114 116/121/116 117/122/117
f 104/109/104 118/123/118 119/124/119 105/110/105
f 120/125/120 121/126/121 122/127/122 123/128/123
f 124/129/124 120/125/120 123/128/123 125/130/125
f 126/131/126 100/132/100 103/108/103 127/133/127
f 128/134/128 94/99/94 97/102/97 129/135/129
f 130/136/130 131/137/131 132/138/132 133/139/133
f 131/137/131 134/140/134 135/141/135 132/138/132
f 133/139/133 132/138/132 136/142/136 137/143/137
f 132/138/132 135/141/135 138/144/138 136/142/136
f 13/15/13 21/24/21 130/136/130 139/145/139
f 21/24/21 24/27/24 131/137/131 130/136/130
f 24/27/24 26/29/26 134/140/134 131/137/131
f 26/29/26 31/34/31 140/146/140 134/140/134
f 134/140/134 140/146/140 141/147/141 135/141/135
f 135/141/135 141/147/141 116/121/116 138/144/138
f 138/144/138 116/121/116 114/119/114 112/117/112
f 136/142/136 138/144/138 112/117/112 110/115/110
f 137/143/137 136/142/136 110/115/110 107/112/107
f 142/148/142 137/143/137 107/112/107 106/111/106
f 143/149/143 133/139/133 137/143/137 142/148/142
f 139/145/139 130/136/130 133/139/133 143/149/143
f 144/150/144 145/151/145 146/152/146 147/153/147
f 145/154/145 148/155/148 149/156/149 146/157/146
f 146/157/146 150/158/150 151/159/151
f 8/9/8 10/11/10 144/150/144 75/78/75
f 10/11/10 1/160/1 145/151/145 144/150/144
f 1/1/1 4/4/4 148/155/148 145/154/145
f 4/4/4 13/15/13 139/145/139 148/155/148
f 148/155/148 139/145/139 143/149/143 149/156/149
f 128/134/128 142/148/142 106/111/106 109/114/109
f 150/158/150 128/134/128 129/135/129
f 151/159/151 150/158/150 152/161/152 126/162/126
f 75/78/75 144/150/144 147/153/147 76/79/76
f 153/163/153 154/164/154 155/165/155 156/166/156
f 154/164/154 157/167/157 158/168/158 155/165/155
f 155/165/155 118/123/118 117/122/117 156/166/156
f 118/123/118 159/169/159 117/122/117
f 31/34/31 37/40/37 153/163/153 140/146/140
f 37/40/37 40/43/40 154/164/154 153/163/153
f 40/43/40 42/45/42 157/167/157 154/164/154
f 42/45/42 47/50/47 74/77/74 157/167/157
f 157/167/157 74/77/74 84/87/84 158/168/158
f 158/168/158 84/87/84 82/85/82 160/170/160
f 160/170/160 82/85/82 83/86/83 122/127/122 121/126/121
f 161/171/161 162/172/162 118/123/118 155/165/155 163/173/163
f 118/123/118 162/172/162 119/124/119
f 164/174/164 99/104/99 165/175/165 166/176/166
f 141/147/141 156/166/156 117/122/117 116/121/116
f 140/146/140 153/163/153 156/166/156 141/147/141
f 167/177/167 168/178/168 169/179/169 170/180/170
f 168/178/168 171/181/171 172/182/172 169/179/169
f 146/152/146 151/183/151 173/184/173
f 151/183/151 126/131/126 127/133/127 173/184/173
f 174/185/174 167/177/167 170/180/170 175/186/175
f 176/187/176 161/171/161 177/188/177 178/189/178
f 171/181/171 176/187/176 178/189/178 172/182/172
f 155/165/155 158/168/158 163/173/163
f 146/152/146 173/184/173 147/153/147
f 125/130/125 123/128/123 81/84/81 80/83/80
f 179/190/179 125/130/125 79/82/79
f 123/128/123 122/127/122 83/86/83 81/84/81
f 172/182/172 178/189/178 121/126/121 120/125/120
f 169/179/169 172/182/172 120/125/120 124/129/124
f 178/189/178 177/188/177 160/170/160 121/126/121
f 77/80/77 76/79/76 147/153/147
f 174/185/174 175/186/175 173/184/173
f 173/184/173 175/186/175 147/153/147
f 175/186/175 170/180/170 180/191/180
f 77/80/77 147/153/147 180/191/180
f 78/81/78 77/80/77 180/191/180
f 103/108/103 102/107/102 168/178/168 167/177/167
f 105/110/105 119/124/119 176/187/176 171/181/171
f 102/107/102 105/110/105 171/181/171 168/178/168
f 127/133/127 103/108/103 167/177/167 174/185/174
f 174/185/174 173/184/173 127/133/127
f 119/124/119 162/172/162 161/171/161 176/187/176
f 158/168/158 160/170/160 177/188/177 163/173/163
f 163/173/163 177/188/177 161/171/161
f 180/191/180 147/153/147 175/186/175
f 78/81/78 179/190/179 79/82/79
f 181/192/181 182/193/182 101/106/101 100/105/100
f 152/161/152 150/158/150 183/194/183
f 152/161/152 181/192/181 100/105/100 126/162/126
f 182/193/182 184/195/184 104/109/104 101/106/101
f 184/195/184 159/169/159 118/123/118 104/109/104
f 149/156/149 150/158/150 146/157/146
f 185/196/185 186/197/186 182/193/182 181/192/181
f 183/194/183 185/196/185 181/192/181 152/161/152
f 183/194/183 150/158/150 129/135/129
f 186/197/186 164/174/164 184/195/184 182/193/182
f 164/174/164 166/176/166 159/169/159 184/195/184
f 117/122/117 159/169/159 166/176/166 165/175/165
f 115/120/115 117/122/117 98/103/98
f 111/116/111 113/118/113 98/103/98 95/100/95
f 113/118/113 115/120/115 98/103/98
f 109/114/109 108/113/108 94/99/94 128/134/128
f 108/113/108 111/116/111 95/100/95 94/99/94
f 142/148/142 128/134/128 149/156/149 143/149/143
f 97/102/97 96/101/96 186/197/186 185/196/185
f 129/135/129 97/102/97 185/196/185 183/194/183
f 96/101/96 99/104/99 164/174/164 186/197/186
f 165/175/165 99/104/99 98/103/98 117/122/117
f 150/158/150 149/156/149 128/134/128
f 79/82/79 125/130/125 80/83/80
f 10/11/10 5/5/5 2/8/2 1/160/1
f 180/191/180 179/190/179 78/81/78
f 180/191/180 170/180/170 124/129/124
f 124/129/124 170/180/170 169/179/169
f 179/190/179 180/191/180 124/129/124
f 124/129/124 125/130/125 179/190/179
