# Blender v2.82 (sub 7) OBJ File: ''
# www.blender.org
mtllib tuft0.mtl
o Plane
v -0.159030 0.260524 0.648955
v 0.423086 0.170508 0.655236
v -0.173679 0.746110 0.372923
v 0.408438 0.656096 0.379204
v -0.163500 0.441439 1.358470
v 0.418617 0.351424 1.364752
v -0.066584 0.957265 1.339659
v 0.515533 0.867249 1.345940
v 0.288507 0.318741 2.386097
v -0.362743 0.250223 0.572733
v 0.040740 0.333838 0.948651
v -0.137488 0.477864 0.151608
v 0.265995 0.561479 0.527527
v -0.760559 0.742468 0.855812
v -0.357076 0.826083 1.231732
v -0.602989 1.150617 0.619436
v -0.199507 1.234231 0.995355
v -0.893143 1.205820 1.696790
v -0.284847 0.520631 0.507236
v 0.134349 0.116916 0.706458
v 0.531996 0.394320 0.516051
v 0.112800 0.798036 0.316829
v 0.312859 0.539691 0.309862
v -0.024194 0.297232 0.519068
v -0.050965 0.595949 0.305936
v 0.339630 0.240972 0.522995
v -0.234294 0.722555 1.338104
v 0.105633 0.297353 1.354563
v 0.582548 0.596242 1.346917
v 0.242621 1.021442 1.330458
v 0.463085 0.697833 1.822973
v 0.021075 0.426929 1.790190
v 0.099262 0.754094 1.819049
v 0.384897 0.370670 1.794116
v -0.168705 0.909570 0.783311
v 0.483829 0.808665 0.790353
v 0.437721 0.247389 0.955606
v -0.214814 0.348294 0.948565
v -0.330956 0.345039 0.284886
v -0.206211 0.244794 0.844927
v 0.235221 0.462371 0.812387
v 0.110476 0.562616 0.252347
v 0.220890 0.413619 0.500083
v -0.182759 0.247586 0.557507
v -0.031287 0.361359 0.265134
v 0.069418 0.299844 0.792457
v -0.757980 0.928191 0.652794
v -0.585142 0.699687 1.081566
v -0.191803 1.045521 1.180295
v -0.364641 1.274023 0.751523
v -0.545790 1.330912 1.316227
v -0.885761 0.995058 1.199842
v -0.797966 1.278653 1.081277
v -0.633583 1.047316 1.434791
v -0.353416 0.809300 0.287609
v 0.098874 0.903030 0.709003
v -0.115692 0.546680 1.077523
v -0.567984 0.452950 0.656128
v 0.159946 0.169219 0.587482
v 0.117139 0.666915 0.236758
v -0.164252 0.464889 0.408853
v 0.441338 0.371245 0.415389
v 0.160595 0.330517 1.687643
v 0.288986 0.874614 1.731634
v -0.078004 0.649390 1.706370
v 0.527586 0.555743 1.712905
v 0.165976 0.966651 0.753809
v 0.102285 0.191362 0.982075
v 0.584801 0.509318 0.872805
v -0.316541 0.648697 0.863079
v -0.109316 0.231540 0.766402
v 0.141748 0.423753 0.282643
v -0.193660 0.284152 0.328984
v 0.226092 0.371139 0.720061
v -0.738338 0.905960 1.274289
v -0.591143 1.375173 1.074034
v -0.874619 1.097073 0.978623
v -0.454865 1.184059 1.369699
v -0.085658 0.923647 0.426732
v -0.382038 0.431423 0.935766
v 0.078526 0.742269 0.972284
v -0.546223 0.612800 0.390215
vt 0.847861 0.268293
vt 0.994000 0.217581
vt 0.998264 0.285852
vt 0.171021 0.216551
vt 0.060324 0.140333
vt 0.177920 0.136913
vt 0.416766 0.158270
vt 0.556340 0.082005
vt 0.548279 0.163069
vt 0.646505 0.198096
vt 0.656420 0.114825
vt 0.757035 0.155327
vt 0.878613 0.189487
vt 0.734253 0.229526
vt 0.282574 0.111588
vt 0.417270 0.080368
vt 0.285407 0.184304
vt 0.747683 0.530567
vt 0.741672 0.743041
vt 0.655876 0.701545
vt 0.215294 0.527986
vt 0.179676 0.726854
vt 0.068955 0.577156
vt 0.463876 0.918776
vt 0.300119 0.699351
vt 0.410697 0.480189
vt 0.483427 0.582795
vt 0.417299 0.630507
vt 0.578140 0.472600
vt 0.494923 0.468150
vt 0.543765 0.624321
vt 0.620408 0.609355
vt 0.657544 0.485650
vt 0.352038 0.619752
vt 0.326710 0.494212
vt 0.516718 0.313527
vt 0.407892 0.316501
vt 0.613297 0.325503
vt 0.959223 0.431882
vt 0.807675 0.384289
vt 0.020610 0.208855
vt 0.172610 0.349610
vt 0.004531 0.374367
vt 0.860878 0.609503
vt 0.296701 0.329932
vt 0.701915 0.347892
vt 0.848844 0.284013
vt 0.996878 0.242015
vt 0.997117 0.310206
vt 0.179727 0.223090
vt 0.067314 0.148586
vt 0.185412 0.143141
vt 0.424699 0.162683
vt 0.565172 0.087510
vt 0.555657 0.168707
vt 0.652370 0.205882
vt 0.664652 0.123061
vt 0.764026 0.166987
vt 0.883667 0.207373
vt 0.738165 0.240084
vt 0.290135 0.116195
vt 0.425499 0.084677
vt 0.293645 0.189174
vt 0.735864 0.533357
vt 0.702834 0.736979
vt 0.630574 0.680032
vt 0.231477 0.532360
vt 0.202564 0.732829
vt 0.086548 0.586167
vt 0.462521 0.853094
vt 0.325222 0.702972
vt 0.420568 0.478003
vt 0.492168 0.569038
vt 0.435835 0.620822
vt 0.578533 0.469199
vt 0.500621 0.464748
vt 0.546199 0.602921
vt 0.612840 0.592309
vt 0.652754 0.484302
vt 0.372290 0.617013
vt 0.340345 0.494775
vt 0.522312 0.316562
vt 0.415913 0.319320
vt 0.616105 0.330022
vt 0.949253 0.453079
vt 0.803115 0.396079
vt 0.028637 0.218151
vt 0.183829 0.356011
vt 0.016135 0.384825
vt 0.837825 0.621375
vt 0.306659 0.333960
vt 0.701573 0.354962
vn -0.6200 -0.7561 -0.2093
vn -0.0911 -0.8820 -0.4623
vn -0.1295 -0.9897 -0.0603
vn 0.5324 -0.8317 -0.1576
vn 0.2410 -0.7851 -0.5705
vn 0.6771 0.4117 -0.6099
vn 0.0759 0.4102 -0.9088
vn 0.0868 0.7629 -0.6407
vn -0.6265 0.4719 -0.6203
vn -0.4910 -0.0127 -0.8711
vn -0.6303 -0.3824 -0.6756
vn -0.3516 -0.7395 -0.5740
vn -0.9124 -0.1661 -0.3741
vn 0.6870 -0.3035 -0.6602
vn 0.5237 0.0754 -0.8485
vn 0.9103 -0.1998 -0.3625
vn -0.7841 -0.5584 0.2707
vn -0.1740 -0.9808 0.0877
vn -0.7606 -0.5926 0.2651
vn 0.5522 -0.8189 0.1561
vn -0.1745 -0.9631 0.2050
vn 0.0682 -0.3551 0.9323
vn 0.5463 -0.8365 0.0417
vn 0.7779 0.6233 0.0798
vn 0.1508 0.8653 0.4781
vn 0.7468 0.4991 0.4394
vn -0.5145 0.8287 0.2204
vn 0.1480 0.9834 0.1047
vn -0.4501 0.6814 0.5771
vn -0.8571 0.1903 0.4786
vn -0.9371 0.2147 0.2752
vn 0.9672 -0.1669 0.1915
vn 0.9887 -0.1205 0.0886
vn 0.1375 0.9601 -0.2433
vn 0.7486 0.6219 -0.2298
vn -0.5800 0.8028 -0.1381
vn -0.1592 -0.9548 0.2508
vn -0.7685 -0.6199 0.1587
vn 0.5923 -0.7826 0.1916
vn 0.9951 -0.0866 -0.0474
vn -0.9930 0.1153 0.0240
vn -0.4600 -0.8865 -0.0500
vn 0.0825 -0.9787 0.1881
vn -0.2158 -0.8629 0.4570
vn 0.3750 -0.6083 0.6995
vn 0.4189 -0.8682 0.2658
vn 0.9635 0.1913 -0.1870
vn 0.6921 -0.1306 -0.7098
vn 0.5874 0.2978 -0.7525
vn -0.0152 -0.1182 -0.9929
vn 0.1697 -0.6040 -0.7786
vn -0.1169 -0.8356 -0.5368
vn -0.0239 -0.9936 -0.1103
vn -0.4875 -0.5783 -0.6541
vn 0.8908 -0.4078 0.2002
vn 0.9436 -0.2469 -0.2205
vn 0.8907 -0.1065 0.4420
vn -0.8554 -0.5177 0.0144
vn -0.3541 -0.7842 0.5095
vn -0.9080 -0.4037 0.1121
vn 0.1953 -0.4266 0.8831
vn -0.4123 -0.7132 0.5669
vn -0.4393 0.1534 0.8851
vn 0.3085 -0.5633 0.7665
vn 0.6409 0.7538 0.1449
vn -0.0794 0.9917 -0.1009
vn 0.3026 0.8658 0.3984
vn -0.4012 0.6440 -0.6514
vn 0.2011 0.8863 -0.4172
vn -0.6595 0.7265 -0.1930
vn -0.9388 0.1965 -0.2828
vn -0.8540 0.0650 -0.5161
vn 0.6113 0.2266 0.7582
vn 0.6800 0.2173 0.7003
vn 0.4077 0.6805 -0.6088
vn 0.8126 0.5809 -0.0484
vn -0.2304 0.4156 -0.8798
vn -0.4281 -0.6782 0.5973
vn -0.7828 -0.6222 -0.0051
vn 0.2093 -0.3677 0.9060
vn 0.7754 0.1743 0.6069
vn -0.7547 -0.1630 -0.6355
usemtl None
s 1
f 1/1/1 59/2/2 20/3/3
f 2/4/4 59/5/2 26/6/5
f 4/7/6 60/8/7 22/9/8
f 3/10/9 60/8/7 25/11/10
f 1/1/1 61/12/11 24/13/12
f 3/10/9 61/12/11 19/14/13
f 4/7/6 62/15/14 23/16/15
f 2/4/4 62/15/14 21/17/16
f 5/18/17 63/19/18 32/20/19
f 6/21/20 63/22/18 28/23/21
f 9/24/22 63/22/18 34/25/23
f 8/26/24 64/27/25 31/28/26
f 7/29/27 64/27/25 30/30/28
f 9/24/22 64/27/25 33/31/29
f 9/24/22 65/32/30 32/20/19
f 7/29/27 65/32/30 33/31/29
f 5/18/17 65/32/30 27/33/31
f 9/24/22 66/34/32 31/28/26
f 6/21/20 66/34/32 34/25/23
f 8/26/24 66/34/32 29/35/33
f 4/7/6 67/36/34 36/37/35
f 22/9/8 35/38/36 67/36/34
f 67/36/34 7/29/27 30/30/28
f 36/37/35 30/30/28 8/26/24
f 1/1/1 68/39/37 38/40/38
f 20/41/3 37/42/39 68/43/37
f 68/43/37 6/21/20 28/23/21
f 38/40/38 28/44/21 5/18/17
f 2/4/4 69/45/40 37/42/39
f 21/17/16 36/37/35 69/45/40
f 69/45/40 8/26/24 29/35/33
f 37/42/39 29/35/33 6/21/20
f 3/10/9 70/46/41 35/38/36
f 19/14/13 38/40/38 70/46/41
f 70/46/41 5/18/17 27/33/31
f 35/38/36 27/33/31 7/29/27
f 10/47/42 71/48/43 40/49/44
f 11/50/45 71/51/43 46/52/46
f 13/53/47 72/54/48 42/55/49
f 12/56/50 72/54/48 45/57/51
f 10/47/42 73/58/52 44/59/53
f 12/56/50 73/58/52 39/60/54
f 13/53/47 74/61/55 43/62/56
f 11/50/45 74/61/55 41/63/57
f 14/64/58 75/65/59 52/66/60
f 15/67/61 75/68/59 48/69/62
f 18/70/63 75/68/59 54/71/64
f 17/72/65 76/73/66 51/74/67
f 16/75/68 76/73/66 50/76/69
f 18/70/63 76/73/66 53/77/70
f 18/70/63 77/78/71 52/66/60
f 16/75/68 77/78/71 53/77/70
f 14/64/58 77/78/71 47/79/72
f 18/70/63 78/80/73 51/74/67
f 15/67/61 78/80/73 54/71/64
f 17/72/65 78/80/73 49/81/74
f 13/53/47 79/82/75 56/83/76
f 42/55/49 55/84/77 79/82/75
f 79/82/75 16/75/68 50/76/69
f 56/83/76 50/76/69 17/72/65
f 10/47/42 80/85/78 58/86/79
f 40/87/44 57/88/80 80/89/78
f 80/89/78 15/67/61 48/69/62
f 58/86/79 48/90/62 14/64/58
f 11/50/45 81/91/81 57/88/80
f 41/63/57 56/83/76 81/91/81
f 81/91/81 17/72/65 49/81/74
f 57/88/80 49/81/74 15/67/61
f 12/56/50 82/92/82 55/84/77
f 39/60/54 58/86/79 82/92/82
f 82/92/82 14/64/58 47/79/72
f 55/84/77 47/79/72 16/75/68
f 1/1/1 24/13/12 59/2/2
f 2/4/4 20/41/3 59/5/2
f 4/7/6 23/16/15 60/8/7
f 3/10/9 22/9/8 60/8/7
f 1/1/1 19/14/13 61/12/11
f 3/10/9 25/11/10 61/12/11
f 4/7/6 21/17/16 62/15/14
f 2/4/4 26/6/5 62/15/14
f 5/18/17 28/44/21 63/19/18
f 6/21/20 34/25/23 63/22/18
f 9/24/22 32/20/19 63/19/18
f 8/26/24 30/30/28 64/27/25
f 7/29/27 33/31/29 64/27/25
f 9/24/22 31/28/26 64/27/25
f 9/24/22 33/31/29 65/32/30
f 7/29/27 27/33/31 65/32/30
f 5/18/17 32/20/19 65/32/30
f 9/24/22 34/25/23 66/34/32
f 6/21/20 29/35/33 66/34/32
f 8/26/24 31/28/26 66/34/32
f 4/7/6 22/9/8 67/36/34
f 22/9/8 3/10/9 35/38/36
f 67/36/34 35/38/36 7/29/27
f 36/37/35 67/36/34 30/30/28
f 1/1/1 20/3/3 68/39/37
f 20/41/3 2/4/4 37/42/39
f 68/43/37 37/42/39 6/21/20
f 38/40/38 68/39/37 28/44/21
f 2/4/4 21/17/16 69/45/40
f 21/17/16 4/7/6 36/37/35
f 69/45/40 36/37/35 8/26/24
f 37/42/39 69/45/40 29/35/33
f 3/10/9 19/14/13 70/46/41
f 19/14/13 1/1/1 38/40/38
f 70/46/41 38/40/38 5/18/17
f 35/38/36 70/46/41 27/33/31
f 10/47/42 44/59/53 71/48/43
f 11/50/45 40/87/44 71/51/43
f 13/53/47 43/62/56 72/54/48
f 12/56/50 42/55/49 72/54/48
f 10/47/42 39/60/54 73/58/52
f 12/56/50 45/57/51 73/58/52
f 13/53/47 41/63/57 74/61/55
f 11/50/45 46/52/46 74/61/55
f 14/64/58 48/90/62 75/65/59
f 15/67/61 54/71/64 75/68/59
f 18/70/63 52/66/60 75/65/59
f 17/72/65 50/76/69 76/73/66
f 16/75/68 53/77/70 76/73/66
f 18/70/63 51/74/67 76/73/66
f 18/70/63 53/77/70 77/78/71
f 16/75/68 47/79/72 77/78/71
f 14/64/58 52/66/60 77/78/71
f 18/70/63 54/71/64 78/80/73
f 15/67/61 49/81/74 78/80/73
f 17/72/65 51/74/67 78/80/73
f 13/53/47 42/55/49 79/82/75
f 42/55/49 12/56/50 55/84/77
f 79/82/75 55/84/77 16/75/68
f 56/83/76 79/82/75 50/76/69
f 10/47/42 40/49/44 80/85/78
f 40/87/44 11/50/45 57/88/80
f 80/89/78 57/88/80 15/67/61
f 58/86/79 80/85/78 48/90/62
f 11/50/45 41/63/57 81/91/81
f 41/63/57 13/53/47 56/83/76
f 81/91/81 56/83/76 17/72/65
f 57/88/80 81/91/81 49/81/74
f 12/56/50 39/60/54 82/92/82
f 39/60/54 10/47/42 58/86/79
f 82/92/82 58/86/79 14/64/58
f 55/84/77 82/92/82 47/79/72
