# Blender v2.82 (sub 7) OBJ File: 'head.blend'
# www.blender.org
mtllib whiskers.mtl
o whiskers_Sphere.003
v 0.311868 -0.148480 0.742901
v 0.313248 -0.151386 0.746076
v 0.311263 -0.150244 0.749973
v 0.308657 -0.146631 0.749207
v 0.309031 -0.145541 0.744836
v 0.495646 0.014868 0.884538
v 0.495272 0.013778 0.888909
v 0.497878 0.010165 0.889676
v 0.499864 0.009023 0.885779
v 0.498484 0.011929 0.882604
v 0.651343 0.109120 0.930411
v 0.650841 0.108050 0.934774
v 0.653235 0.104301 0.935577
v 0.655216 0.103053 0.931710
v 0.654046 0.106031 0.928517
v 0.326216 -0.176658 0.754986
v 0.326476 -0.179799 0.758220
v 0.324721 -0.178061 0.761970
v 0.323376 -0.173847 0.761053
v 0.324300 -0.172979 0.756736
v 0.504934 -0.081284 0.911154
v 0.504010 -0.082151 0.915470
v 0.505355 -0.086366 0.916387
v 0.507110 -0.088104 0.912638
v 0.506850 -0.084963 0.909403
v 0.652984 -0.042444 0.969158
v 0.651957 -0.043251 0.973458
v 0.653089 -0.047525 0.974394
v 0.654816 -0.049360 0.970674
v 0.654750 -0.046219 0.967437
v 0.316892 -0.223123 0.750586
v 0.316195 -0.226223 0.753830
v 0.314861 -0.224080 0.757608
v 0.314733 -0.219656 0.756698
v 0.315988 -0.219064 0.752359
v 0.538557 -0.173956 0.945465
v 0.537301 -0.174547 0.949804
v 0.537429 -0.178971 0.950714
v 0.538764 -0.181114 0.946936
v 0.539461 -0.178015 0.943692
v 0.709544 -0.172625 1.029788
v 0.708197 -0.173133 1.034099
v 0.708078 -0.177562 1.034994
v 0.709351 -0.179792 1.031237
v 0.710257 -0.176741 1.028019
v -0.313593 -0.148480 0.742901
v -0.314972 -0.151386 0.746076
v -0.312987 -0.150244 0.749973
v -0.310381 -0.146631 0.749207
v -0.310755 -0.145541 0.744836
v -0.497370 0.014868 0.884538
v -0.496996 0.013778 0.888909
v -0.499603 0.010165 0.889676
v -0.501588 0.009023 0.885779
v -0.500208 0.011929 0.882604
v -0.653067 0.109120 0.930411
v -0.652565 0.108050 0.934774
v -0.654959 0.104301 0.935577
v -0.656940 0.103053 0.931710
v -0.655770 0.106031 0.928517
v -0.327941 -0.176658 0.754986
v -0.328200 -0.179799 0.758220
v -0.326445 -0.178061 0.761970
v -0.325100 -0.173847 0.761053
v -0.326025 -0.172979 0.756736
v -0.506658 -0.081284 0.911154
v -0.505734 -0.082151 0.915470
v -0.507079 -0.086366 0.916387
v -0.508834 -0.088104 0.912638
v -0.508574 -0.084963 0.909403
v -0.654708 -0.042444 0.969158
v -0.653681 -0.043251 0.973458
v -0.654813 -0.047525 0.974394
v -0.656540 -0.049360 0.970674
v -0.656474 -0.046219 0.967437
v -0.318617 -0.223123 0.750586
v -0.317920 -0.226223 0.753830
v -0.316585 -0.224080 0.757608
v -0.316457 -0.219656 0.756698
v -0.317713 -0.219064 0.752359
v -0.540281 -0.173956 0.945465
v -0.539025 -0.174547 0.949804
v -0.539153 -0.178971 0.950714
v -0.540488 -0.181114 0.946936
v -0.541185 -0.178015 0.943692
v -0.711268 -0.172625 1.029788
v -0.709921 -0.173133 1.034099
v -0.709802 -0.177562 1.034994
v -0.711075 -0.179792 1.031237
v -0.711981 -0.176741 1.028019
vt 0.982304 0.082142
vt 0.989063 0.074881
vt 1.000000 0.077679
vt 1.000000 0.086670
vt 0.989063 0.089429
vt 0.183156 0.001851
vt 0.194329 0.000000
vt 0.107021 0.566584
vt 0.095847 0.568436
vt 0.925003 0.000000
vt 0.936330 0.000514
vt 0.919403 0.582210
vt 0.908076 0.581697
vt 0.623684 0.954354
vt 0.612421 0.953491
vt 0.549973 0.370440
vt 0.561236 0.371303
vt 0.390924 0.381290
vt 0.379747 0.379230
vt 0.456089 0.000000
vt 0.467338 0.001841
vt 0.854847 0.001528
vt 0.866135 0.000000
vt 0.833258 0.573111
vt 0.821971 0.574639
vt 0.467338 0.936503
vt 0.456161 0.934443
vt 0.999768 0.072392
vt 0.988974 0.074881
vt 0.982304 0.067301
vt 0.988974 0.060128
vt 0.999768 0.063274
vt 0.612400 0.000000
vt 0.623684 0.001162
vt 0.866135 0.959490
vt 0.854753 0.960609
vt 0.194329 0.933668
vt 0.183134 0.935567
vt 0.936329 0.963911
vt 0.924934 0.963848
vt 0.989063 0.015065
vt 1.000000 0.017933
vt 1.000000 0.027236
vt 0.989063 0.030118
vt 0.982304 0.022596
vt 0.368661 0.002246
vt 0.379747 0.000000
vt 0.293572 0.523057
vt 0.282486 0.525303
vt 0.896593 0.000000
vt 0.908076 0.000435
vt 0.877618 0.518062
vt 0.866135 0.517627
vt 0.549973 0.854849
vt 0.538601 0.853735
vt 0.467338 0.333333
vt 0.478710 0.334447
vt 0.703070 0.335038
vt 0.692047 0.332528
vt 0.758899 0.000000
vt 0.769954 0.002358
vt 0.954869 0.001822
vt 0.966135 0.000000
vt 0.947595 0.522776
vt 0.936330 0.524598
vt 0.769954 0.856943
vt 0.758932 0.854434
vt 0.989059 0.015065
vt 0.982304 0.007512
vt 0.989059 0.000000
vt 0.999990 0.002911
vt 0.999990 0.012221
vt 0.538631 0.000000
vt 0.549973 0.001405
vt 0.966135 0.854520
vt 0.954826 0.856022
vt 0.379747 0.854094
vt 0.368680 0.856424
vt 0.908076 0.852870
vt 0.896579 0.852822
vt 0.988870 0.030118
vt 0.999494 0.033343
vt 0.999494 0.042689
vt 0.988870 0.045240
vt 0.982304 0.037470
vt 0.084877 0.002904
vt 0.095847 0.000000
vt 0.010970 0.598706
vt 0.000000 0.601610
vt 0.810574 0.000000
vt 0.821970 0.000295
vt 0.781350 0.604566
vt 0.769954 0.604270
vt 0.282486 0.982273
vt 0.271199 0.980677
vt 0.194329 0.386976
vt 0.205616 0.388572
vt 0.634566 0.376070
vt 0.623684 0.372940
vt 0.681170 0.000000
vt 0.692047 0.002998
vt 0.971224 0.002205
vt 0.982304 0.000000
vt 0.977214 0.617436
vt 0.966135 0.619641
vt 0.692047 0.989254
vt 0.681165 0.986123
vt 0.999753 0.057673
vt 0.988969 0.060128
vt 0.982304 0.052443
vt 0.988969 0.045240
vt 0.999753 0.048472
vt 0.271268 0.000000
vt 0.282486 0.001968
vt 0.982304 0.998145
vt 0.971228 1.000000
vt 0.095847 0.972383
vt 0.084932 0.975428
vt 0.821971 0.996904
vt 0.810605 0.997068
vt 0.982304 0.082142
vt 0.989063 0.089429
vt 1.000000 0.086670
vt 1.000000 0.077679
vt 0.989063 0.074881
vt 0.183156 0.001851
vt 0.095847 0.568436
vt 0.107021 0.566584
vt 0.194329 0.000000
vt 0.925003 0.000000
vt 0.908076 0.581697
vt 0.919403 0.582210
vt 0.936330 0.000514
vt 0.623684 0.954354
vt 0.561236 0.371303
vt 0.549973 0.370440
vt 0.612421 0.953491
vt 0.390924 0.381290
vt 0.467338 0.001841
vt 0.456089 0.000000
vt 0.379747 0.379230
vt 0.854847 0.001528
vt 0.821971 0.574639
vt 0.833258 0.573111
vt 0.866135 0.000000
vt 0.467338 0.936503
vt 0.456161 0.934443
vt 0.999768 0.072392
vt 0.999768 0.063274
vt 0.988974 0.060128
vt 0.982304 0.067301
vt 0.988974 0.074881
vt 0.623684 0.001162
vt 0.612400 0.000000
vt 0.854753 0.960609
vt 0.866135 0.959490
vt 0.183134 0.935567
vt 0.194329 0.933668
vt 0.924934 0.963848
vt 0.936329 0.963911
vt 0.989063 0.015065
vt 0.982304 0.022596
vt 0.989063 0.030118
vt 1.000000 0.027236
vt 1.000000 0.017933
vt 0.368661 0.002246
vt 0.282486 0.525303
vt 0.293572 0.523057
vt 0.379747 0.000000
vt 0.896593 0.000000
vt 0.866135 0.517627
vt 0.877618 0.518062
vt 0.908076 0.000435
vt 0.549973 0.854849
vt 0.478710 0.334447
vt 0.467338 0.333333
vt 0.538601 0.853735
vt 0.703070 0.335038
vt 0.769954 0.002358
vt 0.758899 0.000000
vt 0.692047 0.332528
vt 0.954869 0.001822
vt 0.936330 0.524598
vt 0.947595 0.522776
vt 0.966135 0.000000
vt 0.769954 0.856943
vt 0.758932 0.854434
vt 0.989059 0.015065
vt 0.999990 0.012221
vt 0.999990 0.002911
vt 0.989059 0.000000
vt 0.982304 0.007512
vt 0.549973 0.001405
vt 0.538631 0.000000
vt 0.954826 0.856022
vt 0.966135 0.854520
vt 0.368680 0.856424
vt 0.379747 0.854094
vt 0.896579 0.852822
vt 0.908076 0.852870
vt 0.988870 0.030118
vt 0.982304 0.037470
vt 0.988870 0.045240
vt 0.999494 0.042689
vt 0.999494 0.033343
vt 0.084877 0.002904
vt 0.000000 0.601610
vt 0.010970 0.598706
vt 0.095847 0.000000
vt 0.810574 0.000000
vt 0.769954 0.604270
vt 0.781350 0.604566
vt 0.821970 0.000295
vt 0.282486 0.982273
vt 0.205616 0.388572
vt 0.194329 0.386976
vt 0.271199 0.980677
vt 0.634566 0.376070
vt 0.692047 0.002998
vt 0.681170 0.000000
vt 0.623684 0.372940
vt 0.971224 0.002205
vt 0.966135 0.619641
vt 0.977214 0.617436
vt 0.982304 0.000000
vt 0.692047 0.989254
vt 0.681165 0.986123
vt 0.999753 0.057673
vt 0.999753 0.048472
vt 0.988969 0.045240
vt 0.982304 0.052443
vt 0.988969 0.060128
vt 0.282486 0.001968
vt 0.271268 0.000000
vt 0.971228 1.000000
vt 0.982304 0.998145
vt 0.084932 0.975428
vt 0.095847 0.972383
vt 0.810605 0.997068
vt 0.821971 0.996904
vn -0.1320 -0.2924 -0.9471
vn 0.1084 -0.9430 -0.3146
vn -0.4086 -0.7835 0.4682
vn -0.9506 -0.0229 0.3094
vn -0.7691 0.2851 -0.5719
vn 0.6048 -0.7910 -0.0923
vn -0.0401 -0.5235 0.8511
vn -0.6247 0.4173 0.6600
vn -0.4133 0.8246 -0.3862
vn 0.3910 0.1050 -0.9144
vn 0.0590 0.7231 0.6882
vn 0.1674 0.9609 -0.2203
vn 0.7144 0.3072 -0.6287
vn 0.5392 -0.0768 0.8387
vn 0.9427 -0.3324 0.0263
vn -0.1205 -0.2472 -0.9614
vn -0.1297 -0.9355 -0.3287
vn -0.6605 -0.6302 0.4080
vn -0.9435 0.2504 0.2168
vn -0.5886 0.4962 -0.6382
vn 0.3611 -0.9313 -0.0472
vn -0.3009 -0.4890 0.8187
vn -0.5617 0.5722 0.5976
vn -0.1203 0.9097 -0.3974
vn 0.5257 0.0003 -0.8507
vn 0.2090 0.6777 0.7049
vn 0.4590 0.8683 -0.1881
vn 0.8240 0.0794 -0.5610
vn 0.4202 -0.2238 0.8794
vn 0.7973 -0.5953 0.0995
vn -0.1456 -0.2011 -0.9687
vn -0.3639 -0.8647 -0.3461
vn -0.8212 -0.4313 0.3737
vn -0.8479 0.4967 0.1853
vn -0.4070 0.6409 -0.6509
vn 0.1158 -0.9921 -0.0480
vn -0.4756 -0.4028 0.7819
vn -0.4364 0.6984 0.5672
vn 0.1523 0.9073 -0.3919
vn 0.5700 -0.1369 -0.8101
vn 0.3363 0.5966 0.7286
vn 0.6800 0.7190 -0.1436
vn 0.8480 -0.1371 -0.5119
vn 0.2943 -0.3299 0.8969
vn 0.6045 -0.7850 0.1349
vn 0.1320 -0.2924 -0.9471
vn 0.7691 0.2851 -0.5719
vn 0.9506 -0.0229 0.3094
vn 0.4085 -0.7835 0.4682
vn -0.1084 -0.9430 -0.3146
vn 0.0401 -0.5235 0.8511
vn -0.6048 -0.7910 -0.0923
vn 0.6247 0.4173 0.6600
vn -0.3910 0.1050 -0.9144
vn 0.4133 0.8246 -0.3862
vn -0.1674 0.9609 -0.2203
vn -0.0590 0.7231 0.6882
vn -0.7144 0.3072 -0.6287
vn -0.9427 -0.3324 0.0263
vn -0.5392 -0.0768 0.8387
vn 0.1205 -0.2472 -0.9614
vn 0.5886 0.4962 -0.6382
vn 0.9435 0.2504 0.2168
vn 0.6606 -0.6302 0.4080
vn 0.1297 -0.9355 -0.3287
vn 0.3009 -0.4890 0.8187
vn -0.3611 -0.9313 -0.0472
vn 0.5617 0.5722 0.5976
vn -0.5257 0.0003 -0.8507
vn 0.1203 0.9097 -0.3974
vn -0.4590 0.8683 -0.1881
vn -0.2090 0.6777 0.7049
vn -0.8240 0.0794 -0.5610
vn -0.7973 -0.5953 0.0995
vn -0.4202 -0.2237 0.8794
vn 0.1456 -0.2011 -0.9687
vn 0.4070 0.6409 -0.6509
vn 0.8479 0.4967 0.1853
vn 0.8212 -0.4313 0.3737
vn 0.3639 -0.8647 -0.3461
vn 0.4756 -0.4028 0.7819
vn -0.1158 -0.9921 -0.0480
vn 0.4364 0.6984 0.5672
vn -0.5700 -0.1369 -0.8101
vn -0.1523 0.9073 -0.3919
vn -0.6800 0.7190 -0.1436
vn -0.3363 0.5966 0.7286
vn -0.8480 -0.1371 -0.5119
vn -0.6045 -0.7850 0.1349
vn -0.2943 -0.3299 0.8969
usemtl None
s 1
f 1/1/1 2/2/2 3/3/3 4/4/4 5/5/5
f 3/6/3 2/7/2 9/8/6 8/9/7
f 4/10/4 3/11/3 8/12/7 7/13/8
f 1/14/1 5/15/5 6/16/9 10/17/10
f 6/18/9 7/19/8 12/20/11 11/21/12
f 2/22/2 1/23/1 10/24/10 9/25/6
f 5/26/5 4/27/4 7/19/8 6/18/9
f 15/28/13 11/29/12 12/30/11 13/31/14 14/32/15
f 10/17/10 6/16/9 11/33/12 15/34/13
f 9/25/6 10/24/10 15/35/13 14/36/15
f 8/9/7 9/8/6 14/37/15 13/38/14
f 7/13/8 8/12/7 13/39/14 12/40/11
f 16/41/16 17/42/17 18/43/18 19/44/19 20/45/20
f 18/46/18 17/47/17 24/48/21 23/49/22
f 19/50/19 18/51/18 23/52/22 22/53/23
f 16/54/16 20/55/20 21/56/24 25/57/25
f 21/58/24 22/59/23 27/60/26 26/61/27
f 17/62/17 16/63/16 25/64/25 24/65/21
f 20/66/20 19/67/19 22/59/23 21/58/24
f 30/68/28 26/69/27 27/70/26 28/71/29 29/72/30
f 25/57/25 21/56/24 26/73/27 30/74/28
f 24/65/21 25/64/25 30/75/28 29/76/30
f 23/49/22 24/48/21 29/77/30 28/78/29
f 22/53/23 23/52/22 28/79/29 27/80/26
f 31/81/31 32/82/32 33/83/33 34/84/34 35/85/35
f 33/86/33 32/87/32 39/88/36 38/89/37
f 34/90/34 33/91/33 38/92/37 37/93/38
f 31/94/31 35/95/35 36/96/39 40/97/40
f 36/98/39 37/99/38 42/100/41 41/101/42
f 32/102/32 31/103/31 40/104/40 39/105/36
f 35/106/35 34/107/34 37/99/38 36/98/39
f 45/108/43 41/109/42 42/110/41 43/111/44 44/112/45
f 40/97/40 36/96/39 41/113/42 45/114/43
f 39/105/36 40/104/40 45/115/43 44/116/45
f 38/89/37 39/88/36 44/117/45 43/118/44
f 37/93/38 38/92/37 43/119/44 42/120/41
f 46/121/46 50/122/47 49/123/48 48/124/49 47/125/50
f 48/126/49 53/127/51 54/128/52 47/129/50
f 49/130/48 52/131/53 53/132/51 48/133/49
f 46/134/46 55/135/54 51/136/55 50/137/47
f 51/138/55 56/139/56 57/140/57 52/141/53
f 47/142/50 54/143/52 55/144/54 46/145/46
f 50/146/47 51/138/55 52/141/53 49/147/48
f 60/148/58 59/149/59 58/150/60 57/151/57 56/152/56
f 55/135/54 60/153/58 56/154/56 51/136/55
f 54/143/52 59/155/59 60/156/58 55/144/54
f 53/127/51 58/157/60 59/158/59 54/128/52
f 52/131/53 57/159/57 58/160/60 53/132/51
f 61/161/61 65/162/62 64/163/63 63/164/64 62/165/65
f 63/166/64 68/167/66 69/168/67 62/169/65
f 64/170/63 67/171/68 68/172/66 63/173/64
f 61/174/61 70/175/69 66/176/70 65/177/62
f 66/178/70 71/179/71 72/180/72 67/181/68
f 62/182/65 69/183/67 70/184/69 61/185/61
f 65/186/62 66/178/70 67/181/68 64/187/63
f 75/188/73 74/189/74 73/190/75 72/191/72 71/192/71
f 70/175/69 75/193/73 71/194/71 66/176/70
f 69/183/67 74/195/74 75/196/73 70/184/69
f 68/167/66 73/197/75 74/198/74 69/168/67
f 67/171/68 72/199/72 73/200/75 68/172/66
f 76/201/76 80/202/77 79/203/78 78/204/79 77/205/80
f 78/206/79 83/207/81 84/208/82 77/209/80
f 79/210/78 82/211/83 83/212/81 78/213/79
f 76/214/76 85/215/84 81/216/85 80/217/77
f 81/218/85 86/219/86 87/220/87 82/221/83
f 77/222/80 84/223/82 85/224/84 76/225/76
f 80/226/77 81/218/85 82/221/83 79/227/78
f 90/228/88 89/229/89 88/230/90 87/231/87 86/232/86
f 85/215/84 90/233/88 86/234/86 81/216/85
f 84/223/82 89/235/89 90/236/88 85/224/84
f 83/207/81 88/237/90 89/238/89 84/208/82
f 82/211/83 87/239/87 88/240/90 83/212/81
