# Blender v2.80 (sub 75) OBJ File: ''
# www.blender.org
mtllib bow.mtl
o bow_Plane.001
v 0.197419 0.551359 -0.239162
v 0.206143 0.009672 -0.223370
v 1.601969 -1.039405 -0.278031
v 0.866789 -2.115414 -0.278031
v -0.846415 -2.115414 -0.270517
v -1.630423 -1.039405 -0.270517
v -0.238627 0.009672 -0.223370
v -0.228529 0.551359 -0.239162
v -0.592175 -1.273802 -0.357003
v -1.171296 -0.197654 -0.360757
v 0.606334 -1.273802 -0.357003
v 1.150854 -0.197654 -0.360757
v 0.748189 0.947846 0.122299
v 0.502774 0.826935 0.100236
v 0.160028 0.465987 0.056898
v 1.121249 0.696348 0.164994
v 0.982455 0.912395 0.147599
v 0.706091 0.273971 0.089056
v 0.706091 0.273971 0.089056
v 0.831168 0.716397 0.051479
v 0.424891 0.442034 0.004395
v 0.102326 0.201870 0.063611
v 0.908674 0.192183 0.151075
v 1.072442 0.382978 0.164139
v 1.121249 0.696348 0.164994
v 0.982455 0.912395 0.147599
v 0.382362 -0.046833 0.097991
v 0.671231 0.055538 0.129074
v 0.748189 0.947846 0.122299
v 0.502774 0.826935 0.100236
v 0.829627 0.146703 0.143104
v 0.160028 0.465987 0.056898
v 2.797224 0.304870 -0.088979
v 2.498181 1.922594 -0.094629
v 2.721173 1.182525 0.001176
v 1.351678 -0.074510 0.190593
v 2.442558 1.936361 0.039660
v 2.648700 1.178267 0.126074
v 2.673449 0.286430 0.071106
v 2.443326 0.257607 0.242225
v 1.869456 0.105086 0.259172
v 1.808309 1.936791 0.197879
v 1.304394 1.818336 0.162251
v 0.781633 1.505238 0.109735
v 0.424401 0.994610 0.050454
v 0.770155 -0.141911 0.137440
v 0.065983 -0.058670 0.067239
v 1.356577 -0.164011 -0.328631
v 2.442105 1.936426 -0.228772
v 2.690918 1.151498 -0.156057
v 2.754238 0.247532 -0.249210
v 2.458600 0.070989 -0.403863
v 1.873809 -0.039743 -0.420026
v 1.830813 1.864087 -0.348795
v 1.327183 1.745592 -0.290860
v 0.803643 1.420116 -0.215233
v 0.425301 0.994503 -0.136229
v 0.837870 -0.176253 -0.252156
v 0.066663 -0.058767 -0.158599
v -0.066663 -0.058767 -0.158599
v -0.837870 -0.176253 -0.252156
v -0.425301 0.994503 -0.136229
v -0.803643 1.420116 -0.215233
v -1.327183 1.745592 -0.290860
v -1.830813 1.864087 -0.348795
v -1.873809 -0.039743 -0.420026
v -2.458600 0.070989 -0.403863
v -2.754238 0.247532 -0.249210
v -2.690918 1.151498 -0.156057
v -2.442105 1.936426 -0.228772
v -1.356577 -0.164011 -0.328631
v -0.065983 -0.058670 0.067239
v -0.770155 -0.141911 0.137440
v -0.424401 0.994610 0.050454
v -0.781633 1.505238 0.109735
v -1.304394 1.818336 0.162251
v -1.808309 1.936791 0.197879
v -1.869456 0.105086 0.259172
v -2.443326 0.257607 0.242225
v -2.673449 0.286430 0.071106
v -2.648700 1.178267 0.126074
v -2.442558 1.936361 0.039660
v -1.351678 -0.074510 0.190593
v -2.721173 1.182525 0.001176
v -2.498181 1.922594 -0.094629
v -2.797224 0.304870 -0.088979
v -0.160028 0.465987 0.056898
v -0.829627 0.146703 0.143104
v -0.502774 0.826935 0.100236
v -0.748189 0.947846 0.122299
v -0.671231 0.055538 0.129074
v -0.382362 -0.046833 0.097991
v -0.982455 0.912395 0.147599
v -1.121249 0.696348 0.164994
v -1.072442 0.382978 0.164139
v -0.908674 0.192183 0.151075
v -0.102326 0.201870 0.063611
v -0.424891 0.442034 0.004395
v -0.831168 0.716397 0.051479
v -0.706091 0.273971 0.089056
v -0.706091 0.273971 0.089056
v -0.982455 0.912395 0.147599
v -1.121249 0.696348 0.164994
v -0.160028 0.465987 0.056898
v -0.502774 0.826935 0.100236
v -0.748189 0.947846 0.122299
v -1.121249 0.696348 0.164994
v -1.072442 0.382978 0.164139
v 1.121249 0.696348 0.164994
v 1.072442 0.382978 0.164139
v -0.286920 0.276373 -0.315951
v -0.286920 0.453459 -0.301876
v -0.270438 0.606834 -0.204894
v -0.235787 0.709355 0.000000
v -0.270438 0.609204 0.208620
v -0.286920 0.455737 0.305201
v -0.286920 0.276373 0.315951
v -0.286920 0.090173 0.308526
v -0.270438 -0.063294 0.211544
v -0.235787 -0.156610 -0.000000
v -0.270438 -0.060924 -0.204894
v -0.286920 0.092452 -0.301876
v 0.286920 0.276373 -0.315951
v 0.286920 0.453459 -0.301876
v 0.270438 0.606834 -0.204894
v 0.235787 0.709355 0.000000
v 0.270438 0.609204 0.208620
v 0.286920 0.455737 0.305201
v 0.286920 0.276373 0.315951
v 0.286920 0.090173 0.308526
v 0.270438 -0.063294 0.211544
v 0.235787 -0.156610 -0.000000
v 0.270438 -0.060924 -0.204894
v 0.286920 0.092452 -0.301876
v -0.098219 0.276372 -0.122360
v -0.098219 0.336993 -0.116909
v -0.092576 0.389496 -0.079350
v -0.080715 0.424591 0.000000
v -0.092576 0.390308 0.080793
v -0.098219 0.337773 0.118196
v -0.098219 0.276373 0.122360
v -0.098219 0.212633 0.119484
v -0.092576 0.160098 0.081926
v -0.080715 0.128154 -0.000000
v -0.092576 0.160909 -0.079350
v -0.098219 0.213413 -0.116909
v 0.098219 0.276372 -0.122360
v 0.098219 0.336993 -0.116909
v 0.092576 0.389496 -0.079350
v 0.080715 0.424591 0.000000
v 0.092576 0.390308 0.080793
v 0.098219 0.337773 0.118196
v 0.098219 0.276373 0.122360
v 0.098219 0.212633 0.119484
v 0.092576 0.160098 0.081926
v 0.080715 0.128154 -0.000000
v 0.092576 0.160909 -0.079350
v 0.098219 0.213413 -0.116909
v -0.098219 0.276372 -0.122360
v -0.098219 0.336993 -0.116909
v -0.092576 0.389496 -0.079350
v -0.080715 0.424591 0.000000
v -0.092576 0.390308 0.080793
v -0.098219 0.337773 0.118196
v -0.098219 0.276373 0.122360
v -0.098219 0.212633 0.119484
v -0.092576 0.160098 0.081926
v -0.080715 0.128154 -0.000000
v -0.092576 0.160909 -0.079350
v -0.098219 0.213413 -0.116909
v 0.023580 0.295352 -0.137293
v 0.023580 0.355972 -0.131842
v 0.023580 0.408475 -0.094283
v 0.023580 0.443570 -0.014933
v 0.023580 0.415772 0.080548
v 0.023580 0.325944 0.141033
v 0.023580 0.258057 0.130508
v 0.023580 0.194318 0.127632
v 0.023580 0.141783 0.090074
v 0.023580 0.109839 0.008148
v 0.023580 0.136108 -0.081694
v 0.023580 0.225906 -0.142333
vt 0.000000 0.500000
vt 1.000000 0.500000
vt 1.000000 1.000000
vt 0.000000 1.000000
vt 0.000000 0.500000
vt 0.000000 1.000000
vt 1.000000 1.000000
vt 1.000000 0.500000
vt 0.000000 0.000000
vt 1.000000 0.000000
vt 0.000000 0.000000
vt 1.000000 0.000000
vt 0.751032 0.410800
vt 0.520528 0.224563
vt 0.665105 0.356740
vt 0.833322 0.616506
vt 0.000000 0.616069
vt 0.000000 1.000000
vt 1.000000 1.000000
vt 0.751032 0.410800
vt 0.833322 0.616506
vt 0.366554 0.683203
vt 1.000000 0.154790
vt 1.000000 0.000000
vt 0.000000 0.000000
vt 0.439435 0.036795
vt 0.772082 0.117594
vt 0.000000 0.000000
vt 0.000000 0.000000
vt 0.000000 0.000000
vt 0.000000 0.000000
vt 0.000000 0.000000
vt 0.000000 0.000000
vt 0.000000 0.000000
vt 0.000000 0.000000
vt 0.000000 0.000000
vt 0.000000 0.000000
vt 0.000000 0.000000
vt 0.000000 0.000000
vt 0.000000 0.000000
vt 0.871261 0.145847
vt 0.604182 0.160337
vt 0.520528 0.224563
vt 0.000000 0.216138
vt 0.631135 0.255245
vt 0.604182 0.160337
vt 0.359994 0.410184
vt 0.631135 0.255245
vt 0.000000 0.616069
vt 0.366554 0.683203
vt 0.000000 0.000000
vt 0.000000 0.000000
vt 0.000000 0.000000
vt 0.000000 0.000000
vt 1.000000 0.000000
vt 1.000000 1.000000
vt 0.000000 0.000000
vt 0.000000 0.000000
vt 0.000000 1.000000
vt 0.000000 0.000000
vt 0.000000 0.000000
vt 0.000000 1.000000
vt 1.000000 1.000000
vt 1.000000 0.000000
vt 0.000000 0.000000
vt 0.000000 0.000000
vt 0.000000 0.000000
vt 0.000000 0.000000
vt 0.000000 0.000000
vt 0.000000 0.000000
vt 0.000000 0.000000
vt 0.000000 0.000000
vt 0.000000 0.000000
vt 0.000000 0.000000
vt 0.000000 0.000000
vt 0.000000 0.000000
vt 0.000000 0.000000
vt 0.000000 0.000000
vt 0.000000 0.000000
vt 0.000000 0.000000
vt 0.000000 0.000000
vt 0.000000 0.000000
vt 0.000000 0.000000
vt 1.000000 0.154790
vt 0.871261 0.145847
vt 0.604182 0.160337
vt 0.631135 0.255245
vt 0.000000 0.216138
vt 0.000000 0.000000
vt 0.439435 0.036795
vt 0.772082 0.117594
vt 1.000000 0.000000
vt 0.000000 0.616069
vt 0.366554 0.683203
vt 0.833322 0.616506
vt 0.751032 0.410800
vt 1.000000 1.000000
vt 0.000000 1.000000
vt 0.520528 0.224563
vt 0.604182 0.160337
vt 0.631135 0.255245
vt 0.520528 0.224563
vt 0.665105 0.356740
vt 0.359994 0.410184
vt 0.366554 0.683203
vt 0.000000 0.616069
vt 0.833322 0.616506
vt 0.751032 0.410800
vt 0.520528 0.224563
vt 0.520528 0.224563
vt 0.000000 0.000000
vt 0.000000 0.000000
vt 0.000000 0.000000
vt 0.000000 0.000000
vt 0.000000 0.000000
vt 0.000000 0.000000
vt 0.000000 0.000000
vt 0.000000 0.000000
vt 0.000000 0.000000
vt 0.000000 0.000000
vt 0.000000 0.000000
vt 0.000000 0.000000
vt 0.000000 0.000000
vt 0.000000 0.000000
vt 0.000000 0.000000
vt 0.000000 0.000000
vt 0.000000 0.000000
vt 0.000000 0.000000
vt 0.000000 0.000000
vt 0.000000 0.000000
vt 0.000000 0.000000
vt 0.000000 0.000000
vt 0.000000 0.000000
vt 0.000000 0.000000
vt 0.000000 0.000000
vt 0.000000 0.000000
vt 0.000000 0.000000
vt 0.000000 0.000000
vt 0.000000 0.000000
vt 0.000000 0.000000
vt 0.000000 0.000000
vt 0.000000 0.000000
vt 0.000000 0.000000
vt 0.000000 0.000000
vt 0.000000 0.000000
vt 0.000000 0.000000
vt 0.000000 0.000000
vt 0.000000 0.000000
vt 0.000000 0.000000
vt 0.000000 0.000000
vt 0.000000 0.000000
vt 0.000000 0.000000
vt 0.000000 0.000000
vt 0.000000 0.000000
vt 0.000000 0.000000
vt 0.000000 0.000000
vt 0.000000 0.000000
vt 0.000000 0.000000
vt 0.000000 0.000000
vt 0.000000 0.000000
vt 0.000000 0.000000
vt 0.000000 0.000000
vt 0.000000 0.000000
vt 0.000000 0.000000
vt 0.000000 0.000000
vt 0.000000 0.000000
vt 0.000000 0.000000
vt 0.000000 0.000000
vt 0.000000 0.000000
vt 0.000000 0.000000
vt 0.000000 0.000000
vt 0.000000 0.000000
vt 0.000000 0.000000
vt 0.000000 0.000000
vt 0.000000 0.000000
vt 0.000000 0.000000
vt 0.000000 0.000000
vt 0.000000 0.000000
vt 0.000000 0.000000
vt 0.000000 0.000000
vt 0.000000 0.000000
vt 0.000000 0.000000
vn -0.0359 0.0345 0.9987
vn 0.0563 -0.0016 0.9984
vn 0.1367 -0.0333 0.9901
vn 0.0394 0.0389 0.9984
vn -0.1377 -0.0365 0.9898
vn -0.0529 -0.0003 0.9986
vn 0.0970 0.0631 0.9933
vn -0.0921 0.0565 0.9941
vn 0.2723 0.2460 -0.9302
vn 0.2326 0.0001 -0.9725
vn 0.1577 0.0682 -0.9851
vn 0.0900 0.2574 -0.9621
vn 0.1914 -0.0748 -0.9786
vn 0.1253 -0.0350 -0.9915
vn 0.1177 -0.0304 -0.9926
vn 0.1070 -0.0602 -0.9924
vn 0.0941 -0.0052 -0.9955
vn 0.1196 -0.0997 -0.9878
vn 0.1099 -0.0549 -0.9924
vn -0.3104 -0.0400 -0.9497
vn 0.0065 -0.0445 -0.9990
vn -0.0202 -0.0507 -0.9985
vn -0.5156 -0.2044 -0.8321
vn -0.9552 -0.2927 -0.0426
vn -0.9730 -0.1785 -0.1462
vn -0.5396 -0.1462 -0.8291
vn -0.6654 -0.1256 0.7358
vn -0.8020 -0.1433 0.5798
vn -0.2287 -0.0851 0.9698
vn -0.7185 0.0167 -0.6953
vn 0.1008 -0.0181 -0.9947
vn 0.0974 -0.0167 -0.9951
vn 0.1060 -0.0623 -0.9924
vn 0.0897 -0.0136 -0.9958
vn 0.0708 -0.0653 -0.9953
vn 0.1489 -0.0861 -0.9851
vn 0.1898 -0.0482 -0.9806
vn 0.0307 -0.0048 -0.9995
vn 0.2144 -0.1254 -0.9686
vn -0.1768 0.1700 -0.9694
vn -0.0804 0.2422 -0.9669
vn 0.1504 -0.0228 0.9883
vn 0.1504 -0.0216 0.9884
vn 0.0389 -0.0439 0.9983
vn 0.0113 -0.0484 0.9987
vn 0.1544 -0.0292 0.9875
vn 0.1526 -0.0245 0.9880
vn -0.5749 -0.1715 0.8000
vn 0.1592 -0.0415 0.9864
vn -0.9912 -0.0628 -0.1165
vn -0.1592 -0.0415 0.9864
vn -0.1526 -0.0245 0.9880
vn -0.1544 -0.0292 0.9875
vn 0.8020 -0.1433 0.5798
vn 0.2287 -0.0851 0.9698
vn 0.5749 -0.1715 0.8000
vn 0.9730 -0.1785 -0.1462
vn 0.9912 -0.0628 -0.1165
vn 0.6654 -0.1256 0.7358
vn 0.5396 -0.1462 -0.8291
vn 0.7185 0.0167 -0.6953
vn -0.1008 -0.0181 -0.9947
vn -0.0974 -0.0167 -0.9951
vn -0.0065 -0.0445 -0.9990
vn 0.0202 -0.0507 -0.9985
vn 0.3104 -0.0400 -0.9497
vn 0.5156 -0.2044 -0.8321
vn 0.9552 -0.2927 -0.0426
vn -0.0389 -0.0439 0.9983
vn -0.0113 -0.0484 0.9987
vn -0.1504 -0.0228 0.9883
vn -0.1504 -0.0216 0.9884
vn -0.1070 -0.0602 -0.9924
vn -0.1060 -0.0623 -0.9924
vn -0.1898 -0.0482 -0.9806
vn -0.1489 -0.0861 -0.9851
vn -0.0708 -0.0653 -0.9953
vn -0.1196 -0.0997 -0.9878
vn -0.1099 -0.0549 -0.9924
vn -0.0941 -0.0052 -0.9955
vn -0.1914 -0.0748 -0.9786
vn -0.1177 -0.0304 -0.9926
vn -0.1253 -0.0350 -0.9915
vn -0.0897 -0.0136 -0.9958
vn -0.2144 -0.1254 -0.9686
vn -0.2326 0.0001 -0.9725
vn -0.1577 0.0682 -0.9851
vn -0.0307 -0.0048 -0.9995
vn 0.0804 0.2422 -0.9669
vn 0.1768 0.1700 -0.9694
vn -0.0900 0.2574 -0.9621
vn -0.2723 0.2460 -0.9302
vn -0.2092 -0.0299 -0.9774
vn 0.2092 -0.0299 -0.9774
vn -0.8583 -0.1621 0.4868
vn 0.8583 -0.1621 0.4868
vn 0.9106 0.0040 0.4132
vn -0.9106 0.0040 0.4132
vn -0.8338 0.4489 -0.3212
vn 0.8338 0.4489 -0.3212
vn 0.8648 0.1711 -0.4720
vn -0.8648 0.1711 -0.4720
vn -0.8245 -0.4664 0.3204
vn 0.8245 -0.4664 0.3204
vn -0.7318 -0.6815 -0.0078
vn 0.7318 -0.6815 -0.0078
vn -0.8302 0.4549 0.3222
vn 0.8302 0.4549 0.3222
vn 0.7259 0.6877 -0.0063
vn -0.7259 0.6877 -0.0063
vn -0.8293 -0.4582 -0.3199
vn 0.8293 -0.4582 -0.3199
vn -0.8620 0.1664 0.4787
vn 0.8620 0.1664 0.4787
vn -0.8639 -0.1698 -0.4742
vn 0.8639 -0.1698 -0.4742
vn 0.9044 0.0006 -0.4266
vn -0.9044 0.0006 -0.4266
vn -0.8204 0.3828 0.4246
vn -0.6443 0.3572 0.6762
vn 0.7169 -0.0011 0.6971
vn 0.7444 0.1669 0.6465
vn -0.4349 -0.0995 0.8950
vn -0.4920 -0.2326 0.8389
vn 0.7453 -0.1601 -0.6472
vn 0.7998 -0.3756 -0.4681
vn -0.4972 0.2340 0.8354
vn -0.6469 -0.3590 0.6728
vn 0.7166 -0.0074 -0.6974
vn -0.4359 0.0977 0.8947
vn -0.8207 -0.3854 0.4217
vn 0.7484 0.1498 -0.6460
vn -0.3965 -0.0006 0.9180
vn -0.9355 -0.2009 0.2907
vn 0.8062 0.3762 -0.4565
vn 0.7431 -0.1700 0.6472
vn -0.9322 -0.0096 0.3618
vn 0.8745 0.4849 0.0088
vn 0.7958 -0.3761 0.4746
vn -0.9392 0.1880 0.2871
vn 0.8001 0.3764 0.4670
vn 0.8744 -0.4852 0.0065
vn 0.0000 0.0000 1.0000
vn -1.0000 0.0000 0.0000
usemtl None
s 1
f 11/1/1 12/2/2 1/3/3 2/4/3
f 9/5/4 7/6/5 8/7/5 10/8/6
f 5/9/7 9/5/4 10/8/6 6/10/7
f 4/11/8 3/12/8 12/2/2 11/1/1
f 26/13/9 25/14/10 20/15/11 29/16/12
f 15/17/13 45/18/13 44/19/14 17/20/15 13/21/13 14/22/13
f 31/23/16 46/24/17 47/25/18 27/26/19 28/27/19
f 40/28/20 41/29/21 42/30/22 37/31/23
f 34/32/24 35/33/25 38/34/26 37/31/23
f 51/35/27 50/36/28 52/37/29
f 38/34/26 40/28/20 37/31/23
f 40/28/20 38/34/26 39/38/30
f 44/19/14 43/39/31 36/40/32 46/24/17 31/23/16 23/41/33 110/42/34 109/43/34 17/20/15
f 43/39/31 42/30/22 41/29/21 36/40/32
f 31/23/16 28/27/19 27/26/19 47/25/18 22/44/35 19/45/36 24/46/37 23/41/33
f 22/44/35 21/47/38 20/15/11 25/14/10 18/48/39
f 22/44/35 32/49/40 30/50/41 21/47/38
f 29/16/12 20/15/11 21/47/38 30/50/41
f 55/51/42 48/52/43 53/53/44 54/54/45
f 58/55/46 48/52/43 55/51/42 56/56/47
f 50/36/28 35/33/25 34/32/24 49/57/48
f 52/37/29 49/57/48 54/54/45 53/53/44
f 59/58/49 58/55/46 56/56/47 57/59/49
f 35/33/25 33/60/50 39/38/30 38/34/26
f 50/36/28 51/35/27 33/60/50 35/33/25
f 50/36/28 49/57/48 52/37/29
f 60/61/51 62/62/51 63/63/52 61/64/53
f 69/65/54 67/66/55 70/67/56
f 69/65/54 84/68/57 86/69/58 68/70/59
f 84/68/57 81/71/60 80/72/61 86/69/58
f 76/73/62 83/74/63 78/75/64 77/76/65
f 79/77/66 82/78/67 77/76/65 78/75/64
f 81/71/60 82/78/67 79/77/66
f 79/77/66 80/72/61 81/71/60
f 68/70/59 67/66/55 69/65/54
f 85/79/68 82/78/67 81/71/60 84/68/57
f 69/65/54 70/67/56 85/79/68 84/68/57
f 67/66/55 66/80/69 65/81/70 70/67/56
f 64/82/71 65/81/70 66/80/69 71/83/72
f 61/64/53 63/63/52 64/82/71 71/83/72
f 88/84/73 96/85/74 95/86/75 100/87/76 97/88/77 72/89/78 92/90/79 91/91/79
f 88/84/73 91/91/79 92/90/79 72/89/78 73/92/80
f 104/93/81 105/94/81 106/95/81 102/96/82 75/97/83 74/98/81
f 75/97/83 102/96/82 107/99/84 108/100/84 96/85/74 88/84/73 73/92/80 83/74/63 76/73/62
f 97/88/77 101/101/85 94/102/86 99/103/87 98/104/88
f 97/88/77 98/104/88 89/105/89 87/106/90
f 90/107/91 89/105/89 98/104/88 99/103/87
f 93/108/92 90/107/91 99/103/87 94/102/86
f 103/109/93 94/102/86 101/101/85 100/87/76 95/86/75
f 16/110/94 24/46/37 19/45/36 18/48/39 25/14/10
f 118/111/95 130/112/96 129/113/97 117/114/98
f 113/115/99 125/116/100 124/117/101 112/118/102
f 119/119/103 131/120/104 130/112/96 118/111/95
f 120/121/105 132/122/106 131/120/104 119/119/103
f 115/123/107 127/124/108 126/125/109 114/126/110
f 121/127/111 133/128/112 132/122/106 120/121/105
f 116/129/113 128/130/114 127/124/108 115/123/107
f 122/131/115 134/132/116 133/128/112 121/127/111
f 117/114/98 129/113/97 128/130/114 116/129/113
f 112/118/102 124/117/101 123/133/117 111/134/118
f 111/134/118 123/133/117 134/132/116 122/131/115
f 114/126/110 126/125/109 125/116/100 113/115/99
f 120/121/105 119/119/103 143/135/119 144/136/120
f 134/132/116 123/133/117 147/137/121 158/138/122
f 113/115/99 112/118/102 136/139/123 137/140/124
f 127/124/108 128/130/114 152/141/125 151/142/126
f 121/127/111 120/121/105 144/136/120 145/143/127
f 114/126/110 113/115/99 137/140/124 138/144/128
f 128/130/114 129/113/97 153/145/129 152/141/125
f 122/131/115 121/127/111 145/143/127 146/146/130
f 115/123/107 114/126/110 138/144/128 139/147/131
f 129/113/97 130/112/96 154/148/132 153/145/129
f 111/134/118 122/131/115 146/146/130 135/149/133
f 116/129/113 115/123/107 139/147/131 140/150/134
f 130/112/96 131/120/104 155/151/135 154/148/132
f 123/133/117 124/117/101 148/152/136 147/137/121
f 117/114/98 116/129/113 140/150/134 141/153/137
f 131/120/104 132/122/106 156/154/138 155/151/135
f 124/117/101 125/116/100 149/155/139 148/152/136
f 118/111/95 117/114/98 141/153/137 142/156/140
f 132/122/106 133/128/112 157/157/141 156/154/138
f 125/116/100 126/125/109 150/158/142 149/155/139
f 119/119/103 118/111/95 142/156/140 143/135/119
f 133/128/112 134/132/116 158/138/122 157/157/141
f 112/118/102 111/134/118 135/149/133 136/139/123
f 126/125/109 127/124/108 151/142/126 150/158/142
f 139/147/131 138/144/128 162/159/143 163/160/143
f 146/146/130 145/143/127 169/161/143 170/162/143
f 136/139/123 135/149/133 159/163/143 160/164/143
f 143/135/119 142/156/140 166/165/143 167/166/143
f 140/150/134 139/147/131 163/160/143 164/167/143
f 135/149/133 146/146/130 170/162/143 159/163/143
f 137/140/124 136/139/123 160/164/143 161/168/143
f 144/136/120 143/135/119 167/166/143 168/169/143
f 141/153/137 140/150/134 164/167/143 165/170/143
f 138/144/128 137/140/124 161/168/143 162/159/143
f 145/143/127 144/136/120 168/169/143 169/161/143
f 142/156/140 141/153/137 165/170/143 166/165/143
f 172/171/144 171/172/144 182/173/144 181/174/144 180/175/144 179/176/144 178/177/144 177/178/144 176/179/144 175/180/144 174/181/144 173/182/144
