# Blender v2.79 (sub 0) OBJ File: 'diskun.blend'
# www.blender.org
mtllib diskun1.mtl
o Plane
v 1.853267 1.060000 1.000000
v 1.165000 -4.000000 1.000000
v 0.996971 1.307045 1.000000
v 1.099301 1.060000 1.000000
v 0.996971 0.812954 1.000000
v 0.749926 0.710625 1.000000
v 0.502880 0.812954 1.000000
v 0.502880 1.307045 1.000000
v 0.749926 1.409375 1.000000
v 2.408158 2.399626 1.000000
v 2.878572 2.085305 1.000000
v 3.192893 1.614891 1.000000
v 3.303267 1.060000 1.000000
v 1.853267 2.510000 1.000000
v 1.298376 2.399625 1.000000
v 0.827963 2.085305 1.000000
v 0.513642 1.614891 1.000000
v 0.403267 1.060000 1.000000
v 0.513642 0.505109 1.000000
v 0.827963 0.034695 1.000000
v 1.298376 -0.279626 1.000000
v 1.853267 -0.390000 1.000000
v 2.408158 -0.279626 1.000000
v 2.878572 0.034695 1.000000
v 3.357079 0.435747 1.000000
v 3.003468 -0.093469 1.000000
v 2.474252 -0.447079 1.000000
v 1.850000 -0.571250 1.000000
v 1.225747 -0.447079 1.000000
v 0.696532 -0.093468 1.000000
v 0.342921 0.435747 1.000000
v 0.218749 1.060000 1.000000
v 0.342921 1.684253 1.000000
v 0.696532 2.213468 1.000000
v 1.225747 2.567079 1.000000
v 1.850000 2.691250 1.000000
v 3.481250 1.060000 1.000000
v 3.357079 1.684253 1.000000
v 3.003468 2.213469 1.000000
v 2.474251 2.567079 1.000000
v 3.192893 0.505109 1.000000
v 1.108655 -3.821292 1.000000
v 3.750000 -4.000000 1.000000
v 4.148528 -1.448529 1.000000
v 4.408656 -1.059220 1.000000
v 4.500000 -0.600000 1.000000
v 4.408655 -0.140780 1.000000
v 4.148528 0.248528 1.000000
v 3.750000 0.500000 1.000000
v 3.750000 -1.700000 1.000000
v 3.750000 -2.935000 1.000000
v 3.950909 -3.945037 1.000000
v 4.121231 -3.831231 1.000000
v 4.235037 -3.660909 1.000000
v 4.275000 -3.460000 1.000000
v 4.235036 -3.259091 1.000000
v 4.121231 -3.088769 1.000000
v 3.950909 -2.974963 1.000000
v 3.150000 4.000000 1.000000
v 3.750000 3.400000 1.000000
v 3.704328 3.629610 1.000000
v 3.574264 3.824264 1.000000
v 3.379610 3.954328 1.000000
v 0.848528 -3.470915 1.000000
v 0.459220 -3.236800 1.000000
v -3.190860 0.505109 1.000000
v -1.166234 -4.000000 1.000000
v -2.876539 0.034695 1.000000
v -2.406125 -0.279626 1.000000
v -1.851234 -0.390000 1.000000
v -1.296343 -0.279626 1.000000
v -0.825930 0.034695 1.000000
v -0.511609 0.505109 1.000000
v -0.401234 1.060000 1.000000
v -0.511609 1.614891 1.000000
v -0.825930 2.085305 1.000000
v -1.296343 2.399625 1.000000
v -1.851234 2.510000 1.000000
v -3.301234 1.060000 1.000000
v -3.190860 1.614891 1.000000
v -2.876539 2.085305 1.000000
v -2.406124 2.399626 1.000000
v -0.747893 1.409375 1.000000
v -0.500847 1.307045 1.000000
v -0.500847 0.812954 1.000000
v -0.747893 0.710625 1.000000
v -0.994938 0.812954 1.000000
v -1.097268 1.060000 1.000000
v -0.994938 1.307045 1.000000
v -3.358313 0.435747 1.000000
v -3.004702 -0.093469 1.000000
v -2.475486 -0.447079 1.000000
v -1.851234 -0.571250 1.000000
v -1.226982 -0.447079 1.000000
v -0.697766 -0.093468 1.000000
v -0.344155 0.435747 1.000000
v -0.219984 1.060000 1.000000
v -0.344155 1.684253 1.000000
v -0.697766 2.213468 1.000000
v -1.226982 2.567079 1.000000
v -1.851234 2.691250 1.000000
v -3.482485 1.060000 1.000000
v -3.358313 1.684253 1.000000
v -3.004702 2.213469 1.000000
v -2.475486 2.567079 1.000000
v -1.109890 -3.821292 1.000000
v -3.751235 -4.000000 1.000000
v -4.149762 -1.448529 1.000000
v -4.409890 -1.059220 1.000000
v -4.501235 -0.600000 1.000000
v -4.409889 -0.140780 1.000000
v -4.149762 0.248528 1.000000
v -3.751235 0.500000 1.000000
v -3.751235 -1.700000 1.000000
v -3.751234 -2.935000 1.000000
v -3.952143 -3.945037 1.000000
v -4.122465 -3.831231 1.000000
v -4.236271 -3.660909 1.000000
v -4.276235 -3.460000 1.000000
v -4.236271 -3.259091 1.000000
v -4.122465 -3.088769 1.000000
v -3.952143 -2.974963 1.000000
v -3.151234 4.000000 1.000000
v -3.751234 3.400000 1.000000
v -3.705562 3.629610 1.000000
v -3.575498 3.824264 1.000000
v -3.380844 3.954328 1.000000
v -0.849762 -3.470915 1.000000
v -0.001234 -3.154590 1.000000
v -0.460454 -3.236800 1.000000
v -1.851234 1.060000 1.000000
v 1.853267 1.060000 -1.000000
v 1.165000 -4.000000 -1.000000
v 0.996971 1.307045 -1.000000
v 1.099301 1.060000 -1.000000
v 0.996971 0.812954 -1.000000
v 0.749926 0.710625 -1.000000
v 0.502880 0.812954 -1.000000
v 0.502880 1.307045 -1.000000
v 0.749926 1.409375 -1.000000
v 2.408158 2.399626 -1.000000
v 2.878572 2.085305 -1.000000
v 3.192893 1.614891 -1.000000
v 3.303267 1.060000 -1.000000
v 1.853267 2.510000 -1.000000
v 1.298376 2.399625 -1.000000
v 0.827963 2.085305 -1.000000
v 0.513642 1.614891 -1.000000
v 0.403267 1.060000 -1.000000
v 0.513642 0.505109 -1.000000
v 0.827963 0.034695 -1.000000
v 1.298376 -0.279626 -1.000000
v 1.853267 -0.390000 -1.000000
v 2.408158 -0.279626 -1.000000
v 2.878572 0.034695 -1.000000
v 3.357079 0.435747 -1.000000
v 3.003468 -0.093469 -1.000000
v 2.474252 -0.447079 -1.000000
v 1.850000 -0.571250 -1.000000
v 1.225747 -0.447079 -1.000000
v 0.696532 -0.093468 -1.000000
v 0.342921 0.435747 -1.000000
v 0.218749 1.060000 -1.000000
v 0.342921 1.684253 -1.000000
v 0.696532 2.213468 -1.000000
v 1.225747 2.567079 -1.000000
v 1.850000 2.691250 -1.000000
v 3.481250 1.060000 -1.000000
v 3.357079 1.684253 -1.000000
v 3.003468 2.213469 -1.000000
v 2.474251 2.567079 -1.000000
v 3.192893 0.505109 -1.000000
v 1.108655 -3.821292 -1.000000
v 3.750000 -4.000000 -1.000000
v 4.148528 -1.448529 -1.000000
v 4.408656 -1.059220 -1.000000
v 4.500000 -0.600000 -1.000000
v 4.408655 -0.140780 -1.000000
v 4.148528 0.248528 -1.000000
v 3.750000 0.500000 -1.000000
v 3.750000 -1.700000 -1.000000
v 3.750000 -2.935000 -1.000000
v 3.950909 -3.945037 -1.000000
v 4.121231 -3.831231 -1.000000
v 4.235037 -3.660909 -1.000000
v 4.275000 -3.460000 -1.000000
v 4.235036 -3.259091 -1.000000
v 4.121231 -3.088769 -1.000000
v 3.950909 -2.974963 -1.000000
v 3.150000 4.000000 -1.000000
v 3.750000 3.400000 -1.000000
v 3.704328 3.629610 -1.000000
v 3.574264 3.824264 -1.000000
v 3.379610 3.954328 -1.000000
v 0.848528 -3.470915 -1.000000
v 0.459220 -3.236800 -1.000000
v -3.190860 0.505109 -1.000000
v -1.166234 -4.000000 -1.000000
v -2.876539 0.034695 -1.000000
v -2.406125 -0.279626 -1.000000
v -1.851234 -0.390000 -1.000000
v -1.296343 -0.279626 -1.000000
v -0.825930 0.034695 -1.000000
v -0.511609 0.505109 -1.000000
v -0.401234 1.060000 -1.000000
v -0.511609 1.614891 -1.000000
v -0.825930 2.085305 -1.000000
v -1.296343 2.399625 -1.000000
v -1.851234 2.510000 -1.000000
v -3.301234 1.060000 -1.000000
v -3.190860 1.614891 -1.000000
v -2.876539 2.085305 -1.000000
v -2.406124 2.399626 -1.000000
v -0.747893 1.409375 -1.000000
v -0.500847 1.307045 -1.000000
v -0.500847 0.812954 -1.000000
v -0.747893 0.710625 -1.000000
v -0.994938 0.812954 -1.000000
v -1.097268 1.060000 -1.000000
v -0.994938 1.307045 -1.000000
v -3.358313 0.435747 -1.000000
v -3.004702 -0.093469 -1.000000
v -2.475486 -0.447079 -1.000000
v -1.851234 -0.571250 -1.000000
v -1.226982 -0.447079 -1.000000
v -0.697766 -0.093468 -1.000000
v -0.344155 0.435747 -1.000000
v -0.219984 1.060000 -1.000000
v -0.344155 1.684253 -1.000000
v -0.697766 2.213468 -1.000000
v -1.226982 2.567079 -1.000000
v -1.851234 2.691250 -1.000000
v -3.482485 1.060000 -1.000000
v -3.358313 1.684253 -1.000000
v -3.004702 2.213469 -1.000000
v -2.475486 2.567079 -1.000000
v -1.109890 -3.821292 -1.000000
v -3.751235 -4.000000 -1.000000
v -4.149762 -1.448529 -1.000000
v -4.409890 -1.059220 -1.000000
v -4.501235 -0.600000 -1.000000
v -4.409889 -0.140780 -1.000000
v -4.149762 0.248528 -1.000000
v -3.751235 0.500000 -1.000000
v -3.751235 -1.700000 -1.000000
v -3.751234 -2.935000 -1.000000
v -3.952143 -3.945037 -1.000000
v -4.122465 -3.831231 -1.000000
v -4.236271 -3.660909 -1.000000
v -4.276235 -3.460000 -1.000000
v -4.236271 -3.259091 -1.000000
v -4.122465 -3.088769 -1.000000
v -3.952143 -2.974963 -1.000000
v -3.151234 4.000000 -1.000000
v -3.751234 3.400000 -1.000000
v -3.705562 3.629610 -1.000000
v -3.575498 3.824264 -1.000000
v -3.380844 3.954328 -1.000000
v -0.849762 -3.470915 -1.000000
v -0.001234 -3.154590 -1.000000
v -0.460454 -3.236800 -1.000000
v -1.851234 1.060000 -1.000000
vn 0.0000 0.0000 1.0000
vn 0.0000 0.0000 -1.0000
usemtl Material.001
s 1
f 115//1 122//1 107//1
f 121//1 107//1 122//1
f 120//1 107//1 121//1
f 119//1 107//1 120//1
f 118//1 107//1 119//1
f 117//1 107//1 118//1
f 107//1 117//1 116//1
f 58//1 51//1 43//1
f 57//1 58//1 43//1
f 56//1 57//1 43//1
f 55//1 56//1 43//1
f 54//1 55//1 43//1
f 53//1 54//1 43//1
f 43//1 52//1 53//1
f 48//1 49//1 50//1
f 47//1 48//1 50//1
f 46//1 47//1 50//1
f 45//1 46//1 50//1
f 44//1 45//1 50//1
f 107//1 67//1 115//1
f 115//1 67//1 114//1
f 67//1 106//1 114//1
f 128//1 114//1 106//1
f 128//1 130//1 114//1
f 129//1 114//1 130//1
f 65//1 50//1 129//1
f 64//1 50//1 65//1
f 64//1 42//1 50//1
f 42//1 2//1 50//1
f 50//1 2//1 51//1
f 2//1 43//1 51//1
f 49//1 129//1 50//1
f 129//1 113//1 114//1
f 113//1 112//1 114//1
f 111//1 114//1 112//1
f 110//1 114//1 111//1
f 109//1 114//1 110//1
f 108//1 114//1 109//1
f 113//1 90//1 102//1
f 91//1 90//1 113//1
f 113//1 129//1 91//1
f 91//1 129//1 92//1
f 93//1 92//1 129//1
f 94//1 93//1 129//1
f 95//1 94//1 129//1
f 96//1 95//1 129//1
f 97//1 96//1 129//1
f 31//1 32//1 129//1
f 129//1 32//1 97//1
f 31//1 129//1 30//1
f 30//1 129//1 29//1
f 29//1 129//1 28//1
f 28//1 129//1 27//1
f 27//1 129//1 26//1
f 129//1 49//1 26//1
f 26//1 49//1 25//1
f 25//1 49//1 37//1
f 124//1 113//1 102//1
f 49//1 60//1 37//1
f 37//1 60//1 38//1
f 38//1 60//1 39//1
f 63//1 59//1 60//1
f 62//1 63//1 60//1
f 61//1 62//1 60//1
f 39//1 60//1 40//1
f 127//1 124//1 123//1
f 126//1 124//1 127//1
f 125//1 124//1 126//1
f 102//1 103//1 124//1
f 103//1 104//1 124//1
f 104//1 105//1 124//1
f 124//1 105//1 123//1
f 105//1 101//1 123//1
f 101//1 100//1 123//1
f 40//1 60//1 36//1
f 60//1 59//1 36//1
f 36//1 59//1 35//1
f 98//1 97//1 32//1
f 32//1 33//1 98//1
f 98//1 33//1 99//1
f 33//1 34//1 99//1
f 99//1 34//1 100//1
f 34//1 35//1 100//1
f 59//1 100//1 35//1
f 123//1 100//1 59//1
f 70//1 131//1 69//1
f 69//1 131//1 68//1
f 68//1 131//1 66//1
f 66//1 131//1 79//1
f 79//1 131//1 80//1
f 80//1 131//1 81//1
f 81//1 131//1 82//1
f 82//1 131//1 78//1
f 78//1 131//1 77//1
f 77//1 131//1 76//1
f 76//1 131//1 75//1
f 83//1 75//1 89//1
f 131//1 89//1 75//1
f 83//1 84//1 75//1
f 75//1 84//1 74//1
f 74//1 85//1 73//1
f 89//1 131//1 88//1
f 87//1 88//1 131//1
f 71//1 131//1 70//1
f 72//1 131//1 71//1
f 73//1 131//1 72//1
f 131//1 73//1 87//1
f 86//1 87//1 73//1
f 85//1 86//1 73//1
f 22//1 23//1 1//1
f 23//1 24//1 1//1
f 24//1 41//1 1//1
f 41//1 13//1 1//1
f 13//1 12//1 1//1
f 12//1 11//1 1//1
f 11//1 10//1 1//1
f 10//1 14//1 1//1
f 14//1 15//1 1//1
f 15//1 16//1 1//1
f 16//1 17//1 1//1
f 9//1 3//1 17//1
f 1//1 17//1 3//1
f 9//1 17//1 8//1
f 17//1 18//1 8//1
f 18//1 19//1 7//1
f 3//1 4//1 1//1
f 5//1 1//1 4//1
f 21//1 22//1 1//1
f 20//1 21//1 1//1
f 19//1 20//1 1//1
f 1//1 5//1 19//1
f 6//1 19//1 5//1
f 7//1 19//1 6//1
f 246//2 238//2 253//2
f 252//2 253//2 238//2
f 251//2 252//2 238//2
f 250//2 251//2 238//2
f 249//2 250//2 238//2
f 248//2 249//2 238//2
f 238//2 247//2 248//2
f 189//2 174//2 182//2
f 188//2 174//2 189//2
f 187//2 174//2 188//2
f 186//2 174//2 187//2
f 185//2 174//2 186//2
f 184//2 174//2 185//2
f 174//2 184//2 183//2
f 179//2 181//2 180//2
f 178//2 181//2 179//2
f 177//2 181//2 178//2
f 176//2 181//2 177//2
f 175//2 181//2 176//2
f 238//2 246//2 198//2
f 246//2 245//2 198//2
f 198//2 245//2 237//2
f 259//2 237//2 245//2
f 259//2 245//2 261//2
f 260//2 261//2 245//2
f 196//2 260//2 181//2
f 195//2 196//2 181//2
f 195//2 181//2 173//2
f 173//2 181//2 133//2
f 181//2 182//2 133//2
f 133//2 182//2 174//2
f 180//2 181//2 260//2
f 260//2 245//2 244//2
f 244//2 245//2 243//2
f 242//2 243//2 245//2
f 241//2 242//2 245//2
f 240//2 241//2 245//2
f 239//2 240//2 245//2
f 244//2 233//2 221//2
f 222//2 244//2 221//2
f 244//2 222//2 260//2
f 222//2 223//2 260//2
f 224//2 260//2 223//2
f 225//2 260//2 224//2
f 226//2 260//2 225//2
f 227//2 260//2 226//2
f 228//2 260//2 227//2
f 162//2 260//2 163//2
f 260//2 228//2 163//2
f 162//2 161//2 260//2
f 161//2 160//2 260//2
f 160//2 159//2 260//2
f 159//2 158//2 260//2
f 158//2 157//2 260//2
f 260//2 157//2 180//2
f 157//2 156//2 180//2
f 156//2 168//2 180//2
f 255//2 233//2 244//2
f 180//2 168//2 191//2
f 168//2 169//2 191//2
f 169//2 170//2 191//2
f 194//2 191//2 190//2
f 193//2 191//2 194//2
f 192//2 191//2 193//2
f 170//2 171//2 191//2
f 258//2 254//2 255//2
f 257//2 258//2 255//2
f 256//2 257//2 255//2
f 233//2 255//2 234//2
f 234//2 255//2 235//2
f 235//2 255//2 236//2
f 255//2 254//2 236//2
f 236//2 254//2 232//2
f 232//2 254//2 231//2
f 171//2 167//2 191//2
f 191//2 167//2 190//2
f 167//2 166//2 190//2
f 229//2 163//2 228//2
f 163//2 229//2 164//2
f 229//2 230//2 164//2
f 164//2 230//2 165//2
f 230//2 231//2 165//2
f 165//2 231//2 166//2
f 190//2 166//2 231//2
f 254//2 190//2 231//2
f 201//2 200//2 262//2
f 200//2 199//2 262//2
f 199//2 197//2 262//2
f 197//2 210//2 262//2
f 210//2 211//2 262//2
f 211//2 212//2 262//2
f 212//2 213//2 262//2
f 213//2 209//2 262//2
f 209//2 208//2 262//2
f 208//2 207//2 262//2
f 207//2 206//2 262//2
f 214//2 220//2 206//2
f 262//2 206//2 220//2
f 214//2 206//2 215//2
f 206//2 205//2 215//2
f 205//2 204//2 216//2
f 220//2 219//2 262//2
f 218//2 262//2 219//2
f 202//2 201//2 262//2
f 203//2 202//2 262//2
f 204//2 203//2 262//2
f 262//2 218//2 204//2
f 217//2 204//2 218//2
f 216//2 204//2 217//2
f 153//2 132//2 154//2
f 154//2 132//2 155//2
f 155//2 132//2 172//2
f 172//2 132//2 144//2
f 144//2 132//2 143//2
f 143//2 132//2 142//2
f 142//2 132//2 141//2
f 141//2 132//2 145//2
f 145//2 132//2 146//2
f 146//2 132//2 147//2
f 147//2 132//2 148//2
f 140//2 148//2 134//2
f 132//2 134//2 148//2
f 140//2 139//2 148//2
f 148//2 139//2 149//2
f 149//2 138//2 150//2
f 134//2 132//2 135//2
f 136//2 135//2 132//2
f 152//2 132//2 153//2
f 151//2 132//2 152//2
f 150//2 132//2 151//2
f 132//2 150//2 136//2
f 137//2 136//2 150//2
f 138//2 137//2 150//2
