# Blender v2.79 (sub 0) OBJ File: ''
# www.blender.org
mtllib hood.mtl
o hoodie_female
v -2.056434 0.783227 -2.513074
v 0.050869 0.744973 -2.296737
v -1.744930 0.420624 -2.619948
v -1.710799 0.612978 -1.286898
v -0.619388 0.623273 -1.597076
v 1.016000 0.575733 -2.433352
v -0.027415 0.561889 -2.306362
v 1.540064 -0.096621 -2.306073
v 1.849907 -0.196688 -2.492913
v 1.687743 -1.299113 -2.528530
v 1.748587 0.420624 -2.619947
v 2.195148 0.913713 -2.396183
v 2.138571 0.907151 -1.636801
v 0.275633 0.786868 -1.856861
v 1.408609 -2.079206 -5.988283
v 1.662734 -0.829884 -3.573302
v 2.312343 0.089884 -4.278254
v 0.948246 -1.974853 -5.020180
v 1.097354 -1.988995 -4.183384
v 1.905145 -1.403004 -2.897980
v 1.554139 -2.123779 -3.301149
v 0.675095 -1.974210 -2.365208
v 0.208469 -2.788761 -3.360234
v -0.408466 -2.143053 -2.368786
v -1.025625 -2.360390 -2.983283
v -0.206436 -2.758146 -3.876062
v -1.375045 -2.151970 -3.603466
v -0.013913 -2.480350 -4.526545
v -1.519688 -0.048540 -2.301404
v -1.088982 -1.988991 -4.183384
v -1.679368 -1.299119 -2.528529
v -1.896770 -1.403004 -2.897982
v -1.654360 -0.829884 -3.573304
v -1.229152 -1.641725 -4.757159
v -1.598087 -1.684351 -5.622761
v -2.303964 0.089880 -4.278249
v 0.045816 -3.030499 -6.678055
v -3.244393 0.500742 -3.838838
v -0.259941 -2.394672 -5.147633
v -0.232735 -3.816042 -6.452196
v -0.945789 -2.857149 -6.551326
v -0.980271 -4.167932 -5.513963
v 0.470969 -4.370748 -5.520137
v 1.156183 -3.574789 -6.390483
v -0.041886 -5.589558 -4.999987
v 1.079315 -5.355314 -4.494612
v 1.884692 -4.727083 -4.864686
v 0.018113 -5.366124 -3.447369
v -0.946984 -5.331292 -4.230047
v -1.875425 -4.769745 -4.823339
v -2.197235 -4.436277 -3.736123
v 2.205606 -4.436282 -3.736123
v 1.289791 -3.146769 -2.124835
v 0.007787 -3.856035 -2.000308
v 1.020131 -2.239058 -1.886314
v -2.226638 -1.494053 -1.681420
v -1.055037 -1.837854 -1.701371
v -0.001799 -2.742666 -1.826421
v 1.422131 -0.400633 -1.630620
v 0.320767 -1.363971 -1.541275
v 2.345917 -1.435019 -1.840244
v 3.104015 -0.879350 -2.128527
v 2.770921 0.408966 -1.795514
v 2.177665 0.668647 -1.391014
v 3.370127 0.709097 -2.060712
v 3.753569 0.475865 -2.673942
v 3.687694 -1.050400 -3.520356
v 3.757749 0.256429 -3.642159
v 2.935759 -3.296770 -4.074136
v 3.041541 -1.665762 -5.004721
v 1.318543 -3.903777 -5.444366
v 1.703402 -2.731098 -6.226209
v 3.289163 0.494153 -3.856653
v 3.125658 -0.543802 -4.742580
v -0.694974 -1.592167 -1.600090
v -1.122628 -1.484171 -1.636323
v 0.674100 0.488383 -1.010588
v -0.410339 0.496104 -0.861282
v -1.820301 -0.203618 -2.494950
v -3.117282 -0.543812 -4.742584
v -2.132198 -2.284397 -5.855801
v -2.927384 -3.296774 -4.074136
v -3.554968 -0.428406 -4.233944
v -2.556566 -3.012031 -4.879544
v -1.436940 -3.356253 -6.286971
v -3.754304 -0.807552 -3.078763
v -1.281418 -3.146769 -2.124834
v -3.044695 -1.162284 -1.948078
v -3.045551 0.547181 -1.928474
v -2.625658 0.603572 -1.583465
v -1.622449 -0.152199 -1.387527
v -0.627292 -1.092026 -1.587667
v -3.673621 0.418702 -2.714985
v 0.303197 -2.655048 -4.000323
vt 0.178594 0.143907
vt 0.123557 0.148876
vt 0.155373 0.135270
vt 0.166414 0.177909
vt 0.841871 0.036383
vt 0.827494 0.026558
vt 0.852921 0.000000
vt 0.170039 0.072877
vt 0.544202 0.328649
vt 0.278447 0.697356
vt 0.564034 0.312326
vt 0.503782 0.813474
vt 0.534461 0.745477
vt 0.535712 0.791941
vt 0.497570 0.825845
vt 0.450592 0.813269
vt 0.524794 0.823222
vt 0.543947 0.847152
vt 0.564034 0.291571
vt 0.593778 0.258807
vt 0.593778 0.298808
vt 0.272182 0.725798
vt 0.616179 0.307762
vt 0.852921 0.174683
vt 0.825972 0.116602
vt 0.838101 0.085791
vt 0.874878 0.884286
vt 0.813291 0.791979
vt 0.864107 0.764152
vt 0.805253 0.733650
vt 0.810665 0.704046
vt 0.837683 0.872178
vt 0.807104 0.851877
vt 0.777321 0.789207
vt 0.774368 0.826929
vt 0.764220 0.783689
vt 0.736425 0.824027
vt 0.752786 0.879394
vt 0.427001 0.765383
vt 0.393302 0.734058
vt 0.425612 0.715488
vt 0.071337 0.145779
vt 0.049757 0.166894
vt 0.008623 0.131448
vt 0.026202 0.111375
vt 0.089142 0.119578
vt 0.021558 0.081842
vt 0.522647 0.675057
vt 0.078425 0.093772
vt 0.419001 0.682528
vt 0.469051 0.660674
vt 0.120660 0.155558
vt 0.127421 0.142197
vt 0.652877 0.708483
vt 0.680456 0.698584
vt 0.679123 0.743463
vt 0.639354 0.745203
vt 0.089777 0.067543
vt 0.126047 0.108649
vt 0.103224 0.033911
vt 0.004034 0.000000
vt 0.501800 0.368987
vt 0.422078 0.393056
vt 0.032557 0.056528
vt 0.327361 0.449587
vt 0.369312 0.417184
vt 0.361531 0.461656
vt 0.145402 0.627052
vt 0.171009 0.671400
vt 0.108550 0.680874
vt 0.338262 0.514280
vt 0.298511 0.488392
vt 0.296266 0.425085
vt 0.253107 0.477621
vt 0.224161 0.438551
vt 0.044189 0.687193
vt 0.085794 0.662736
vt 0.046526 0.716245
vt 0.040464 0.630909
vt 0.083105 0.609301
vt 0.133679 0.583491
vt 0.114313 0.547079
vt 0.884135 0.378261
vt 0.845675 0.395151
vt 0.865361 0.337066
vt 0.823192 0.312326
vt 0.754761 0.420176
vt 0.743452 0.365658
vt 0.331472 0.146709
vt 0.363353 0.088260
vt 0.403300 0.101416
vt 0.433007 0.251832
vt 0.418542 0.197574
vt 0.380469 0.148084
vt 0.483451 0.084624
vt 0.440584 0.134521
vt 0.440201 0.040878
vt 0.736425 0.505775
vt 0.452143 0.008618
vt 0.520757 0.023004
vt 0.548217 0.015883
vt 0.593778 0.280564
vt 0.616179 0.258807
vt 0.564034 0.000000
vt 0.750627 0.531681
vt 0.777201 0.614176
vt 0.743822 0.630814
vt 0.822203 0.551352
vt 0.819830 0.607165
vt 0.851091 0.453118
vt 0.884135 0.515911
vt 0.249768 0.521171
vt 0.209158 0.533106
vt 0.375366 0.540083
vt 0.296266 0.642219
vt 0.816806 0.126306
vt 0.821853 0.161810
vt 0.780832 0.115645
vt 0.404223 0.527990
vt 0.870588 0.958524
vt 0.544202 0.625051
vt 0.518830 0.647942
vt 0.473353 0.613884
vt 0.423937 0.608653
vt 0.501800 0.579584
vt 0.000000 0.000000
vt 0.429433 0.181217
vt 0.433600 0.201071
vt 0.680456 0.748418
vt 0.715926 0.715021
vt 0.715926 0.760404
vt 0.685443 0.698584
vt 0.244215 0.776983
vt 0.272182 0.792932
vt 0.680456 0.805743
vt 0.659006 0.791380
vt 0.557184 0.288216
vt 0.473353 0.329079
vt 0.395491 0.367353
vt 0.151084 0.509776
vt 0.209158 0.454636
vt 0.174809 0.538276
vt 0.209158 0.567024
vt 0.194082 0.615489
vt 0.167626 0.425085
vt 0.000000 0.571049
vt 0.298511 0.248937
vt 0.360714 0.206920
vt 0.072455 0.454511
vt 0.105728 0.427788
vt 0.594537 0.698584
vt 0.594537 0.795343
vt 0.544202 0.775037
vt 0.445886 0.290027
vt 0.491183 0.225353
vt 0.451335 0.178547
vt 0.203707 0.716245
vt 0.203707 0.818564
vt 0.192021 0.781281
vt 0.228973 0.649623
vt 0.228860 0.711101
vt 0.281879 0.642219
vt 0.209158 0.651812
vt 0.517807 0.658551
vt 0.465396 0.647942
vt 0.543947 0.664898
vt 0.005590 0.103998
vt 0.824922 0.915610
vt 0.801547 0.899558
vt 0.644831 0.284330
vt 0.654625 0.258807
vt 0.654625 0.310010
vt 0.347976 0.396587
vt 0.000000 0.787182
vt 0.038220 0.716245
vt 0.038220 0.803758
vt 0.782633 0.072332
vt 0.821853 0.000000
vt 0.787860 0.746771
vt 0.690571 0.803791
vt 0.479252 0.312326
vt 0.537801 0.169918
vt 0.528914 0.119761
vt 0.540972 0.230150
vn 0.1073 0.9679 -0.2274
vn -0.0284 0.7549 -0.6552
vn 0.6203 0.2335 -0.7488
vn -0.2233 0.6102 0.7601
vn -0.0213 0.9824 0.1856
vn 0.4027 0.6681 -0.6257
vn -0.3915 0.8001 -0.4545
vn -0.8144 0.5354 0.2240
vn -0.6210 0.5938 0.5117
vn -0.3132 -0.1165 -0.9425
vn -0.0492 0.0322 -0.9983
vn -0.1519 0.4412 -0.8844
vn -0.9071 -0.0747 -0.4143
vn -0.5686 0.3071 -0.7631
vn -0.6327 0.3252 -0.7027
vn -0.1101 0.9678 -0.2264
vn 0.0759 0.9365 0.3424
vn 0.6808 0.5707 0.4591
vn -0.0432 0.9981 0.0434
vn -0.0899 0.6712 -0.7358
vn -0.9634 0.2622 0.0562
vn -0.4024 0.7137 -0.5733
vn -0.5292 0.8307 -0.1730
vn -0.7297 0.6168 0.2950
vn -0.9482 0.2990 -0.1075
vn -0.7571 0.6532 0.0103
vn -0.2281 0.4788 -0.8477
vn -0.1839 0.9673 -0.1749
vn 0.1206 0.5244 -0.8429
vn 0.4680 0.8114 -0.3501
vn 0.2433 0.9488 0.2012
vn 0.7558 0.6040 0.2528
vn -0.0458 0.9645 0.2600
vn 0.3096 -0.1493 -0.9391
vn 0.7248 0.6169 0.3066
vn 0.5666 0.3209 -0.7589
vn 0.9480 0.3016 -0.1012
vn 0.9615 0.2710 0.0449
vn 0.6799 0.7241 -0.1158
vn 0.1831 0.7113 -0.6786
vn 0.0447 0.2884 -0.9565
vn 0.1880 0.9765 -0.1052
vn -0.0906 -0.6194 -0.7798
vn -0.2109 0.2110 -0.9545
vn -0.3887 -0.5838 -0.7128
vn 0.2061 -0.6521 -0.7296
vn 0.4789 -0.4713 -0.7407
vn -0.0292 -0.8757 -0.4821
vn 0.4040 -0.9141 -0.0336
vn 0.6258 -0.5935 -0.5061
vn 0.0073 -0.8596 0.5109
vn -0.3890 -0.9104 0.1408
vn -0.6329 -0.6289 -0.4515
vn -0.6793 -0.6415 0.3563
vn 0.6828 -0.6418 0.3490
vn 0.3749 -0.3997 0.8364
vn 0.0107 -0.4922 0.8704
vn 0.1408 -0.1815 0.9733
vn -0.3352 -0.3292 0.8828
vn -0.0442 -0.1889 0.9810
vn 0.0615 -0.1822 0.9813
vn 0.2308 -0.2632 0.9367
vn 0.1273 -0.2032 0.9708
vn 0.3941 -0.2958 0.8701
vn 0.6855 -0.2894 0.6680
vn 0.4307 -0.1918 0.8819
vn 0.3232 0.1861 0.9278
vn 0.8847 0.4326 0.1736
vn 0.9705 -0.2384 0.0352
vn 0.8591 0.3976 -0.3223
vn 0.9094 -0.4159 0.0078
vn 0.7958 -0.1045 -0.5965
vn 0.5525 -0.5181 -0.6529
vn 0.5860 -0.0237 -0.8100
vn 0.2589 0.8270 -0.4990
vn 0.3889 0.4473 -0.8054
vn -0.0862 -0.1557 0.9840
vn -0.0587 -0.1389 0.9886
vn -0.0518 0.4272 0.9027
vn 0.0992 0.3091 0.9459
vn 0.9067 -0.0479 -0.4190
vn -0.4233 0.5878 0.6894
vn -0.2861 0.4488 -0.8466
vn -0.6095 0.0522 -0.7910
vn -0.9162 -0.4004 -0.0145
vn -0.8816 0.1515 -0.4471
vn -0.7625 -0.2982 -0.5742
vn -0.6456 -0.4298 -0.6313
vn -0.9737 -0.1540 0.1679
vn -0.4155 -0.4840 0.7702
vn -0.6388 -0.3038 0.7069
vn -0.2010 -0.2194 0.9547
vn -0.0354 -0.1973 0.9797
vn -0.9692 -0.0260 0.2449
usemtl hoodie
s 1
f 1/1/1 2/2/2 3/3/3
f 4/4/4 2/2/2 1/1/1
f 5/5/5 2/6/2 4/7/4
f 36/8/6 38/9/7 1/1/1
f 1/1/1 93/10/8 89/11/9
f 8/12/10 7/13/11 6/14/12
f 9/15/13 10/16/14 8/12/10
f 9/15/13 8/12/10 11/17/15
f 11/17/15 8/12/10 6/14/12
f 11/17/15 6/14/12 12/18/16
f 12/19/16 6/20/12 13/21/17
f 13/22/17 65/23/18 12/19/16
f 13/24/17 6/25/12 14/26/19
f 15/27/20 16/28/21 17/29/22
f 11/30/15 12/31/16 17/29/22
f 17/29/22 16/28/21 11/30/15
f 18/32/23 16/28/21 15/27/20
f 16/28/21 18/32/23 19/33/24
f 20/34/25 16/28/21 21/35/26
f 16/28/21 19/33/24 21/35/26
f 20/34/25 21/35/26 10/36/14
f 10/36/14 21/35/26 22/37/27
f 21/35/26 23/38/28 22/37/27
f 22/39/27 8/12/10 10/16/14
f 7/13/11 8/12/10 22/39/27
f 23/40/28 24/41/29 22/39/27
f 7/13/11 22/39/27 24/41/29
f 25/42/30 24/43/29 23/44/28
f 26/45/31 25/42/30 23/44/28
f 27/46/32 26/45/31 28/47/33
f 27/46/32 25/42/30 26/45/31
f 24/41/29 29/48/34 7/13/11
f 27/46/32 28/47/33 30/49/35
f 24/41/29 25/50/30 31/51/36
f 31/52/36 25/42/30 32/53/37
f 32/53/37 25/42/30 27/46/32
f 27/54/32 30/55/35 33/56/38
f 27/54/32 33/56/38 32/57/37
f 30/49/35 34/58/39 33/59/38
f 35/60/40 33/59/38 34/58/39
f 36/8/6 33/59/38 35/60/40
f 35/60/40 34/58/39 37/61/41
f 38/9/7 36/62/6 35/63/40
f 39/64/42 37/61/41 34/58/39
f 40/65/43 41/66/44 37/67/41
f 42/68/45 40/69/43 43/70/46
f 40/65/43 44/71/47 43/72/46
f 42/73/45 43/74/46 45/75/48
f 46/76/49 45/77/48 47/78/50
f 46/76/49 48/79/51 45/77/48
f 45/77/48 48/79/51 49/80/52
f 50/81/53 42/68/45 45/77/48
f 45/77/48 49/80/52 50/81/53
f 50/81/53 49/80/52 51/82/54
f 49/80/52 48/79/51 51/82/54
f 47/83/50 52/84/55 46/85/49
f 52/84/55 48/86/51 46/85/49
f 53/87/56 54/88/57 52/84/55
f 54/88/57 48/86/51 52/84/55
f 54/89/57 53/90/56 55/91/58
f 56/92/59 54/89/57 57/93/60
f 54/89/57 58/94/61 57/93/60
f 55/91/58 58/94/61 54/89/57
f 55/91/58 59/95/62 60/96/63
f 61/97/64 59/95/62 55/91/58
f 61/97/64 55/91/58 53/90/56
f 52/84/55 61/98/64 53/87/56
f 62/99/65 63/100/66 61/97/64
f 63/100/66 59/95/62 61/97/64
f 64/101/67 59/95/62 63/100/66
f 65/23/18 64/102/67 63/103/66
f 62/99/65 65/104/18 63/100/66
f 62/105/65 66/106/68 65/107/18
f 67/108/69 68/109/70 66/106/68
f 67/108/69 69/110/71 70/111/72
f 68/109/70 67/108/69 70/111/72
f 61/98/64 69/110/71 62/105/65
f 62/105/65 69/110/71 67/108/69
f 66/106/68 62/105/65 67/108/69
f 69/110/71 61/98/64 52/84/55
f 69/110/71 52/84/55 47/83/50
f 70/111/72 69/110/71 47/83/50
f 45/75/48 43/74/46 71/112/73
f 45/75/48 71/112/73 47/113/50
f 37/67/41 72/114/74 44/71/47
f 37/67/41 44/71/47 40/65/43
f 71/112/73 70/115/72 47/113/50
f 71/116/73 43/117/46 44/118/47
f 15/119/20 72/114/74 37/67/41
f 37/120/41 18/32/23 15/27/20
f 73/121/75 72/114/74 15/119/20
f 68/122/70 74/123/76 73/121/75
f 74/123/76 68/122/70 70/124/72
f 72/114/74 73/121/75 74/123/76
f 15/119/20 17/125/22 73/121/75
f 66/106/68 73/126/75 65/107/18
f 73/121/75 12/31/16 65/23/18
f 64/102/67 65/23/18 13/22/17
f 17/125/22 12/31/16 73/121/75
f 73/121/75 66/106/68 68/122/70
f 75/127/77 76/128/78 57/93/60
f 78/129/79 14/130/19 5/131/5
f 77/132/80 14/130/19 78/129/79
f 77/133/80 13/22/17 14/134/19
f 3/135/3 79/136/81 33/56/38
f 36/8/6 1/1/1 3/3/3
f 3/3/3 33/59/38 36/8/6
f 90/137/82 1/1/1 89/11/9
f 80/138/83 38/9/7 81/139/84
f 35/63/40 81/139/84 38/9/7
f 82/140/85 83/141/86 84/142/87
f 50/81/53 82/140/85 84/142/87
f 81/143/84 85/144/88 42/68/45
f 42/68/45 84/142/87 81/143/84
f 50/81/53 51/82/54 82/140/85
f 83/141/86 82/140/85 86/145/89
f 51/82/54 48/79/51 54/146/57
f 51/147/54 54/89/57 87/148/90
f 51/82/54 56/149/59 82/140/85
f 88/150/91 82/140/85 56/149/59
f 86/145/89 82/140/85 88/150/91
f 89/151/9 86/152/89 88/153/91
f 87/148/90 56/92/59 51/147/54
f 87/148/90 54/89/57 56/92/59
f 56/92/59 90/137/82 88/154/91
f 56/92/59 91/155/92 90/137/82
f 76/128/78 91/155/92 56/92/59
f 56/92/59 57/93/60 76/128/78
f 92/156/93 76/128/78 75/127/77
f 92/156/93 91/155/92 76/128/78
f 90/137/82 89/11/9 88/154/91
f 86/157/89 89/158/9 93/159/8
f 83/160/86 93/10/8 38/161/7
f 86/162/89 93/10/8 83/160/86
f 38/161/7 80/163/83 83/160/86
f 33/56/38 79/136/81 32/57/37
f 29/48/34 31/51/36 79/164/81
f 31/51/36 29/48/34 24/41/29
f 32/165/37 79/164/81 31/51/36
f 3/166/3 29/48/34 79/164/81
f 2/2/2 29/48/34 3/166/3
f 34/58/39 30/49/35 39/64/42
f 30/49/35 28/47/33 39/64/42
f 94/167/94 28/47/33 26/45/31
f 18/32/23 39/168/42 28/169/33
f 37/120/41 39/168/42 18/32/23
f 18/32/23 28/169/33 19/33/24
f 94/167/94 26/45/31 23/44/28
f 94/170/94 23/171/28 28/172/33
f 28/169/33 23/38/28 21/35/26
f 19/33/24 28/169/33 21/35/26
f 40/69/43 42/68/45 85/144/88
f 40/65/43 85/173/88 41/66/44
f 50/174/53 84/175/87 42/176/45
f 81/139/84 41/66/44 85/173/88
f 81/139/84 35/63/40 41/66/44
f 41/66/44 35/63/40 37/67/41
f 72/177/74 71/116/73 44/118/47
f 72/177/74 70/178/72 71/116/73
f 74/123/76 70/124/72 72/114/74
f 2/6/2 5/5/5 14/26/19
f 10/36/14 9/179/13 20/34/25
f 20/34/25 9/179/13 16/28/21
f 16/28/21 9/179/13 11/30/15
f 4/180/4 78/129/79 5/131/5
f 84/142/87 83/141/86 81/143/84
f 83/181/86 80/138/83 81/139/84
f 92/156/93 60/96/63 78/182/79
f 57/93/60 58/94/61 75/127/77
f 60/96/63 59/95/62 78/182/79
f 59/95/62 77/183/80 78/182/79
f 91/155/92 92/156/93 78/182/79
f 60/96/63 75/127/77 58/94/61
f 78/182/79 4/184/4 91/155/92
f 58/94/61 55/91/58 60/96/63
f 60/96/63 92/156/93 75/127/77
f 64/102/67 13/22/17 77/133/80
f 64/102/67 77/133/80 59/95/62
f 91/155/92 4/184/4 90/137/82
f 1/1/1 90/137/82 4/184/4
f 7/13/11 2/2/2 6/14/12
f 14/26/19 6/14/12 2/6/2
f 1/1/1 38/9/7 93/10/8
f 2/2/2 7/13/11 29/48/34
