# Blender v2.79 (sub 0) OBJ File: ''
# www.blender.org
mtllib wings.mtl
o instance_0.004_ID31
v 3.772165 0.014725 0.468794
v 3.772165 0.014725 -3.444393
l 2 1
o instance_0.003_ID25
v -0.124429 0.014725 -1.548719
v -0.189368 0.041713 -1.435946
v -0.254308 0.014725 -1.323173
v 0.142460 0.014725 -1.219024
v -0.124429 0.014725 -1.548719
v -0.254308 0.014725 -1.323173
v -0.124429 0.014725 -1.548719
v -0.254308 0.014725 -1.323173
v -0.189368 -0.019322 -1.435946
v -0.124429 0.014725 -1.548719
v -0.550171 0.014725 -1.656604
v -0.189368 0.041713 -1.435946
v -0.189368 0.041713 -1.435946
v -0.550171 0.014725 -1.656604
v -0.254308 0.014725 -1.323173
v 0.142460 0.014725 -1.219024
v -0.254308 0.014725 -1.323173
v -0.189368 -0.019322 -1.435946
v 0.142460 0.014725 -1.219024
v -0.189368 -0.019322 -1.435946
v -0.124429 0.014725 -1.548719
v -0.550171 0.014725 -1.656604
v -0.189368 -0.019322 -1.435946
v -0.254308 0.014725 -1.323173
v -0.550171 0.014725 -1.656604
v -0.124429 0.014725 -1.548719
v -0.189368 -0.019322 -1.435946
v -0.550171 0.014725 -1.656604
v 0.142460 0.014725 -1.219024
v -0.124429 0.014725 -1.548719
v -0.189368 0.041713 -1.435946
v 0.142460 0.014725 -1.219024
v -0.189368 0.041713 -1.435946
v -0.254308 0.014725 -1.323173
vn 0.8666 -0.0000 0.4990
vn 0.0000 1.0000 -0.0000
vn 0.0517 0.9776 -0.2042
vn -0.1598 0.9769 0.1418
vn -0.0664 -0.9651 0.2531
vn 0.2098 -0.9629 -0.1699
vn -0.1989 -0.9640 0.1765
vn 0.0644 -0.9650 -0.2542
vn 0.1686 0.9762 -0.1365
vn -0.0534 0.9777 0.2032
usemtl __auto_
s off
f 3//1 4//1 5//1
f 6//2 7//2 8//2
f 9//1 10//1 11//1
f 12//3 13//3 14//3
f 15//4 16//4 17//4
f 18//5 19//5 20//5
f 21//6 22//6 23//6
f 7//2 24//2 8//2
f 25//7 26//7 27//7
f 28//8 29//8 30//8
f 31//9 32//9 33//9
f 34//10 35//10 36//10
o instance_0.002_ID19
v -0.344335 0.124263 -1.024354
v -0.815167 0.014725 -1.178914
v -0.386259 0.014725 -0.867182
v -0.302411 0.014725 -1.181527
v -0.815167 0.014725 -1.178914
v -0.344335 0.124263 -1.024354
v -0.344335 -0.123467 -1.024354
v -0.386259 0.014725 -0.867182
v -0.815167 0.014725 -1.178914
v -0.302411 0.014725 -1.181527
v -0.344335 0.124263 -1.024354
v -0.386259 0.014725 -0.867182
v 0.162689 0.014725 -0.874659
v -0.344335 0.124263 -1.024354
v -0.386259 0.014725 -0.867182
v -0.302411 0.014725 -1.181527
v -0.344335 -0.123467 -1.024354
v -0.815167 0.014725 -1.178914
v 0.162689 0.014725 -0.874659
v -0.302411 0.014725 -1.181527
v -0.344335 0.124263 -1.024354
v -0.302411 0.014725 -1.181527
v -0.386259 0.014725 -0.867182
v -0.344335 -0.123467 -1.024354
v 0.162689 0.014725 -0.874659
v -0.386259 0.014725 -0.867182
v -0.344335 -0.123467 -1.024354
v -0.302411 0.014725 -1.181527
v -0.815167 0.014725 -1.178914
v -0.386259 0.014725 -0.867182
v 0.162689 0.014725 -0.874659
v 0.162689 0.014725 -0.874659
v -0.344335 -0.123467 -1.024354
v -0.302411 0.014725 -1.181527
vn -0.3440 0.8109 0.4734
vn -0.0029 0.8200 -0.5723
vn -0.3958 -0.7394 0.5446
vn 0.9662 -0.0000 0.2577
vn 0.0078 0.8194 0.5732
vn -0.0034 -0.7505 -0.6608
vn 0.3188 0.8154 -0.4832
vn 0.0090 -0.7498 0.6616
vn 0.0000 1.0000 0.0000
vn 0.3674 -0.7449 -0.5569
usemtl __auto_
s off
f 37//11 38//11 39//11
f 40//12 41//12 42//12
f 43//13 44//13 45//13
f 46//14 47//14 48//14
f 49//15 50//15 51//15
f 52//16 53//16 54//16
f 55//17 56//17 57//17
f 58//14 59//14 60//14
f 61//18 62//18 63//18
f 64//19 65//19 66//19
f 67//19 64//19 66//19
f 68//20 69//20 70//20
o instance_0.001_ID13
v 0.131662 0.014725 -0.614721
v -0.303849 0.014725 -0.709808
v -0.289874 0.041713 -0.580427
v 0.131662 0.014725 -0.614721
v -0.289874 -0.019322 -0.580427
v -0.303849 0.014725 -0.709808
v -0.303849 0.014725 -0.709808
v -0.275899 0.014725 -0.451045
v -0.289874 0.041713 -0.580427
v -0.289874 0.041713 -0.580427
v -0.303849 0.014725 -0.709808
v -0.685798 0.014725 -0.560185
v 0.131662 0.014725 -0.614721
v -0.289874 0.041713 -0.580427
v -0.275899 0.014725 -0.451045
v 0.131662 0.014725 -0.614721
v -0.275899 0.014725 -0.451045
v -0.289874 -0.019322 -0.580427
v -0.289874 -0.019322 -0.580427
v -0.289874 -0.019322 -0.580427
v -0.685798 0.014725 -0.560185
v -0.303849 0.014725 -0.709808
v 0.131662 0.014725 -0.614721
v -0.303849 0.014725 -0.709808
v -0.275899 0.014725 -0.451045
v -0.685798 0.014725 -0.560185
v -0.275899 0.014725 -0.451045
v -0.289874 0.041713 -0.580427
v -0.685798 0.014725 -0.560185
v -0.275899 0.014725 -0.451045
v -0.685798 0.014725 -0.560185
v -0.289874 -0.019322 -0.580427
vn 0.0456 0.9769 -0.2087
vn 0.0567 -0.9640 -0.2598
vn -0.9942 0.0000 0.1074
vn -0.0766 0.9777 -0.1957
vn 0.0785 0.9776 0.1954
vn 0.0977 -0.9650 0.2434
vn -0.0955 -0.9651 -0.2437
vn 0.0000 1.0000 -0.0000
vn -0.0558 0.9762 0.2096
vn -0.0695 -0.9629 0.2609
usemtl __auto_
s off
f 71//21 72//21 73//21
f 74//22 75//22 76//22
f 77//23 78//23 79//23
f 80//24 81//24 82//24
f 83//25 84//25 85//25
f 86//26 87//26 88//26
f 77//23 89//23 78//23
f 90//27 91//27 92//27
f 93//28 94//28 95//28
f 95//28 94//28 96//28
f 97//29 98//29 99//29
f 100//30 101//30 102//30
o instance_0_ID5
v 0.005741 0.092513 -0.183579
v 0.000000 0.014725 -0.183579
v 0.195904 0.014725 -0.296808
v 0.195904 0.014725 -0.296808
v 0.002870 -0.034343 -0.183579
v 0.005741 -0.083411 -0.183579
v 0.000000 0.014725 -0.183579
v 0.195904 0.053619 -0.296808
v 0.005741 0.092513 -0.183579
v 0.195904 0.014725 -0.296808
v 0.195904 0.071875 -0.296808
v 0.195904 -0.034343 -0.296808
v 0.005741 -0.083411 -0.183579
v 0.195904 -0.083411 -0.296808
v 0.195904 0.014725 -0.296808
v 0.000000 0.014725 -0.183579
v -0.105826 -0.031339 -0.250877
v 0.002870 -0.034343 -0.183579
v -0.105826 -0.031339 -0.250877
v 0.005741 -0.083411 -0.183579
v 0.002870 -0.034343 -0.183579
v 0.103753 0.014725 -0.456243
v 0.195904 0.014725 -0.296808
v 0.195904 -0.034343 -0.296808
v 0.195904 0.053619 -0.296808
v 0.103753 0.014725 -0.456243
v 0.195904 0.071875 -0.296808
v 0.195904 0.053619 -0.296808
v 0.195904 0.071875 -0.296808
v 0.005741 0.053619 -0.317947
v 0.005741 0.092513 -0.183579
v 0.103753 -0.019322 -0.456243
v 0.195904 -0.034343 -0.296808
v 0.195904 -0.083411 -0.296808
v 0.103753 0.014725 -0.456243
v 0.195904 -0.083411 -0.296808
v 0.005741 -0.083411 -0.183579
v 0.005741 -0.034343 -0.317947
v 0.002870 -0.034343 -0.183579
v -0.105826 -0.031339 -0.250877
v -0.268682 0.000000 -0.140528
v 0.005741 -0.083411 -0.183579
v -0.105826 -0.031339 -0.250877
v 0.005741 -0.034343 -0.317947
v 0.005741 -0.083411 -0.183579
v -0.105826 -0.031339 -0.250877
v 0.005741 -0.083411 -0.317947
v 0.103753 0.014725 -0.456243
v 0.195904 -0.034343 -0.296808
v 0.259311 0.014725 -0.274000
v 0.259311 0.014725 -0.274000
v 0.195904 0.053619 -0.296808
v 0.103753 0.014725 -0.456243
v 0.195904 0.071875 -0.296808
v 0.103753 0.014725 -0.456243
v 0.094718 0.022706 -0.454445
v 0.195904 0.071875 -0.296808
v 0.094718 0.022706 -0.454445
v 0.005741 0.053619 -0.317947
v 0.005741 0.053619 -0.317947
v -0.105826 0.051238 -0.250877
v 0.005741 0.092513 -0.183579
v 0.005741 0.092513 -0.317947
v 0.005741 0.092513 -0.183579
v 0.005741 0.053619 -0.317947
v 0.195904 -0.083411 -0.296808
v 0.005741 -0.034343 -0.317947
v 0.103753 -0.019322 -0.456243
v -0.198298 0.041713 -0.396127
v 0.103753 -0.019322 -0.456243
v -0.198298 -0.019322 -0.396127
v 0.103753 0.014725 -0.456243
v 0.094718 0.022706 -0.454445
v 0.005741 -0.034343 -0.317947
v 0.005741 -0.083411 -0.183579
v 0.005741 -0.083411 -0.317947
v 0.002870 -0.034343 -0.183579
v -0.268682 0.000000 -0.140528
v 0.000000 0.000000 0.000000
v 0.005741 0.014725 -0.317947
v 0.005741 -0.034343 -0.317947
v -0.105826 -0.031339 -0.250877
v 0.005741 -0.034343 -0.317947
v -0.105826 -0.031339 -0.250877
v -0.198298 -0.019322 -0.396127
v -0.105826 -0.031339 -0.250877
v 0.005741 -0.034343 -0.317947
v 0.005741 -0.083411 -0.317947
v 0.259311 0.014725 -0.274000
v 0.195904 -0.034343 -0.296808
v 0.241276 0.014725 -0.153098
v 0.259311 0.014725 -0.274000
v 0.241276 0.014725 -0.153098
v 0.195904 0.053619 -0.296808
v 0.094718 0.022706 -0.454445
v -0.198298 0.041713 -0.396127
v 0.005741 0.053619 -0.317947
v 0.005741 0.053619 -0.317947
v 0.005741 0.014725 -0.317947
v -0.105826 0.051238 -0.250877
v 0.005741 0.053619 -0.317947
v -0.198298 0.041713 -0.396127
v -0.105826 0.051238 -0.250877
v 0.005741 0.092513 -0.183579
v -0.105826 0.051238 -0.250877
v 0.002870 0.053619 -0.183579
v 0.005741 0.092513 -0.317947
v -0.105826 0.051238 -0.250877
v 0.005741 0.092513 -0.183579
v 0.005741 0.092513 -0.317947
v 0.103753 -0.019322 -0.456243
v 0.005741 -0.034343 -0.317947
v -0.198298 -0.019322 -0.396127
v -0.198298 0.041713 -0.396127
v -0.268682 0.000000 -0.140528
v -0.268682 0.026397 -0.140528
v -0.198298 -0.019322 -0.396127
v 0.195904 -0.034343 -0.296808
v 0.002870 -0.034343 -0.183579
v 0.000000 0.000000 0.000000
v -0.105826 -0.031339 -0.250877
v -0.268682 0.000000 -0.140528
v -0.198298 -0.019322 -0.396127
v 0.241276 0.014725 -0.153098
v 0.195904 -0.034343 -0.296808
v 0.000000 0.000000 0.000000
v 0.441425 0.041713 -1.111103
v 0.259311 0.014725 -0.274000
v 0.241276 0.014725 -0.153098
v 0.383685 0.014725 -1.107735
v 0.499166 0.014725 -1.114472
v 0.259311 0.014725 -0.274000
v 0.241276 0.014725 -0.153098
v 0.383685 0.014725 -1.107735
v 0.259311 0.014725 -0.274000
v 0.441425 -0.019322 -1.111103
v 0.241276 0.014725 -0.153098
v 0.383685 0.014725 -1.107735
v 0.241276 0.014725 -0.153098
v 0.000000 0.026397 0.000000
v 0.195904 0.053619 -0.296808
v -0.105826 0.051238 -0.250877
v -0.198298 0.041713 -0.396127
v -0.268682 0.026397 -0.140528
v 0.002870 0.053619 -0.183579
v -0.105826 0.051238 -0.250877
v 0.000000 0.014725 -0.183579
v 0.000000 0.026397 0.000000
v -0.268682 0.000000 -0.140528
v 0.000000 0.000000 0.000000
v -0.268682 0.026397 -0.140528
v 0.000000 0.026397 0.000000
v 0.241276 0.014725 -0.153098
v 0.000000 0.000000 0.000000
v 0.499166 0.014725 -1.114472
v 0.441425 0.041713 -1.111103
v 0.241276 0.014725 -0.153098
v 0.441425 0.041713 -1.111103
v 0.499166 0.014725 -1.114472
v 0.383685 0.014725 -1.107735
v 0.441425 0.041713 -1.111103
v 0.011284 0.014725 -1.837340
v 0.383685 0.014725 -1.107735
v 0.499166 0.014725 -1.114472
v 0.441425 -0.019322 -1.111103
v 0.383685 0.014725 -1.107735
v 0.011284 0.014725 -1.837340
v 0.499166 0.014725 -1.114472
v 0.241276 0.014725 -0.153098
v 0.441425 -0.019322 -1.111103
v 0.441425 -0.019322 -1.111103
v 0.383685 0.014725 -1.107735
v 0.011284 0.014725 -1.837340
v 0.195904 0.053619 -0.296808
v 0.000000 0.026397 0.000000
v 0.002870 0.053619 -0.183579
v 0.002870 0.053619 -0.183579
v -0.268682 0.026397 -0.140528
v -0.105826 0.051238 -0.250877
v 0.499166 0.014725 -1.114472
v 0.011284 0.014725 -1.837340
v 0.441425 0.041713 -1.111103
v 0.499166 0.014725 -1.114472
v 0.441425 -0.019322 -1.111103
v 0.011284 0.014725 -1.837340
v 0.002870 0.053619 -0.183579
v 0.000000 0.026397 0.000000
v -0.268682 0.026397 -0.140528
vn 0.5001 -0.0369 0.8652
vn 0.5002 0.0293 0.8654
vn 0.5116 0.0000 0.8592
vn -0.5268 -0.0308 0.8494
vn 0.8658 0.0000 -0.5004
vn -0.0612 0.9588 -0.2775
vn -0.2001 -0.9203 -0.3361
vn 0.1049 0.9865 -0.1254
vn -0.2255 -0.9151 -0.3342
vn -0.4229 -0.9062 0.0000
vn -0.6286 0.5629 0.5366
vn -0.5769 -0.6517 0.4924
vn 0.4980 0.6840 -0.5330
vn -0.0636 0.9636 -0.2597
vn -0.1844 0.9441 -0.2733
vn 1.0000 0.0000 0.0000
vn -0.2150 -0.9428 -0.2547
vn -0.1952 0.0000 -0.9808
vn 0.0950 0.9788 -0.1816
vn -0.5152 0.0000 -0.8571
vn -0.0553 -0.9973 -0.0473
vn -0.5897 0.8029 -0.0880
vn -0.5017 -0.8618 -0.0748
vn 0.0222 0.9781 -0.2070
vn -0.0439 0.9983 -0.0375
vn -0.5266 0.0389 0.8492
vn -0.3470 0.9379 0.0000
vn -0.0250 -0.9918 -0.1254
vn -0.9641 0.0000 -0.2655
vn -0.1082 0.9769 -0.1844
vn -0.1710 -0.9849 0.0274
vn -0.2181 0.9426 -0.2530
vn -0.4256 0.9027 -0.0635
vn 0.0000 1.0000 -0.0000
vn -0.5098 -0.8570 -0.0760
vn -0.1765 -0.9627 -0.2048
vn -0.1363 0.9904 0.0218
vn -0.4635 0.0000 0.8861
vn -0.5358 0.0000 -0.8444
vn 0.4261 0.8974 0.1143
vn -0.0582 -0.0000 -0.9983
vn -0.4044 0.8910 0.2064
vn 0.5091 -0.8498 0.1366
vn -0.4817 -0.8412 0.2458
vn -0.0865 -0.9853 -0.1475
vn 0.0836 -0.9915 -0.0999
vn 0.3953 0.8790 -0.2668
vn 0.4682 -0.8252 -0.3160
vn 0.0759 -0.9865 -0.1451
usemtl __auto_
s off
f 103//31 104//31 105//31
f 106//32 107//32 108//32
f 107//32 106//32 109//32
f 110//33 111//33 112//33
f 111//33 110//33 113//33
f 114//33 115//33 116//33
f 115//33 114//33 117//33
f 118//34 119//34 120//34
f 121//34 122//34 123//34
f 124//35 125//35 126//35
f 125//35 124//35 127//35
f 128//35 129//35 130//35
f 131//36 132//36 133//36
f 134//35 135//35 136//35
f 135//35 134//35 137//35
f 138//37 139//37 140//37
f 141//38 142//38 143//38
f 144//39 145//39 146//39
f 147//40 148//40 149//40
f 150//41 151//41 152//41
f 153//42 154//42 155//42
f 156//43 157//43 158//43
f 159//44 160//44 161//44
f 162//45 163//45 164//45
f 165//46 166//46 167//46
f 168//47 169//47 170//47
f 171//48 172//48 173//48
f 172//48 171//48 174//48
f 174//48 171//48 175//48
f 176//46 177//46 178//46
f 179//49 180//49 181//49
f 182//50 183//50 184//50
f 185//51 186//51 187//51
f 188//50 189//50 190//50
f 191//52 192//52 193//52
f 194//53 195//53 196//53
f 197//54 198//54 199//54
f 200//50 201//50 202//50
f 203//55 204//55 205//55
f 206//56 207//56 208//56
f 209//57 210//57 211//57
f 212//50 200//50 202//50
f 213//58 214//58 215//58
f 216//59 217//59 218//59
f 217//59 216//59 219//59
f 220//60 221//60 222//60
f 223//61 224//61 225//61
f 226//62 227//62 228//62
f 229//63 230//63 231//63
f 230//63 229//63 232//63
f 233//64 234//64 235//64
f 234//64 233//64 236//64
f 237//65 238//65 239//65
f 238//65 237//65 240//65
f 241//66 242//66 243//66
f 244//67 245//67 246//67
f 247//56 248//56 249//56
f 250//68 251//68 252//68
f 251//68 250//68 253//68
f 254//69 255//69 256//69
f 257//70 258//70 259//70
f 260//71 261//71 262//71
f 263//72 264//72 265//72
f 266//71 267//71 268//71
f 233//64 269//64 236//64
f 270//73 271//73 272//73
f 273//74 274//74 275//74
f 276//75 277//75 278//75
f 279//76 280//76 281//76
f 282//77 283//77 284//77
f 285//78 286//78 287//78
f 288//79 289//79 290//79
