# Blender v2.79 (sub 0) OBJ File: 'oldcrt.blend'
# www.blender.org
mtllib wood.mtl
o wood_Cube.007
v -0.746893 1.258755 -1.249936
v -0.750000 1.308744 -1.300000
v -0.749090 1.273392 -1.285337
v -0.750001 4.840286 -1.299998
v -0.750001 4.891321 -1.249510
v -0.750001 4.876346 -1.285210
v -0.750000 1.302500 3.500000
v -0.746893 1.252489 3.449936
v -0.749090 1.267141 3.485337
v -0.750001 4.897434 3.449512
v -0.750001 4.846529 3.500002
v -0.750001 4.882552 3.485214
v -3.200504 1.308425 -0.949578
v -3.200000 1.258356 -0.899142
v -3.250000 1.308351 -0.892500
v -3.200252 1.273050 -0.934715
v -3.228974 1.279525 -0.924267
v -3.235251 1.272997 -0.894355
v -3.235607 1.308401 -0.930019
v -3.200504 4.350504 -0.949576
v -3.250001 4.341650 -0.892498
v -3.200972 4.401450 -0.899022
v -3.235407 4.344033 -0.930041
v -3.229180 4.374434 -0.924240
v -3.235738 4.380057 -0.894294
v -3.200738 4.386318 -0.934654
v -3.200504 1.302819 3.149578
v -3.250000 1.302894 3.092500
v -3.200000 1.252888 3.099142
v -3.235607 1.302843 3.130019
v -3.228974 1.273984 3.124267
v -3.235251 1.267537 3.094355
v -3.200252 1.267484 3.134716
v -3.200504 4.356109 3.149580
v -3.200971 4.406918 3.099023
v -3.250001 4.347106 3.092502
v -3.200737 4.391883 3.134657
v -3.229179 4.379975 3.124243
v -3.235737 4.385517 3.094297
v -3.235407 4.349590 3.130046
v -0.709266 1.209015 -0.611780
v -0.710603 1.258889 -0.665175
v -0.708926 1.244286 -0.628826
v -0.750000 0.058648 -0.483500
v -0.748233 0.108629 -0.536895
v -0.749483 0.073327 -0.519850
v -0.710603 1.252355 2.865175
v -0.709267 1.202459 2.811779
v -0.708926 1.237736 2.828825
v -0.748233 0.102385 2.736896
v -0.750000 0.052596 2.683500
v -0.749482 0.067139 2.719850
v -2.542500 1.258996 -0.665175
v -2.431415 1.209015 -0.611780
v -2.482596 1.209789 -0.561722
v -2.486958 1.244317 -0.628826
v -2.488083 1.240101 -0.613727
v -2.467016 1.206686 -0.596945
v -2.504244 1.244542 -0.613429
v -2.542500 1.252248 2.865175
v -2.482596 1.203437 2.761734
v -2.431412 1.202459 2.811779
v -2.504244 1.237993 2.813474
v -2.488084 1.233556 2.813738
v -2.467022 1.200229 2.796951
v -2.486956 1.237705 2.828825
v -2.200000 0.058648 -0.483500
v -2.259904 0.107664 -0.486719
v -2.209074 0.108629 -0.536895
v -2.238428 0.072825 -0.484406
v -2.232878 0.079604 -0.513765
v -2.244844 0.108166 -0.522162
v -2.202486 0.073507 -0.519886
v -2.200000 0.052596 2.683500
v -2.209076 0.102385 2.736896
v -2.259904 0.101599 2.686731
v -2.202487 0.067321 2.719884
v -2.232878 0.073438 2.713768
v -2.244845 0.101972 2.722168
v -2.238427 0.066766 2.684412
vt 0.994697 0.210815
vt 0.877717 0.205895
vt 0.877717 0.033181
vt 0.994697 0.007208
vt 0.867108 0.047513
vt 0.867108 0.521422
vt 0.606777 0.563001
vt 0.602925 0.493690
vt 0.797332 0.493690
vt 0.797332 0.075244
vt 0.602925 0.075244
vt 0.606777 0.005934
vt 0.326176 0.478260
vt 0.005871 0.478260
vt 0.005287 0.005926
vt 0.326744 0.005926
vt 0.000000 0.490225
vt 0.262040 0.549028
vt 0.262040 0.910718
vt 0.000000 0.910047
vt 0.994664 0.416933
vt 0.877717 0.421854
vt 0.877717 0.218247
vt 0.994664 0.244220
vt 0.599364 0.950240
vt 0.599364 0.574861
vt 0.753242 0.574861
vt 0.753242 0.950240
vt 0.337343 0.047603
vt 0.602596 0.005985
vt 0.602596 0.562951
vt 0.337337 0.521483
vt 0.882545 0.575258
vt 0.882545 0.969181
vt 0.763828 0.960041
vt 0.763828 0.583898
vt 0.594071 0.574873
vt 0.594267 0.568949
vt 0.597433 0.568940
vt 0.599364 0.574855
vt 0.872414 0.520857
vt 0.872414 0.524403
vt 0.867356 0.527369
vt 0.005877 0.484187
vt 0.002827 0.484187
vt 0.000592 0.478483
vt 0.594071 0.935235
vt 0.599364 0.934454
vt 0.599364 0.938055
vt 0.594615 0.941151
vt 0.331455 0.478475
vt 0.331451 0.482025
vt 0.326428 0.484187
vt 0.336837 0.527389
vt 0.333540 0.526874
vt 0.332031 0.520926
vt 0.267333 0.910729
vt 0.267333 0.914148
vt 0.262237 0.916641
vt 0.000007 0.005709
vt 0.000003 0.002165
vt 0.005282 0.000000
vt 0.867356 0.041566
vt 0.870499 0.042068
vt 0.872414 0.048083
vt 0.262585 0.543112
vt 0.265844 0.543843
vt 0.267333 0.549814
vt 0.332037 0.048166
vt 0.332037 0.044618
vt 0.336842 0.041697
vt 0.327006 0.000000
vt 0.330215 0.000000
vt 0.332024 0.005716
vt 0.791438 0.487764
vt 0.791557 0.487764
vt 0.792026 0.487554
vt 0.994041 0.001323
vt 0.997988 0.000447
vt 1.000000 0.000655
vt 0.887825 0.975318
vt 0.887825 0.975352
vt 0.881787 0.975063
vt 0.792026 0.081369
vt 0.792026 0.081337
vt 0.791437 0.081171
vt 0.881796 0.569374
vt 0.885787 0.569083
vt 0.887825 0.569133
vt 0.872414 0.211694
vt 0.872414 0.211561
vt 0.878363 0.212360
vt 0.758549 0.950350
vt 0.758549 0.953832
vt 0.753506 0.956166
vt 0.763454 0.965953
vt 0.760203 0.965703
vt 0.758549 0.959759
vt 0.872414 0.033946
vt 0.872414 0.030353
vt 0.877255 0.027253
vt 0.753506 0.568935
vt 0.756732 0.568935
vt 0.758549 0.574756
vt 0.995121 0.238291
vt 0.998326 0.239003
vt 0.999967 0.244984
vt 0.758549 0.584165
vt 0.758549 0.580687
vt 0.763460 0.577986
vt 0.000125 0.915971
vt 0.607230 0.000020
vt 0.332031 0.993962
vt 0.332545 0.999885
vt 0.602076 0.568853
vt 0.332031 0.575619
vt 0.332155 0.569695
vt 0.607230 0.568915
vt 0.000515 0.484302
vt 0.602075 0.000082
vt 0.999967 0.416710
vt 0.599364 0.568935
vt 0.872414 0.205672
vt 0.599364 0.956166
vt 0.602747 0.487764
vt 1.000000 0.210870
vt 0.872414 0.421908
vt 0.602747 0.081171
vn 0.0000 -0.0679 -0.9977
vn -0.0000 -1.0000 -0.0006
vn -1.0000 -0.0000 0.0000
vn -0.1416 -0.0000 0.9899
vn 0.0000 -0.0679 0.9977
vn 0.0000 -1.0000 -0.0019
vn -0.1961 0.9806 -0.0013
vn -0.9802 -0.1981 -0.0004
vn -0.4296 -0.3173 -0.8455
vn -0.3645 -0.8755 -0.3172
vn -0.8975 -0.3174 -0.3061
vn -0.4775 0.3015 -0.8253
vn -0.9097 0.2883 -0.2989
vn -0.4999 0.8095 -0.3079
vn -0.4298 -0.3175 0.8452
vn -0.8978 -0.3175 0.3053
vn -0.3647 -0.8762 0.3151
vn -0.4778 0.3017 0.8250
vn -0.5002 0.8101 0.3060
vn -0.9099 0.2884 0.2982
vn -0.1698 -0.9695 -0.1765
vn -0.3670 -0.7068 -0.6048
vn -0.5801 -0.7288 -0.3636
vn -0.1697 -0.9702 0.1730
vn -0.5801 -0.7299 0.3615
vn -0.3678 -0.7082 0.6027
vn -0.2902 -0.9049 -0.3113
vn -0.8168 -0.4839 -0.3141
vn -0.3046 -0.4282 -0.8508
vn -0.2904 -0.9059 0.3084
vn -0.3049 -0.4288 0.8504
vn -0.8172 -0.4842 0.3126
vn -0.9329 0.0000 -0.3602
vn -0.4876 0.0000 -0.8731
vn -0.4876 0.0000 0.8731
vn -0.9329 0.0000 0.3602
vn -0.9374 0.3481 -0.0005
vn -0.5241 0.8516 -0.0012
vn -0.3837 -0.9235 -0.0013
vn -0.9229 -0.3850 -0.0005
vn -0.1308 -0.3839 0.9141
vn -0.0543 -0.9239 0.3789
vn -0.2041 0.3734 -0.9049
vn -0.2332 0.8956 -0.3788
vn -0.1307 -0.3838 -0.9141
vn -0.0542 -0.9235 -0.3798
vn -0.2042 0.3738 0.9048
vn -0.2333 0.8965 0.3767
vn -0.8481 -0.5298 -0.0010
vn -0.3513 -0.9363 -0.0018
vn -0.3460 -0.9382 -0.0018
vn -0.8512 -0.5248 -0.0010
vn -0.9002 -0.2080 -0.3826
vn -0.3745 -0.1381 -0.9169
vn -0.9004 -0.2081 0.3820
vn -0.3745 -0.1382 0.9169
vn -0.0000 -0.4359 0.9000
vn -0.0001 -0.9277 0.3733
vn -0.0000 -0.4353 -0.9003
vn -0.0001 -0.9265 -0.3762
vn -0.0000 -0.9276 -0.3736
vn -0.0000 -0.4350 -0.9004
vn 0.0000 -0.4352 0.9003
vn 0.0000 -0.9281 0.3723
vn -0.1416 0.0000 -0.9899
usemtl Material.003
s off
f 41/1/1 45/2/1 69/3/1 54/4/1
f 29/5/2 14/6/2 1/7/2 42/8/2 53/9/2 60/10/2 47/11/2 8/12/2
f 21/13/3 15/14/3 28/15/3 36/16/3
f 11/17/4 34/18/4 27/19/4 7/20/4
f 50/21/5 48/22/5 62/23/5 75/24/5
f 44/25/6 51/26/6 74/27/6 67/28/6
f 35/29/7 10/30/7 5/31/7 22/32/7
f 61/33/8 55/34/8 68/35/8 76/36/8
f 13/37/9 16/38/9 17/39/9 19/40/9
f 14/6/10 18/41/10 17/42/10 16/43/10
f 15/14/11 19/44/11 17/45/11 18/46/11
f 20/47/12 23/48/12 24/49/12 26/50/12
f 21/13/13 25/51/13 24/52/13 23/53/13
f 22/32/14 26/54/14 24/55/14 25/56/14
f 27/19/15 30/57/15 31/58/15 33/59/15
f 28/15/16 32/60/16 31/61/16 30/62/16
f 29/5/17 33/63/17 31/64/17 32/65/17
f 34/18/18 37/66/18 38/67/18 40/68/18
f 35/29/19 39/69/19 38/70/19 37/71/19
f 36/16/20 40/72/20 38/73/20 39/74/20
f 53/9/21 56/75/21 57/76/21 59/77/21
f 54/4/22 58/78/22 57/79/22 56/80/22
f 55/34/23 59/81/23 57/82/23 58/83/23
f 60/10/24 63/84/24 64/85/24 66/86/24
f 61/33/25 65/87/25 64/88/25 63/89/25
f 62/23/26 66/90/26 64/91/26 65/92/26
f 67/28/27 70/93/27 71/94/27 73/95/27
f 68/35/28 72/96/28 71/97/28 70/98/28
f 69/3/29 73/99/29 71/100/29 72/101/29
f 74/27/30 77/102/30 78/103/30 80/104/30
f 75/24/31 79/105/31 78/106/31 77/107/31
f 76/36/32 80/108/32 78/109/32 79/110/32
f 15/14/33 21/13/33 23/53/33 19/44/33
f 19/40/34 23/48/34 20/47/34 13/37/34
f 27/19/35 34/18/35 40/68/35 30/57/35
f 30/62/36 40/72/36 36/16/36 28/15/36
f 21/13/37 36/16/37 39/74/37 25/51/37
f 25/56/38 39/69/38 35/29/38 22/32/38
f 14/6/39 29/5/39 32/65/39 18/41/39
f 18/46/40 32/60/40 28/15/40 15/14/40
f 7/20/41 27/19/41 33/59/41 9/111/41
f 9/112/42 33/63/42 29/5/42 8/12/42
f 4/113/43 20/47/43 26/50/43 6/114/43
f 6/115/44 26/54/44 22/32/44 5/31/44
f 13/37/45 2/116/45 3/117/45 16/38/45
f 16/43/46 3/118/46 1/7/46 14/6/46
f 34/18/47 11/17/47 12/119/47 37/66/47
f 37/71/48 12/120/48 10/30/48 35/29/48
f 55/34/49 61/33/49 63/89/49 59/81/49
f 59/77/50 63/84/50 60/10/50 53/9/50
f 67/28/51 74/27/51 80/104/51 70/93/51
f 70/98/52 80/108/52 76/36/52 68/35/52
f 68/35/53 55/34/53 58/83/53 72/96/53
f 72/101/54 58/78/54 54/4/54 69/3/54
f 61/33/55 76/36/55 79/110/55 65/87/55
f 65/92/56 79/105/56 75/24/56 62/23/56
f 50/21/57 75/24/57 77/107/57 52/121/57
f 52/122/58 77/102/58 74/27/58 51/26/58
f 69/3/59 45/2/59 46/123/59 73/99/59
f 73/95/60 46/124/60 44/25/60 67/28/60
f 53/9/61 42/8/61 43/125/61 56/75/61
f 56/80/62 43/126/62 41/1/62 54/4/62
f 62/23/63 48/22/63 49/127/63 66/90/63
f 66/86/64 49/128/64 47/11/64 60/10/64
f 4/113/65 2/116/65 13/37/65 20/47/65
