# Blender v2.79 (sub 0) OBJ File: 'in case i figure out how to tix it.blend'
# www.blender.org
mtllib hood.mtl
o ri_hoodie
v -0.166816 -0.630928 3.365839
v -2.721109 -0.500687 2.672812
v -2.245864 0.049072 -1.345502
v -5.825333 -0.987160 -0.657073
v -5.426512 -1.987141 -1.684813
v -4.453168 -3.766514 -2.154771
v -3.564574 -5.392277 -2.480547
v -2.167621 -0.725418 -2.107904
v -2.145564 -2.570977 -2.369923
v -2.496389 -6.646382 -2.480547
v -1.258305 -7.556759 -2.480547
v -0.122667 -7.889187 -2.480547
v -0.122669 -4.192215 -2.435825
v 1.012967 -7.556771 -2.480547
v 2.410728 -6.653698 -2.480547
v -0.033547 -1.949047 -2.376040
v -0.847314 -0.449257 -1.934946
v 3.620488 -5.302346 -2.303533
v 1.933708 -2.158238 -2.439071
v 1.937348 -0.414685 -2.003438
v 5.555677 -1.581990 -1.158143
v 4.571892 -3.862320 -2.154775
v 5.704507 -0.517773 0.295356
v 4.625101 0.358471 -0.681826
v 1.855565 0.284347 -1.566990
v -0.001487 0.349025 -1.510626
v 5.248649 0.092670 0.276945
v 0.010991 -0.123612 2.470733
v -1.344827 0.250572 1.527554
v -4.345116 0.007236 1.810257
v -4.664268 0.033596 0.423285
v -2.968416 0.454124 1.081815
v 0.112235 -0.659584 3.294308
v 3.398185 -0.093254 2.376011
v 2.126090 0.291546 0.161916
v 2.492126 -0.053460 1.967228
v 1.189130 0.157154 1.402192
v 1.278937 0.102111 2.176391
v -2.911108 -1.375775 -2.876718
v -2.629309 -3.075341 -3.673010
v -2.209871 -4.285851 -3.474654
v -1.551182 -5.125725 -3.357726
v -0.873691 -5.858357 -3.285593
v -0.095245 -6.190785 -3.205627
v 0.683199 -5.858368 -3.285593
v 1.474756 -5.133042 -3.357726
v 2.220747 -4.195920 -3.545551
v 2.567921 -3.171147 -3.673015
v -2.508661 -0.370350 -2.092294
v -1.261251 -5.538506 -2.433298
v -0.690199 -6.176907 -2.403951
v -0.144315 -6.410019 -2.403951
v 0.401566 -6.176915 -2.403951
v -2.316456 1.175544 1.648797
v -0.790973 0.724308 2.462181
v -1.472061 0.859901 2.501307
v -0.749731 0.344997 3.143461
v -0.621347 -0.231194 3.371890
v -1.995720 0.964149 2.364588
v -1.817431 0.525562 2.888583
v -1.829361 -0.022694 3.080379
v -2.561472 1.076778 2.141534
v -2.797342 0.720646 2.502243
v -2.960865 0.202568 2.634271
v -3.101079 1.184204 1.859049
v -3.731969 0.906711 2.012964
v -4.040080 0.417419 2.069301
v -3.288023 1.117122 1.591737
v -4.189713 0.771236 1.466395
v -3.533655 1.043720 1.241765
v -4.817846 0.481006 0.842825
v -3.316891 1.000568 0.749027
v -4.442401 0.406265 -0.010621
v -2.898487 0.917270 0.782921
v -3.606690 0.468307 -0.266982
v -2.374828 0.813018 0.919640
v -2.391375 0.392509 0.152572
v 2.226382 1.078830 1.568779
v 0.645289 0.707004 2.421469
v 1.326378 0.842598 2.460596
v 0.604047 0.327694 3.102750
v 0.475663 -0.169968 3.331179
v 1.850037 0.946846 2.323877
v 1.671747 0.508258 2.847872
v 1.683678 -0.039997 3.039668
v 2.415789 1.059475 2.100823
v 2.651659 0.703342 2.461532
v 2.815182 0.185264 2.593560
v 2.955396 1.131778 1.818338
v 3.586286 0.889408 1.972253
v 3.894396 0.400116 2.028590
v 2.571352 -1.027752 -2.752882
v 1.782014 -3.861466 -2.386944
v 1.217648 -5.482865 -2.627593
v 1.239931 -5.513791 -2.515187
vt 0.502009 0.814197
vt 0.444344 0.824535
vt 0.453325 0.715020
vt 0.484590 0.594787
vt 0.616557 0.593669
vt 0.793590 0.424718
vt 0.759135 0.411667
vt 0.854089 0.364441
vt 0.694358 0.316330
vt 0.838867 0.291502
vt 0.860129 0.860061
vt 0.829003 0.836126
vt 0.867637 0.819571
vt 0.119435 0.294780
vt 0.270079 0.329121
vt 0.063501 0.352937
vt 0.184611 0.735609
vt 0.224158 0.777667
vt 0.233365 0.818088
vt 0.262484 0.608607
vt 0.232149 0.688016
vt 0.180035 0.618910
vt 0.753183 0.483729
vt 0.759456 0.593936
vt 0.711888 0.535801
vt 0.647350 0.474102
vt 0.682496 0.522349
vt 0.628616 0.559126
vt 0.659179 0.584036
vt 0.693544 0.608375
vt 0.363250 0.592761
vt 0.356155 0.541494
vt 0.384854 0.566044
vt 0.373140 0.653865
vt 0.689195 0.717444
vt 0.661027 0.761692
vt 0.661782 0.712204
vt 0.353199 0.618302
vt 0.334453 0.592646
vt 0.688345 0.761216
vt 0.661614 0.804599
vt 0.345303 0.648156
vt 0.320777 0.644354
vt 0.340515 0.678722
vt 0.312483 0.697295
vt 0.689195 0.831251
vt 0.662009 0.842562
vt 0.344641 0.693707
vt 0.318584 0.730939
vt 0.350138 0.713455
vt 0.321105 0.772631
vt 0.375900 0.719353
vt 0.386894 0.701204
vt 0.402351 0.757810
vt 0.365727 0.782845
vt 0.652247 0.607715
vt 0.687110 0.665562
vt 0.560330 0.069454
vt 0.490359 0.056556
vt 0.557243 0.004962
vt 0.462900 0.034794
vt 0.628616 0.789382
vt 0.296556 0.704609
vt 0.402351 0.548511
vt 0.414415 0.528432
vt 0.414415 0.569534
vt 0.293793 0.721776
vt 0.828597 0.454943
vt 0.671775 0.665562
vt 0.402351 0.528432
vt 0.694358 0.201489
vt 0.691555 0.224492
vt 0.641122 0.218919
vt 0.684382 0.236986
vt 0.675833 0.253428
vt 0.657981 0.254841
vt 0.611600 0.278943
vt 0.621033 0.246100
vt 0.553596 0.308959
vt 0.901392 0.077497
vt 0.883850 0.027213
vt 0.908117 0.016216
vt 0.596400 0.301860
vt 0.628455 0.302001
vt 0.890676 0.138569
vt 0.874567 0.081371
vt 0.576388 0.325564
vt 0.593793 0.343058
vt 0.554339 0.347308
vt 0.857012 0.187211
vt 0.865287 0.134261
vt 0.554979 0.380528
vt 0.458192 0.439159
vt 0.418857 0.394954
vt 0.233182 0.863745
vt 0.289238 0.818088
vt 0.284184 0.896140
vt 0.246701 0.948471
vt 0.289238 0.976079
vt 0.089297 0.664357
vt 0.053483 0.745457
vt 0.007936 0.663060
vt 0.146269 0.841763
vt 0.180035 0.804562
vt 0.881120 0.199710
vt 0.903304 0.297589
vt 0.180035 0.583708
vt 0.147375 0.726744
vt 0.620656 0.709485
vt 0.628616 0.798493
vt 0.417732 0.249752
vt 0.496096 0.286919
vt 0.820659 0.617127
vt 0.962321 0.457229
vt 0.962321 0.673787
vt 0.360539 0.528432
vt 0.211442 0.441854
vt 0.379979 0.144923
vt 0.289439 0.140440
vt 0.324567 0.000000
vt 0.203643 0.152648
vt 0.130731 0.073990
vt 0.204093 0.030054
vt 0.293793 0.528432
vt 0.253544 0.532437
vt 0.016493 0.194968
vt 0.075218 0.246544
vt 0.000000 0.247637
vt 0.017124 0.298663
vt 0.087157 0.270890
vt 0.792970 0.743466
vt 0.746822 0.733899
vt 0.814450 0.878519
vt 0.823002 0.835566
vt 0.119544 0.178844
vt 0.086853 0.221046
vt 0.127210 0.398604
vt 0.710591 0.258039
vt 0.693544 0.439159
vt 0.688854 0.798374
vt 0.814450 0.495724
vt 0.386276 0.020468
vt 0.417732 0.155906
vt 0.061769 0.128922
vt 0.933538 0.141745
vt 1.000000 0.000000
vt 1.000000 0.203806
vt 0.954898 0.812254
vt 0.914146 0.751808
vt 0.992041 0.673787
vt 0.992041 0.844561
vt 0.737651 0.805255
vt 0.772627 0.780245
vt 0.772627 0.962192
vt 0.724391 0.907791
vt 0.936646 0.252999
vt 0.981573 0.321571
vt 0.764675 0.504969
vt 0.814450 0.507906
vt 0.789719 0.457229
vt 0.293793 0.700431
vt 0.844707 0.794929
vt 0.909715 0.732297
vt 0.914146 0.819571
vt 0.849993 0.673787
vt 0.914146 0.691050
vt 0.814450 0.712633
vt 0.612072 0.139415
vt 0.671680 0.000000
vt 0.694358 0.091678
vt 0.029532 0.596029
vt 0.446768 0.161125
vt 0.417471 0.782845
vt 0.417471 0.863541
vt 0.375585 0.836759
vt 0.905070 0.169463
vt 0.570195 0.259685
vt 0.293793 0.873816
vt 0.332592 0.880723
vt 0.329796 0.946580
vt 0.375585 0.955646
vt 0.342175 0.820287
vt 0.375585 0.782845
vt 0.857012 0.049803
vt 0.762201 0.043271
vt 0.845398 0.000000
vt 0.910331 0.377393
vt 0.860374 0.431349
vt 0.857012 0.374003
vt 0.845111 0.196152
vt 0.860374 0.317520
vt 0.614193 0.520473
vt 0.500531 0.532057
vt 0.528040 0.473360
vt 0.628616 0.493653
vt 0.563655 0.439159
vt 0.752570 0.115898
vt 0.853979 0.111872
vt 0.759839 0.078108
vt 0.417732 0.796981
vt 0.773686 0.775853
vt 0.819715 0.933008
vt 0.856371 0.899583
vt 0.867637 0.937763
vt 0.694358 0.629368
vt 0.645850 0.688706
vt 0.638435 0.847636
vt 0.000000 0.528432
vt 0.857012 0.457229
vt 0.933538 0.000000
vt 0.933538 0.317520
vt 0.209966 0.572946
vt 0.408183 0.348292
vt 0.417732 0.495120
vt 0.718613 0.687922
vt 0.233182 0.907727
vt 0.180035 0.870729
vt 0.233182 0.818088
vt 0.187228 1.000000
vt 0.694358 0.860309
vt 0.917679 0.416817
vt 0.725366 0.164114
vt 0.917679 0.338790
vt 0.608527 0.553721
vt 0.814450 0.780245
vt 0.814590 0.905972
vn 0.4329 0.7883 -0.4373
vn 0.7148 0.6990 0.0219
vn 0.9137 -0.3991 0.0769
vn 0.8693 -0.4284 0.2464
vn -0.1341 0.1088 -0.9850
vn -0.3748 0.7898 -0.4856
vn -0.1288 0.8596 -0.4944
vn -0.8566 0.4158 0.3055
vn 0.1200 0.6745 -0.7284
vn -0.4450 0.3780 -0.8118
vn -0.3537 0.3904 -0.8500
vn -0.6087 0.5138 -0.6045
vn -0.4133 0.1207 -0.9026
vn 0.5354 0.3623 0.7629
vn 0.4975 0.2408 -0.8333
vn -0.0284 -0.0256 0.9993
vn -0.0980 0.4513 -0.8870
vn -0.5443 0.3621 -0.7567
vn 0.0126 0.9097 -0.4150
vn -0.5285 0.1988 -0.8253
vn -0.7783 0.1870 -0.5993
vn 0.0676 0.4544 -0.8882
vn 0.5339 0.8438 -0.0553
vn 0.5455 0.6628 -0.5129
vn 0.2737 0.9481 -0.1621
vn 0.4515 0.7815 -0.4306
vn 0.3177 0.8957 -0.3112
vn 0.1066 0.9009 0.4207
vn 0.3181 0.6013 0.7330
vn -0.2664 0.0375 0.9631
vn 0.1581 0.1717 0.9724
vn 0.0181 0.8848 0.4655
vn -0.1520 0.5571 0.8164
vn -0.4073 0.1118 0.9064
vn -0.0349 0.8861 0.4621
vn -0.2516 0.5561 0.7921
vn -0.1595 0.9623 0.2203
vn -0.4593 0.7112 0.5322
vn -0.6420 0.2081 0.7379
vn -0.2184 0.9737 -0.0644
vn -0.6130 0.7448 0.2636
vn -0.2603 0.9613 -0.0907
vn -0.7532 0.6414 0.1457
vn -0.0451 0.9404 -0.3370
vn 0.2371 0.8574 -0.4567
vn 0.0061 0.9042 -0.4270
vn -0.4001 -0.1318 0.9069
vn -0.6356 -0.6152 0.4664
vn 0.7441 0.6500 0.1540
vn 0.3791 0.4232 0.8229
vn -0.8215 0.5643 0.0816
vn -0.6178 -0.6375 0.4603
vn -0.2568 0.2246 0.9400
vn -0.3497 0.6146 0.7070
vn -0.1103 0.9201 0.3759
vn -0.5659 0.8219 -0.0654
vn -0.2531 0.9366 -0.2424
vn 0.2889 -0.0449 0.9563
vn -0.0419 0.9140 0.4035
vn 0.1520 0.5571 0.8164
vn 0.3594 0.1976 0.9120
vn 0.0220 0.9215 0.3879
vn 0.2547 0.5616 0.7872
vn 0.1482 0.9762 0.1581
vn 0.4619 0.7494 0.4743
vn -0.1924 0.9638 -0.1847
vn -0.5243 0.7039 -0.4792
vn 0.0529 -0.9904 -0.1279
vn 0.0698 -0.8505 -0.5213
vn 0.0699 -0.8651 -0.4967
vn 0.0492 -0.8803 -0.4718
vn 0.6402 0.2445 0.7283
vn 0.2023 -0.7657 0.6106
vn -0.0615 -0.9734 -0.2205
vn 0.3494 -0.6354 0.6886
vn -0.2998 -0.8587 0.4156
vn 0.9063 -0.3673 0.2090
vn -0.7621 -0.6169 0.1968
vn 0.2085 -0.2590 0.9431
vn -0.3301 -0.4060 0.8522
vn -0.2209 -0.1534 0.9632
vn -0.0834 -0.0109 0.9965
vn 0.7066 -0.6464 0.2879
vn 0.0287 -0.0192 0.9994
vn 0.0065 0.4613 0.8872
vn 0.0001 -0.0517 0.9987
vn -0.0235 -0.0468 0.9986
vn 0.2885 0.4699 0.8342
vn 0.4380 0.0782 -0.8956
vn -0.2339 0.5235 0.8193
vn -0.2254 0.2642 0.9377
vn -0.8113 -0.5535 0.1884
vn -0.4037 -0.4357 -0.8045
vn -0.0855 -0.9944 -0.0618
vn 0.6165 -0.7626 0.1961
vn -0.0135 0.0364 -0.9992
vn 0.0020 0.0162 -0.9999
vn 0.0055 0.0114 -0.9999
vn 0.0000 0.0121 -0.9999
vn -0.0152 -0.0250 -0.9996
vn -0.0264 0.1490 -0.9885
vn -0.0548 0.4268 -0.9027
vn 0.1494 0.3507 -0.9245
vn -0.0209 0.1029 -0.9945
vn -0.0141 0.3858 -0.9225
vn -0.0431 0.8836 -0.4662
vn 0.0135 0.8485 -0.5291
vn -0.0908 0.8740 0.4773
vn -0.0670 0.8684 0.4913
vn -0.0872 0.8753 0.4756
vn -0.0184 0.8460 0.5328
vn -0.0423 0.8580 0.5119
vn 0.4835 -0.8714 0.0834
vn 0.0960 0.9926 0.0746
vn 0.0416 0.9922 0.1177
vn 0.2169 0.8302 0.5136
vn -0.0890 0.9908 0.1017
vn 0.0024 -0.9975 -0.0712
vn -0.0732 -0.9232 -0.3773
vn 0.0526 -0.8889 -0.4551
vn 0.0027 -0.9501 -0.3118
vn 0.3819 0.3481 -0.8562
vn -0.1744 -0.3826 -0.9073
vn -0.0147 0.4933 -0.8697
vn 0.1649 -0.3896 -0.9061
vn -0.0008 -0.3926 -0.9197
vn 0.1183 0.0093 -0.9929
vn 0.1304 0.1682 -0.9771
vn -0.2193 -0.0228 -0.9754
vn 0.0487 -0.0754 -0.9960
usemtl body
s 1
f 24/1/1 27/2/2 21/3/3
f 21/3/3 22/4/4 48/5/5
f 73/6/6 75/7/7 4/8/8
f 49/9/9 5/10/10 4/8/8
f 45/11/11 94/12/12 46/13/13
f 50/14/14 9/15/15 10/16/16
f 92/17/17 20/18/18 25/19/19
f 93/20/20 19/21/21 48/22/5
f 49/23/9 9/24/15 39/25/22
f 49/9/9 4/8/8 75/7/7
f 55/26/23 29/27/24 54/28/25
f 76/29/26 29/27/24 77/30/27
f 56/31/28 57/32/29 55/33/23
f 55/33/23 54/34/25 56/31/28
f 57/35/29 61/36/30 58/37/31
f 56/31/28 54/34/25 59/38/32
f 56/31/28 60/39/33 57/32/29
f 60/40/33 64/41/34 61/36/30
f 59/38/32 54/34/25 62/42/35
f 59/38/32 63/43/36 60/39/33
f 62/42/35 54/34/25 65/44/37
f 63/43/36 65/44/37 66/45/38
f 64/41/34 66/46/38 67/47/39
f 66/45/38 68/48/40 69/49/41
f 65/44/37 54/34/25 68/48/40
f 69/49/41 70/50/42 71/51/43
f 68/48/40 54/34/25 70/50/42
f 70/50/42 54/34/25 72/52/44
f 72/52/44 54/34/25 74/53/45
f 72/52/44 75/54/7 73/55/6
f 74/56/45 54/28/25 76/29/26
f 74/56/45 77/30/27 75/57/7
f 76/29/26 54/28/25 29/27/24
f 77/58/27 3/59/46 75/60/7
f 49/61/9 75/60/7 3/59/46
f 2/62/47 61/36/30 64/41/34
f 66/45/38 69/49/41 67/63/39
f 67/64/39 69/65/41 30/66/48
f 69/49/41 71/51/43 30/67/48
f 71/51/43 72/52/44 73/55/6
f 4/8/8 71/68/43 73/6/6
f 28/69/49 57/35/29 58/37/31
f 28/70/49 55/33/23 57/32/29
f 58/71/31 1/72/50 28/73/49
f 28/73/51 33/74/52 82/75/53
f 82/75/53 81/76/54 28/73/51
f 80/77/55 79/78/56 81/76/54
f 79/78/56 80/77/55 78/79/57
f 85/80/58 81/81/54 82/82/53
f 80/77/55 83/83/59 78/79/57
f 84/84/60 80/77/55 81/76/54
f 88/85/61 84/86/60 85/80/58
f 83/83/59 86/87/62 78/79/57
f 87/88/63 83/83/59 84/84/60
f 86/87/62 89/89/64 78/79/57
f 87/88/63 89/89/64 86/87/62
f 88/85/61 90/90/65 87/91/63
f 89/89/64 90/92/65 27/93/2
f 78/79/57 89/89/64 24/94/1
f 78/95/57 35/96/66 37/97/67
f 79/98/56 37/97/67 28/99/51
f 79/78/56 28/73/51 81/76/54
f 32/100/68 2/101/69 30/102/48
f 1/103/70 2/101/69 32/100/68
f 32/100/68 28/104/71 1/103/70
f 24/94/1 89/89/64 27/93/2
f 91/105/72 27/106/2 90/90/65
f 32/100/68 3/107/73 29/108/74
f 28/104/71 32/100/68 29/108/74
f 24/1/1 92/109/17 25/110/19
f 25/111/19 35/112/66 24/94/1
f 78/79/57 24/94/1 35/112/66
f 34/113/75 25/114/76 23/115/77
f 21/3/3 92/109/17 24/1/1
f 4/116/8 6/117/78 9/15/79
f 92/109/17 21/3/3 48/5/5
f 20/118/80 19/119/81 21/120/3
f 93/121/82 18/122/83 22/123/4
f 48/22/5 19/21/21 92/17/17
f 20/18/18 92/17/17 19/21/21
f 94/124/12 93/20/20 46/125/13
f 14/126/84 52/127/85 12/128/86
f 11/129/87 52/127/85 51/130/88
f 10/16/16 51/130/88 50/14/14
f 50/131/14 42/132/89 9/24/15
f 45/11/11 53/133/90 94/12/12
f 53/133/90 95/134/91 94/12/12
f 14/126/84 95/135/91 53/136/90
f 9/15/79 7/137/92 10/16/93
f 49/9/9 39/138/22 5/10/10
f 55/26/23 28/139/49 29/27/24
f 57/35/29 60/40/33 61/36/30
f 56/31/28 59/38/32 60/39/33
f 60/40/33 63/140/36 64/41/34
f 59/38/32 62/42/35 63/43/36
f 63/43/36 62/42/35 65/44/37
f 64/41/34 63/140/36 66/46/38
f 66/45/38 65/44/37 68/48/40
f 69/49/41 68/48/40 70/50/42
f 72/52/44 74/53/45 75/54/7
f 74/56/45 76/29/26 77/30/27
f 71/51/43 70/50/42 72/52/44
f 85/80/58 84/86/60 81/81/54
f 84/84/60 83/83/59 80/77/55
f 88/85/61 87/91/63 84/86/60
f 87/88/63 86/87/62 83/83/59
f 87/88/63 90/92/65 89/89/64
f 88/85/61 91/105/72 90/90/65
f 79/98/56 78/95/57 37/97/67
f 34/113/75 37/141/94 25/114/76
f 23/142/77 25/143/76 21/120/3
f 25/143/76 20/118/80 21/120/3
f 21/120/3 19/119/81 22/123/4
f 19/119/81 93/121/82 22/123/4
f 14/126/84 53/136/90 52/127/85
f 11/129/87 12/128/86 52/127/85
f 10/16/16 11/129/87 51/130/88
f 14/126/84 15/144/95 95/135/91
usemtl hoodie
f 13/145/96 10/146/97 9/147/15
f 11/148/98 10/149/97 13/150/96
f 13/150/96 12/151/99 11/148/98
f 14/152/100 12/153/99 13/154/96
f 94/155/12 14/152/100 13/154/96
f 16/156/101 13/145/96 9/147/15
f 9/147/15 17/157/102 16/156/101
f 9/24/15 8/158/103 17/159/102
f 8/158/103 3/160/46 17/159/102
f 16/161/101 19/21/104 93/20/20
f 16/162/101 20/163/105 19/164/104
f 26/165/106 25/166/107 20/163/105
f 26/165/106 20/163/105 17/167/102
f 17/167/102 20/163/105 16/162/101
f 28/73/108 29/168/109 1/72/110
f 30/169/111 2/170/112 29/168/109
f 31/171/113 3/107/73 32/100/68
f 29/168/24 3/59/46 77/58/27
f 29/168/114 26/172/106 3/59/46
f 3/173/46 26/174/106 17/175/102
f 29/168/114 28/73/115 26/172/106
f 31/171/113 32/100/68 30/102/48
f 28/73/116 1/72/116 33/74/116
f 29/168/109 2/170/112 1/72/110
f 91/105/72 88/85/61 34/176/75
f 26/172/106 28/73/115 37/177/117
f 37/178/118 38/179/119 28/180/120
f 33/181/52 28/180/120 38/179/119
f 38/179/119 36/182/121 33/181/52
f 34/183/75 33/181/52 36/182/121
f 36/182/121 38/179/119 37/178/118
f 10/184/93 43/185/122 11/186/123
f 44/187/124 14/188/125 12/189/126
f 39/138/22 6/190/78 5/10/10
f 11/191/123 44/187/124 12/189/126
f 46/192/13 18/193/83 15/194/95
f 45/195/11 15/194/95 14/196/125
f 6/190/78 41/197/127 7/198/92
f 18/193/83 48/5/5 22/4/4
f 7/198/92 42/199/89 10/184/93
f 23/200/77 21/3/3 27/2/2
f 8/158/103 9/24/15 49/23/9
f 50/131/14 43/201/122 42/132/89
f 8/158/103 49/23/9 3/160/46
f 51/202/88 44/203/124 43/204/122
f 44/203/124 53/133/90 45/11/11
f 40/205/128 39/25/22 9/24/15
f 1/206/50 61/36/30 2/62/47
f 30/207/48 64/41/34 67/47/39
f 31/171/113 30/102/48 4/208/8
f 30/209/48 71/68/43 4/8/8
f 85/80/58 34/176/75 88/85/61
f 82/82/53 33/210/52 85/80/58
f 34/176/75 85/80/58 33/210/52
f 27/106/2 91/105/72 23/211/77
f 91/105/72 34/176/75 23/211/77
f 25/111/107 26/172/106 37/177/117
f 35/112/66 25/111/19 37/177/67
f 47/212/129 93/20/20 48/22/5
f 4/116/8 3/213/73 31/214/113
f 42/132/89 41/215/127 9/24/15
f 40/205/128 9/24/15 41/215/127
f 47/212/129 46/125/13 93/20/20
f 13/216/96 93/217/20 94/218/12
f 16/219/101 93/217/20 13/216/96
f 18/122/83 95/135/91 15/144/95
f 6/117/78 7/137/92 9/15/79
f 94/155/12 15/220/130 14/152/100
f 10/184/93 42/199/89 43/185/122
f 44/187/124 45/221/11 14/188/125
f 39/138/22 40/222/128 6/190/78
f 11/191/123 43/223/122 44/187/124
f 46/192/13 47/224/129 18/193/83
f 45/195/11 46/192/13 15/194/95
f 6/190/78 40/222/128 41/197/127
f 18/193/83 47/224/129 48/5/5
f 7/198/92 41/197/127 42/199/89
f 50/131/14 51/225/88 43/201/122
f 51/202/88 52/226/85 44/203/124
f 44/203/124 52/226/85 53/133/90
f 1/206/50 58/37/31 61/36/30
f 30/207/48 2/62/47 64/41/34
f 4/116/8 9/15/79 3/213/73
f 18/122/83 93/121/82 95/135/91
